<svg width="199" height="59" viewBox="0 0 199 59" fill="none" xmlns="http://www.w3.org/2000/svg">
<path d="M68.3711 23.0234H70.3633V25.0352V27.0273V29.0195V31.0312V33.0234V35.0156V37.0273V39.0195H68.3711H66.3789V37.0273V35.0156V33.0234H64.3672H62.375H60.3633H58.3711V35.0156V37.0273V39.0195H56.3789H54.3672V37.0273V35.0156V33.0234V31.0312V29.0195V27.0273V25.0352V23.0234H56.3789V21.0312H58.3711V19.0195H60.3633H62.375H64.3672H66.3789V21.0312H68.3711V23.0234ZM66.3984 27.0078V25.0156H64.3867V23.0039H62.3945H60.3828V25.0156H58.3906V27.0078V29H60.3828H62.3945H64.3867H66.3984V27.0078ZM87.1211 21.0117H89.1133V23.0039V25.0156V27.0078H87.1211V29H89.1133V31.0117V33.0039V34.9961V37.0078H87.1211V39H85.1289H83.1172H81.125H79.1133H77.1211H75.1289H73.1172V37.0078V34.9961V33.0039V31.0117V29V27.0078V25.0156V23.0039V21.0117V19H75.1289H77.1211H79.1133H81.125H83.1172H85.1289H87.1211V21.0117ZM85.1289 33.0039V31.0117H83.1172H81.125H79.1133H77.1211V33.0039V34.9961H79.1133H81.125H83.1172H85.1289V33.0039ZM83.1172 27.0078H85.1289V25.0156V23.0039H83.1172H81.125H79.1133H77.1211V25.0156V27.0078H79.1133H81.125H83.1172ZM105.871 21.0312H107.863V23.0234V25.0156V27.0273V29.0195V31.0117V33.0234V35.0156V37.0273H105.871V39.0195H103.879H101.867H99.875H97.8633H95.8711H93.8789V37.0273H91.8672V35.0156V33.0234V31.0117V29.0195V27.0273V25.0156V23.0234V21.0312H93.8789V19.0195H95.8711H97.8633H99.875H101.867H103.879H105.871V21.0312ZM103.879 25.0156V23.0234H101.867H99.875H97.8633H95.8711V25.0156V27.0273V29.0195V31.0117V33.0234V35.0156H97.8633H99.875H101.867H103.879V33.0234V31.0117V29.0195V27.0273V25.0156ZM124.602 19.0195H126.613V21.0312V23.0234V25.0156V27.0273V29.0195V31.0117V33.0234V35.0156V37.0273H124.602V39.0195H122.609H120.598H118.605H116.613H114.602H112.609V37.0273H110.617V35.0156V33.0234V31.0117V29.0195V27.0273V25.0156V23.0234V21.0312V19.0195H112.609H114.602V21.0312V23.0234V25.0156V27.0273V29.0195V31.0117V33.0234V35.0156H116.613H118.605H120.598H122.609V33.0234V31.0117V29.0195V27.0273V25.0156V23.0234V21.0312V19.0195H124.602ZM143.352 19.0195H145.363V21.0312V23.0234V25.0156H143.352V23.0234H141.359H139.367V25.0156V27.0273V29.0195V31.0117V33.0234V35.0156V37.0078V39.0195H137.355H135.363V37.0078V35.0156V33.0234V31.0117V29.0195V27.0273V25.0156V23.0234H133.352H131.359V25.0156H129.367V23.0234V21.0312V19.0195H131.359H133.352H135.363H137.355H139.367H141.359H143.352Z" fill="#62C6CC"/>
<path fill-rule="evenodd" clip-rule="evenodd" d="M182.417 0H16.5833V5.55556H11.0556V11.1111H5.52778V16.6667H0V42.3333H5.52778V47.8889H11.0556V53.4444H16.5833V59H182.417V53.4444H187.944V47.8889H193.472V42.3333H199V16.6667H193.472V11.1111H187.944V5.55556H182.417V0ZM182.417 5.55556V11.1111H187.944V16.6667H193.472V42.3333H187.944V47.8889H182.417V53.4444H16.5833V47.8889H11.0556V42.3333H5.52778V16.6667H11.0556V11.1111H16.5833V5.55556H182.417Z" fill="#62C6CC"/>
</svg>
