<svg width="199" height="56" viewBox="0 0 199 56" fill="none" xmlns="http://www.w3.org/2000/svg">
<path d="M66.9007 2.69141H3V52.6914H66.9007V2.69141Z" fill="#9D5728"/>
<path d="M66.9007 23.3895H61.2013V7.72632H37.552V14.3522H17.5994V25.1926H3V36.0362H20.5568V52.6914H30.165V30.6144H44.206V41.461H54.5536V34.23H66.9007V23.3895Z" fill="#AA5E2B"/>
<path d="M64.3458 30.0652H54.5535V37.8952H64.3458V30.0652Z" fill="#864C25"/>
<path d="M47.101 13.8438H37.3087V21.6738H47.101V13.8438Z" fill="#864C25"/>
<path d="M21.4802 24.9834H11.6879V32.8134H21.4802V24.9834Z" fill="#864C25"/>
<path d="M3 19.2627H66.9007" stroke="#512F17" stroke-width="5.33" stroke-miterlimit="10"/>
<path d="M3 39.0779H66.9007" stroke="#512F17" stroke-width="5.33" stroke-miterlimit="10"/>
<path d="M36.0328 2.69141V19.2624" stroke="#512F17" stroke-width="5.33" stroke-miterlimit="10"/>
<path d="M36.0328 38.2634V52.6913" stroke="#512F17" stroke-width="5.33" stroke-miterlimit="10"/>
<path d="M15.5031 19.5339V38.2636" stroke="#512F17" stroke-width="5.33" stroke-miterlimit="10"/>
<path d="M55.1899 19.5339V38.2636" stroke="#512F17" stroke-width="5.33" stroke-miterlimit="10"/>
<path d="M66.9007 2.69141H3V52.6914H66.9007V2.69141Z" stroke="#512F17" stroke-width="5.33" stroke-miterlimit="10"/>
<path d="M131.413 2.69141H67.5121V52.6914H131.413V2.69141Z" fill="#9D5728"/>
<path d="M131.413 23.3895H125.713V7.72632H102.064V14.3522H82.1116V25.1926H67.5121V36.0362H85.0658V52.6914H94.674V30.6144H108.715V41.461H119.063V34.23H131.413V23.3895Z" fill="#AA5E2B"/>
<path d="M128.855 30.0652H119.063V37.8952H128.855V30.0652Z" fill="#864C25"/>
<path d="M111.61 13.8438H101.818V21.6738H111.61V13.8438Z" fill="#864C25"/>
<path d="M85.9923 24.9834H76.2001V32.8134H85.9923V24.9834Z" fill="#864C25"/>
<path d="M67.5121 19.2627H131.413" stroke="#512F17" stroke-width="5.33" stroke-miterlimit="10"/>
<path d="M67.5121 39.0779H131.413" stroke="#512F17" stroke-width="5.33" stroke-miterlimit="10"/>
<path d="M100.542 2.69141V19.2624" stroke="#512F17" stroke-width="5.33" stroke-miterlimit="10"/>
<path d="M100.542 38.2634V52.6913" stroke="#512F17" stroke-width="5.33" stroke-miterlimit="10"/>
<path d="M80.0121 19.5339V38.2636" stroke="#512F17" stroke-width="5.33" stroke-miterlimit="10"/>
<path d="M119.702 19.5339V38.2636" stroke="#512F17" stroke-width="5.33" stroke-miterlimit="10"/>
<path d="M131.413 2.69141H67.5121V52.6914H131.413V2.69141Z" stroke="#512F17" stroke-width="5.33" stroke-miterlimit="10"/>
<path d="M196.186 2.69141H132.286V52.6914H196.186V2.69141Z" fill="#9D5728"/>
<path d="M196.186 23.3895H190.487V7.72632H166.838V14.3522H146.885V25.1926H132.286V36.0362H149.839V52.6914H159.448V30.6144H173.489V41.461H183.836V34.23H196.186V23.3895Z" fill="#AA5E2B"/>
<path d="M193.628 30.0652H183.836V37.8952H193.628V30.0652Z" fill="#864C25"/>
<path d="M176.384 13.8438H166.591V21.6738H176.384V13.8438Z" fill="#864C25"/>
<path d="M150.766 24.9834H140.974V32.8134H150.766V24.9834Z" fill="#864C25"/>
<path d="M132.286 19.2627H196.186" stroke="#512F17" stroke-width="5.33" stroke-miterlimit="10"/>
<path d="M132.286 39.0779H196.186" stroke="#512F17" stroke-width="5.33" stroke-miterlimit="10"/>
<path d="M165.315 2.69141V19.2624" stroke="#512F17" stroke-width="5.33" stroke-miterlimit="10"/>
<path d="M165.315 38.2634V52.6913" stroke="#512F17" stroke-width="5.33" stroke-miterlimit="10"/>
<path d="M144.786 19.5339V38.2636" stroke="#512F17" stroke-width="5.33" stroke-miterlimit="10"/>
<path d="M184.476 19.5339V38.2636" stroke="#512F17" stroke-width="5.33" stroke-miterlimit="10"/>
<path d="M196.186 2.69141H132.286V52.6914H196.186V2.69141Z" stroke="#512F17" stroke-width="5.33" stroke-miterlimit="10"/>
</svg>
