<svg width="156" height="59" viewBox="0 0 156 59" fill="none" xmlns="http://www.w3.org/2000/svg">
<path d="M64.3516 19H66.3633V21.0117V23.0039H64.3516H62.3594H60.3672H58.3555H56.3633H54.3711V25.0156V27.0078H56.3633H58.3555H60.3672H62.3594H64.3516V29H62.3594V31.0117H60.3672H58.3555H56.3633H54.3711V33.0039V34.9961V37.0078V39H52.3594H50.3672V37.0078V34.9961V33.0039V31.0117V29V27.0078V25.0156V23.0039V21.0117V19H52.3594H54.3711H56.3633H58.3555H60.3672H62.3594H64.3516ZM83.1211 23.0234H85.1133V25.0352V27.0273V29.0195V31.0312V33.0234V35.0156V37.0273V39.0195H83.1211H81.1289V37.0273V35.0156V33.0234H79.1172H77.125H75.1133H73.1211V35.0156V37.0273V39.0195H71.1289H69.1172V37.0273V35.0156V33.0234V31.0312V29.0195V27.0273V25.0352V23.0234H71.1289V21.0312H73.1211V19.0195H75.1133H77.125H79.1172H81.1289V21.0312H83.1211V23.0234ZM81.1484 27.0078V25.0156H79.1367V23.0039H77.1445H75.1328V25.0156H73.1406V27.0078V29H75.1328H77.1445H79.1367H81.1484V27.0078ZM103.863 33.0234H105.855V35.0156V37.0078V39.0195H103.863V37.0078H101.852V39.0195H99.8594H97.8672H95.8555H93.8633H91.8711H89.8594V37.0078H87.8672V35.0156V33.0234V31.0117V29.0195V27.0273V25.0156V23.0234V21.0312H89.8594H91.8711V19.0195H93.8633H95.8555H97.8672H99.8594H101.852V21.0312H103.863V23.0234V25.0156V27.0273V29.0195V31.0117V33.0234ZM93.8633 23.0234H91.8711V25.0156V27.0273V29.0195V31.0117V33.0234V35.0156H93.8633H95.8555H97.8672V33.0234H99.8594V31.0117V29.0195V27.0273V25.0156V23.0234H97.8672H95.8555H93.8633Z" fill="#62C6CC"/>
<path fill-rule="evenodd" clip-rule="evenodd" d="M139.417 0H16.5833V5.55556H11.0556V11.1111H5.52778V16.6667H0V42.3333H5.52778V47.8889H11.0556V53.4444H16.5833V59H139.417V53.4444H144.944V47.8889H150.472V42.3333H156V16.6667H150.472V11.1111H144.944V5.55556H139.417V0ZM139.417 5.55556V11.1111H144.944V16.6667H150.472V42.3333H144.944V47.8889H139.417V53.4444H16.5833V47.8889H11.0556V42.3333H5.52778V16.6667H11.0556V11.1111H16.5833V5.55556H139.417Z" fill="#62C6CC"/>
</svg>
