<svg width="315" height="94" viewBox="0 0 315 94" fill="none" xmlns="http://www.w3.org/2000/svg">
<path d="M102.189 35.5391H104.704V38.0293V40.5195H102.189H99.6992V38.0293H97.209H94.6943H92.2041H89.7139V40.5195V43.0342H92.2041H94.6943H97.209H99.6992H102.189V45.5244H104.704V48.0146V50.5293V53.0195V55.5098H102.189V58.0244H99.6992H97.209H94.6943H92.2041H89.7139H87.1992V55.5098H84.709V53.0195V50.5293H87.1992H89.7139V53.0195H92.2041H94.6943H97.209H99.6992V50.5293V48.0146H97.209H94.6943H92.2041H89.7139V45.5244H87.1992V43.0342H84.709V40.5195V38.0293V35.5391H87.1992V33.0244H89.7139H92.2041H94.6943H97.209H99.6992H102.189V35.5391ZM125.651 33V35.9541V38.0049H123.137H120.646V40.5195V43.0098V45.5V48.0146V50.5049V52.9951H123.137H125.651V58H123.137H120.646H118.156H115.642H113.151H110.637V52.9951H113.151H115.642V50.5049V48.0146V45.5V43.0098V40.5195V38.0049H113.151H110.637V33H113.151H115.642H118.156H120.646H123.137H125.651ZM125.651 33H128.142V35.5146V38.0049H125.651H123.137H120.646H118.156H115.642H113.151H110.661H108.146V35.5146V33H110.661H113.151H115.642H118.156H120.646H123.137H125.651ZM125.651 53.0195H128.142V55.5098V58H125.651H123.137H120.646H118.156H115.642H113.151H110.661H108.146V55.5098V53.0195H110.661H113.151H115.642H118.156H120.646H123.137H125.651ZM149.064 35.5146H151.579V38.0049V40.5195H149.064H146.574V38.0049H144.084H141.569H139.079H136.564V40.5195V43.0098V45.5V48.0146V50.5049V52.9951H139.079H141.569H144.084H146.574V50.5049V48.0146H144.084H141.569H139.079V45.5V43.0098H141.569H144.084H146.574H149.064V45.5H151.579V48.0146V50.5049V52.9951V55.5098H149.064V58H146.574H144.084H141.569H139.079H136.564H134.074V55.5098H131.584V52.9951V50.5049V48.0146V45.5V43.0098V40.5195V38.0049V35.5146H134.074V33H136.564H139.079H141.569H144.084H146.574H149.064V35.5146ZM172.502 33H174.992V35.5146V38.0049V40.5195V43.0098V45.5V48.0146V50.5049V52.9951V55.5098V58H172.502H170.012H167.497H165.007V55.5098H162.517V52.9951V50.5049V48.0146V45.5V43.0098V40.5195V38.0049V35.5146H160.002V38.0049V40.5195V43.0098V45.5V48.0146V50.5049V52.9951V55.5098V58H157.512H155.021V55.5098V52.9951V50.5049V48.0146V45.5V43.0098V40.5195V38.0049V35.5146V33H157.512H160.002H162.517H165.007V35.5146H167.497V38.0049V40.5195V43.0098V45.5V48.0146V50.5049V52.9951V55.5098H170.012V52.9951V50.5049V48.0146V45.5V43.0098V40.5195V38.0049V35.5146V33H172.502ZM204.265 33V35.9541V38.0049H201.75H199.26V40.5195V43.0098V45.5V48.0146V50.5049V52.9951H201.75H204.265V58H201.75H199.26H196.77H194.255H191.765H189.25V52.9951H191.765H194.255V50.5049V48.0146V45.5V43.0098V40.5195V38.0049H191.765H189.25V33H191.765H194.255H196.77H199.26H201.75H204.265ZM204.265 33H206.755V35.5146V38.0049H204.265H201.75H199.26H196.77H194.255H191.765H189.274H186.76V35.5146V33H189.274H191.765H194.255H196.77H199.26H201.75H204.265ZM204.265 53.0195H206.755V55.5098V58H204.265H201.75H199.26H196.77H194.255H191.765H189.274H186.76V55.5098V53.0195H189.274H191.765H194.255H196.77H199.26H201.75H204.265ZM227.678 33H230.168V35.5146V38.0049V40.5195V43.0098V45.5V48.0146V50.5049V52.9951V55.5098V58H227.678H225.188H222.673H220.183V55.5098H217.692V52.9951V50.5049V48.0146V45.5V43.0098V40.5195V38.0049V35.5146H215.178V38.0049V40.5195V43.0098V45.5V48.0146V50.5049V52.9951V55.5098V58H212.688H210.197V55.5098V52.9951V50.5049V48.0146V45.5V43.0098V40.5195V38.0049V35.5146V33H212.688H215.178H217.692H220.183V35.5146H222.673V38.0049V40.5195V43.0098V45.5V48.0146V50.5049V52.9951V55.5098H225.188V52.9951V50.5049V48.0146V45.5V43.0098V40.5195V38.0049V35.5146V33H227.678Z" fill="#A498EE"/>
<path clip-rule="evenodd" d="M288.75 0H26.25V8.85122H17.5V17.7024H8.75V26.5537H0V67.4463H8.75V76.2976H17.5V85.1488H26.25V94H288.75V85.1488H297.5V76.2976H306.25V67.4463H315V26.5537H306.25V17.7024H297.5V8.85122H288.75V0ZM288.75 8.85122V17.7024H297.5V26.5537H306.25V67.4463H297.5V76.2976H288.75V85.1488H26.25V76.2976H17.5V67.4463H8.75V26.5537H17.5V17.7024H26.25V8.85122H288.75Z" fill="#A498EE"/>
</svg>
