<svg width="158" height="73" viewBox="0 0 158 73" fill="none" xmlns="http://www.w3.org/2000/svg">
<rect x="4" y="4" width="150" height="65" fill="#CA582C"/>
<rect x="4" width="150" height="4" fill="#FDDDC4"/>
<rect x="4" y="69" width="150" height="4" fill="#4B2304"/>
<rect y="4" width="4" height="65" fill="#FDDDC4"/>
<rect x="154" y="4" width="4" height="65" fill="#4B2304"/>
<rect x="7" y="13.6667" width="3.33333" height="3.33334" fill="#B0461D"/>
<rect x="13.6666" y="13.6667" width="3.33333" height="3.33334" fill="#B0461D"/>
<rect x="10.3333" y="10.333" width="3.33333" height="3.33334" fill="#4D1E0C"/>
<rect x="7" y="7" width="3.33333" height="3.33334" fill="#B0461D"/>
<rect x="13.6666" y="7" width="3.33333" height="3.33334" fill="#B0461D"/>
<rect x="10.3333" y="13.6667" width="3.33333" height="3.33334" fill="#903B1A"/>
<rect x="7" y="10.333" width="3.33333" height="3.33334" fill="#903B1A"/>
<rect x="13.6666" y="10.333" width="3.33333" height="3.33334" fill="#903B1A"/>
<rect x="10.3333" y="7" width="3.33333" height="3.33334" fill="#903B1A"/>
<rect x="141" y="13.6667" width="3.33333" height="3.33334" fill="#B0461D"/>
<rect x="147.667" y="13.6667" width="3.33333" height="3.33334" fill="#B0461D"/>
<rect x="144.333" y="10.333" width="3.33333" height="3.33334" fill="#4D1E0C"/>
<rect x="141" y="7" width="3.33333" height="3.33334" fill="#B0461D"/>
<rect x="147.667" y="7" width="3.33333" height="3.33334" fill="#B0461D"/>
<rect x="144.333" y="13.6667" width="3.33333" height="3.33334" fill="#903B1A"/>
<rect x="141" y="10.333" width="3.33333" height="3.33334" fill="#903B1A"/>
<rect x="147.667" y="10.333" width="3.33333" height="3.33334" fill="#903B1A"/>
<rect x="144.333" y="7" width="3.33333" height="3.33334" fill="#903B1A"/>
<rect x="7" y="62.6667" width="3.33333" height="3.33334" fill="#B0461D"/>
<rect x="13.6666" y="62.6667" width="3.33333" height="3.33334" fill="#B0461D"/>
<rect x="10.3333" y="59.333" width="3.33333" height="3.33334" fill="#4D1E0C"/>
<rect x="7" y="56" width="3.33333" height="3.33334" fill="#B0461D"/>
<rect x="13.6666" y="56" width="3.33333" height="3.33334" fill="#B0461D"/>
<rect x="10.3333" y="62.6667" width="3.33333" height="3.33334" fill="#903B1A"/>
<rect x="7" y="59.333" width="3.33333" height="3.33334" fill="#903B1A"/>
<rect x="13.6666" y="59.333" width="3.33333" height="3.33334" fill="#903B1A"/>
<rect x="10.3333" y="56" width="3.33333" height="3.33334" fill="#903B1A"/>
<rect x="141" y="62.6667" width="3.33333" height="3.33334" fill="#B0461D"/>
<rect x="147.667" y="62.6667" width="3.33333" height="3.33334" fill="#B0461D"/>
<rect x="144.333" y="59.333" width="3.33333" height="3.33334" fill="#4D1E0C"/>
<rect x="141" y="56" width="3.33333" height="3.33334" fill="#B0461D"/>
<rect x="147.667" y="56" width="3.33333" height="3.33334" fill="#B0461D"/>
<rect x="144.333" y="62.6667" width="3.33333" height="3.33334" fill="#903B1A"/>
<rect x="141" y="59.333" width="3.33333" height="3.33334" fill="#903B1A"/>
<rect x="147.667" y="59.333" width="3.33333" height="3.33334" fill="#903B1A"/>
<rect x="144.333" y="56" width="3.33333" height="3.33334" fill="#903B1A"/>
</svg>
