<svg width="208" height="122" viewBox="0 0 208 122" fill="none" xmlns="http://www.w3.org/2000/svg">
<path d="M151.829 78.708V75.9005H148.529V73.0868H145.228V70.2763V67.4657H141.928V64.6552V61.8415V59.0341V56.2204V53.4099V50.5993V47.7888H138.628V50.5993H135.328V53.4099H132.027H128.727H125.424H122.123H118.823H115.523V50.5993H112.222V47.7888H108.922V44.9782H105.622V47.7888H102.318V50.5993V53.4099H99.0181V56.2204H95.7178V59.0341H92.4175V61.8415H89.1172H85.8169V64.6552H82.5135H79.2132H75.9129H72.6127H69.3124H66.0121H62.7118H59.4115V61.8415H56.1112H52.8109V59.0341H49.5075V56.2204H46.2072V53.4099H42.9069H39.6066V56.2204H36.3063V59.0341H33.006H29.7057H26.4023H23.102H19.8018H16.5015V56.2204H13.2012V53.4099H9.90087V50.5993V47.7888H6.60058V44.9782V42.1677V39.3571V36.5435H3.30029V39.3571V42.1677V44.9782H0V47.7888V50.5993V53.4099V56.2204V59.0341V61.8415H3.30029V64.6552V67.4657V70.2763H6.60058V73.0868V75.9005H9.90087V78.708H13.2012V81.5216H16.5015H19.8018V84.3322H23.102H26.4023H29.7057H33.006H36.3063H39.6066H42.9069H46.2072H49.5075H52.8109H56.1112H59.4115H62.7118H66.0121H69.3124H72.6127H75.9129H79.2132H82.5135H85.8169H89.1172H92.4175H95.7178H99.0181H102.318H105.622H108.922H112.222H115.523H118.823H122.123H125.424H128.727H132.027H135.328H138.628H141.928H145.228H148.529H151.829V81.5216H155.129V78.708H151.829Z" fill="#C1E5F5"/>
<path d="M161.733 53.4098V50.5993V47.7887H158.43V44.9782H155.129V42.1676H151.829V39.3571H148.529H145.228H141.928V36.5434V33.736V30.9223H138.628V28.1117V25.2981V22.4906H135.328V19.677H132.027V16.8664H128.727V14.0559H125.424V11.2453H122.123H118.823H115.523H112.222H108.922H105.622H102.318H99.0181V14.0559H95.7178V11.2453V8.43165H92.4175V5.62422H89.1172H85.817V2.81367H82.5135V0H79.2133H75.913H72.6127H69.3124H66.0121H62.7118V2.81367H59.4115H56.1112V5.62422H52.8109V8.43165H49.5075V11.2453H46.2072V14.0559H42.9069V16.8664V19.677V22.4906H39.6066H36.3063H33.006H29.7058H26.4023H23.102H19.8018V25.2981H16.5015H13.2012V28.1117H9.90087V30.9223H6.60059V33.736V36.5434V39.3571V42.1676V44.9782V47.7887H9.90087V50.5993V53.4098H13.2012V56.2204H16.5015V59.034H19.8018H23.102H26.4023H29.7058H33.006H36.3063V56.2204H39.6066V53.4098H42.9069H46.2072V56.2204H49.5075V59.034H52.8109V61.8415H56.1112H59.4115V64.6552H62.7118H66.0121H69.3124H72.6127H75.913H79.2133H82.5135H85.817V61.8415H89.1172H92.4175V59.034H95.7178V56.2204H99.0181V53.4098H102.318V50.5993V47.7887H105.622V44.9782H108.922V47.7887H112.222V50.5993H115.523V53.4098H118.823H122.123H125.424H128.727H132.027H135.328V50.5993H138.628V47.7887H141.928V50.5993V53.4098V56.2204V59.034V61.8415V64.6552V67.4657H145.228V70.2762V73.0868H148.529V75.9005H151.829V78.7079H155.129V81.5216H158.43V78.7079V75.9005H161.733V73.0868H165.033V70.2762V67.4657V64.6552V61.8415V59.034V56.2204V53.4098H161.733Z" fill="white"/>
<path d="M103.792 74.1316H99.927V77.9967H103.792V74.1316Z" fill="#B57A4A"/>
<path d="M148.901 69H85V119H148.901V69Z" fill="#9D5728"/>
<path d="M148.901 89.6981H143.201V74.0349H119.552V80.6608H99.5994V91.5012H85V102.345H102.557V119H112.165V96.923H126.206V107.77H136.554V100.539H148.901V89.6981Z" fill="#AA5E2B"/>
<path d="M146.346 96.374H136.554V104.204H146.346V96.374Z" fill="#864C25"/>
<path d="M129.101 80.1523H119.309V87.9824H129.101V80.1523Z" fill="#864C25"/>
<path d="M103.48 91.2922H93.688V99.1223H103.48V91.2922Z" fill="#864C25"/>
<path d="M85 85.571H148.901" stroke="#512F17" stroke-width="5.33" stroke-miterlimit="10"/>
<path d="M85 105.386H148.901" stroke="#512F17" stroke-width="5.33" stroke-miterlimit="10"/>
<path d="M118.033 69V85.571" stroke="#512F17" stroke-width="5.33" stroke-miterlimit="10"/>
<path d="M118.033 104.572V119" stroke="#512F17" stroke-width="5.33" stroke-miterlimit="10"/>
<path d="M97.5031 85.8423V104.572" stroke="#512F17" stroke-width="5.33" stroke-miterlimit="10"/>
<path d="M137.19 85.8423V104.572" stroke="#512F17" stroke-width="5.33" stroke-miterlimit="10"/>
<path d="M148.901 69H85V119H148.901V69Z" stroke="#512F17" stroke-width="5.33" stroke-miterlimit="10"/>
<path d="M213.413 69H149.512V119H213.413V69Z" fill="#9D5728"/>
<path d="M213.413 89.6981H207.713V74.0349H184.064V80.6608H164.111V91.5012H149.512V102.345H167.066V119H176.674V96.923H190.715V107.77H201.062V100.539H213.413V89.6981Z" fill="#AA5E2B"/>
<path d="M210.855 96.374H201.062V104.204H210.855V96.374Z" fill="#864C25"/>
<path d="M193.61 80.1523H183.818V87.9824H193.61V80.1523Z" fill="#864C25"/>
<path d="M167.992 91.2922H158.2V99.1223H167.992V91.2922Z" fill="#864C25"/>
<path d="M149.512 85.571H213.413" stroke="#512F17" stroke-width="5.33" stroke-miterlimit="10"/>
<path d="M149.512 105.386H213.413" stroke="#512F17" stroke-width="5.33" stroke-miterlimit="10"/>
<path d="M182.542 69V85.571" stroke="#512F17" stroke-width="5.33" stroke-miterlimit="10"/>
<path d="M182.542 104.572V119" stroke="#512F17" stroke-width="5.33" stroke-miterlimit="10"/>
<path d="M162.012 85.8423V104.572" stroke="#512F17" stroke-width="5.33" stroke-miterlimit="10"/>
<path d="M201.702 85.8423V104.572" stroke="#512F17" stroke-width="5.33" stroke-miterlimit="10"/>
<path d="M213.413 69H149.512V119H213.413V69Z" stroke="#512F17" stroke-width="5.33" stroke-miterlimit="10"/>
</svg>
