<svg width="199" height="169" viewBox="0 0 199 169" fill="none" xmlns="http://www.w3.org/2000/svg">
<path d="M66.9007 115.691H3V165.691H66.9007V115.691Z" fill="#9D5728"/>
<path d="M66.9007 136.39H61.2013V120.726H37.552V127.352H17.5994V138.193H3V149.036H20.5568V165.691H30.165V143.614H44.206V154.461H54.5536V147.23H66.9007V136.39Z" fill="#AA5E2B"/>
<path d="M64.3458 143.065H54.5535V150.895H64.3458V143.065Z" fill="#864C25"/>
<path d="M47.101 126.844H37.3087V134.674H47.101V126.844Z" fill="#864C25"/>
<path d="M21.4802 137.983H11.6879V145.813H21.4802V137.983Z" fill="#864C25"/>
<path d="M3 132.263H66.9007" stroke="#512F17" stroke-width="5.33" stroke-miterlimit="10"/>
<path d="M3 152.078H66.9007" stroke="#512F17" stroke-width="5.33" stroke-miterlimit="10"/>
<path d="M36.0328 115.691V132.262" stroke="#512F17" stroke-width="5.33" stroke-miterlimit="10"/>
<path d="M36.0328 151.263V165.691" stroke="#512F17" stroke-width="5.33" stroke-miterlimit="10"/>
<path d="M15.5031 132.534V151.264" stroke="#512F17" stroke-width="5.33" stroke-miterlimit="10"/>
<path d="M55.1899 132.534V151.264" stroke="#512F17" stroke-width="5.33" stroke-miterlimit="10"/>
<path d="M66.9007 115.691H3V165.691H66.9007V115.691Z" stroke="#512F17" stroke-width="5.33" stroke-miterlimit="10"/>
<path d="M131.413 115.691H67.5121V165.691H131.413V115.691Z" fill="#9D5728"/>
<path d="M131.413 136.39H125.713V120.726H102.064V127.352H82.1116V138.193H67.5121V149.036H85.0658V165.691H94.674V143.614H108.715V154.461H119.063V147.23H131.413V136.39Z" fill="#AA5E2B"/>
<path d="M128.855 143.065H119.063V150.895H128.855V143.065Z" fill="#864C25"/>
<path d="M111.61 126.844H101.818V134.674H111.61V126.844Z" fill="#864C25"/>
<path d="M85.9923 137.983H76.2001V145.813H85.9923V137.983Z" fill="#864C25"/>
<path d="M67.5121 132.263H131.413" stroke="#512F17" stroke-width="5.33" stroke-miterlimit="10"/>
<path d="M67.5121 152.078H131.413" stroke="#512F17" stroke-width="5.33" stroke-miterlimit="10"/>
<path d="M100.542 115.691V132.262" stroke="#512F17" stroke-width="5.33" stroke-miterlimit="10"/>
<path d="M100.542 151.263V165.691" stroke="#512F17" stroke-width="5.33" stroke-miterlimit="10"/>
<path d="M80.0121 132.534V151.264" stroke="#512F17" stroke-width="5.33" stroke-miterlimit="10"/>
<path d="M119.702 132.534V151.264" stroke="#512F17" stroke-width="5.33" stroke-miterlimit="10"/>
<path d="M131.413 115.691H67.5121V165.691H131.413V115.691Z" stroke="#512F17" stroke-width="5.33" stroke-miterlimit="10"/>
<path d="M196.186 115.691H132.286V165.691H196.186V115.691Z" fill="#9D5728"/>
<path d="M196.186 136.39H190.487V120.726H166.838V127.352H146.885V138.193H132.286V149.036H149.839V165.691H159.448V143.614H173.489V154.461H183.836V147.23H196.186V136.39Z" fill="#AA5E2B"/>
<path d="M193.628 143.065H183.836V150.895H193.628V143.065Z" fill="#864C25"/>
<path d="M176.384 126.844H166.591V134.674H176.384V126.844Z" fill="#864C25"/>
<path d="M150.766 137.983H140.974V145.813H150.766V137.983Z" fill="#864C25"/>
<path d="M132.286 132.263H196.186" stroke="#512F17" stroke-width="5.33" stroke-miterlimit="10"/>
<path d="M132.286 152.078H196.186" stroke="#512F17" stroke-width="5.33" stroke-miterlimit="10"/>
<path d="M165.315 115.691V132.262" stroke="#512F17" stroke-width="5.33" stroke-miterlimit="10"/>
<path d="M165.315 151.263V165.691" stroke="#512F17" stroke-width="5.33" stroke-miterlimit="10"/>
<path d="M144.786 132.534V151.264" stroke="#512F17" stroke-width="5.33" stroke-miterlimit="10"/>
<path d="M184.476 132.534V151.264" stroke="#512F17" stroke-width="5.33" stroke-miterlimit="10"/>
<path d="M196.186 115.691H132.286V165.691H196.186V115.691Z" stroke="#512F17" stroke-width="5.33" stroke-miterlimit="10"/>
<path d="M70.6022 31.0581H58.6781V32.9992H54.7035V34.9404H52.7161V38.8226H50.7288V54.3517H52.7161V58.2339H54.7035V60.1751H58.6781V62.1162H70.6022V60.1751H74.5769V58.2339H76.5643V54.3517H78.5516V38.8226H76.5643V34.9404H74.5769V32.9992H70.6022V31.0581Z" fill="#9D5B25"/>
<path d="M66.6276 32.9993H60.6656V34.9404H56.6909V36.8815H54.7035V40.7638H52.7162V52.4106H54.7035V56.2928H56.6909V58.234H60.6656V60.1751H66.6276V58.234H70.6023V56.2928H72.5897V52.4106H74.577V40.7638H72.5897V36.8815H70.6023V34.9404H66.6276V32.9993Z" fill="#F6B210"/>
<path d="M60.6655 34.9404H70.6022V36.8816H72.5896V40.7638H74.5769V52.4106H72.5896V58.234H70.6022V60.1751H60.6655V58.234H58.6781V56.2929H56.6908V52.4106H54.7034V40.7638H56.6908V36.8816H60.6655V34.9404Z" fill="#FFCE00"/>
<path d="M68.6148 36.8816H66.6274V54.3518H60.6654V56.2929H68.6148V36.8816Z" fill="#9D5B25"/>
<path d="M70.6021 58.234V60.1752H66.6274V58.234H70.6021Z" fill="#9D5B25"/>
<path d="M70.6021 58.234V56.2929H74.5768V58.234H70.6021Z" fill="#9D5B25"/>
<path d="M60.6654 36.8816V54.3518H62.6528V38.8227H66.6274V36.8816H60.6654Z" fill="#F6B210"/>
<path d="M140.483 31.0581H128.559V32.9992H124.584V34.9404H122.597V38.8226H120.609V54.3517H122.597V58.2339H124.584V60.1751H128.559V62.1162H140.483V60.1751H144.458V58.2339H146.445V54.3517H148.432V38.8226H146.445V34.9404H144.458V32.9992H140.483V31.0581Z" fill="#9D5B25"/>
<path d="M136.508 32.9993H130.546V34.9404H126.571V36.8815H124.584V40.7638H122.597V52.4106H124.584V56.2928H126.571V58.234H130.546V60.1751H136.508V58.234H140.483V56.2928H142.47V52.4106H144.458V40.7638H142.47V36.8815H140.483V34.9404H136.508V32.9993Z" fill="#F6B210"/>
<path d="M130.546 34.9404H140.483V36.8816H142.47V40.7638H144.458V52.4106H142.47V58.234H140.483V60.1751H130.546V58.234H128.559V56.2929H126.571V52.4106H124.584V40.7638H126.571V36.8816H130.546V34.9404Z" fill="#FFCE00"/>
<path d="M138.496 36.8816H136.508V54.3518H130.546V56.2929H138.496V36.8816Z" fill="#9D5B25"/>
<path d="M140.483 58.234V60.1752H136.508V58.234H140.483Z" fill="#9D5B25"/>
<path d="M140.483 58.234V56.2929H144.458V58.234H140.483Z" fill="#9D5B25"/>
<path d="M130.546 36.8816V54.3518H132.533V38.8227H136.508V36.8816H130.546Z" fill="#F6B210"/>
<path d="M104.766 0H92.842V1.94113H88.8673V3.88226H86.88V7.76452H84.8926V23.2936H86.88V27.1758H88.8673V29.117H92.842V31.0581H104.766V29.117H108.741V27.1758H110.728V23.2936H112.716V7.76452H110.728V3.88226H108.741V1.94113H104.766V0Z" fill="#9D5B25"/>
<path d="M100.791 1.94116H94.8295V3.88229H90.8548V5.82342H88.8674V9.70568H86.8801V21.3525H88.8674V25.2347H90.8548V27.1758H94.8295V29.117H100.791V27.1758H104.766V25.2347H106.754V21.3525H108.741V9.70568H106.754V5.82342H104.766V3.88229H100.791V1.94116Z" fill="#F6B210"/>
<path d="M94.8294 3.88232H104.766V5.82345H106.753V9.70571H108.741V21.3525H106.753V27.1759H104.766V29.117H94.8294V27.1759H92.842V25.2348H90.8547V21.3525H88.8673V9.70571H90.8547V5.82345H94.8294V3.88232Z" fill="#FFCE00"/>
<path d="M102.779 5.82349H100.791V23.2937H94.8293V25.2348H102.779V5.82349Z" fill="#9D5B25"/>
<path d="M104.766 27.1759V29.117H100.791V27.1759H104.766Z" fill="#9D5B25"/>
<path d="M104.766 27.1759V25.2348H108.741V27.1759H104.766Z" fill="#9D5B25"/>
<path d="M94.8293 5.82349V23.2937H96.8166V7.76462H100.791V5.82349H94.8293Z" fill="#F6B210"/>
<path d="M41.8735 62.1162H29.9494V64.0573H25.9747V65.9985H23.9873V69.8807H22V85.4098H23.9873V89.292H25.9747V91.2332H29.9494V93.1743H41.8735V91.2332H45.8482V89.292H47.8355V85.4098H49.8229V69.8807H47.8355V65.9985H45.8482V64.0573H41.8735V62.1162Z" fill="#9D5B25"/>
<path d="M37.8989 64.0574H31.9368V65.9985H27.9621V67.9396H25.9748V71.8219H23.9874V83.4687H25.9748V87.3509H27.9621V89.2921H31.9368V91.2332H37.8989V89.2921H41.8736V87.3509H43.8609V83.4687H45.8482V71.8219H43.8609V67.9396H41.8736V65.9985H37.8989V64.0574Z" fill="#F6B210"/>
<path d="M31.9367 65.9985H41.8735V67.9397H43.8608V71.8219H45.8481V83.4687H43.8608V89.2921H41.8735V91.2332H31.9367V89.2921H29.9494V87.351H27.962V83.4687H25.9747V71.8219H27.962V67.9397H31.9367V65.9985Z" fill="#FFCE00"/>
<path d="M39.8861 67.9395H37.8987V85.4096H31.9367V87.3508H39.8861V67.9395Z" fill="#9D5B25"/>
<path d="M41.8734 89.2919V91.233H37.8987V89.2919H41.8734Z" fill="#9D5B25"/>
<path d="M41.8734 89.2919V87.3508H45.8481V89.2919H41.8734Z" fill="#9D5B25"/>
<path d="M31.9367 67.9395V85.4096H33.9241V69.8806H37.8987V67.9395H31.9367Z" fill="#F6B210"/>
<path d="M168.435 62.1162H156.511V64.0573H152.536V65.9985H150.549V69.8807H148.562V85.4098H150.549V89.292H152.536V91.2332H156.511V93.1743H168.435V91.2332H172.41V89.292H174.397V85.4098H176.385V69.8807H174.397V65.9985H172.41V64.0573H168.435V62.1162Z" fill="#9D5B25"/>
<path d="M164.461 64.0574H158.499V65.9985H154.524V67.9396H152.536V71.8219H150.549V83.4687H152.536V87.3509H154.524V89.2921H158.499V91.2332H164.461V89.2921H168.435V87.3509H170.423V83.4687H172.41V71.8219H170.423V67.9396H168.435V65.9985H164.461V64.0574Z" fill="#F6B210"/>
<path d="M158.498 65.9985H168.435V67.9397H170.423V71.8219H172.41V83.4687H170.423V89.2921H168.435V91.2332H158.498V89.2921H156.511V87.351H154.524V83.4687H152.536V71.8219H154.524V67.9397H158.498V65.9985Z" fill="#FFCE00"/>
<path d="M166.448 67.9395H164.46V85.4096H158.498V87.3508H166.448V67.9395Z" fill="#9D5B25"/>
<path d="M168.435 89.2919V91.233H164.46V89.2919H168.435Z" fill="#9D5B25"/>
<path d="M168.435 89.2919V87.3508H172.41V89.2919H168.435Z" fill="#9D5B25"/>
<path d="M158.498 67.9395V85.4096H160.486V69.8806H164.46V67.9395H158.498Z" fill="#F6B210"/>
</svg>
