<svg width="114" height="54" viewBox="0 0 114 54" fill="none" xmlns="http://www.w3.org/2000/svg">
<path d="M113.562 2H64.785V52H113.562V2Z" fill="#B57A4A"/>
<path d="M108.325 7.3667H70.0223V46.6278H108.325V7.3667Z" fill="#FFCE00"/>
<path d="M75.1712 42.7305H71.3771V46.6628H75.1712V42.7305Z" fill="#F6B210"/>
<path d="M104.846 7.3667V11.299H101.051V15.2254H97.2572V19.1547H93.4631V23.087H89.6689V27.0164H85.8748V30.9428H82.0806V34.8751H78.2865V38.8044H74.4923V42.7308V46.6631H78.2865H82.0806H85.8748H89.6689H93.4631H97.2572H101.051H104.846H108.64V42.7308V38.8044V34.8751V30.9428V27.0164V23.087V19.1547V15.2254V11.299V7.3667H104.846Z" fill="#F6B210"/>
<path d="M71.6446 8.16577H68.0033V11.8071H71.6446V8.16577Z" fill="#B57A4A"/>
<path d="M71.6446 5.45654H68.0033V11.8076H71.6446V5.45654Z" fill="#B57A4A"/>
<path d="M75.0303 4.98877H71.3889V8.63011H75.0303V4.98877Z" fill="#B57A4A"/>
<path d="M110.259 5.22412H106.618V11.5752H110.259V5.22412Z" fill="#B57A4A"/>
<path d="M106.871 4.75684H103.229V8.39817H106.871V4.75684Z" fill="#B57A4A"/>
<path d="M71.6856 41.949H68.0443V48.3H71.6856V41.949Z" fill="#B57A4A"/>
<path d="M75.0742 45.1255H71.4329V48.7668H75.0742V45.1255Z" fill="#B57A4A"/>
<path d="M110.3 42.1836H106.659V48.5346H110.3V42.1836Z" fill="#B57A4A"/>
<path d="M106.915 45.3579H103.273V48.9992H106.915V45.3579Z" fill="#B57A4A"/>
<path d="M78.2806 21.4588V17.8322H81.9073V21.4588H78.2806ZM85.5398 35.986V28.7268H89.1723V25.0943H92.8019V17.8351H81.9073V14.2026H96.4344V17.8351H100.067V25.0943H96.4344V28.7268H92.8019V35.986H85.5398ZM85.5398 43.2481V39.6214H92.8019V43.2481H85.5398Z" fill="#9D6B40"/>
<path d="M63.201 3.33105H3V50.4362H63.201V3.33105Z" fill="#9D5728"/>
<path d="M63.201 22.8311H57.8316V8.07471H35.5516V14.317H16.7542V24.5298H3V34.7455H19.5403V50.4364H28.5922V29.6376H41.8203V39.8563H51.5687V33.0439H63.201V22.8311Z" fill="#AA5E2B"/>
<path d="M60.794 29.1204H51.5687V36.4971H60.794V29.1204Z" fill="#864C25"/>
<path d="M44.5477 13.8379H35.3224V21.2146H44.5477V13.8379Z" fill="#864C25"/>
<path d="M20.4102 24.333H11.1849V31.7097H20.4102V24.333Z" fill="#864C25"/>
<path d="M3 18.9429H63.201" stroke="#512F17" stroke-width="5.33" stroke-miterlimit="10"/>
<path d="M3 37.6108H63.201" stroke="#512F17" stroke-width="5.33" stroke-miterlimit="10"/>
<path d="M34.1204 3.33105V18.9427" stroke="#512F17" stroke-width="5.33" stroke-miterlimit="10"/>
<path d="M34.1204 36.844V50.4365" stroke="#512F17" stroke-width="5.33" stroke-miterlimit="10"/>
<path d="M14.7792 19.1985V36.8438" stroke="#512F17" stroke-width="5.33" stroke-miterlimit="10"/>
<path d="M52.1683 19.1985V36.8438" stroke="#512F17" stroke-width="5.33" stroke-miterlimit="10"/>
<path d="M63.201 3.33105H3V50.4362H63.201V3.33105Z" stroke="#512F17" stroke-width="5.33" stroke-miterlimit="10"/>
</svg>
