<svg width="686" height="60" viewBox="0 0 686 60" fill="none" xmlns="http://www.w3.org/2000/svg">
<path d="M68.3452 56H67.031V58.6677H68.3452V56Z" fill="#5C944A"/>
<path d="M72.2907 53.3354H70.9765V56.0001H72.2907V53.3354Z" fill="#5C944A"/>
<path d="M35.4883 34.6677H34.1741V37.3354H35.4883V34.6677Z" fill="#A3C254"/>
<path d="M3.94247 29.3325H2.62831V32.0002H3.94247V29.3325Z" fill="#5C944A"/>
<path d="M77.5473 26.6675H76.2332V29.3321H77.5473V26.6675Z" fill="#5C944A"/>
<path d="M70.9735 24H69.6593V26.6677H70.9735V24Z" fill="#4E885B"/>
<path d="M11.8304 24H10.5163V26.6677H11.8304V24Z" fill="#A3C254"/>
<path d="M7.88796 21.3352H6.57381V23.9999H7.88796V21.3352Z" fill="#5C944A"/>
<path d="M3.94247 42.6675H7.88796V45.3321H5.25965V53.3352H6.57381V55.9998H9.19909V58.6675H18.4012V58.7583H61.7744V58.6675H67.031V55.9998H56.5178V53.3352H53.8864V50.6675H52.5753V47.9998H51.2612V53.3352H48.6298V55.9998H38.1166V53.3352H35.4883V50.6675H34.1741V47.9998H21.0295V45.3321H18.4012V42.6675H15.7729V34.6675H11.8304V31.9998H7.88796V29.3321H6.57381V26.6675H5.25965V29.3321H3.94247V31.9998H2.62831V39.9998H3.94247V42.6675Z" fill="#5C944A"/>
<path d="M40.7449 48H39.4307V50.6677H40.7449H42.059H43.3732V48H42.059H40.7449Z" fill="#5C944A"/>
<path d="M18.4012 34.6674V31.9998H17.0871H15.7729V34.6674H17.0871H18.4012Z" fill="#5C944A"/>
<path d="M51.2612 32.0002H52.5753H53.8895H55.2036H56.5178H57.8319H59.1461H60.4603H61.7744H63.0886V29.3325H61.7744H60.4603H59.1461H57.8319H56.5178H55.2036H53.8895H52.5753H51.2612H49.947V32.0002H51.2612Z" fill="#5C944A"/>
<path d="M27.6033 23.9999H28.9175H30.2316H31.5458H32.86H34.1741H35.4883H36.8024H38.1166H39.4307H40.7449V21.3352H39.4307H38.1166H36.8024H35.4883H34.1741H32.86H31.5458H30.2316H28.9175H27.6033H26.2861V23.9999H27.6033Z" fill="#5C944A"/>
<path d="M64.4027 42.6677H63.0886H61.7744V45.3324V48H63.0886H64.4027H65.7169V45.3324V42.6677H64.4027Z" fill="#A3C254"/>
<path d="M22.3437 42.6677H21.0295V45.3324V48H22.3437H23.6609H24.972V45.3324V42.6677H23.6609H22.3437Z" fill="#A3C254"/>
<path d="M35.4883 31.9998H34.1741V34.6674H35.4883V37.3351H36.8024H38.1166V34.6674V31.9998H36.8024H35.4883Z" fill="#A3C254"/>
<path d="M49.947 16H48.6298V18.6677H49.947H51.2612H52.5753V16H51.2612H49.947Z" fill="#A3C254"/>
<path d="M10.5133 16H9.1991V18.6647H10.5133V16Z" fill="#5C944A"/>
<path d="M55.2036 10.6677H53.8895V13.3324H55.2036V10.6677Z" fill="#A3C254"/>
<path d="M15.7729 10.6677H14.4587V13.3324H15.7729V10.6677Z" fill="#4F875C"/>
<path d="M21.0295 7.99976H19.7154V10.6674H21.0295V7.99976Z" fill="#5C944A"/>
<path d="M74.919 29.3324V26.6677H69.6624V16.0001H68.3482V13.3324H65.7169V10.6677H55.2036V13.3324H53.8895V10.6677H55.2036V8.00008H53.8895V5.33239H51.2612V2.66772H39.4307V5.33239H38.1166V2.66772H30.2316V5.33239H26.2892V8.00008H24.975V13.3324H22.3467V10.6677H15.7759V13.3324H11.8335V16.0001H10.5193V18.6647H9.20515V23.997H11.8365V26.6647H6.57986V29.3294H7.89402V31.9971H11.8365V34.6617H15.779V31.9971H18.4073V34.6617H15.779V42.6617H18.4073V45.3263H21.0356V42.6617H24.978V47.994H34.1802V50.6587H35.4943V53.3263H38.1226V55.991H48.6359V53.3263H51.2672V47.994H52.5814V50.6587H53.8955V53.3263H56.5238V55.991H70.9796V53.3263H73.6109V45.3233H72.2967V42.6587H73.6109V39.991H76.2392V29.3233H74.925L74.919 29.3324ZM49.947 29.3324H63.0916V32H49.947V29.3324ZM34.1741 34.6647V32H38.1166V37.3324H34.1741V34.6647ZM28.9175 21.3324H40.7449V23.997H26.2861V21.3324H28.9175ZM61.7744 45.3293V42.6647H65.7169V47.997H61.7744V45.3293ZM52.5723 18.6617H48.6298V15.997H52.5723V18.6617ZM39.4307 47.997H43.3732V50.6617H39.4307V47.997Z" fill="#A3C254"/>
<path d="M78.8615 37.3356V34.6679V32.0002V29.3325H77.5473H76.2332V32.0002V34.6679V37.3356H77.5473V34.6679V32.0002V34.6679V37.3356H76.2332V40.0002H77.5473H78.8615V37.3356Z" fill="#5C944A"/>
<path d="M49.947 0H48.6298H47.3157H46.0045H44.6873H43.3732H42.059H40.7449H39.4307V2.66766H40.7449H42.059H43.3732H44.6873H46.0045H47.3157H48.6298H49.947H51.2612V0H49.947Z" fill="#5C944A"/>
<path d="M9.19909 58.6677V58.7585H17.0871V58.6677H10.5163H9.19909V56H6.57381V58.6677H9.19909Z" fill="#5C944A"/>
<path d="M64.4027 58.6677H61.7744V58.7586H64.4027V58.6677Z" fill="#5C944A"/>
<path d="M68.3482 56V58.6677H69.6593H70.9735V56H69.6593H68.3482Z" fill="#5C944A"/>
<path d="M5.25965 53.3354V50.6677V48V45.3324H6.57381H7.88796V42.6677H6.57381H5.25965H3.94247V45.3324H2.62831V48V50.6677V53.3354H3.94247V56H5.25965H6.57381V53.3354H5.25965Z" fill="#5C944A"/>
<path d="M73.6048 40.0002V42.6679H72.2907V45.3326H73.6048V48.0003V50.6679V53.3356H72.2907V56.0002H73.6048H74.919V53.3356H76.2332V50.6679V48.0003V45.3326H74.919V42.6679H76.2332V40.0002H74.919H73.6048Z" fill="#5C944A"/>
<path d="M2.62831 40.0002V37.3356V34.6679V32.0002V29.3325H1.31416V32.0002H0V34.6679V37.3356V40.0002H1.31416V42.6679H2.62831H3.94247V40.0002H2.62831Z" fill="#5C944A"/>
<path d="M76.2331 26.6675H74.919V29.3321H76.2331V26.6675Z" fill="#5C944A"/>
<path d="M5.25965 29.3323V26.6677H6.57381H7.88796H9.19909H10.5163V24H9.19909V21.3353V18.6677V16H7.88796V18.6677H6.57381V21.3353H7.88796V24H6.57381H5.25965V26.6677H3.94247H2.62831V29.3323H3.94247H5.25965Z" fill="#5C944A"/>
<path d="M73.6049 24H72.2907H70.9735V26.6677H72.2907H73.6049H74.919V24H73.6049Z" fill="#5C944A"/>
<path d="M72.2907 21.3354V18.6677H70.9735V16V13.3324H69.6593V10.6677H68.3482H67.031H65.7169V13.3324H67.031H68.3482V16H69.6593V18.6677V21.3354V24.0001H70.9735V21.3354H72.2907Z" fill="#5C944A"/>
<path d="M11.8304 15.9999V13.3323H10.5163H9.1991V15.9999H10.5163H11.8304Z" fill="#5C944A"/>
<path d="M14.4587 13.3324V10.6677H13.1446H11.8304V13.3324H13.1446H14.4587Z" fill="#5C944A"/>
<path d="M64.4027 8.00008H63.0886H61.7744H60.4602H59.1461H57.8319H56.5178V5.33239H55.2036V2.66772H53.8895H52.5753H51.2612V5.33239H52.5753H53.8895V8.00008H55.2036V10.6677H56.5178H57.8319H59.1461H60.4602H61.7744H63.0886H64.4027H65.7169V8.00008H64.4027Z" fill="#5C944A"/>
<path d="M17.0871 7.99976H15.7729V10.6674H17.0871H18.4012H19.7154V7.99976H18.4012H17.0871Z" fill="#5C944A"/>
<path d="M39.4307 2.66772H38.1166V5.33239H39.4307V2.66772Z" fill="#5C944A"/>
<path d="M27.6033 2.66772H26.2861H24.972V5.33239H23.6609V8.00008H22.3437V10.6677V13.3324H23.6609H24.972V10.6677V8.00008H26.2861V5.33239H27.6033H28.9175H30.2316V2.66772H28.9175H27.6033Z" fill="#5C944A"/>
<path d="M34.1741 2.66766H35.4883H36.8024V0H35.4883H34.1741H32.86H31.5428V2.66766H32.86H34.1741Z" fill="#5C944A"/>
<path d="M506.695 57.2415H505.381V59.9091H506.695V57.2415Z" fill="#5C944A"/>
<path d="M510.64 54.5769H509.326V57.2416H510.64V54.5769Z" fill="#5C944A"/>
<path d="M473.838 35.9092H472.524V38.5769H473.838V35.9092Z" fill="#A3C254"/>
<path d="M442.295 30.574H440.981V33.2417H442.295V30.574Z" fill="#5C944A"/>
<path d="M515.897 27.9094H514.583V30.574H515.897V27.9094Z" fill="#5C944A"/>
<path d="M509.326 25.2415H508.012V27.9091H509.326V25.2415Z" fill="#4E885B"/>
<path d="M450.18 25.2415H448.866V27.9091H450.18V25.2415Z" fill="#A3C254"/>
<path d="M446.238 22.5737H444.924V25.2414H446.238V22.5737Z" fill="#5C944A"/>
<path d="M442.295 43.9094H446.238V46.574H443.606V54.5771H444.924V57.2417H447.552V59.9094H456.751V60.0003H500.124V59.9094H505.381V57.2417H494.868V54.5771H492.239V51.9094H490.925V49.2448H489.611V54.5771H486.983V57.2417H476.466V54.5771H473.838V51.9094H472.524V49.2448H459.379V46.574H456.751V43.9094H454.123V35.9094H450.18V33.2448H446.238V30.574H444.924V27.9094H443.606V30.574H442.295V33.2448H440.981V41.2417H442.295V43.9094Z" fill="#5C944A"/>
<path d="M479.095 49.2446H477.78V51.9093H479.095H480.409H481.723V49.2446H480.409H479.095Z" fill="#5C944A"/>
<path d="M456.751 35.909V33.2444H455.437H454.123V35.909H455.437H456.751Z" fill="#5C944A"/>
<path d="M489.611 33.2447H490.925H492.239H493.553H494.867H496.182H497.496H498.81H500.124H501.438V30.574H500.124H498.81H497.496H496.182H494.867H493.553H492.239H490.925H489.611H488.294V33.2447H489.611Z" fill="#5C944A"/>
<path d="M465.95 25.2414H467.267H468.581H469.896H471.21H472.524H473.838H475.152H476.466H477.78H479.095V22.5737H477.78H476.466H475.152H473.838H472.524H471.21H469.896H468.581H467.267H465.95H464.639V25.2414H465.95Z" fill="#5C944A"/>
<path d="M502.755 43.9092H501.438H500.124V46.5738V49.2445H501.438H502.755H504.067V46.5738V43.9092H502.755Z" fill="#A3C254"/>
<path d="M460.693 43.9092H459.379V46.5738V49.2445H460.693H462.008H463.325V46.5738V43.9092H462.008H460.693Z" fill="#A3C254"/>
<path d="M473.838 33.2444H472.524V35.909H473.838V38.5767H475.152H476.466V35.909V33.2444H475.152H473.838Z" fill="#A3C254"/>
<path d="M488.294 17.2415H486.982V19.9091H488.294H489.611H490.925V17.2415H489.611H488.294Z" fill="#A3C254"/>
<path d="M448.866 17.2415H447.552V19.9091H448.866V17.2415Z" fill="#5C944A"/>
<path d="M493.553 11.9062H492.239V14.5739H493.553V11.9062Z" fill="#A3C254"/>
<path d="M454.123 11.9062H452.808V14.5739H454.123V11.9062Z" fill="#4F875C"/>
<path d="M459.379 9.24146H458.065V11.9061H459.379V9.24146Z" fill="#5C944A"/>
<path d="M513.269 30.574V27.9094H508.012V17.2387H506.698V14.5741H504.07V11.9064H493.556V14.5741H492.242V11.9064H493.556V9.24174H492.242V6.57405H489.614V3.90942H477.783V6.57405H476.469V3.90942H468.584V6.57405H464.642V9.24174H463.328V14.5741H460.696V11.9064H454.126V14.5741H450.183V17.2387H448.869V19.9064H447.555V25.2387H450.183V27.9064H444.926V30.571H446.241V33.2387H450.183V35.9033H454.126V33.2387H456.754V35.9033H454.126V43.9033H456.754V46.568H459.382V43.9033H463.325V49.2357H472.524V51.9003H473.838V54.568H476.466V57.2326H486.979V54.568H489.608V49.2357H490.922V51.9003H492.236V54.568H494.864V57.2326H509.323V54.568H511.951V46.568H510.637V43.9033H511.951V41.2357H514.58V30.568H513.266L513.269 30.574ZM488.294 30.574H501.438V33.2417H488.294V30.574ZM472.521 35.9064V33.2417H476.463V38.5741H472.521V35.9064ZM467.264 22.571H479.095V25.2387H464.636V22.571H467.264ZM500.121 46.571V43.9064H504.063V49.2387H500.121V46.571ZM490.922 19.9033H486.979V17.2357H490.922V19.9033ZM477.777 49.2387H481.72V51.9034H477.777V49.2387Z" fill="#A3C254"/>
<path d="M517.211 38.577V35.9093V33.2447V30.574H515.897H514.583V33.2447V35.9093V38.577H515.897V35.9093V33.2447V35.9093V38.577H514.583V41.2416H515.897H517.211V38.577Z" fill="#5C944A"/>
<path d="M488.294 1.24146H486.982H485.668H484.351H483.037H481.723H480.409H479.095H477.78V3.90915H479.095H480.409H481.723H483.037H484.351H485.668H486.982H488.294H489.611V1.24146H488.294Z" fill="#5C944A"/>
<path d="M447.552 59.9091V60H455.437V59.9091H448.866H447.552V57.2415H444.924V59.9091H447.552Z" fill="#5C944A"/>
<path d="M502.755 59.9092H500.124V60H502.755V59.9092Z" fill="#5C944A"/>
<path d="M506.695 57.2415V59.9091H508.012H509.326V57.2415H508.012H506.695Z" fill="#5C944A"/>
<path d="M443.606 54.5768V51.9092V49.2445V46.5738H444.924H446.238V43.9092H444.924H443.606H442.295V46.5738H440.981V49.2445V51.9092V54.5768H442.295V57.2415H443.606H444.924V54.5768H443.606Z" fill="#5C944A"/>
<path d="M511.955 41.2415V43.9091H510.64V46.5738H511.955V49.2445V51.9091V54.5768H510.64V57.2415H511.955H513.269V54.5768H514.583V51.9091V49.2445V46.5738H513.269V43.9091H514.583V41.2415H513.269H511.955Z" fill="#5C944A"/>
<path d="M440.981 41.2416V38.577V35.9093V33.2447V30.574H439.664V33.2447H438.35V35.9093V38.577V41.2416H439.664V43.9093H440.981H442.295V41.2416H440.981Z" fill="#5C944A"/>
<path d="M514.583 27.9094H513.269V30.574H514.583V27.9094Z" fill="#5C944A"/>
<path d="M443.606 30.5738V27.9092H444.924H446.238H447.552H448.866V25.2415H447.552V22.5738V19.9091V17.2415H446.238V19.9091H444.924V22.5738H446.238V25.2415H444.924H443.606V27.9092H442.295H440.981V30.5738H442.295H443.606Z" fill="#5C944A"/>
<path d="M511.955 25.2415H510.64H509.326V27.9091H510.64H511.955H513.269V25.2415H511.955Z" fill="#5C944A"/>
<path d="M510.64 22.574V19.9093H509.326V17.2416V14.5739H508.012V11.9062H506.695H505.381H504.067V14.5739H505.381H506.695V17.2416H508.012V19.9093V22.574V25.2416H509.326V22.574H510.64Z" fill="#5C944A"/>
<path d="M450.18 17.2416V14.574H448.866H447.552V17.2416H448.866H450.18Z" fill="#5C944A"/>
<path d="M452.808 14.5739V11.9062H451.494H450.18V14.5739H451.494H452.808Z" fill="#5C944A"/>
<path d="M502.755 9.24174H501.438H500.124H498.81H497.496H496.182H494.867V6.57405H493.553V3.90942H492.239H490.925H489.611V6.57405H490.925H492.239V9.24174H493.553V11.9064H494.867H496.182H497.496H498.81H500.124H501.438H502.755H504.067V9.24174H502.755Z" fill="#5C944A"/>
<path d="M455.437 9.24146H454.123V11.9061H455.437H456.751H458.065V9.24146H456.751H455.437Z" fill="#5C944A"/>
<path d="M477.78 3.90942H476.466V6.57405H477.78V3.90942Z" fill="#5C944A"/>
<path d="M465.95 3.90942H464.639H463.325V6.57405H462.008V9.24174H460.693V11.9064V14.5741H462.008H463.325V11.9064V9.24174H464.639V6.57405H465.95H467.267H468.581V3.90942H467.267H465.95Z" fill="#5C944A"/>
<path d="M472.524 3.90915H473.838H475.152V1.24146H473.838H472.524H471.21H469.896V3.90915H471.21H472.524Z" fill="#5C944A"/>
<path d="M217.977 57.2415H216.663V59.9091H217.977V57.2415Z" fill="#5C944A"/>
<path d="M221.92 54.5769H220.606V57.2416H221.92V54.5769Z" fill="#5C944A"/>
<path d="M185.12 35.9092H183.806V38.5769H185.12V35.9092Z" fill="#A3C254"/>
<path d="M153.575 30.574H152.26V33.2417H153.575V30.574Z" fill="#5C944A"/>
<path d="M227.176 27.9094H225.862V30.574H227.176V27.9094Z" fill="#5C944A"/>
<path d="M220.606 25.2415H219.291V27.9091H220.606V25.2415Z" fill="#4E885B"/>
<path d="M161.459 25.2415H160.145V27.9091H161.459V25.2415Z" fill="#A3C254"/>
<path d="M157.517 22.5737H156.203V25.2414H157.517V22.5737Z" fill="#5C944A"/>
<path d="M153.575 43.9094H157.52V46.574H154.889V54.5771H156.203V57.2417H158.831V59.9094H168.033V60.0003H211.406V59.9094H216.663V57.2417H206.15V54.5771H203.519V51.9094H202.207V49.2448H200.89V54.5771H198.262V57.2417H187.749V54.5771H185.12V51.9094H183.806V49.2448H170.662V46.574H168.033V43.9094H165.405V35.9094H161.462V33.2448H157.52V30.574H156.203V27.9094H154.889V30.574H153.575V33.2448H152.26V41.2417H153.575V43.9094Z" fill="#5C944A"/>
<path d="M190.377 49.2446H189.063V51.9093H190.377H191.691H193.005V49.2446H191.691H190.377Z" fill="#5C944A"/>
<path d="M168.033 35.909V33.2444H166.719H165.405V35.909H166.719H168.033Z" fill="#5C944A"/>
<path d="M200.89 33.2447H202.207H203.518H204.836H206.15H207.464H208.778H210.092H211.406H212.721V30.574H211.406H210.092H208.778H207.464H206.15H204.836H203.518H202.207H200.89H199.576V33.2447H200.89Z" fill="#5C944A"/>
<path d="M177.232 25.2414H178.546H179.864H181.175H182.492H183.806H185.12H186.434H187.749H189.063H190.377V22.5737H189.063H187.749H186.434H185.12H183.806H182.492H181.175H179.864H178.546H177.232H175.918V25.2414H177.232Z" fill="#5C944A"/>
<path d="M214.035 43.9092H212.721H211.406V46.5738V49.2445H212.721H214.035H215.349V46.5738V43.9092H214.035Z" fill="#A3C254"/>
<path d="M171.976 43.9092H170.662V46.5738V49.2445H171.976H173.29H174.604V46.5738V43.9092H173.29H171.976Z" fill="#A3C254"/>
<path d="M185.12 33.2444H183.806V35.909H185.12V38.5767H186.435H187.749V35.909V33.2444H186.435H185.12Z" fill="#A3C254"/>
<path d="M199.576 17.2415H198.262V19.9091H199.576H200.89H202.207V17.2415H200.89H199.576Z" fill="#A3C254"/>
<path d="M160.145 17.2415H158.831V19.9091H160.145V17.2415Z" fill="#5C944A"/>
<path d="M204.833 11.9062H203.519V14.5739H204.833V11.9062Z" fill="#A3C254"/>
<path d="M165.405 11.9062H164.091V14.5739H165.405V11.9062Z" fill="#4F875C"/>
<path d="M170.662 9.24146H169.347V11.9061H170.662V9.24146Z" fill="#5C944A"/>
<path d="M224.551 30.574V27.9094H219.294V17.2387H217.98V14.5741H215.352V11.9064H204.839V14.5741H203.525V11.9064H204.839V9.24174H203.525V6.57405H200.896V3.90942H189.066V6.57405H187.752V3.90942H179.867V6.57405H175.924V9.24174H174.61V14.5741H171.979V11.9064H165.408V14.5741H161.466V17.2387H160.151V19.9064H158.837V25.2387H161.466V27.9064H156.209V30.571H157.523V33.2387H161.466V35.9033H165.408V33.2387H168.036V35.9033H165.408V43.9033H168.036V46.568H170.665V43.9033H174.607V49.2357H183.806V51.9003H185.12V54.568H187.749V57.2326H198.262V54.568H200.89V49.2357H202.204V51.9003H203.519V54.568H206.147V57.2326H220.606V54.568H223.234V46.568H221.92V43.9033H223.234V41.2357H225.862V30.568H224.548L224.551 30.574ZM199.576 30.574H212.721V33.2417H199.576V30.574ZM183.806 35.9064V33.2417H187.749V38.5741H183.806V35.9064ZM178.55 22.571H190.38V25.2387H175.921V22.571H178.55ZM211.406 46.571V43.9064H215.349V49.2387H211.406V46.571ZM202.207 19.9033H198.265V17.2357H202.207V19.9033ZM189.063 49.2387H193.005V51.9034H189.063V49.2387Z" fill="#A3C254"/>
<path d="M228.494 38.577V35.9093V33.2447V30.574H227.179H225.862V33.2447V35.9093V38.577H227.179V35.9093V33.2447V35.9093V38.577H225.862V41.2416H227.179H228.494V38.577Z" fill="#5C944A"/>
<path d="M199.576 1.24146H198.262H196.948H195.634H194.319H193.005H191.691H190.377H189.063V3.90915H190.377H191.691H193.005H194.319H195.634H196.948H198.262H199.576H200.89V1.24146H199.576Z" fill="#5C944A"/>
<path d="M158.831 59.9091V60H166.719V59.9091H160.145H158.831V57.2415H156.203V59.9091H158.831Z" fill="#5C944A"/>
<path d="M214.038 59.9092H211.406V60H214.038V59.9092Z" fill="#5C944A"/>
<path d="M217.977 57.2415V59.9091H219.291H220.606V57.2415H219.291H217.977Z" fill="#5C944A"/>
<path d="M154.889 54.5768V51.9092V49.2445V46.5738H156.203H157.52V43.9092H156.203H154.889H153.575V46.5738H152.26V49.2445V51.9092V54.5768H153.575V57.2415H154.889H156.203V54.5768H154.889Z" fill="#5C944A"/>
<path d="M223.234 41.2415V43.9091H221.923V46.5738H223.234V49.2445V51.9091V54.5768H221.923V57.2415H223.234H224.551V54.5768H225.862V51.9091V49.2445V46.5738H224.551V43.9091H225.862V41.2415H224.551H223.234Z" fill="#5C944A"/>
<path d="M152.26 41.2416V38.577V35.9093V33.2447V30.574H150.946V33.2447H149.632V35.9093V38.577V41.2416H150.946V43.9093H152.26H153.575V41.2416H152.26Z" fill="#5C944A"/>
<path d="M225.865 27.9094H224.551V30.574H225.865V27.9094Z" fill="#5C944A"/>
<path d="M154.889 30.5738V27.9092H156.203H157.52H158.831H160.145V25.2415H158.831V22.5738V19.9091V17.2415H157.52V19.9091H156.203V22.5738H157.52V25.2415H156.203H154.889V27.9092H153.575H152.26V30.5738H153.575H154.889Z" fill="#5C944A"/>
<path d="M223.234 25.2415H221.923H220.606V27.9091H221.923H223.234H224.551V25.2415H223.234Z" fill="#5C944A"/>
<path d="M221.923 22.574V19.9093H220.606V17.2416V14.5739H219.291V11.9062H217.977H216.663H215.349V14.5739H216.663H217.977V17.2416H219.291V19.9093V22.574V25.2416H220.606V22.574H221.923Z" fill="#5C944A"/>
<path d="M161.463 17.2416V14.574H160.145H158.831V17.2416H160.145H161.463Z" fill="#5C944A"/>
<path d="M164.091 14.5739V11.9062H162.777H161.462V14.5739H162.777H164.091Z" fill="#5C944A"/>
<path d="M214.035 9.24174H212.721H211.406H210.092H208.778H207.464H206.15V6.57405H204.836V3.90942H203.519H202.207H200.89V6.57405H202.207H203.519V9.24174H204.836V11.9064H206.15H207.464H208.778H210.092H211.406H212.721H214.035H215.349V9.24174H214.035Z" fill="#5C944A"/>
<path d="M166.719 9.24146H165.405V11.9061H166.719H168.033H169.347V9.24146H168.033H166.719Z" fill="#5C944A"/>
<path d="M189.063 3.90942H187.749V6.57405H189.063V3.90942Z" fill="#5C944A"/>
<path d="M177.232 3.90942H175.918H174.604V6.57405H173.29V9.24174H171.976V11.9064V14.5741H173.29H174.604V11.9064V9.24174H175.918V6.57405H177.232H178.547H179.864V3.90942H178.547H177.232Z" fill="#5C944A"/>
<path d="M183.806 3.90915H185.12H186.434V1.24146H185.12H183.806H182.492H181.175V3.90915H182.492H183.806Z" fill="#5C944A"/>
<path d="M675.034 57.0144H673.72V59.6821H675.034V57.0144Z" fill="#5C944A"/>
<path d="M678.976 54.3467H677.662V57.0113H678.976V54.3467Z" fill="#5C944A"/>
<path d="M642.174 35.679H640.86V38.3466H642.174V35.679Z" fill="#A3C254"/>
<path d="M610.631 30.3467H609.317V33.0113H610.631V30.3467Z" fill="#5C944A"/>
<path d="M684.233 27.679H682.919V30.3466H684.233V27.679Z" fill="#5C944A"/>
<path d="M677.662 25.0142H676.348V27.6788H677.662V25.0142Z" fill="#4E885B"/>
<path d="M618.516 25.0142H617.202V27.6788H618.516V25.0142Z" fill="#A3C254"/>
<path d="M614.574 22.3467H613.26V25.0143H614.574V22.3467Z" fill="#5C944A"/>
<path d="M610.631 43.682H614.574V46.3466H611.945V54.3466H613.26V57.0143H615.888V59.682H625.09V59.7728H668.46V59.682H673.72V57.0143H663.204V54.3466H660.575V51.679H659.261V49.0143H657.947V54.3466H655.319V57.0143H644.805V54.3466H642.174V51.679H640.86V49.0143H627.718V46.3466H625.09V43.682H622.462V35.6789H618.516V33.0113H614.574V30.3466H613.26V27.679H611.945V30.3466H610.631V33.0113H609.317V41.0143H610.631V43.682Z" fill="#5C944A"/>
<path d="M647.434 49.0142H646.116V51.6788H647.434H648.748H650.062V49.0142H648.748H647.434Z" fill="#5C944A"/>
<path d="M625.09 35.6789V33.0112H623.776H622.462V35.6789H623.776H625.09Z" fill="#5C944A"/>
<path d="M657.947 33.0113H659.261H660.575H661.889H663.204H664.521H665.832H667.149H668.46H669.777V30.3467H668.46H667.149H665.832H664.521H663.204H661.889H660.575H659.261H657.947H656.633V33.0113H657.947Z" fill="#5C944A"/>
<path d="M634.289 25.0143H635.603H636.917H638.232H639.546H640.86H642.174H643.488H644.805H646.117H647.434V22.3467H646.117H644.805H643.488H642.174H640.86H639.546H638.232H636.917H635.603H634.289H632.975V25.0143H634.289Z" fill="#5C944A"/>
<path d="M671.091 43.6821H669.777H668.46V46.3468V49.0144H669.777H671.091H672.406V46.3468V43.6821H671.091Z" fill="#A3C254"/>
<path d="M629.032 43.6821H627.718V46.3468V49.0144H629.032H630.347H631.661V46.3468V43.6821H630.347H629.032Z" fill="#A3C254"/>
<path d="M642.174 33.0112H640.86V35.6789H642.174V38.3466H643.488H644.805V35.6789V33.0112H643.488H642.174Z" fill="#A3C254"/>
<path d="M656.633 17.0112H655.319V19.6789H656.633H657.947H659.261V17.0112H657.947H656.633Z" fill="#A3C254"/>
<path d="M617.202 17.0112H615.888V19.6789H617.202V17.0112Z" fill="#5C944A"/>
<path d="M661.889 11.679H660.575V14.3466H661.889V11.679Z" fill="#A3C254"/>
<path d="M622.459 11.679H621.145V14.3466H622.459V11.679Z" fill="#4F875C"/>
<path d="M627.718 9.0144H626.404V11.679H627.718V9.0144Z" fill="#5C944A"/>
<path d="M681.605 30.3465V27.6789H676.348V17.0111H675.034V14.3465H672.406V11.6788H661.892V14.3465H660.578V11.6788H661.892V9.0142H660.578V6.34651H657.95V3.68188H646.119V6.34651H644.805V3.68188H636.917V6.34651H632.975V9.0142H631.661V14.3465H629.032V11.6788H622.462V14.3465H618.519V17.0111H617.205V19.6788H615.891V25.0112H618.519V27.6758H613.263V30.3435H614.577V33.0081H618.519V35.6758H622.462V33.0081H625.09V35.6758H622.462V43.6788H625.09V46.3435H627.718V43.6788H631.661V49.0112H640.863V51.6758H642.177V54.3435H644.808V57.0081H655.322V54.3435H657.95V49.0112H659.264V51.6758H660.578V54.3435H663.207V57.0081H677.665V54.3435H680.294V46.3405H678.979V43.6758H680.294V41.0081H682.922V30.3404H681.608L681.605 30.3465ZM656.633 30.3465H669.774V33.0112H656.633V30.3465ZM640.86 35.6788V33.0112H644.802V38.3465H640.86V35.6788ZM635.603 22.3435H647.434V25.0112H632.975V22.3435H635.603ZM668.46 46.3435V43.6788H672.403V49.0112H668.46V46.3435ZM659.258 19.6758H655.316V17.0082H659.258V19.6758ZM646.116 49.0112H650.059V51.6758H646.116V49.0112Z" fill="#A3C254"/>
<path d="M685.547 38.3467V35.679V33.0113V30.3467H684.233H682.919V33.0113V35.679V38.3467H684.233V35.679V33.0113V35.679V38.3467H682.919V41.0143H684.233H685.547V38.3467Z" fill="#5C944A"/>
<path d="M656.633 1.01123H655.319H654.004H652.69H651.376H650.062H648.748H647.434H646.116V3.67892H647.434H648.748H650.062H651.376H652.69H654.004H655.319H656.633H657.947V1.01123H656.633Z" fill="#5C944A"/>
<path d="M615.888 59.6821V59.7729H623.776V59.6821H617.202H615.888V57.0144H613.26V59.6821H615.888Z" fill="#5C944A"/>
<path d="M671.088 59.6821H668.46V59.773H671.088V59.6821Z" fill="#5C944A"/>
<path d="M675.034 57.0144V59.6821H676.348H677.662V57.0144H676.348H675.034Z" fill="#5C944A"/>
<path d="M611.945 54.3468V51.6791V49.0144V46.3468H613.26H614.574V43.6821H613.26H611.945H610.631V46.3468H609.317V49.0144V51.6791V54.3468H610.631V57.0145H611.945H613.26V54.3468H611.945Z" fill="#5C944A"/>
<path d="M680.291 41.0144V43.6821H678.976V46.3467H680.291V49.0144V51.6791V54.3467H678.976V57.0144H680.291H681.605V54.3467H682.919V51.6791V49.0144V46.3467H681.605V43.6821H682.919V41.0144H681.605H680.291Z" fill="#5C944A"/>
<path d="M609.317 41.0143V38.3467V35.679V33.0113V30.3467H608.003V33.0113H606.689V35.679V38.3467V41.0143H608.003V43.682H609.317H610.631V41.0143H609.317Z" fill="#5C944A"/>
<path d="M682.919 27.679H681.605V30.3466H682.919V27.679Z" fill="#5C944A"/>
<path d="M611.945 30.3466V27.6789H613.26H614.574H615.888H617.202V25.0143H615.888V22.3466V19.6789V17.0112H614.574V19.6789H613.26V22.3466H614.574V25.0143H613.26H611.945V27.6789H610.631H609.317V30.3466H610.631H611.945Z" fill="#5C944A"/>
<path d="M680.291 25.0142H678.976H677.662V27.6788H678.976H680.291H681.605V25.0142H680.291Z" fill="#5C944A"/>
<path d="M678.976 22.3467V19.679H677.662V17.0113V14.3466H676.348V11.679H675.034H673.72H672.406V14.3466H673.72H675.034V17.0113H676.348V19.679V22.3467V25.0143H677.662V22.3467H678.976Z" fill="#5C944A"/>
<path d="M618.516 17.0111V14.3464H617.202H615.888V17.0111H617.202H618.516Z" fill="#5C944A"/>
<path d="M621.145 14.3466V11.679H619.83H618.516V14.3466H619.83H621.145Z" fill="#5C944A"/>
<path d="M671.092 9.0143H669.777H668.46H667.149H665.832H664.521H663.204V6.34661H661.889V3.67896H660.575H659.261H657.947V6.34661H659.261H660.575V9.0143H661.889V11.6789H663.204H664.521H665.832H667.149H668.46H669.777H671.092H672.406V9.0143H671.092Z" fill="#5C944A"/>
<path d="M623.776 9.0144H622.462V11.679H623.776H625.09H626.404V9.0144H625.09H623.776Z" fill="#5C944A"/>
<path d="M646.12 3.67896H644.805V6.34358H646.12V3.67896Z" fill="#5C944A"/>
<path d="M634.289 3.67896H632.975H631.661V6.34661H630.347V9.0143H629.033V11.6789V14.3466H630.347H631.661V11.6789V9.0143H632.975V6.34661H634.289H635.603H636.917V3.67896H635.603H634.289Z" fill="#5C944A"/>
<path d="M640.86 3.67892H642.174H643.488V1.01123H642.174H640.86H639.546H638.232V3.67892H639.546H640.86Z" fill="#5C944A"/>
</svg>
