<svg width="122" height="63" viewBox="0 0 122 63" fill="none" xmlns="http://www.w3.org/2000/svg">
<path d="M9.71707 57.9212V55.8552H12.1458V53.7847H14.5744V51.7164V49.6481H17.0031V47.5798V45.5092V43.4432V41.3726V39.3043V37.2361V35.1678H19.4318V37.2361H21.8605V39.3043H24.2892H26.7179H29.1489H31.5776H34.0062H36.4349V37.2361H38.8636V35.1678H41.2923V33.0995H43.721V35.1678H46.152V37.2361V39.3043H48.5807V41.3726H51.0094V43.4432H53.438V45.5092H55.8667H58.2954V47.5798H60.7264H63.1551H65.5838H68.0125H70.4411H72.8698H75.2985H77.7272V45.5092H80.1559H82.5846V43.4432H85.0156V41.3726H87.4443V39.3043H89.8729H92.3016V41.3726H94.7303V43.4432H97.159H99.5877H102.019H104.447H106.876H109.305V41.3726H111.733V39.3043H114.162V37.2361V35.1678H116.591V33.0995V31.0312V28.9629V26.8923H119.019V28.9629V31.0312V33.0995H121.448V35.1678V37.2361V39.3043V41.3726V43.4432V45.5092H119.019V47.5798V49.6481V51.7164H116.591V53.7847V55.8552H114.162V57.9212H111.733V59.9918H109.305H106.876V62.0601H104.447H102.019H99.5877H97.159H94.7303H92.3016H89.8729H87.4443H85.0156H82.5846H80.1559H77.7272H75.2985H72.8698H70.4411H68.0125H65.5838H63.1551H60.7264H58.2954H55.8667H53.438H51.0094H48.5807H46.152H43.721H41.2923H38.8636H36.4349H34.0062H31.5776H29.1489H26.7179H24.2892H21.8605H19.4318H17.0031H14.5744H12.1458H9.71707V59.9918H7.28838V57.9212H9.71707Z" fill="#C1E5F5"/>
<path d="M2.4287 39.3043V37.2361V35.1678H4.85967V33.0995H7.28837V31.0312H9.71706V28.9629H12.1457H14.5744H17.0031V26.8923V24.8263V22.7558H19.4318V20.6875V18.6169V16.5509H21.8605V14.4803H24.2892V12.412H26.7179V10.3437H29.1488V8.27544H31.5775H34.0062H36.4349H38.8636H41.2923H43.721H46.152H48.5807V10.3437H51.0093V8.27544V6.20486H53.438V4.13887H55.8667H58.2954V2.07058H60.7264V0H63.1551H65.5838H68.0125H70.4411H72.8698H75.2985V2.07058H77.7272H80.1559V4.13887H82.5846V6.20486H85.0156V8.27544H87.4443V10.3437H89.8729V12.412V14.4803V16.5509H92.3016H94.7303H97.159H99.5877H102.019H104.447H106.876V18.6169H109.305H111.733V20.6875H114.162V22.7558H116.591V24.8263V26.8923V28.9629V31.0312V33.0995V35.1678H114.162V37.2361V39.3043H111.733V41.3726H109.305V43.4432H106.876H104.447H102.019H99.5877H97.159H94.7303V41.3726H92.3016V39.3043H89.8729H87.4443V41.3726H85.0156V43.4432H82.5846V45.5092H80.1559H77.7272V47.5798H75.2985H72.8698H70.4411H68.0125H65.5838H63.1551H60.7264H58.2954V45.5092H55.8667H53.438V43.4432H51.0093V41.3726H48.5807V39.3043H46.152V37.2361V35.1678H43.721V33.0995H41.2923V35.1678H38.8636V37.2361H36.4349V39.3043H34.0062H31.5775H29.1488H26.7179H24.2892H21.8605V37.2361H19.4318V35.1678H17.0031V37.2361V39.3043V41.3726V43.4432V45.5092V47.5798V49.6481H14.5744V51.7164V53.7846H12.1457V55.8552H9.71706V57.9212H7.28837V59.9918H4.85967V57.9212V55.8552H2.4287V53.7846H7.62939e-06V51.7164V49.6481V47.5798V45.5092V43.4432V41.3726V39.3043H2.4287Z" fill="white"/>
</svg>
