<svg width="54" height="50" viewBox="0 0 54 50" fill="none" xmlns="http://www.w3.org/2000/svg">
<path fill-rule="evenodd" clip-rule="evenodd" d="M54 50H50.1552V46.1552H46.3075V42.3075H42.4597V46.1552H38.6149V50H30.9224V42.3075H23.2299V50H15.5373V46.1552H11.6896V42.3075H7.84478V46.1552H3.99703V50H0.152248V23.0776H3.99703V11.5403H7.84478V7.69255H11.6896V3.84775H19.3821V0H34.7672V3.84775H42.4597V7.69255H46.3075V11.5403H50.1552V23.0776H54V50Z" fill="#FF0000"/>
<path fill-rule="evenodd" clip-rule="evenodd" d="M42.4597 15.3853V26.9226H38.6149V30.7704H30.9223V26.9226H27.0746V15.3853H30.9223V11.5405H38.6149V15.3853H42.4597Z" fill="white"/>
<path fill-rule="evenodd" clip-rule="evenodd" d="M19.3821 15.3853V26.9226H15.5374V30.7704H7.84482V26.9226H3.99707V15.3853H7.84482V11.5405H15.5374V15.3853H19.3821Z" fill="white"/>
<path d="M42.5043 19.2539H34.8118V26.9464H42.5043V19.2539Z" fill="#0099FF"/>
<path d="M19.4268 19.2539H11.7342V26.9464H19.4268V19.2539Z" fill="#0099FF"/>
</svg>
