<svg width="71" height="80" viewBox="0 0 71 80" fill="none" xmlns="http://www.w3.org/2000/svg">
<path d="M4.98654 59.9819H0V65.0044H4.98654V59.9819Z" fill="#F8D098"/>
<path d="M4.98654 54.9866H0V60.009H4.98654V54.9866Z" fill="#F8D098"/>
<path d="M4.98654 49.9907H0V55.0131H4.98654V49.9907Z" fill="#F8D098"/>
<path d="M4.98654 44.9863H0V50.0087H4.98654V44.9863Z" fill="#FE0000"/>
<path d="M9.99109 74.9775H5.00455V80H9.99109V74.9775Z" fill="#5C3700"/>
<path d="M14.9954 74.9775H10.0089V80H14.9954V74.9775Z" fill="#5C3700"/>
<path d="M20 74.9775H15.0134V80H20V74.9775Z" fill="#5C3700"/>
<path d="M24.9955 74.9775H20.009V80H24.9955V74.9775Z" fill="#5C3700"/>
<path d="M50.0089 74.9775H45.0223V80H50.0089V74.9775Z" fill="#5C3700"/>
<path d="M55.0134 74.9775H50.0269V80H55.0134V74.9775Z" fill="#5C3700"/>
<path d="M60.009 74.9775H55.0225V80H60.009V74.9775Z" fill="#5C3700"/>
<path d="M65.0133 74.9775H60.0268V80H65.0133V74.9775Z" fill="#5C3700"/>
<path d="M14.9954 69.9819H10.0089V75.0044H14.9954V69.9819Z" fill="#5C3700"/>
<path d="M20 69.9819H15.0134V75.0044H20V69.9819Z" fill="#5C3700"/>
<path d="M24.9955 69.9819H20.009V75.0044H24.9955V69.9819Z" fill="#5C3700"/>
<path d="M50.0089 69.9819H45.0223V75.0044H50.0089V69.9819Z" fill="#5C3700"/>
<path d="M55.0134 69.9819H50.0269V75.0044H55.0134V69.9819Z" fill="#5C3700"/>
<path d="M60.009 69.9819H55.0225V75.0044H60.009V69.9819Z" fill="#5C3700"/>
<path d="M20 64.9863H15.0134V70.0087H20V64.9863Z" fill="#0020FE"/>
<path d="M24.9955 64.9863H20.009V70.0087H24.9955V64.9863Z" fill="#0020FE"/>
<path d="M29.9999 64.9863H25.0133V70.0087H29.9999V64.9863Z" fill="#0020FE"/>
<path d="M45.0045 64.9863H40.018V70.0087H45.0045V64.9863Z" fill="#0020FE"/>
<path d="M50.0089 64.9863H45.0223V70.0087H50.0089V64.9863Z" fill="#0020FE"/>
<path d="M55.0134 64.9863H50.0269V70.0087H55.0134V64.9863Z" fill="#0020FE"/>
<path d="M9.99109 59.9819H5.00455V65.0044H9.99109V59.9819Z" fill="#FCBA63"/>
<path d="M14.9954 59.9819H10.0089V65.0044H14.9954V59.9819Z" fill="#FCBA63"/>
<path d="M20 59.9819H15.0134V65.0044H20V59.9819Z" fill="#0020FE"/>
<path d="M24.9955 59.9819H20.009V65.0044H24.9955V59.9819Z" fill="#0020FE"/>
<path d="M29.9999 59.9819H25.0133V65.0044H29.9999V59.9819Z" fill="#0020FE"/>
<path d="M35.0044 59.9819H30.0179V65.0044H35.0044V59.9819Z" fill="#0020FE"/>
<path d="M40.009 59.9819H35.0224V65.0044H40.009V59.9819Z" fill="#0020FE"/>
<path d="M45.0045 59.9819H40.018V65.0044H45.0045V59.9819Z" fill="#0020FE"/>
<path d="M50.0089 59.9819H45.0223V65.0044H50.0089V59.9819Z" fill="#0020FE"/>
<path d="M55.0134 59.9819H50.0269V65.0044H55.0134V59.9819Z" fill="#0020FE"/>
<path d="M60.009 59.9819H55.0225V65.0044H60.009V59.9819Z" fill="#FCBA63"/>
<path d="M65.0133 59.9819H60.0268V65.0044H65.0133V59.9819Z" fill="#FCBA63"/>
<path d="M70.0178 59.9819H65.0313V65.0044H70.0178V59.9819Z" fill="#FCBA63"/>
<path d="M9.99109 54.9866H5.00455V60.009H9.99109V54.9866Z" fill="#FCBA63"/>
<path d="M14.9954 54.9866H10.0089V60.009H14.9954V54.9866Z" fill="#FCBA63"/>
<path d="M20 54.9866H15.0134V60.009H20V54.9866Z" fill="#FCBA63"/>
<path d="M24.9955 54.9866H20.009V60.009H24.9955V54.9866Z" fill="#0020FE"/>
<path d="M29.9999 54.9866H25.0133V60.009H29.9999V54.9866Z" fill="#0020FE"/>
<path d="M35.0044 54.9866H30.0179V60.009H35.0044V54.9866Z" fill="#0020FE"/>
<path d="M40.009 54.9866H35.0224V60.009H40.009V54.9866Z" fill="#0020FE"/>
<path d="M45.0045 54.9866H40.018V60.009H45.0045V54.9866Z" fill="#0020FE"/>
<path d="M50.0089 54.9866H45.0223V60.009H50.0089V54.9866Z" fill="#0020FE"/>
<path d="M55.0134 54.9866H50.0269V60.009H55.0134V54.9866Z" fill="#FCBA63"/>
<path d="M60.009 54.9866H55.0225V60.009H60.009V54.9866Z" fill="#FCBA63"/>
<path d="M65.0133 54.9866H60.0268V60.009H65.0133V54.9866Z" fill="#FCBA63"/>
<path d="M70.0178 54.9866H65.0313V60.009H70.0178V54.9866Z" fill="#FCBA63"/>
<path d="M9.99109 49.9907H5.00455V55.0131H9.99109V49.9907Z" fill="#FCBA63"/>
<path d="M14.9954 49.9907H10.0089V55.0131H14.9954V49.9907Z" fill="#FCBA63"/>
<path d="M20 49.9907H15.0134V55.0131H20V49.9907Z" fill="#FE0000"/>
<path d="M24.9955 49.9907H20.009V55.0131H24.9955V49.9907Z" fill="#0020FE"/>
<path d="M29.9999 49.9907H25.0133V55.0131H29.9999V49.9907Z" fill="#EDFE00"/>
<path d="M35.0044 49.9907H30.0179V55.0131H35.0044V49.9907Z" fill="#0020FE"/>
<path d="M40.009 49.9907H35.0224V55.0131H40.009V49.9907Z" fill="#0020FE"/>
<path d="M45.0045 49.9907H40.018V55.0131H45.0045V49.9907Z" fill="#EDFE00"/>
<path d="M50.0089 49.9907H45.0223V55.0131H50.0089V49.9907Z" fill="#0020FE"/>
<path d="M55.0134 49.9907H50.0269V55.0131H55.0134V49.9907Z" fill="#FE0000"/>
<path d="M60.009 49.9907H55.0225V55.0131H60.009V49.9907Z" fill="#FCBA63"/>
<path d="M65.0133 49.9907H60.0268V55.0131H65.0133V49.9907Z" fill="#FCBA63"/>
<path d="M70.0178 49.9907H65.0313V55.0131H70.0178V49.9907Z" fill="#FCBA63"/>
<path d="M9.99109 44.9863H5.00455V50.0087H9.99109V44.9863Z" fill="#FE0000"/>
<path d="M14.9954 44.9863H10.0089V50.0087H14.9954V44.9863Z" fill="#FE0000"/>
<path d="M20 44.9863H15.0134V50.0087H20V44.9863Z" fill="#FE0000"/>
<path d="M24.9955 44.9863H20.009V50.0087H24.9955V44.9863Z" fill="#FE0000"/>
<path d="M29.9999 44.9863H25.0133V50.0087H29.9999V44.9863Z" fill="#0020FE"/>
<path d="M35.0044 44.9863H30.0179V50.0087H35.0044V44.9863Z" fill="#0020FE"/>
<path d="M40.009 44.9863H35.0224V50.0087H40.009V44.9863Z" fill="#0020FE"/>
<path d="M45.0045 44.9863H40.018V50.0087H45.0045V44.9863Z" fill="#0020FE"/>
<path d="M50.0089 44.9863H45.0223V50.0087H50.0089V44.9863Z" fill="#FE0000"/>
<path d="M55.0134 44.9863H50.0269V50.0087H55.0134V44.9863Z" fill="#FE0000"/>
<path d="M60.009 44.9863H55.0225V50.0087H60.009V44.9863Z" fill="#FE0000"/>
<path d="M65.0133 44.9863H60.0268V50.0087H65.0133V44.9863Z" fill="#FE0000"/>
<path d="M70.0178 44.9863H65.0313V50.0087H70.0178V44.9863Z" fill="#FE0000"/>
<path d="M9.99109 39.9912H5.00455V45.0136H9.99109V39.9912Z" fill="#FE0000"/>
<path d="M14.9954 39.9912H10.0089V45.0136H14.9954V39.9912Z" fill="#FE0000"/>
<path d="M20 39.9912H15.0134V45.0136H20V39.9912Z" fill="#FE0000"/>
<path d="M24.9955 39.9912H20.009V45.0136H24.9955V39.9912Z" fill="#FE0000"/>
<path d="M29.9999 39.9912H25.0133V45.0136H29.9999V39.9912Z" fill="#0020FE"/>
<path d="M35.0044 39.9912H30.0179V45.0136H35.0044V39.9912Z" fill="#FE0000"/>
<path d="M40.009 39.9912H35.0224V45.0136H40.009V39.9912Z" fill="#FE0000"/>
<path d="M45.0045 39.9912H40.018V45.0136H45.0045V39.9912Z" fill="#0020FE"/>
<path d="M50.0089 39.9912H45.0223V45.0136H50.0089V39.9912Z" fill="#FE0000"/>
<path d="M55.0134 39.9912H50.0269V45.0136H55.0134V39.9912Z" fill="#FE0000"/>
<path d="M60.009 39.9912H55.0225V45.0136H60.009V39.9912Z" fill="#FE0000"/>
<path d="M65.0133 39.9912H60.0268V45.0136H65.0133V39.9912Z" fill="#FE0000"/>
<path d="M14.9954 34.9866H10.0089V40.009H14.9954V34.9866Z" fill="#FE0000"/>
<path d="M20 34.9866H15.0134V40.009H20V34.9866Z" fill="#FE0000"/>
<path d="M24.9955 34.9866H20.009V40.009H24.9955V34.9866Z" fill="#FE0000"/>
<path d="M29.9999 34.9866H25.0133V40.009H29.9999V34.9866Z" fill="#0020FE"/>
<path d="M35.0044 34.9866H30.0179V40.009H35.0044V34.9866Z" fill="#FE0000"/>
<path d="M40.009 34.9866H35.0224V40.009H40.009V34.9866Z" fill="#FE0000"/>
<path d="M45.0045 34.9866H40.018V40.009H45.0045V34.9866Z" fill="#0020FE"/>
<path d="M24.9955 29.991H20.009V35.0134H24.9955V29.991Z" fill="#FCBA63"/>
<path d="M29.9999 29.991H25.0133V35.0134H29.9999V29.991Z" fill="#FCBA63"/>
<path d="M35.0044 29.991H30.0179V35.0134H35.0044V29.991Z" fill="#FCBA63"/>
<path d="M40.009 29.991H35.0224V35.0134H40.009V29.991Z" fill="#FCBA63"/>
<path d="M45.0045 29.991H40.018V35.0134H45.0045V29.991Z" fill="#FCBA63"/>
<path d="M50.0089 29.991H45.0223V35.0134H50.0089V29.991Z" fill="#FCBA63"/>
<path d="M55.0134 29.991H50.0269V35.0134H55.0134V29.991Z" fill="#FCBA63"/>
<path d="M14.9954 24.9956H10.0089V30.018H14.9954V24.9956Z" fill="#4D3605"/>
<path d="M20 24.9956H15.0134V30.018H20V24.9956Z" fill="#4D3605"/>
<path d="M24.9955 24.9956H20.009V30.018H24.9955V24.9956Z" fill="#FCBA63"/>
<path d="M29.9999 24.9956H25.0133V30.018H29.9999V24.9956Z" fill="#FCBA63"/>
<path d="M35.0044 24.9956H30.0179V30.018H35.0044V24.9956Z" fill="#FCBA63"/>
<path d="M40.009 24.9956H35.0224V30.018H40.009V24.9956Z" fill="#FCBA63"/>
<path d="M45.0045 24.9956H40.018V30.018H45.0045V24.9956Z" fill="black"/>
<path d="M50.0089 24.9956H45.0223V30.018H50.0089V24.9956Z" fill="black"/>
<path d="M55.0134 24.9956H50.0269V30.018H55.0134V24.9956Z" fill="black"/>
<path d="M60.009 24.9956H55.0225V30.018H60.009V24.9956Z" fill="black"/>
<path d="M14.9954 19.9912H10.0089V25.0136H14.9954V19.9912Z" fill="#4D3605"/>
<path d="M20 19.9912H15.0134V25.0136H20V19.9912Z" fill="#FCBA63"/>
<path d="M24.9955 19.9912H20.009V25.0136H24.9955V19.9912Z" fill="#4D3605"/>
<path d="M29.9999 19.9912H25.0133V25.0136H29.9999V19.9912Z" fill="#4D3605"/>
<path d="M35.0044 19.9912H30.0179V25.0136H35.0044V19.9912Z" fill="#FCBA63"/>
<path d="M40.009 19.9912H35.0224V25.0136H40.009V19.9912Z" fill="#FCBA63"/>
<path d="M45.0045 19.9912H40.018V25.0136H45.0045V19.9912Z" fill="#FCBA63"/>
<path d="M50.0089 19.9912H45.0223V25.0136H50.0089V19.9912Z" fill="black"/>
<path d="M55.0134 19.9912H50.0269V25.0136H55.0134V19.9912Z" fill="#FCBA63"/>
<path d="M60.009 19.9912H55.0225V25.0136H60.009V19.9912Z" fill="#FCBA63"/>
<path d="M65.0133 19.9912H60.0268V25.0136H65.0133V19.9912Z" fill="#FCBA63"/>
<path d="M14.9954 14.9956H10.0089V20.018H14.9954V14.9956Z" fill="#4D3605"/>
<path d="M20 14.9956H15.0134V20.018H20V14.9956Z" fill="#FCBA63"/>
<path d="M24.9955 14.9956H20.009V20.018H24.9955V14.9956Z" fill="#4D3605"/>
<path d="M29.9999 14.9956H25.0133V20.018H29.9999V14.9956Z" fill="#FCBA63"/>
<path d="M35.0044 14.9956H30.0179V20.018H35.0044V14.9956Z" fill="#FCBA63"/>
<path d="M40.009 14.9956H35.0224V20.018H40.009V14.9956Z" fill="#FCBA63"/>
<path d="M45.0045 14.9956H40.018V20.018H45.0045V14.9956Z" fill="black"/>
<path d="M50.0089 14.9956H45.0223V20.018H50.0089V14.9956Z" fill="#FCBA63"/>
<path d="M55.0134 14.9956H50.0269V20.018H55.0134V14.9956Z" fill="#FCBA63"/>
<path d="M60.009 14.9956H55.0225V20.018H60.009V14.9956Z" fill="#FCBA63"/>
<path d="M20 10H15.0134V15.0224H20V10Z" fill="#4D3605"/>
<path d="M24.9955 10H20.009V15.0224H24.9955V10Z" fill="#4D3605"/>
<path d="M29.9999 10H25.0133V15.0224H29.9999V10Z" fill="#4D3605"/>
<path d="M35.0044 10H30.0179V15.0224H35.0044V10Z" fill="#FCBA63"/>
<path d="M40.009 10H35.0224V15.0224H40.009V10Z" fill="#FCBA63"/>
<path d="M45.0045 10H40.018V15.0224H45.0045V10Z" fill="black"/>
<path d="M50.0089 10H45.0223V15.0224H50.0089V10Z" fill="#FCBA63"/>
<path d="M20 4.99561H15.0134V10.018H20V4.99561Z" fill="#FE0000"/>
<path d="M24.9955 4.99561H20.009V10.018H24.9955V4.99561Z" fill="#FE0000"/>
<path d="M29.9999 4.99561H25.0133V10.018H29.9999V4.99561Z" fill="#FE0000"/>
<path d="M35.0044 4.99561H30.0179V10.018H35.0044V4.99561Z" fill="#FE0000"/>
<path d="M40.009 4.99561H35.0224V10.018H40.009V4.99561Z" fill="#FE0000"/>
<path d="M45.0045 4.99561H40.018V10.018H45.0045V4.99561Z" fill="#FE0000"/>
<path d="M50.0089 4.99561H45.0223V10.018H50.0089V4.99561Z" fill="#FE0000"/>
<path d="M55.0134 4.99561H50.0269V10.018H55.0134V4.99561Z" fill="#FE0000"/>
<path d="M60.009 4.99561H55.0225V10.018H60.009V4.99561Z" fill="#FE0000"/>
<path d="M24.9955 0H20.009V5.02242H24.9955V0Z" fill="#FE0000"/>
<path d="M29.9999 0H25.0133V5.02242H29.9999V0Z" fill="#FE0000"/>
<path d="M35.0044 0H30.0179V5.02242H35.0044V0Z" fill="#FE0000"/>
<path d="M40.009 0H35.0224V5.02242H40.009V0Z" fill="#FE0000"/>
<path d="M45.0045 0H40.018V5.02242H45.0045V0Z" fill="#FE0000"/>
</svg>
