<svg width="54" height="50" viewBox="0 0 54 50" fill="none" xmlns="http://www.w3.org/2000/svg">
<path fill-rule="evenodd" clip-rule="evenodd" d="M54 50H50.1552V46.1552H46.3075V42.3075H42.4597V46.1552H38.6149V50H30.9224V42.3075H23.2299V50H15.5373V46.1552H11.6896V42.3075H7.84478V46.1552H3.99702V50H0.152241V23.0776H3.99702V11.5373H7.84478V7.69254H11.6896V3.84478H19.3821V0H34.7672V3.84478H42.4597V7.69254H46.3075V11.5373H50.1552V23.0776H54V50Z" fill="#69CADA"/>
<path fill-rule="evenodd" clip-rule="evenodd" d="M42.4597 15.3849V26.9222H38.6149V30.7699H30.9224V26.9222H27.0746V15.3849H30.9224V11.5371H38.6149V15.3849H42.4597Z" fill="white"/>
<path fill-rule="evenodd" clip-rule="evenodd" d="M19.3821 15.3849V26.9222H15.5373V30.7699H7.84476V26.9222H3.997V15.3849H7.84476V11.5371H15.5373V15.3849H19.3821Z" fill="white"/>
<path d="M34.7672 17.1104H27.0747V24.8029H34.7672V17.1104Z" fill="#0099FF"/>
<path d="M11.5944 17.1104H3.90182V24.8029H11.5944V17.1104Z" fill="#0099FF"/>
</svg>
