<svg width="54" height="50" viewBox="0 0 54 50" fill="none" xmlns="http://www.w3.org/2000/svg">
<path fill-rule="evenodd" clip-rule="evenodd" d="M54 50H50.1554V46.1525H46.3079V42.3079H42.4604V46.1525H38.6158V50H30.9238V42.3079H23.2317V50H15.5396V46.1525H11.6921V42.3079H7.84753V46.1525H4V50H0.155445V23.0762H4V11.5396H7.84753V7.69207H11.6921V3.84753H19.3842V0H34.7683V3.84753H42.4604V7.69207H46.3079V11.5396H50.1554V23.0762H54V50Z" fill="#F47E1E"/>
<path fill-rule="evenodd" clip-rule="evenodd" d="M42.4604 15.3836V26.9232H38.6158V30.7678H30.9238V26.9232H27.0762V15.3836H30.9238V11.5391H38.6158V15.3836H42.4604Z" fill="white"/>
<path fill-rule="evenodd" clip-rule="evenodd" d="M19.3842 15.3836V26.9232H15.5396V30.7678H7.84752V26.9232H3.99999V15.3836H7.84752V11.5391H15.5396V15.3836H19.3842Z" fill="white"/>
<path d="M42.5051 15.3848H34.813V23.0768H42.5051V15.3848Z" fill="#0099FF"/>
<path d="M19.4288 15.3848H11.7367V23.0768H19.4288V15.3848Z" fill="#0099FF"/>
</svg>
