<svg width="54" height="50" viewBox="0 0 54 50" fill="none" xmlns="http://www.w3.org/2000/svg">
<path fill-rule="evenodd" clip-rule="evenodd" d="M54 50H50.1554V46.1525H46.3079V42.3079H42.4604V46.1525H38.6158V50H30.9238V42.3079H23.2317V50H15.5396V46.1525H11.6921V42.3079H7.84753V46.1525H4V50H0.155445V23.0762H4V11.5396H7.84753V7.69208H11.6921V3.84753H19.3842V0H34.7683V3.84753H42.4604V7.69208H46.3079V11.5396H50.1554V23.0762H54V50Z" fill="#EF5496"/>
<path fill-rule="evenodd" clip-rule="evenodd" d="M42.4604 15.3836V26.9232H38.6159V30.7678H30.9238V26.9232H27.0763V15.3836H30.9238V11.5391H38.6159V15.3836H42.4604Z" fill="white"/>
<path fill-rule="evenodd" clip-rule="evenodd" d="M19.3843 15.3836V26.9232H15.5397V30.7678H7.84764V26.9232H4.00011V15.3836H7.84764V11.5391H15.5397V15.3836H19.3843Z" fill="white"/>
<path d="M34.7683 15.3848H27.0762V23.0768H34.7683V15.3848Z" fill="#0099FF"/>
<path d="M11.692 15.3848H3.99994V23.0768H11.692V15.3848Z" fill="#0099FF"/>
</svg>
