<svg width="439" height="100" viewBox="0 0 439 100" fill="none" xmlns="http://www.w3.org/2000/svg">
<rect x="7.14282" y="7.14282" width="424.286" height="85.7143" fill="white"/>
<rect x="7.14282" y="3.57141" width="424.286" height="3.57143" fill="#2C2395"/>
<rect x="7.14282" width="424.286" height="3.57143" fill="white"/>
<rect x="10.7142" y="92.8572" width="417.143" height="3.57143" fill="#2C2395"/>
<rect x="10.7142" y="96.4286" width="417.143" height="3.57143" fill="white"/>
<rect x="10.7142" y="76.4286" width="417.143" height="3.57143" fill="#4E5DC6"/>
<rect x="10.7142" y="80" width="417.143" height="12.8571" fill="#192051"/>
<rect x="3.57141" y="7.14282" width="3.57143" height="82.1429" fill="#2C2395"/>
<rect y="7.14282" width="3.57143" height="82.1429" fill="white"/>
<rect x="431.429" y="7.14282" width="3.57143" height="82.1429" fill="#2C2395"/>
<rect x="435" y="7.14282" width="3.57143" height="82.1429" fill="white"/>
<rect x="7.14282" y="72.8572" width="3.57143" height="3.57143" fill="#4E5DC6"/>
<rect x="7.14282" y="89.2858" width="3.57143" height="3.57143" fill="#2C2395"/>
<rect x="3.57141" y="89.2858" width="3.57143" height="3.57143" fill="white"/>
<rect x="7.14282" y="92.8572" width="3.57143" height="3.57143" fill="white"/>
<rect x="7.14282" y="76.4286" width="3.57143" height="12.8571" fill="#192051"/>
<rect x="427.857" y="72.8572" width="3.57143" height="3.57143" fill="#4E5DC6"/>
<rect x="427.857" y="89.2858" width="3.57143" height="3.57143" fill="#2C2395"/>
<rect x="431.429" y="89.2858" width="3.57143" height="3.57143" fill="white"/>
<rect x="427.857" y="92.8572" width="3.57143" height="3.57143" fill="white"/>
<rect x="427.857" y="76.4286" width="3.57143" height="12.8571" fill="#192051"/>
<rect x="3.57141" y="3.57141" width="3.57143" height="3.57143" fill="white"/>
<rect x="431.429" y="3.57141" width="3.57143" height="3.57143" fill="white"/>
<path d="M105.214 30.5391H107.704V33.0293V35.5195V38.0342V40.5244H105.214V43.0146H102.699V45.5293H105.214V48.0195H107.704V50.5098V53.0244H105.214H102.699V50.5098H100.209V48.0195H97.6943V45.5293H95.2041H92.7139V48.0195V50.5098V53.0244H90.1992H87.709V50.5098V48.0195V45.5293V43.0146V40.5244V38.0342V35.5195V33.0293V30.5391V28.0244H90.1992H92.7139H95.2041H97.6943H100.209H102.699H105.214V30.5391ZM100.209 40.5244H102.699V38.0342V35.5195V33.0293H100.209H97.6943H95.2041H92.7139V35.5195V38.0342V40.5244H95.2041H97.6943H100.209ZM128.651 28H131.142V30.5146V33.0049H128.651H126.137H123.646H121.132H118.642H116.151V35.5195V38.0098H118.642H121.132H123.646H126.137H128.651V40.5H126.137V43.0146H123.646H121.132H118.642H116.151V45.5049V47.9951H118.642H121.132H123.646H126.137H128.651H131.142V50.5098V53H128.651H126.137H123.646H121.132H118.642H116.151H113.637H111.146V50.5098V47.9951V45.5049V43.0146V40.5V38.0098V35.5195V33.0049V30.5146V28H113.637H116.151H118.642H121.132H123.646H126.137H128.651ZM152.064 30.5146H154.579V33.0049V35.5195H152.064H149.574V33.0049H147.084H144.569H142.079H139.564V35.5195V38.0098V40.5V43.0146V45.5049V47.9951H142.079H144.569H147.084H149.574V45.5049V43.0146H147.084H144.569H142.079V40.5V38.0098H144.569H147.084H149.574H152.064V40.5H154.579V43.0146V45.5049V47.9951V50.5098H152.064V53H149.574H147.084H144.569H142.079H139.564H137.074V50.5098H134.584V47.9951V45.5049V43.0146V40.5V38.0098V35.5195V33.0049V30.5146H137.074V28H139.564H142.079H144.569H147.084H149.574H152.064V30.5146ZM175.526 28V30.9541V33.0049H173.012H170.521V35.5195V38.0098V40.5V43.0146V45.5049V47.9951H173.012H175.526V53H173.012H170.521H168.031H165.517H163.026H160.512V47.9951H163.026H165.517V45.5049V43.0146V40.5V38.0098V35.5195V33.0049H163.026H160.512V28H163.026H165.517H168.031H170.521H173.012H175.526ZM175.526 28H178.017V30.5146V33.0049H175.526H173.012H170.521H168.031H165.517H163.026H160.536H158.021V30.5146V28H160.536H163.026H165.517H168.031H170.521H173.012H175.526ZM175.526 48.0195H178.017V50.5098V53H175.526H173.012H170.521H168.031H165.517H163.026H160.536H158.021V50.5098V48.0195H160.536H163.026H165.517H168.031H170.521H173.012H175.526ZM198.939 30.5391H201.454V33.0293V35.5195H198.939H196.449V33.0293H193.959H191.444H188.954H186.464V35.5195V38.0342H188.954H191.444H193.959H196.449H198.939V40.5244H201.454V43.0146V45.5293V48.0195V50.5098H198.939V53.0244H196.449H193.959H191.444H188.954H186.464H183.949V50.5098H181.459V48.0195V45.5293H183.949H186.464V48.0195H188.954H191.444H193.959H196.449V45.5293V43.0146H193.959H191.444H188.954H186.464V40.5244H183.949V38.0342H181.459V35.5195V33.0293V30.5391H183.949V28.0244H186.464H188.954H191.444H193.959H196.449H198.939V30.5391ZM222.377 28.0244H224.892V30.5391V33.0293V35.5195H222.377V33.0293H219.887H217.396V35.5195V38.0342V40.5244V43.0146V45.5293V48.0195V50.5098V53.0244H214.882H212.392V50.5098V48.0195V45.5293V43.0146V40.5244V38.0342V35.5195V33.0293H209.877H207.387V35.5195H204.896V33.0293V30.5391V28.0244H207.387H209.877H212.392H214.882H217.396H219.887H222.377ZM245.839 28H248.329V30.5146V33.0049H245.839H243.324H240.834H238.319H235.829H233.339V35.5195V38.0098H235.829H238.319H240.834H243.324H245.839V40.5H243.324V43.0146H240.834H238.319H235.829H233.339V45.5049V47.9951H235.829H238.319H240.834H243.324H245.839H248.329V50.5098V53H245.839H243.324H240.834H238.319H235.829H233.339H230.824H228.334V50.5098V47.9951V45.5049V43.0146V40.5V38.0098V35.5195V33.0049V30.5146V28H230.824H233.339H235.829H238.319H240.834H243.324H245.839ZM269.276 30.5391H271.767V33.0293V35.5195V38.0342V40.5244H269.276V43.0146H266.762V45.5293H269.276V48.0195H271.767V50.5098V53.0244H269.276H266.762V50.5098H264.271V48.0195H261.757V45.5293H259.267H256.776V48.0195V50.5098V53.0244H254.262H251.771V50.5098V48.0195V45.5293V43.0146V40.5244V38.0342V35.5195V33.0293V30.5391V28.0244H254.262H256.776H259.267H261.757H264.271H266.762H269.276V30.5391ZM264.271 40.5244H266.762V38.0342V35.5195V33.0293H264.271H261.757H259.267H256.776V35.5195V38.0342V40.5244H259.267H261.757H264.271ZM301.039 28H303.529V30.5146V33.0049V35.5195V38.0098V40.5V43.0146V45.5049V47.9951V50.5098V53H301.039H298.549H296.034H293.544V50.5098H291.054V47.9951V45.5049V43.0146V40.5V38.0098V35.5195V33.0049V30.5146H288.539V33.0049V35.5195V38.0098V40.5V43.0146V45.5049V47.9951V50.5098V53H286.049H283.559V50.5098V47.9951V45.5049V43.0146V40.5V38.0098V35.5195V33.0049V30.5146V28H286.049H288.539H291.054H293.544V30.5146H296.034V33.0049V35.5195V38.0098V40.5V43.0146V45.5049V47.9951V50.5098H298.549V47.9951V45.5049V43.0146V40.5V38.0098V35.5195V33.0049V30.5146V28H301.039ZM324.452 30.5391H326.942V33.0293V35.5195V38.0342V40.5244V43.0146V45.5293V48.0195V50.5342H324.452V53.0244H321.962H319.447H316.957H314.442H311.952H309.462V50.5342H306.947V48.0195V45.5293V43.0146V40.5244V38.0342V35.5195V33.0293V30.5391H309.462V28.0244H311.952H314.442H316.957H319.447H321.962H324.452V30.5391ZM321.962 35.5195V33.0293H319.447H316.957H314.442H311.952V35.5195V38.0342V40.5244V43.0146V45.5293V48.0195H314.442H316.957H319.447H321.962V45.5293V43.0146V40.5244V38.0342V35.5195ZM347.865 28.0244H350.355V30.5391V33.0293V35.5195V38.0342V40.5244V43.0146V45.5293V48.0195V50.5342V53.0244H347.865H345.375V50.5342H342.86V48.0195H340.37H337.88V50.5342H335.365V53.0244H332.875H330.385V50.5342V48.0195V45.5293V43.0146V40.5244V38.0342V35.5195V33.0293V30.5391V28.0244H332.875H335.365V30.5391V33.0293V35.5195V38.0342V40.5244V43.0146V45.5293H337.88V43.0146V40.5244V38.0342V35.5195V33.0293V30.5391H340.37H342.86V33.0293V35.5195V38.0342V40.5244V43.0146V45.5293H345.375V43.0146V40.5244V38.0342V35.5195V33.0293V30.5391V28.0244H347.865Z" fill="#192051"/>
</svg>
