<svg width="86" height="86" viewBox="0 0 86 86" fill="none" xmlns="http://www.w3.org/2000/svg">
<path d="M39.7867 67.1567C39.7813 65.553 39.776 63.9493 39.7707 62.3455C39.5869 62.2257 39.3817 62.3082 39.1873 62.2843C35.9159 62.2843 32.6471 62.2843 29.3758 62.2789C29.104 62.2789 28.8137 62.3509 28.5766 62.1351C28.5446 61.9113 28.7124 61.9513 28.8296 61.9513C32.2262 61.9513 35.6202 61.9459 39.0168 61.9513C39.0834 61.9513 39.1153 61.9806 39.1233 62.0205C38.9821 61.8687 38.7823 61.9539 38.6118 61.9539C35.4417 61.9486 32.2689 61.9406 29.0987 61.9593C28.6352 61.9619 28.4993 61.8367 28.51 61.3705C28.5393 60.0092 28.5233 58.6479 28.5179 57.2866C28.5179 57.1055 28.5766 56.9137 28.454 56.7432C26.7011 56.7432 24.9482 56.7432 23.1953 56.7405C22.9901 56.7405 22.7264 56.8417 22.6412 56.5194C22.5186 56.0079 22.5879 55.4911 22.5906 54.9769C22.5985 53.6662 22.5346 52.3529 22.6252 51.0422C22.4574 50.8637 22.2389 50.9383 22.0444 50.9383C20.5926 50.933 19.1407 50.9223 17.6888 50.9436C17.2759 50.949 17.14 50.8291 17.1453 50.4082C17.164 48.7512 17.148 47.0968 17.1453 45.4398C17.2839 45.256 17.489 45.2214 17.6915 45.2214C19.3378 45.2214 20.9842 45.1654 22.6305 45.2453C24.3808 45.1681 26.131 45.2214 27.8839 45.216C28.0917 45.216 28.2915 45.2613 28.4647 45.3865C28.7044 45.6449 28.6778 45.9726 28.6804 46.2843C28.6884 47.5337 28.6805 48.7831 28.6858 50.0299C28.6884 50.6453 28.7337 50.6906 29.3624 50.6932C30.5932 50.7012 31.824 50.6932 33.0521 50.6985C33.3664 50.6985 33.6914 50.6719 33.9632 50.8824C34.1923 51.1461 34.163 51.4738 34.1656 51.7855C34.1736 53.1281 34.1656 54.4681 34.171 55.8108C34.1736 56.4741 34.2109 56.5061 34.8609 56.5167C36.4993 56.5407 38.1403 56.4714 39.7787 56.554C41.4676 56.4768 43.1566 56.5247 44.8429 56.5274C45.0294 56.5274 45.2132 56.5673 45.3677 56.6872C45.6128 56.943 45.5835 57.2706 45.5862 57.585C45.5942 58.8344 45.5835 60.0865 45.5915 61.3359C45.5968 61.9593 45.6368 61.9992 46.2682 62.0019C47.5362 62.0099 48.807 62.0019 50.075 62.0046C50.3734 62.0046 50.6744 61.9886 50.9621 62.0925C51.0287 62.1138 51.0927 62.1458 51.1539 62.1804C51.3537 62.3162 51.5828 62.2843 51.804 62.2843C54.8622 62.2843 57.9178 62.2843 60.9761 62.2843C61.2185 62.2843 61.4609 62.2896 61.6954 62.2044C61.9458 62.183 62.2069 62.1191 62.404 62.3482C62.5186 62.5933 62.4813 62.857 62.4839 63.1128C62.4866 64.7591 62.4839 66.4055 62.4866 68.0518C62.3081 68.257 62.0603 68.2676 61.8179 68.2676C56.4526 68.2756 51.09 68.2729 45.7247 68.2676C45.6128 68.2676 45.5036 68.241 45.3917 68.233C43.7214 68.3049 42.0537 68.2623 40.3834 68.257C40.2715 68.257 40.1623 68.2277 40.0584 68.185C39.8373 68.1131 39.8266 67.9373 39.824 67.7455C39.8213 67.5457 39.8639 67.3432 39.784 67.1487L39.7867 67.1567Z" fill="#5E4194"/>
<path d="M67.9851 79.3605C67.9851 81.0015 67.9691 82.6426 68.0037 84.2809C68.0144 84.8137 67.8679 84.9736 67.3218 84.9709C60.0144 84.9523 52.7071 84.9602 45.4024 84.9576C43.5189 84.9576 41.6381 84.9469 39.7547 84.9416C39.7067 84.891 39.6668 84.8324 39.6348 84.7684C39.5069 84.4088 39.5602 84.0332 39.5549 83.6655C39.5389 82.3495 39.5709 81.0308 39.5363 79.7148C39.5096 79.6296 39.4856 79.5417 39.4084 79.4804C38.5266 79.3392 37.6421 79.4271 36.7577 79.4245C36.0411 79.4245 35.3191 79.3286 34.6079 79.5017C34.3548 79.5204 34.0937 79.563 33.8832 79.3605C33.7367 79.1501 33.7261 78.9076 33.7261 78.6652C33.7207 77.2187 33.7207 75.7694 33.7261 74.3229C33.7261 74.0805 33.7394 73.8381 33.8939 73.6329C34.1124 73.4385 34.3841 73.4891 34.6398 73.4891C36.3102 73.4784 37.9805 73.4971 39.6535 73.4784C39.8 73.4704 39.9332 73.4091 40.0744 73.3825C41.6728 73.2573 43.2712 73.3212 44.8722 73.3479C45.1413 73.3532 45.3811 73.4651 45.4956 73.7448C45.6262 74.0858 45.5889 74.4428 45.5915 74.7944C45.5942 75.9693 45.5915 77.1414 45.5915 78.3162C45.5915 79.1101 45.6208 79.1394 46.4014 79.1394C51.6548 79.1421 56.9109 79.1394 62.1643 79.1394C63.8026 79.1394 65.4436 79.1394 67.082 79.1394C67.3963 79.1394 67.724 79.1048 67.9771 79.3579L67.9851 79.3605Z" fill="#482A64"/>
<path d="M67.9797 11.4978C67.9824 13.1522 67.9744 14.8065 67.9984 16.4609C68.0037 16.8818 67.8625 17.0017 67.4523 16.9963C65.7979 16.9777 64.1436 16.991 62.4866 16.991C62.4333 17.0443 62.3747 17.0842 62.3081 17.1162C62.2015 17.1455 62.0976 17.1935 61.9857 17.1935C60.2115 17.1988 58.4373 17.2601 56.6631 17.1615C52.8642 17.2521 49.0654 17.2201 45.2665 17.1801C43.6894 17.1269 42.1123 17.1642 40.5352 17.1508C40.3514 17.1508 40.1596 17.1642 40.0024 17.0363C39.8692 16.7912 39.9385 16.5248 39.9385 16.2691C39.9332 14.8411 39.9278 13.4106 39.9385 11.9827C39.9278 13.629 39.9465 15.2754 39.9252 16.9191C39.8932 16.999 39.8399 17.0203 39.7627 16.9857V16.991C39.5202 16.7353 39.5496 16.4102 39.5469 16.0959C39.5416 14.8518 39.5522 13.6051 39.5416 12.361C39.5362 11.7749 39.4883 11.7269 38.8969 11.7216C37.5595 11.7109 36.2196 11.7216 34.8822 11.7163C34.5865 11.7163 34.2855 11.7403 34.0031 11.6071C33.9365 11.5698 33.8859 11.5191 33.8433 11.4579C33.7314 11.2554 33.7207 11.029 33.7207 10.8052C33.7154 9.44655 33.7154 8.08525 33.7207 6.72661C33.7207 6.46554 33.7207 6.2018 33.8992 5.98069C34.1257 5.79954 34.3974 5.85015 34.6531 5.84749C36.3314 5.8395 38.0124 5.85015 39.6907 5.8395C41.3584 5.55978 43.0367 5.70097 44.7124 5.73027C44.9362 5.73294 45.1573 5.79155 45.3491 5.92208C45.4077 5.96737 45.453 6.02331 45.4849 6.08991C45.6022 6.35631 45.5862 6.6387 45.5835 6.91575C45.5782 8.16517 45.6128 9.41725 45.5649 10.664C45.5489 11.0956 45.7087 11.2927 46.143 11.2741C46.3667 11.2634 46.5905 11.2741 46.8143 11.2741C53.5116 11.2741 60.2089 11.2741 66.9088 11.2767C67.2738 11.2767 67.6627 11.1968 67.9744 11.4898L67.9797 11.4978Z" fill="#482A64"/>
<path d="M45.3651 0.183831C52.747 0.181167 60.1263 0.181167 67.5082 0.167847C67.9238 0.167847 68.0011 0.335679 67.9984 0.700646C67.9824 2.43491 67.9878 4.16651 67.9851 5.90077C67.6761 6.24975 67.2525 6.23377 66.8449 6.23643C65.0574 6.24443 63.2671 6.2391 61.4796 6.2391C56.5059 6.2391 51.5322 6.2391 46.5586 6.2391C46.151 6.2391 45.7327 6.28172 45.3757 6.01532C45.1546 5.79954 45.152 5.51715 45.152 5.2401C45.1493 3.81486 45.1493 2.39228 45.152 0.967046C45.152 0.687326 45.16 0.407607 45.3677 0.186496L45.3651 0.183831Z" fill="#703A91"/>
<path d="M67.9851 79.3605C60.6351 79.3605 53.2851 79.3605 45.9352 79.3738C45.4929 79.3738 45.3571 79.2459 45.3624 78.801C45.3864 77.1227 45.3731 75.4444 45.3731 73.7634C45.4556 73.6355 45.5622 73.537 45.7141 73.4943C46.0417 73.4011 46.3801 73.4277 46.7157 73.4277C52.9655 73.4277 59.2179 73.4277 65.4676 73.4277C66.0457 73.4277 66.6238 73.4464 67.1992 73.3505C67.4763 73.3052 67.7613 73.3132 67.9851 73.537C67.9851 75.479 67.9851 77.4184 67.9851 79.3605V79.3605Z" fill="#543175"/>
<path d="M67.9851 73.537C60.5232 73.7928 53.0587 73.5797 45.5968 73.6516C45.2292 73.6036 45.1733 73.3133 45.1653 73.0362C45.136 71.547 45.1386 70.0552 45.1626 68.5634C45.1653 68.3715 45.2265 68.1957 45.3651 68.0572C51.074 68.0572 56.7803 68.0572 62.4893 68.0572C64.1249 68.0572 65.7606 68.0732 67.3937 68.0492C67.8386 68.0439 68.0117 68.1451 68.0011 68.63C67.9691 70.2657 67.9851 71.8987 67.9824 73.5344L67.9851 73.537Z" fill="#703A91"/>
<path d="M45.3731 6.01533C45.6688 6.01533 45.9618 6.01533 46.2575 6.01533C53.112 6.01533 59.9665 6.01267 66.8209 6.02332C67.2179 6.02332 67.5935 5.91943 67.9824 5.90344C67.9824 7.77091 67.9824 9.6357 67.9824 11.5032C60.6218 11.5032 53.2638 11.5032 45.9032 11.5192C45.4317 11.5192 45.2825 11.2954 45.3118 10.9304C45.445 9.29471 45.3278 7.65635 45.3731 6.01799V6.01533Z" fill="#543175"/>
<path d="M73.9338 50.9357C73.7393 51.1168 73.8112 51.3539 73.8086 51.567C73.8032 53.0908 73.8086 54.6146 73.8006 56.1411C73.8006 56.3329 73.8858 56.5514 73.7073 56.7192C73.6541 56.6713 73.6114 56.6153 73.5821 56.5514C73.4782 55.0542 73.5635 53.557 73.5368 52.0572C73.5315 51.7988 73.5715 51.5351 73.3956 51.3113C73.2092 51.1008 72.9561 51.1381 72.719 51.1381C71.419 51.1275 70.1216 51.1381 68.8216 51.1301C68.5099 51.1301 68.1822 51.1594 67.9318 50.9064C67.7613 50.6613 67.7719 50.3762 67.7693 50.0992C67.7666 46.9157 67.764 43.7322 67.7693 40.5487C67.7693 39.6669 67.8892 39.5604 68.7789 39.5577C70.0816 39.5551 71.3843 39.5577 72.6897 39.5577C72.9508 39.5577 73.2092 39.5497 73.4676 39.4965C73.5821 39.4885 73.6913 39.4991 73.7952 39.5524C73.8565 39.5977 73.9045 39.6536 73.9391 39.7202C73.9871 39.8215 74.0164 39.9307 74.0164 40.0426C74.0323 41.8381 74.0723 43.6363 73.9977 45.4318C74.0776 47.1022 74.019 48.7725 74.0297 50.4455C74.0297 50.616 73.9577 50.7705 73.9311 50.9357H73.9338Z" fill="#5E75C2"/>
<path d="M22.6465 45.4238C20.8137 45.4292 18.9808 45.4345 17.1453 45.4398C16.9349 45.2187 16.9296 44.939 16.9296 44.6593C16.9269 43.234 16.9269 41.8088 16.9296 40.3836C16.9296 40.1038 16.9375 39.8241 17.1427 39.6003C17.1453 37.9407 17.1613 36.2783 17.1427 34.6187C17.14 34.2297 17.2519 34.1098 17.6462 34.1125C19.3058 34.1258 20.9682 34.1045 22.6278 34.0992C22.6545 34.1232 22.6838 34.1471 22.7104 34.1711C22.777 34.2643 22.7957 34.3709 22.7983 34.4828C22.7664 37.8128 22.8916 41.1428 22.857 44.4728C22.8543 44.8031 22.9076 45.1521 22.6412 45.4238H22.6465Z" fill="#755AC0"/>
<path d="M34.0644 22.8225C35.9612 22.8172 37.8579 22.8118 39.7547 22.8065C39.8133 22.7639 39.8746 22.7239 39.9385 22.6919C40.0078 22.668 40.0797 22.6493 40.149 22.6307C41.6781 22.5534 43.2072 22.5934 44.7364 22.6094C45.1333 22.612 45.421 22.7719 45.421 23.2381C45.421 24.8231 45.437 26.4082 45.413 27.996C45.413 28.0706 45.3891 28.1425 45.3624 28.2144C45.2239 28.4595 44.9841 28.5128 44.739 28.5128C43.0847 28.5208 41.433 28.5687 39.7787 28.4915C38.0844 28.5687 36.3901 28.5181 34.6958 28.5181C34.5093 28.5181 34.3255 28.4808 34.1683 28.3636C33.9632 28.1531 34.0111 27.8814 34.0111 27.6283C34.0031 26.0939 34.0138 24.5594 34.0031 23.0249C34.0031 22.9504 34.0218 22.8838 34.0617 22.8225H34.0644Z" fill="#BEB9EF"/>
<path d="M11.5536 16.9883C11.5163 16.9883 11.479 16.9883 11.4417 16.9883C11.2446 16.7965 11.2792 16.5461 11.2765 16.309C11.2739 15.0676 11.2739 13.8288 11.2765 12.5874C11.2765 12.3263 11.2765 12.0679 11.1167 11.8441C10.9569 11.607 10.7171 11.6949 10.5066 11.7003C9.24656 11.7322 7.9865 11.7189 6.72376 11.7083C6.37478 11.7056 6.00448 11.7136 5.78603 11.3486C5.69545 11.1595 5.67415 10.9597 5.67415 10.7519C5.67415 9.3586 5.66882 7.96533 5.67681 6.5694C5.68214 5.91672 5.82067 5.79151 6.47335 5.79684C7.68014 5.80749 8.88959 5.80483 10.0964 5.7995C10.504 5.7995 10.9142 5.79151 11.3138 5.69294C12.9682 5.67163 14.6252 5.69294 15.9492 5.68495C14.7877 5.68495 13.2958 5.68495 11.8013 5.68495C11.6202 5.68495 11.4257 5.71958 11.2685 5.57839C11.114 5.3706 11.106 5.12551 11.106 4.88309C11.1007 3.59638 11.0954 2.307 11.106 1.02029C11.114 0.26105 11.2392 0.14117 11.9852 0.146498C13.6635 0.15449 15.3445 0.119858 17.0228 0.165146C17.2972 0.330314 17.3505 0.60737 17.3558 0.889754C17.3824 2.4109 17.3718 3.93204 17.3611 5.45318C17.3611 5.63966 17.3291 5.82348 17.2199 5.98332C17.148 6.07389 17.0494 6.11652 16.9375 6.12984C15.2246 6.0366 13.5116 6.07123 11.8013 6.10852C11.6202 6.15381 11.503 6.26304 11.4524 6.44419C11.3058 6.99297 11.3831 7.55241 11.3884 8.10386C11.3991 9.00962 11.3005 9.91804 11.455 10.8185C11.4976 11.0609 11.5856 11.2847 11.7747 11.4552C12.1583 11.7269 12.2009 12.1345 12.2089 12.5501C12.2276 13.3892 12.2276 14.2257 12.2089 15.0649C12.1983 15.5471 12.4194 15.6696 12.8536 15.6643C13.842 15.6536 14.8276 15.6536 15.816 15.6643C16.157 15.6696 16.49 15.7069 16.751 15.9627C16.9002 16.1092 17.0414 16.2743 16.9615 16.5008C16.8842 16.7166 16.6924 16.8045 16.4767 16.8178C16.085 16.8418 15.6934 16.8258 15.3045 16.8258C14.2602 16.8258 13.2186 16.8258 12.1743 16.8258C11.9532 16.8258 11.7214 16.7912 11.5536 16.991V16.9883Z" fill="#380762"/>
<path d="M17.0494 0.197121C15.3551 0.197121 13.6635 0.207778 11.9692 0.183802C11.487 0.178474 11.3112 0.330322 11.3192 0.823162C11.3431 2.40558 11.3298 3.98533 11.3325 5.56774C11.3964 5.64233 11.3938 5.71693 11.3325 5.79152C11.2446 5.96201 11.1034 6.00997 10.9169 6.0073C9.33448 5.98333 7.75206 6.07923 6.16965 5.96201C5.76206 5.93271 5.84464 6.2444 5.84464 6.46551C5.83665 8.10653 5.84198 9.75022 5.84198 11.3912C5.8926 11.4285 5.88993 11.4685 5.84198 11.5058C5.75407 11.2207 5.50366 11.5937 5.39443 11.3939C5.19197 11.1914 5.17598 10.933 5.17332 10.6693C5.16799 9.42521 5.15733 8.18379 5.18131 6.9397C5.18664 6.65199 5.11471 6.2737 5.56759 6.20177C5.63153 6.24706 5.66616 6.311 5.66882 6.38825C5.67948 7.82415 5.66882 9.25738 5.67682 10.6933C5.67149 9.24406 5.68214 7.79484 5.67148 6.34563C5.54628 6.1778 5.63685 6.04193 5.73276 5.90607C5.86596 5.68496 5.84464 5.44253 5.84464 5.20011C5.84997 3.6763 5.86063 2.1525 5.8553 0.62869C5.8553 0.34897 5.9512 0.205113 6.23092 0.197121C6.28687 0.197121 6.34281 0.194458 6.39876 0.194458C9.98716 0.22909 13.5702 -0.00800605 17.1586 0.0852339C17.1933 0.12253 17.2013 0.16249 17.172 0.205114C17.1293 0.231754 17.0894 0.231754 17.0494 0.194458V0.197121Z" fill="#370C44"/>
<path d="M17.1453 39.6003C17.1453 41.5477 17.1453 43.4951 17.1453 45.4398C15.3951 45.4398 13.6422 45.4238 11.8919 45.4451C11.4444 45.4505 11.3218 45.3093 11.3272 44.8724C11.3511 43.3086 11.3485 41.7422 11.3272 40.1784C11.3218 39.7468 11.4364 39.5977 11.8893 39.603C13.6395 39.6243 15.3924 39.603 17.1427 39.5977L17.1453 39.6003Z" fill="#5E4195"/>
<path d="M5.84198 79.7015C5.83132 79.4884 5.7141 79.4617 5.5143 79.4324C4.58457 79.2939 3.65483 79.3898 2.72509 79.3711C1.94721 79.3578 1.16399 79.3711 0.386105 79.4191C0.0824089 79.4377 0.0264659 79.3152 0.0291299 79.0754C0.0344579 77.3652 0.0451133 75.6549 0.0451133 73.9419C0.0451133 73.6835 0.0930675 73.5876 0.388771 73.6009C2.08041 73.6729 3.77205 73.7155 5.46368 73.5849C5.54893 73.5796 5.63951 73.6276 5.73008 73.6515C5.80201 73.6169 5.86062 73.6329 5.91123 73.6942C6.09505 73.9792 6.04976 74.3016 6.05509 74.6132C6.08173 76.1717 6.01247 77.7301 6.09772 79.2859C6.12436 79.3472 6.14301 79.4111 6.151 79.4777C6.12969 79.6642 6.0764 79.8054 5.84463 79.6988L5.84198 79.7015Z" fill="#370C44"/>
<path d="M28.129 0.18648L28.4646 0.18648C28.6271 0.362304 28.6778 0.578088 28.6778 0.807191C28.6884 2.35497 28.6884 3.90009 28.6778 5.44788C28.6778 5.61571 28.6565 5.78354 28.5765 5.93805C28.5419 6.00732 28.4939 6.0606 28.4327 6.10322C28.1956 6.23908 27.9318 6.23376 27.6734 6.23376C26.2988 6.23908 24.9242 6.23908 23.5496 6.23376C23.2912 6.23376 23.0274 6.24175 22.7983 6.08191C22.6065 5.69296 22.5825 5.28004 22.5852 4.8538C22.5932 3.55644 22.5852 2.25907 22.5905 0.961704C22.5905 0.727272 22.5426 0.474191 22.737 0.277055C24.3354 0.207791 25.9338 0.2664 27.5322 0.242424C27.732 0.23976 27.9425 0.303696 28.1316 0.181152L28.129 0.18648Z" fill="#EE3A65"/>
<path d="M67.9931 50.9223C69.8312 50.933 71.6694 50.9463 73.5076 50.9623C73.5715 50.9623 73.6354 51.0129 73.6994 51.0395C73.5821 51.6629 73.6488 52.2916 73.6541 52.9176C73.6647 54.1537 73.5821 55.3925 73.6994 56.6259C73.702 56.6579 73.7047 56.6899 73.71 56.7192C71.8079 56.7325 69.9032 56.7458 68.0011 56.7591C67.9744 56.7351 67.9478 56.7112 67.9185 56.6872C67.7746 56.4741 67.7773 56.229 67.7773 55.9892C67.772 54.5587 67.772 53.1281 67.7773 51.6975C67.7773 51.4578 67.7746 51.2127 67.9132 50.9969C67.9398 50.9729 67.9664 50.9489 67.9957 50.9223H67.9931Z" fill="#827CC2"/>
<path d="M33.9498 0.186502C33.9871 0.186502 34.0218 0.186502 34.0591 0.186502C34.2269 0.306382 34.4214 0.247774 34.6025 0.247774C36.129 0.253102 37.6581 0.247774 39.1846 0.253102C39.387 0.253102 39.5948 0.202486 39.7893 0.306382C39.9705 0.484869 39.9358 0.716637 39.9385 0.935085C39.9518 2.43492 39.9198 3.93475 39.9571 5.43458C39.9625 5.60774 39.9332 5.76491 39.8133 5.89811C39.4323 6.02599 39.0407 5.9514 38.6544 5.95406C37.2798 5.96472 35.9052 5.95939 34.5279 5.95939C33.8566 5.95939 33.7633 5.89012 33.742 5.20281C33.7047 4.1452 33.7207 3.08493 33.734 2.02466C33.7394 1.47055 33.6435 0.908446 33.8246 0.36499C33.8619 0.301054 33.9045 0.239782 33.9525 0.183838L33.9498 0.186502Z" fill="#FD9767"/>
<path d="M11.3325 68.0572C13.2772 68.0599 15.2193 68.0625 17.164 68.0652C17.3212 68.2197 17.3638 68.4195 17.3638 68.6246C17.3771 70.1058 17.3824 71.587 17.3611 73.0682C17.3611 73.1801 17.3238 73.2866 17.2972 73.3958C17.2546 73.5477 17.1693 73.6649 17.0361 73.7475C16.8336 73.8567 16.6099 73.8674 16.3861 73.87C14.9209 73.8754 13.4557 73.878 11.9932 73.87C11.788 73.87 11.5856 73.8594 11.3964 73.7635C11.3298 73.7262 11.2765 73.6782 11.2339 73.6143C11.1034 73.3745 11.1087 73.1135 11.1087 72.8524C11.1061 71.5337 11.1061 70.2124 11.1087 68.8937C11.1087 68.598 11.0954 68.2916 11.3325 68.0572V68.0572Z" fill="#380762"/>
<path d="M17.172 84.9416C15.2992 84.9469 13.4264 84.9549 11.5536 84.9602C11.3192 84.8857 11.17 84.7391 11.1726 84.4807C11.1886 82.7971 11.0901 81.1134 11.2233 79.4325C11.2579 79.3659 11.3058 79.3099 11.3698 79.27C11.5909 79.1474 11.836 79.1447 12.0784 79.1447C13.5143 79.1394 14.9529 79.1394 16.3887 79.1447C16.6498 79.1447 16.9136 79.1447 17.1427 79.3046C17.2306 79.3818 17.2785 79.4804 17.3025 79.5923C17.4464 80.3276 17.3558 81.0735 17.3691 81.8141C17.3851 82.5946 17.3771 83.3725 17.3691 84.1531C17.3691 84.4301 17.3877 84.7152 17.1693 84.9389L17.172 84.9416Z" fill="#380762"/>
<path d="M67.9957 28.297C69.7487 28.3023 71.5042 28.321 73.2571 28.297C73.702 28.2917 73.8193 28.4169 73.8113 28.8564C73.7846 30.4042 73.8192 31.9546 73.7899 33.5024C73.782 33.974 73.8725 34.1445 74.392 34.1285C75.8652 34.0885 77.3411 34.1285 78.8142 34.1045C79.2005 34.0992 79.3231 34.1977 79.3151 34.5973C79.2911 36.1078 79.3204 37.621 79.2964 39.1315C79.2911 39.5284 79.403 39.6296 79.7946 39.6243C81.4543 39.6056 83.1166 39.6216 84.7763 39.6243C84.8189 39.6909 84.8056 39.7468 84.7416 39.7948C84.6564 39.8561 84.5578 39.88 84.4593 39.904C83.1779 39.9653 81.8965 39.9333 80.6124 39.9227C80.1489 39.92 79.6934 40.0798 79.2298 39.96C78.9554 39.8268 78.6597 39.8241 78.3614 39.8241C77.1226 39.8241 75.8838 39.8241 74.6451 39.8241C74.3494 39.8241 74.0484 39.8348 73.8033 39.6216H73.7979C73.6248 39.4138 73.6514 39.1661 73.6514 38.9237C73.6488 37.7302 73.6461 36.5394 73.6514 35.3459C73.6541 34.9516 73.6221 34.5654 73.4916 34.1897C73.4756 34.1205 73.4703 34.0512 73.4729 33.9793C73.5768 32.2717 73.5688 30.564 73.4729 28.8591C73.4383 28.8085 73.4037 28.7578 73.3637 28.7126C73.1559 28.5394 72.9108 28.5714 72.6711 28.5714C71.3551 28.5714 70.0417 28.5714 68.7257 28.5714C68.5232 28.5714 68.3181 28.59 68.1183 28.5261C68.0544 28.4968 68.0037 28.4542 67.9664 28.3929C67.9744 28.3609 67.9851 28.3263 67.9931 28.2943L67.9957 28.297Z" fill="#BEB9EF"/>
<path d="M33.9498 0.306386C33.9498 1.94208 33.9632 3.57511 33.9445 5.21081C33.9392 5.73828 34.0724 5.94074 34.6638 5.92476C36.3528 5.87681 38.0444 5.91144 39.7334 5.91144C39.808 5.94341 39.808 5.97271 39.7307 5.99935C37.81 6.00734 35.8892 6.01267 33.9685 6.02066C33.7447 6.22579 33.4677 6.24177 33.1853 6.24177C31.8666 6.24177 30.5479 6.2471 29.2266 6.24177C28.9522 6.24177 28.6618 6.26042 28.454 6.01267C28.454 4.07328 28.4593 2.13389 28.462 0.191833C28.4993 0.191833 28.5339 0.191833 28.5712 0.191833C28.8376 0.322369 29.1174 0.247778 29.3917 0.250442C30.7291 0.258434 32.0664 0.250442 33.4037 0.25577C33.5849 0.25577 33.7767 0.207818 33.9498 0.30905V0.306386Z" fill="#FE7161"/>
<path d="M39.8852 22.8145C39.8426 22.8118 39.7973 22.8065 39.7547 22.8038C39.8213 20.8671 39.792 18.9277 39.7707 16.991C39.8106 16.9856 39.8479 16.9803 39.8879 16.9776C39.9145 16.943 39.9385 16.9297 39.9625 16.943C39.9865 16.9563 39.9971 16.9696 39.9971 16.9803C41.7527 16.991 43.5083 16.999 45.2638 17.0096C45.5276 17.1295 45.5782 17.3692 45.5809 17.617C45.5889 19.33 45.6395 21.0402 45.5569 22.7532C45.5516 22.8251 45.5462 22.897 45.5436 22.969C45.5382 24.4528 45.5436 25.9367 45.5382 27.4205C45.5382 27.6603 45.5755 27.9054 45.4557 28.1318C45.4104 28.2011 45.3491 28.2224 45.2718 28.1931C45.2718 26.5893 45.2532 24.983 45.2745 23.3792C45.2798 22.937 45.1466 22.8011 44.7017 22.8065C43.1353 22.8304 41.5662 22.8145 39.9998 22.8118C39.8772 22.4282 39.9518 22.0366 39.9465 21.6476C39.9358 20.3236 39.9598 18.9996 39.9332 17.6756C39.9225 17.244 40.0637 17.1428 40.4713 17.1508C41.6648 17.1774 42.8583 17.1615 44.0517 17.1561C44.2036 17.1561 44.3741 17.2121 44.5073 17.0922C44.3554 17.236 44.1609 17.1535 43.9878 17.1535C42.7943 17.1615 41.6009 17.1694 40.4074 17.1508C40.0424 17.1455 39.9279 17.2494 39.9332 17.6223C39.9518 19.1701 39.9438 20.7179 39.9385 22.2657C39.9385 22.4495 39.9865 22.6386 39.8852 22.8145Z" fill="#A7A2D2"/>
<path d="M28.2436 28.3369C28.3155 28.3263 28.3901 28.3156 28.462 28.3023C28.4886 28.3289 28.5153 28.3529 28.5419 28.3796C28.6511 28.5394 28.6751 28.7259 28.6751 28.9124C28.6858 30.4681 28.6884 32.0266 28.6751 33.5824C28.6751 33.7875 28.6432 33.9899 28.502 34.1578C28.3048 34.3256 28.0624 34.3443 27.82 34.3443C26.3548 34.3522 24.8896 34.3522 23.4244 34.3443C23.2193 34.3443 23.0168 34.3309 22.8303 34.227C22.769 34.1871 22.7291 34.1311 22.7104 34.0592C22.7024 32.2104 22.6518 30.3616 22.7397 28.5128C22.7184 28.4462 22.7264 28.3849 22.7637 28.3263C24.5459 28.329 26.3281 28.3343 28.1104 28.3369C28.1077 28.4701 28.0065 28.4675 27.9159 28.4675C26.472 28.4701 25.0281 28.4675 23.5869 28.4701C25.0041 28.4701 26.4214 28.4701 27.8386 28.4701C27.9905 28.4701 28.137 28.4675 28.2436 28.3369V28.3369Z" fill="#755AC0"/>
<path d="M33.9871 11.4792C35.7534 11.4792 37.5196 11.4952 39.2858 11.4792C39.6721 11.4765 39.7973 11.5804 39.792 11.9773C39.768 13.6503 39.776 15.3233 39.7733 16.9963C37.8339 16.991 35.8919 16.983 33.9525 16.9777C33.7554 16.7965 33.7314 16.5541 33.7287 16.309C33.7207 14.9317 33.7207 13.5544 33.7287 12.1771C33.7287 11.9214 33.7234 11.647 33.9845 11.4792H33.9871Z" fill="#FD9767"/>
<path d="M28.47 16.9804C26.5333 16.9804 24.5965 16.9804 22.6598 16.9777C22.4547 16.8019 22.4254 16.5621 22.4227 16.317C22.4147 14.9184 22.4121 13.5198 22.4227 12.1212C22.4227 11.9161 22.4467 11.711 22.5586 11.5298C22.6039 11.4685 22.6625 11.4233 22.7291 11.3886C22.8143 11.3487 22.9022 11.314 22.9955 11.3114C24.6871 11.2661 26.3788 11.2741 28.0704 11.306C28.1823 11.306 28.2915 11.3433 28.3901 11.394C28.4567 11.4286 28.5126 11.4792 28.5552 11.5431C28.6778 11.7616 28.6804 12.0067 28.6831 12.2464C28.6884 13.5651 28.6884 14.8811 28.6831 16.1998C28.6831 16.4769 28.6938 16.7619 28.47 16.9804Z" fill="#EE3A65"/>
<path d="M39.7307 5.99666L39.7361 5.95404C39.7361 5.95404 39.7361 5.91142 39.7334 5.91142C39.8346 4.04129 39.7813 2.17383 39.76 0.3037C39.7947 0.3037 39.8293 0.303699 39.8639 0.301035C39.9838 0.426243 39.9359 0.58342 39.9359 0.727276C39.9359 2.14452 39.9438 3.55911 39.9359 4.97635C39.9811 3.38062 39.8719 1.78488 39.9918 0.189148C41.782 0.189148 43.5722 0.189148 45.3651 0.189148C45.3677 2.1312 45.3704 4.07592 45.3731 6.01798C43.4923 5.8315 41.6115 5.86879 39.7307 5.99933V5.99666Z" fill="#543175"/>
<path d="M39.7307 73.6329C37.81 73.6222 35.8919 73.5796 33.9712 73.6542C33.7634 73.8433 33.5076 73.87 33.2439 73.8726C31.8719 73.8753 30.5 73.878 29.1254 73.8726C28.9016 73.8726 28.6805 73.8567 28.4807 73.7314C28.4194 73.6835 28.3741 73.6249 28.3395 73.5583C28.2409 73.3478 28.2409 73.1241 28.2409 72.9003C28.2382 71.5576 28.2356 70.2123 28.2409 68.8696C28.2409 68.5926 28.2169 68.3022 28.4647 68.0918C30.9795 68.0811 33.497 68.0678 36.0118 68.0651C37.2239 68.0651 38.4334 68.0784 39.6455 68.0864C39.5682 68.3715 39.3178 68.3715 39.1074 68.3741C37.5489 68.4008 35.9905 68.3955 34.432 68.3795C34.2615 68.3795 34.1044 68.3235 33.9579 68.2409C32.1916 68.201 30.4254 68.233 28.6592 68.2223C30.4227 68.2383 32.1863 68.1903 33.9525 68.2516C34.2029 68.4834 34.1656 68.7951 34.1683 69.0881C34.179 70.2816 34.1656 71.475 34.1763 72.6712C34.1816 73.2706 34.2243 73.3132 34.813 73.3185C36.1557 73.3292 37.4983 73.3185 38.8436 73.3239C39.1393 73.3239 39.443 73.2919 39.7148 73.4624C39.7867 73.513 39.792 73.5716 39.7334 73.6355L39.7307 73.6329Z" fill="#FE7161"/>
<path d="M39.7307 73.5503C38.0018 73.5477 36.2755 73.529 34.5466 73.5503C34.0937 73.5556 33.9339 73.4331 33.9419 72.9589C33.9685 71.3978 33.9499 69.8367 33.9499 68.2783C33.8806 68.2383 33.8806 68.2037 33.9552 68.1744C35.6521 68.1717 37.3518 68.169 39.0487 68.161C39.2485 68.161 39.4617 68.217 39.6455 68.0838C39.6854 68.0758 39.7254 68.0678 39.7654 68.0598C39.9225 68.1957 39.9332 68.3822 39.9332 68.5686C39.9385 70.0498 39.9412 71.531 39.9332 73.0095C39.9332 73.2093 39.9492 73.4251 39.7307 73.5477V73.5503Z" fill="#FD9767"/>
<path d="M22.865 84.9655C22.8277 84.9549 22.793 84.9442 22.7557 84.9336C22.6998 84.8856 22.6572 84.827 22.6279 84.7604C22.4387 83.1673 22.5506 79.9412 22.8037 79.5949C22.9449 79.9519 22.9742 83.439 22.833 83.8866C22.9848 83.7827 22.9156 83.6468 22.9182 83.5403C22.9236 82.3468 22.9316 81.156 22.9182 79.9625C22.9129 79.6162 23.0221 79.4297 23.3844 79.4297C24.9296 79.4217 26.4773 79.4137 28.0225 79.4351C28.1903 79.4351 28.3555 79.4724 28.4993 79.5709C28.7044 79.824 28.6805 80.1304 28.6831 80.4261C28.6911 81.6195 28.6965 82.8157 28.6831 84.0091C28.6778 84.4647 28.8403 84.6405 29.3012 84.6352C30.532 84.6192 31.7654 84.6272 32.9962 84.6325C33.2759 84.6325 33.5583 84.6112 33.8247 84.7231C33.8913 84.7551 33.9419 84.8057 33.9818 84.867C33.9872 84.9522 33.9472 85.0002 33.8646 85.0108C32.157 85.0215 30.4467 85.0108 28.7391 85.0161C28.6112 85.0161 28.478 85.0401 28.3581 84.9655C28.3208 84.9655 28.2809 84.9655 28.2436 84.9655C27.1194 85.0827 25.9898 85.0028 24.863 85.0108C24.1996 85.0161 23.5336 85.0801 22.873 84.9655H22.865Z" fill="#EE3A65"/>
<path d="M79.3071 39.8348C81.06 39.603 82.8209 39.7682 84.5765 39.7309C84.8881 39.8987 84.8402 40.1971 84.8402 40.4715C84.8482 42.0566 84.8402 43.6443 84.8455 45.2294C84.8455 45.3013 84.8242 45.3679 84.7816 45.4265C82.9541 45.4398 81.1292 45.4505 79.3017 45.4638C79.2751 45.4372 79.2485 45.4132 79.2192 45.3865C79.0673 45.1548 79.0806 44.8884 79.0806 44.63C79.078 43.3086 79.0753 41.9873 79.0806 40.6659C79.0806 40.3729 79.046 40.0612 79.3044 39.8348H79.3071Z" fill="#BEB9EF"/>
<path d="M11.3325 68.0571C11.3298 69.9193 11.3245 71.7841 11.3218 73.6462C11.1886 73.814 11.0021 73.8194 10.8157 73.806C9.37444 73.6995 7.93055 73.7714 6.48666 73.7634C6.26289 73.7634 6.04178 73.7821 5.84198 73.6542C5.80469 73.6542 5.76739 73.6542 5.73009 73.6542C5.86329 73.4331 5.84198 73.1907 5.84198 72.9482C5.84198 71.5177 5.85797 70.0844 5.83399 68.6539C5.826 68.201 5.95121 68.0385 6.4254 68.0465C8.06109 68.0731 9.69945 68.0571 11.3351 68.0598L11.3325 68.0571Z" fill="#370C44"/>
<path d="M28.4673 68.0918C28.4673 69.9113 28.4673 71.7281 28.4646 73.5477C28.3075 73.8434 28.0224 73.8673 27.7427 73.87C26.3308 73.8833 24.9189 73.8833 23.5043 73.87C23.2485 73.87 22.9742 73.862 22.8143 73.5956C22.801 72.0239 22.809 70.4494 22.8116 68.8777C22.8116 68.6779 22.785 68.4674 22.9289 68.2942C23.2326 68.161 23.5522 68.233 23.8639 68.2303C25.164 68.2197 26.4613 68.225 27.2232 68.225C26.1523 68.2356 24.5459 68.2063 22.9369 68.2383C22.8649 68.241 22.801 68.2223 22.7424 68.1797C22.7424 68.1451 22.7424 68.1104 22.7424 68.0758C24.6498 68.0811 26.5599 68.0865 28.4673 68.0918V68.0918Z" fill="#EE3A65"/>
<path d="M5.83934 11.5058C5.83934 11.4686 5.83934 11.4313 5.83934 11.3913C6.85166 11.6124 7.87463 11.4765 8.89228 11.4925C9.53963 11.5032 10.1923 11.5804 10.8343 11.4259C11.0368 11.378 11.194 11.4686 11.3272 11.6151C11.4417 12.2757 11.3805 12.9417 11.3751 13.6051C11.3671 14.7319 11.4497 15.8615 11.3298 16.9857C9.68882 16.9857 8.04779 16.975 6.4041 16.9963C5.96455 17.0017 5.82335 16.8738 5.82868 16.4263C5.85266 14.7852 5.83667 13.1442 5.83667 11.5005L5.83934 11.5058Z" fill="#370C44"/>
<path d="M62.5079 22.7852C64.1676 22.7905 65.8246 22.8118 67.4842 22.7879C67.9158 22.7825 68.0064 22.9131 68.0011 23.3207C67.9798 24.9803 67.9957 26.6373 67.9957 28.297L67.9877 28.305C67.8172 28.4808 67.5961 28.5128 67.3724 28.5155C65.8672 28.5288 64.362 28.5181 62.8569 28.5208C62.7263 28.5208 62.5958 28.5048 62.4813 28.4355C62.3854 28.337 62.3481 28.2118 62.3481 28.0786C62.3481 26.3709 62.2921 24.6633 62.3774 22.9557C62.404 22.8864 62.4466 22.8278 62.5052 22.7825L62.5079 22.7852Z" fill="#BEB9EF"/>
<path d="M62.6144 62.2363C62.5851 62.2523 62.5558 62.2549 62.5239 62.247C62.4919 62.2336 62.4573 62.2203 62.4253 62.207C62.2415 62.0711 62.1989 61.866 62.1962 61.6609C62.1749 60.1344 62.1536 58.6053 62.2069 57.0788C62.2069 57.0042 62.2362 56.9323 62.2628 56.863C62.2921 56.7937 62.3347 56.7351 62.3907 56.6845C62.4519 56.6419 62.5185 56.6126 62.5905 56.594C63.2911 56.4528 63.9971 56.5433 64.7004 56.53C65.5369 56.514 66.3733 56.522 67.2072 56.53C67.4869 56.53 67.7693 56.5273 67.9931 56.7378L68.001 56.7644C68.001 58.4001 68.001 60.0358 67.9877 61.6715C67.9877 61.8633 68.081 62.0818 67.8865 62.2443C67.6228 62.1084 67.3377 62.1857 67.066 62.1857C65.7633 62.175 64.4606 62.1777 63.1579 62.1857C62.9767 62.1857 62.7849 62.1297 62.6144 62.2443V62.2363Z" fill="#755AC0"/>
<path d="M22.6492 11.5005C22.6518 13.3253 22.6572 15.1501 22.6598 16.975C20.827 16.9776 18.9915 16.983 17.1587 16.9856C16.8949 16.6713 16.9695 16.2664 16.9562 15.92C16.9029 14.6173 16.9216 13.312 16.9429 12.0066C16.9429 11.8574 16.9722 11.7109 17.0414 11.5751C17.0787 11.5085 17.1267 11.4525 17.1906 11.4099C17.4117 11.2873 17.6542 11.2847 17.8966 11.282C19.2206 11.2767 20.5446 11.2767 21.8686 11.282C22.1457 11.282 22.436 11.258 22.6492 11.4978V11.5005Z" fill="#8A0975"/>
<path d="M28.47 16.9803C28.47 15.1528 28.47 13.3253 28.47 11.5005C28.6645 11.282 28.9335 11.2873 29.1893 11.2873C30.5399 11.2793 31.8932 11.282 33.2439 11.2873C33.5076 11.2873 33.7607 11.3193 33.9791 11.4898L33.9871 11.4845C33.9765 13.3173 33.9631 15.1501 33.9525 16.983C32.125 16.983 30.2975 16.983 28.4673 16.983L28.47 16.9803Z" fill="#FE7161"/>
<path d="M5.61823 6.24173C5.29589 6.32165 5.39978 6.58805 5.39712 6.79051C5.38913 8.32498 5.39179 9.85944 5.39179 11.3939C3.80139 11.5804 2.20831 11.4765 0.61258 11.4578C-0.0987078 11.4498 0.00252704 11.1488 0.00785503 10.7039C0.026503 9.34529 0.0105187 7.98665 0.0158467 6.62801C0.0158467 5.99664 0.119741 5.98332 0.721805 5.98865C2.38947 6.00197 4.05979 6.13517 5.72479 5.90607C5.6875 6.01795 5.6502 6.12984 5.6129 6.24173H5.61823Z" fill="#370C44"/>
<path d="M73.9338 50.9357C73.7633 50.7678 73.8166 50.552 73.8166 50.3522C73.8139 48.7112 73.8166 47.0729 73.8166 45.4318C74.0377 45.2107 74.3201 45.2107 74.5998 45.2107C75.9238 45.2081 77.2478 45.2107 78.5718 45.2107C78.8356 45.2107 79.0966 45.2294 79.3151 45.4025C79.3284 45.4265 79.3257 45.4452 79.3018 45.4611C79.3018 47.0942 79.3044 48.7245 79.2964 50.3576C79.2964 50.5467 79.3897 50.7678 79.1925 50.925C78.8515 50.7918 78.4972 50.8717 78.1483 50.8664C76.9228 50.8557 75.6947 50.8584 74.4693 50.8664C74.2881 50.8664 74.0963 50.8131 73.9258 50.925L73.9311 50.9357H73.9338Z" fill="#827BC2"/>
<path d="M28.4647 28.3023C28.4673 26.648 28.4833 24.9936 28.4647 23.342C28.4593 22.9397 28.5552 22.7878 28.9895 22.7958C30.6065 22.8251 32.2209 22.8171 33.8379 22.8225C34.0457 23.0542 33.9978 23.342 34.0031 23.6163C34.0271 25.0975 33.9578 26.5787 34.0404 28.0599C34.0457 28.1744 34.0218 28.281 33.9338 28.3609C33.742 28.4995 33.5183 28.5154 33.2945 28.5154C31.9172 28.5234 30.5426 28.5234 29.1653 28.5154C28.9229 28.5154 28.6778 28.5074 28.4886 28.321L28.4673 28.2997L28.4647 28.3023Z" fill="#755AC0"/>
<path d="M22.7504 84.851C22.7531 84.8777 22.7557 84.9043 22.7557 84.9336C20.8936 84.9363 19.0315 84.9389 17.172 84.9416C17.172 83.1567 17.1693 81.3718 17.1667 79.5896C17.3398 79.4031 17.5716 79.4244 17.7927 79.4244C19.1487 79.4218 20.5073 79.4165 21.8633 79.4244C22.532 79.4298 22.6332 79.539 22.6385 80.2103C22.6492 81.529 22.6225 82.8503 22.6518 84.169C22.7451 84.3875 22.6305 84.6352 22.7504 84.851V84.851Z" fill="#8A0975"/>
<path d="M22.7424 68.0758C22.7424 68.1024 22.7424 68.1291 22.7397 68.1557C22.7611 68.2623 22.7477 68.3688 22.7211 68.4727C22.6598 69.89 22.7104 71.3099 22.6944 72.7271C22.6838 73.513 22.6119 73.5929 21.826 73.5956C20.502 73.6009 19.1753 73.6009 17.8513 73.5956C17.6142 73.5956 17.3585 73.6462 17.1693 73.4304C17.1693 71.6429 17.1693 69.8554 17.1693 68.0678C19.0288 68.0705 20.8883 68.0731 22.7477 68.0758H22.7424Z" fill="#8A0975"/>
<path d="M17.14 11.5165C17.1454 13.3387 17.1507 15.1635 17.156 16.9857C15.2885 16.9857 13.4184 16.9857 11.551 16.9857C11.5376 16.6021 11.8174 16.6527 12.0545 16.6527C13.4131 16.6527 14.7744 16.6527 16.133 16.65C16.3994 16.65 16.839 16.7219 16.8363 16.4129C16.831 16.0719 16.4714 15.8588 16.0584 15.8641C14.8863 15.8775 13.7115 15.8535 12.5393 15.8748C12.129 15.8828 11.9825 15.7576 11.9932 15.3367C12.0172 14.351 11.9985 13.3626 12.0038 12.377C12.0038 12.004 11.9213 11.6817 11.5536 11.5005C11.7454 11.2767 12.0145 11.2821 12.2702 11.2821C13.6582 11.2741 15.0435 11.2741 16.4314 11.2821C16.6871 11.2821 16.9562 11.2767 17.1427 11.5138L17.14 11.5165Z" fill="#380762"/>
<path d="M5.84201 79.7015C5.98054 79.6908 6.05513 79.6163 6.06578 79.4777C6.21497 79.2886 6.43075 79.3152 6.63322 79.3152C7.84534 79.3099 9.05745 79.3099 10.2696 79.3152C10.3069 79.3152 10.3442 79.3152 10.3815 79.3179C10.9746 79.3552 11.2712 79.6642 11.2712 80.245C11.2712 81.4198 11.2766 82.5946 11.2659 83.7694C11.2659 83.9293 11.3751 84.2037 11.0821 84.201C10.8583 84.1983 10.829 83.9612 10.829 83.7694C10.8237 82.6692 10.829 81.569 10.8263 80.4687C10.8263 79.8294 10.7917 79.8054 10.1737 79.8054C9.13471 79.8054 8.09575 79.8054 7.05679 79.8107C8.09842 79.8187 9.14003 79.8347 10.1817 79.8081C10.6345 79.7974 10.8343 79.9706 10.8317 80.4234C10.8237 81.4304 10.837 82.4374 10.8263 83.4444C10.821 83.9612 10.6532 84.1211 10.147 84.0891C9.32652 84.0385 8.506 84.0731 7.68549 84.0598C7.25659 84.0545 6.83035 84.0465 6.42543 84.2383C6.23362 84.3289 6.02582 84.3289 5.84733 84.177C5.84733 82.6852 5.84733 81.1907 5.84733 79.6988L5.84201 79.7015Z" fill="#370C44"/>
<path d="M5.842 84.1797C7.06744 83.6602 8.35948 83.9053 9.62488 83.8307C9.95521 83.8121 10.3388 84.1237 10.5759 83.8414C10.797 83.5776 10.6479 83.1567 10.6532 82.8077C10.6665 81.9872 10.6532 81.1667 10.6612 80.3435C10.6638 80.0585 10.5999 79.9945 10.2776 80.0052C9.12138 80.0505 7.96521 80.0292 6.80637 80.0345C6.58526 80.0345 6.3455 80.0052 6.35615 79.7415C6.36681 79.5017 6.61723 79.5896 6.76641 79.5896C7.88529 79.5816 9.00683 79.5763 10.1257 79.5896C10.9196 79.5976 10.9915 79.6829 10.9915 80.4421C10.9915 81.4864 10.9862 82.5333 10.9968 83.5776C10.9968 83.7481 10.9196 83.9453 11.0927 84.0918C11.2659 84.0172 11.2126 83.868 11.2126 83.7534C11.218 82.4854 11.2126 81.2147 11.2179 79.9466C11.2179 79.6935 11.1966 79.5949 10.869 79.5576C9.2679 79.3712 7.66418 79.5337 6.06578 79.4751C6.09242 79.19 6.33484 79.1767 6.52132 79.1714C7.98918 79.1394 9.45705 79.0968 10.9249 79.2007C11.0741 79.2113 11.2206 79.2433 11.3245 79.3685C11.3245 81.0175 11.3325 82.6665 11.3272 84.3155C11.3272 84.566 11.3352 84.7977 11.5563 84.9602C11.4311 84.9602 11.3059 84.9682 11.2179 84.851C10.9942 84.6059 10.8184 84.9096 10.6132 84.9043C9.13471 84.8723 7.65618 84.9736 6.18033 84.851C5.66085 84.8324 5.72212 84.5207 5.84466 84.1797H5.842Z" fill="#370C44"/>
<path d="M45.6261 0L67.8519 0C67.8519 0.015984 67.8519 0.0346316 67.8519 0.0506156L45.6261 0.0506156C45.6261 0.0346316 45.6261 0.015984 45.6261 0Z" fill="#2C1131"/>
<path d="M28.4513 56.7458C28.6405 56.9056 28.5712 57.1267 28.5712 57.3239C28.5766 58.6292 28.5952 59.9346 28.5632 61.24C28.5499 61.7434 28.6831 61.9113 29.2132 61.9086C32.3461 61.8846 35.4816 61.8953 38.6145 61.8953C38.7983 61.8953 38.9821 61.8953 39.1633 61.8953C39.1633 61.9326 39.1659 61.9699 39.1686 62.0072C38.9848 62.0072 38.801 62.0072 38.6172 62.0072C35.4843 62.0072 32.3488 62.0072 29.2159 62.0098C29.0001 62.0098 28.763 61.9353 28.5766 62.1217C28.6139 62.159 28.6192 62.2017 28.5899 62.2469C28.5419 62.2762 28.502 62.2629 28.4727 62.2176L28.4487 56.7458H28.4513Z" fill="#5D408A"/>
<path d="M39.7307 73.5503C39.8559 72.5566 39.768 71.5576 39.784 70.5586C39.7973 69.7248 39.7733 68.8936 39.768 68.0598C39.7733 67.7587 39.7813 67.4577 39.7867 67.1567C40.0131 67.4231 39.744 67.8014 39.9971 68.0598C40.2209 68.2782 40.2182 68.5633 40.2182 68.843C40.2236 70.1483 40.2209 71.451 40.2182 72.7564C40.2182 73.0361 40.2156 73.3212 39.9971 73.5396C39.9305 73.6329 39.8346 73.6435 39.7307 73.6302L39.7361 73.5876V73.5449L39.7307 73.5503Z" fill="#4F2978"/>
<path d="M62.4067 62.3535C62.1776 62.3482 61.9511 62.3455 61.722 62.3402C61.5861 62.4308 61.4343 62.3961 61.2878 62.3961C58.0324 62.3961 54.7743 62.3961 51.5189 62.3961C51.3724 62.3961 51.2205 62.4334 51.0847 62.3402C51.082 62.3056 51.0793 62.2736 51.074 62.239C51.098 62.2123 51.1246 62.183 51.1486 62.1537C51.399 61.9886 51.6814 62.0099 51.9611 62.0099C55.1659 62.0072 58.368 62.0099 61.5728 62.0072C61.8952 62.0072 62.2069 62.0232 62.4812 62.215L62.5212 62.247C62.4839 62.2816 62.444 62.3189 62.4067 62.3535V62.3535Z" fill="#755AC0"/>
<path d="M28.4753 62.2176C28.5099 62.2176 28.5446 62.2176 28.5792 62.2176C28.6831 62.1643 28.7977 62.1777 28.9069 62.1777C32.2502 62.1777 35.5935 62.1777 38.9368 62.1777C39.0647 62.1777 39.1979 62.1537 39.3178 62.2256C39.4723 62.2523 39.6508 62.183 39.768 62.3482C39.6188 62.3482 39.4696 62.3482 39.3205 62.3482C39.2006 62.4201 39.0674 62.3961 38.9395 62.3961C35.6122 62.3961 32.2875 62.3961 28.9602 62.3961C28.8323 62.3961 28.6991 62.4201 28.5792 62.3482C28.5446 62.3055 28.5099 62.2602 28.4753 62.2176Z" fill="#452A62"/>
<path d="M28.3528 84.9682C30.2149 84.9548 32.0771 84.9389 33.9392 84.9255C34.115 84.795 34.3228 84.8003 34.5279 84.8003C35.9585 84.8003 37.3864 84.795 38.817 84.8003C39.0354 84.8003 39.2699 84.7657 39.4377 84.9682C39.2858 85.1227 39.0887 85.0721 38.9076 85.0721C35.5669 85.0721 32.2262 85.0721 28.8856 85.0721C28.7044 85.0721 28.5073 85.12 28.3554 84.9655L28.3528 84.9682Z" fill="#270F36"/>
<path d="M28.5792 62.3482C32.1596 62.3482 35.7401 62.3482 39.3205 62.3482C39.1686 62.5027 38.9715 62.4521 38.7903 62.4521C35.5642 62.4521 32.3381 62.4521 29.1094 62.4521C28.9282 62.4521 28.7311 62.5027 28.5792 62.3482V62.3482Z" fill="#2A1031"/>
<path d="M23.3391 17.1321H33.8113C33.8113 17.1508 33.8113 17.1694 33.8113 17.1854H23.3391C23.3391 17.1668 23.3391 17.1481 23.3391 17.1321Z" fill="#251234"/>
<path d="M79.4216 49.9926C79.4216 48.6073 79.4216 47.2247 79.4216 45.8394C79.4216 45.6236 79.5495 45.549 79.7466 45.549C81.3797 45.549 83.0127 45.549 84.6484 45.6582H82.2801C81.5928 45.6582 80.9001 45.6902 80.2155 45.6476C79.6907 45.6156 79.4935 45.7621 79.5175 46.3216C79.5601 47.3632 79.5308 48.4048 79.5308 49.4464C79.5308 49.6276 79.5308 49.8087 79.5308 49.9899C79.4962 49.9899 79.4589 49.9899 79.4243 49.9899L79.4216 49.9926Z" fill="#2D0F33"/>
<path d="M6.17765 84.851C7.53363 84.851 8.88694 84.851 10.2429 84.851C10.4587 84.851 10.7011 84.9096 10.845 84.6672C10.9063 84.5606 10.9249 84.3795 11.1034 84.4567C11.2739 84.5313 11.1993 84.7152 11.2179 84.8537C9.62487 85.0854 8.0238 84.915 6.42807 84.9576C6.34548 84.9576 6.2629 84.891 6.18032 84.8537L6.17765 84.851Z" fill="#370C44"/>
<path d="M84.7816 45.4265C84.7789 45.3892 84.7763 45.3519 84.7709 45.3146C84.7017 43.4525 84.7176 41.5903 84.7629 39.7255C84.7709 39.6936 84.7709 39.6616 84.7709 39.6296C84.8082 39.6243 84.8455 39.619 84.8828 39.6136C84.9361 39.6696 84.9547 39.7389 84.9547 39.8161C84.9547 41.6196 84.9547 43.4232 84.9547 45.2267C84.9547 45.3039 84.9388 45.3732 84.8935 45.4371C84.8562 45.4371 84.8162 45.4318 84.7789 45.4292L84.7816 45.4265Z" fill="#6F5D89"/>
<path d="M39.435 84.9683C37.6022 84.9549 35.772 84.939 33.9392 84.9256C33.9472 84.9043 33.9525 84.883 33.9552 84.8617C34.1443 84.6273 34.4134 84.6353 34.6718 84.6353C36.1237 84.6273 37.5756 84.6273 39.0274 84.6353C39.2885 84.6353 39.5549 84.6353 39.7467 84.859C39.7547 84.8884 39.7574 84.915 39.7547 84.9443C39.6481 84.9523 39.5416 84.9603 39.435 84.9709V84.9683Z" fill="#FE7161"/>
<path d="M22.761 34.0059C22.7557 34.0406 22.7531 34.0779 22.7477 34.1125C22.7291 34.1551 22.6971 34.1711 22.6518 34.1631C22.6438 34.1418 22.6358 34.1205 22.6305 34.0965C22.6278 34.0645 22.6225 34.0326 22.6172 34.0006C22.5666 32.2157 22.5506 30.4309 22.6252 28.646C22.6545 28.5314 22.6065 28.3822 22.7664 28.3263C22.7664 28.3583 22.7664 28.3876 22.7664 28.4195C22.8276 30.2817 22.841 32.1465 22.7584 34.0086L22.761 34.0059Z" fill="#5E4191"/>
<path d="M84.8961 45.4345C84.8908 43.4951 84.8881 41.553 84.8828 39.6136C85.0267 39.7149 85.0107 39.8694 85.0107 40.0159C85.0107 41.6862 85.0107 43.3539 85.0107 45.0242C85.0107 45.1707 85.0267 45.3253 84.8935 45.4345H84.8961Z" fill="#25082D"/>
<path d="M62.3774 17.0096C62.4147 17.0043 62.452 16.999 62.4893 16.9937C62.4999 17.0682 62.5079 17.1455 62.5186 17.2201C62.5958 19.0449 62.5718 20.8724 62.5319 22.6973C62.5266 22.7266 62.5186 22.7559 62.5079 22.7852C62.5319 22.8012 62.5346 22.8198 62.5186 22.8411C62.444 22.8465 62.3827 22.8198 62.3321 22.7665C62.2921 22.7079 62.2628 22.644 62.2495 22.5721C62.2282 20.7765 62.1962 18.9837 62.2655 17.1881C62.2921 17.1215 62.3294 17.0629 62.38 17.0096H62.3774Z" fill="#82719F"/>
<path d="M39.7627 0.301018C38.0364 0.301018 36.3101 0.306346 34.5812 0.303682C34.4001 0.303682 34.2056 0.351635 34.0591 0.186467C35.9692 0.143843 37.8819 0.13585 39.792 0.191794C39.8319 0.231754 39.8346 0.279706 39.8106 0.327658C39.7947 0.317002 39.7787 0.30901 39.76 0.301018H39.7627Z" fill="#FEA269"/>
<path d="M17.1507 0.175827C17.1507 0.146523 17.1533 0.117219 17.1587 0.087915C18.837 0.087915 20.5153 0.085251 22.1963 0.087915C22.3801 0.087915 22.5639 0.122547 22.7477 0.141195C22.7318 0.173163 22.7158 0.202467 22.6998 0.234435C22.6465 0.282387 22.5879 0.314355 22.5213 0.335667C21.0028 0.399603 19.4817 0.338331 17.9605 0.367635C17.6702 0.394275 17.3611 0.490179 17.1533 0.175827H17.1507Z" fill="#380762"/>
<path d="M62.5319 22.6999C62.5265 20.8751 62.5239 19.0476 62.5186 17.2227C62.6731 17.3985 62.6118 17.6117 62.6145 17.8088C62.6198 19.4019 62.6171 20.9949 62.6198 22.5907C62.689 22.628 62.6864 22.6626 62.6145 22.6946C62.5878 22.6946 62.5612 22.6972 62.5319 22.6999Z" fill="#23082F"/>
<path d="M22.6252 51.0422C22.6305 52.8671 22.6358 54.6946 22.6412 56.5194C22.532 56.4208 22.5293 56.2903 22.5293 56.1598C22.5293 54.556 22.5293 52.955 22.5293 51.3512C22.5293 51.2367 22.5399 51.1275 22.6252 51.0396V51.0422Z" fill="#291031"/>
<path d="M39.2938 22.6706H34.0937C34.0937 22.6546 34.0937 22.636 34.0937 22.62H39.2938C39.2938 22.636 39.2938 22.6546 39.2938 22.6706Z" fill="#2B0D34"/>
<path d="M33.9525 28.2997C33.9498 28.2224 33.9445 28.1452 33.9418 28.0706C33.8699 26.3203 33.8513 24.5701 33.9525 22.8225C33.9898 22.8225 34.0271 22.8225 34.0644 22.8225C34.0644 22.8598 34.0644 22.8944 34.067 22.9317C34.1763 23.7443 34.1043 24.5621 34.115 25.3773C34.1256 26.3257 34.1283 27.2741 34.1123 28.2224C34.0884 28.3077 34.0377 28.3343 33.9552 28.3024L33.9525 28.2997Z" fill="#A096D9"/>
<path d="M11.3325 16.9883C11.3325 15.1981 11.3325 13.4079 11.3325 11.6177C11.5003 11.7882 11.439 12.0013 11.439 12.1984C11.4444 13.7942 11.439 15.3899 11.439 16.9856C11.4017 16.9856 11.3671 16.9883 11.3298 16.9883H11.3325Z" fill="#380762"/>
<path d="M62.6144 22.6946C62.6171 22.66 62.6198 22.6253 62.6198 22.5907C64.3647 22.5907 66.1096 22.5907 67.8545 22.5907C67.8545 22.6253 67.8545 22.66 67.8545 22.6946H62.6144Z" fill="#2B0D35"/>
<path d="M22.6252 28.646C22.6252 30.4309 22.6199 32.2158 22.6172 34.0006C22.5186 33.8941 22.5266 33.7635 22.5266 33.633C22.5266 32.0932 22.5266 30.5508 22.5266 29.011C22.5266 28.8804 22.5213 28.7499 22.6252 28.646V28.646Z" fill="#2A0F34"/>
<path d="M28.129 0.186502C27.9638 0.362326 27.7481 0.301053 27.5509 0.301053C25.9525 0.303717 24.3541 0.301053 22.7557 0.301053C22.7158 0.266421 22.7131 0.231789 22.7557 0.197157C22.7504 0.178509 22.7477 0.157198 22.7477 0.13855C24.3408 0.146542 25.9312 0.154534 27.5243 0.162526C27.7267 0.162526 27.9292 0.178509 28.1343 0.183837L28.129 0.186502Z" fill="#F93C69"/>
<path d="M22.8649 84.9656C24.6551 84.9656 26.4453 84.9656 28.2382 84.9656C28.1237 85.0908 27.9718 85.0721 27.8253 85.0721C26.3095 85.0721 24.7963 85.0721 23.2805 85.0721C23.134 85.0721 22.9822 85.0881 22.8676 84.9629L22.8649 84.9656Z" fill="#271235"/>
<path d="M28.2435 28.337C28.2782 28.4435 28.2649 28.5235 28.1317 28.5235C26.496 28.5235 24.8603 28.5235 23.2246 28.4142C24.6365 28.4142 26.0457 28.4169 27.4577 28.4116C27.6761 28.4116 27.9079 28.4702 28.113 28.337C28.1556 28.337 28.2009 28.337 28.2435 28.337V28.337Z" fill="#785CC7"/>
<path d="M33.9498 0.306344C32.3514 0.306344 30.753 0.306345 29.152 0.303681C28.9548 0.303681 28.7364 0.364953 28.5739 0.189129C30.3667 0.138513 32.1596 0.143841 33.9525 0.189129C33.9525 0.229089 33.9525 0.269049 33.9525 0.309009L33.9498 0.306344Z" fill="#F97A60"/>
<path d="M62.6145 62.2363C62.7263 62.1058 62.8782 62.1191 63.0247 62.1191C64.5086 62.1191 65.9897 62.1191 67.4736 62.1191C67.6228 62.1191 67.7746 62.1084 67.8839 62.239C66.1256 62.239 64.37 62.239 62.6118 62.239L62.6145 62.2363Z" fill="#7A5ECB"/>
<path d="M39.8106 0.327654C39.8053 0.282366 39.7973 0.237077 39.792 0.19179C39.8586 0.19179 39.9252 0.189126 39.9918 0.186462C39.9918 1.85945 39.9918 3.53244 39.9918 5.20277C39.9572 5.20277 39.9199 5.20277 39.8852 5.20277C39.8852 3.79618 39.8879 2.38959 39.8826 0.980334C39.8826 0.761886 39.9438 0.532781 39.8106 0.324989V0.327654Z" fill="#4F2979"/>
<path d="M73.9285 50.925C74.0404 50.7944 74.1922 50.8104 74.3387 50.8104C75.8199 50.8104 77.3011 50.8104 78.7823 50.8104C78.9288 50.8104 79.0806 50.7971 79.1925 50.9276C77.437 50.9276 75.6814 50.9276 73.9258 50.9276L73.9285 50.925Z" fill="#8D7EC9"/>
<path d="M33.9525 22.8225C33.9498 24.5727 33.9445 26.323 33.9418 28.0706C33.7793 27.8974 33.8406 27.6843 33.8406 27.4871C33.8353 25.9314 33.8379 24.3783 33.8379 22.8225C33.8752 22.8225 33.9152 22.8225 33.9525 22.8198V22.8225Z" fill="#6E53B9"/>
<path d="M79.4962 34.9383V39.246C79.4802 39.246 79.4616 39.246 79.4456 39.246V34.9383C79.4616 34.9383 79.4802 34.9383 79.4962 34.9383V34.9383Z" fill="#2F0F31"/>
<path d="M22.6465 45.4238C22.6465 41.7289 22.6465 38.0366 22.6492 34.3416C23.0221 34.4775 22.9608 34.8105 22.9635 35.0902C22.9822 36.2783 22.9662 37.4691 22.9715 38.66C22.9742 39.3579 23.0035 39.3872 23.6881 39.3899C25.0627 39.3979 26.44 39.3739 27.8146 39.4005C28.4806 39.4139 28.6138 39.5737 28.6272 40.2424C28.4434 40.8578 28.5179 41.4918 28.5179 42.1178C28.5179 43.1355 28.486 44.1531 28.5393 45.1681C28.5472 45.2374 28.5393 45.3066 28.5179 45.3732C28.4966 45.3999 28.478 45.4292 28.4567 45.4558C26.5199 45.4452 24.5806 45.4345 22.6438 45.4265L22.6465 45.4238Z" fill="#827BC2"/>
<path d="M39.7787 56.7352C38.0071 56.7378 36.2356 56.7299 34.464 56.7538C34.0164 56.7592 33.9445 56.5753 33.9472 56.1864C33.9578 54.4335 33.9472 52.6806 33.9419 50.9277C33.9658 50.901 33.9898 50.8717 34.0138 50.8451C34.1896 50.7199 34.3947 50.7066 34.5999 50.7066C36.1237 50.6986 37.6448 50.6959 39.1686 50.7066C39.3551 50.7066 39.5389 50.7252 39.7121 50.8131C39.7787 50.8504 39.832 50.901 39.8719 50.965C39.9998 51.2047 39.9945 51.4658 39.9945 51.7242C39.9971 53.1148 39.9971 54.5054 39.9945 55.8987C39.9945 56.1944 40.0158 56.4981 39.7787 56.7352V56.7352Z" fill="#755AC0"/>
<path d="M39.7786 56.7352C39.7786 54.7984 39.776 52.859 39.7733 50.9223C39.9491 50.7119 40.1995 50.7065 40.4393 50.7039C41.8352 50.6932 43.2312 50.6852 44.6271 50.7039C45.3064 50.7145 45.5622 50.9223 45.5782 51.535C45.6155 53.1175 45.6048 54.6999 45.5835 56.2796C45.5835 56.3915 45.5542 56.5007 45.5089 56.6046C45.4743 56.6739 45.4263 56.7298 45.3624 56.7725C43.5029 56.7591 41.6408 56.7432 39.7813 56.7298L39.7786 56.7352Z" fill="#837CC2"/>
<path d="M51.0767 62.239C49.441 62.239 47.8026 62.239 46.1669 62.2363C45.6341 62.2363 45.3677 61.9788 45.3677 61.4638C45.3677 59.9027 45.3624 58.3389 45.3598 56.7778L45.3731 56.7378C45.5755 56.538 45.8366 56.5247 46.0977 56.5221C47.5442 56.5167 48.9881 56.5167 50.4347 56.5221C50.6584 56.5221 50.8796 56.538 51.0794 56.6579C51.3058 56.8231 51.3031 57.0708 51.3031 57.3133C51.3031 58.7065 51.3058 60.0998 51.3005 61.4958C51.3005 61.7568 51.2925 62.0206 51.0874 62.223L51.074 62.2363L51.0767 62.239Z" fill="#755AC0"/>
<path d="M33.9418 50.9303C32.3035 50.9303 30.6678 50.9143 29.0294 50.9356C28.5925 50.941 28.4487 50.8158 28.454 50.3682C28.4753 48.7298 28.4593 47.0941 28.4567 45.4558L28.4673 45.4158C28.6591 45.232 28.9016 45.216 29.1466 45.216C30.5266 45.2107 31.9065 45.2107 33.2865 45.216C33.5289 45.216 33.774 45.232 33.9765 45.3945C34.1736 45.6263 34.1656 45.9087 34.1683 46.1857C34.1736 47.5017 34.1736 48.8204 34.1683 50.1364C34.1683 50.4162 34.1683 50.6985 33.9525 50.917L33.9392 50.9303H33.9418Z" fill="#755AC0"/>
<path d="M39.9971 73.5424C39.9971 71.7149 39.9971 69.8874 39.9971 68.0625C41.7873 68.0625 43.5775 68.0599 45.3677 68.0572C45.3677 69.7115 45.3677 71.3632 45.373 73.0176C45.373 73.252 45.3144 73.5157 45.5995 73.6516C45.5249 73.6889 45.4503 73.7262 45.3757 73.7661C45.2345 73.4891 44.9734 73.545 44.739 73.545C43.1593 73.545 41.5795 73.545 40.0024 73.545L39.9971 73.5424Z" fill="#543175"/>
<path d="M39.3205 62.2257C35.7401 62.2257 32.1596 62.2203 28.5792 62.2177V62.1697V62.1218C31.9652 62.1218 35.3511 62.1218 38.7344 62.1218C38.9315 62.1218 39.1473 62.0605 39.3205 62.2257Z" fill="#62439D"/>
<path d="M51.0847 62.3402C54.6304 62.3402 58.1762 62.3402 61.722 62.3402C61.5728 62.4974 61.3757 62.4521 61.1972 62.4521C57.9445 62.4521 54.6917 62.4548 51.439 62.4494C51.3218 62.4494 51.1433 62.5613 51.0873 62.3402H51.0847Z" fill="#583D8E"/>
<path d="M28.4647 73.6595C30.3002 73.6595 32.1357 73.6595 33.9712 73.6595C33.9712 75.5616 33.9712 77.4611 33.9738 79.3632C33.8007 79.579 33.5529 79.5843 33.3131 79.5869C31.9199 79.5976 30.5266 79.5949 29.1333 79.5869C28.8909 79.5869 28.6485 79.5656 28.4487 79.4031C28.2436 79.1767 28.2436 78.8943 28.2436 78.6146C28.2382 77.2213 28.2382 75.8307 28.2436 74.4374C28.2436 74.1604 28.2356 73.8753 28.4673 73.6622L28.4647 73.6595Z" fill="#FD9766"/>
<path d="M39.7467 84.8564C37.8153 84.8564 35.8839 84.8564 33.9552 84.859L33.9418 84.8457C33.7394 84.6406 33.7314 84.3768 33.7314 84.1131C33.7261 82.8637 33.7181 81.6169 33.7314 80.3675C33.742 79.5363 33.79 79.4697 34.6212 79.4111C36.2196 79.2993 37.8233 79.3818 39.4244 79.3685C39.5389 79.3685 39.6428 79.4165 39.7414 79.4644C39.816 81.26 39.808 83.0555 39.7467 84.8537V84.8564Z" fill="#FD9767"/>
<path d="M39.744 79.4671C38.0524 79.4671 36.3607 79.4724 34.6718 79.4751C33.9605 79.4751 33.9578 79.4751 33.9552 80.221C33.9498 81.7635 33.9472 83.3059 33.9445 84.8484C32.2848 84.851 30.6252 84.8431 28.9681 84.8644C28.5685 84.8697 28.4567 84.7258 28.462 84.3449C28.478 82.7598 28.4673 81.1747 28.462 79.5923C28.4247 79.563 28.406 79.523 28.4007 79.4751C28.406 79.4538 28.414 79.4298 28.4194 79.4085C28.4353 79.3925 28.454 79.3765 28.47 79.3605C30.3055 79.3605 32.141 79.3605 33.9765 79.3605C34.1922 79.3605 34.408 79.3605 34.6238 79.3632C35.7507 79.2407 36.8776 79.3286 38.0044 79.3153C38.5559 79.3099 39.1127 79.246 39.6614 79.3632C39.6881 79.3978 39.7147 79.4325 39.744 79.4671V79.4671Z" fill="#FE7161"/>
<path d="M39.6615 79.3659C37.9831 79.3659 36.3022 79.3659 34.6238 79.3659C34.7384 79.2407 34.8902 79.2566 35.0368 79.2566C36.4407 79.2566 37.8446 79.2566 39.2512 79.2566C39.3977 79.2566 39.5496 79.2407 39.6641 79.3685L39.6615 79.3659Z" fill="#3C2661"/>
<path d="M39.9172 84.2569V79.848C39.9332 79.848 39.9492 79.848 39.9651 79.848V84.2569C39.9492 84.2569 39.9332 84.2569 39.9172 84.2569Z" fill="#42256B"/>
<path d="M45.3731 22.8145C45.3677 21.1175 45.3651 19.4179 45.3597 17.7209C45.3597 17.4812 45.3997 17.2334 45.2638 17.0096C49.0734 17.0096 52.8829 17.0096 56.6951 17.0123C56.727 17.0656 56.7377 17.1242 56.727 17.1881C56.7057 17.2787 56.6657 17.3666 56.6471 17.4599C56.6018 18.9384 56.6391 20.4142 56.6285 21.8928C56.6285 22.0819 56.6871 22.2551 56.7137 22.4389C56.7297 22.8198 56.5006 22.969 56.1676 23.017C55.9838 23.0436 55.7946 23.0383 55.6081 23.0383C52.5152 23.0383 49.4223 23.0383 46.3268 23.0383C45.9938 23.0383 45.6475 23.0729 45.3731 22.8145V22.8145Z" fill="#755AC0"/>
<path d="M56.6658 17.1002C56.6791 17.0709 56.6871 17.0416 56.6924 17.0123C58.5865 17.0123 60.4833 17.0123 62.3774 17.0123C62.3774 17.0469 62.3774 17.0815 62.372 17.1162C62.3161 18.9756 62.3054 20.8351 62.3774 22.6919C62.38 22.7319 62.3854 22.7718 62.388 22.8118C62.3614 22.8384 62.3374 22.8651 62.3108 22.8944C62.2468 22.9343 62.1802 22.9636 62.1083 22.9876C60.47 23.0915 58.8316 23.0302 57.1932 23.0196C56.8416 23.0196 56.6311 22.8864 56.6098 22.4522C56.5246 20.7765 56.5912 19.1008 56.5779 17.4225C56.5779 17.308 56.6258 17.2041 56.6658 17.1002V17.1002Z" fill="#BEB9EF"/>
<path d="M33.9791 11.4845C32.1436 11.4898 30.3055 11.4952 28.47 11.5005C28.2436 11.2847 28.2436 10.9997 28.2436 10.7199C28.2382 9.41458 28.2409 8.10922 28.2436 6.80386C28.2436 6.52148 28.2489 6.2391 28.4593 6.01532C30.2975 6.01798 32.1356 6.02065 33.9738 6.02598C33.9765 7.84815 33.9818 9.66766 33.9845 11.4898L33.9791 11.4845Z" fill="#FD9767"/>
<path d="M39.9971 16.9803C39.9598 16.9936 39.9252 16.991 39.8879 16.9777C39.8879 15.2381 39.8879 13.4958 39.8879 11.7562H39.9971V16.983V16.9803Z" fill="#43256B"/>
<path d="M62.5052 56.7405C62.4706 56.7432 62.436 56.7458 62.4013 56.7485C62.1349 56.5247 62.1776 56.213 62.1749 55.9227C62.1642 54.6599 62.1749 53.3972 62.1696 52.1345C62.1696 51.5519 61.8854 51.2598 61.3171 51.258C60.0357 51.2553 58.7543 51.266 57.4729 51.25C57.1772 51.2474 56.8229 51.3193 56.6604 50.9383C56.8815 50.6693 57.1959 50.7119 57.4863 50.7092C58.8263 50.6986 60.1636 50.7092 61.5036 50.7012C61.738 50.7012 61.9964 50.7545 62.1722 50.5227C62.3001 50.3283 62.3427 50.1178 62.3401 49.8861C62.3374 48.6979 62.3427 47.5098 62.3347 46.3216C62.3321 45.7675 62.1882 45.605 61.6528 45.605C60.2035 45.605 58.757 45.5757 57.3078 45.621C57.0653 45.6663 56.8176 45.6503 56.5752 45.6743C55.0274 45.6316 53.4796 45.6716 51.9318 45.6556C51.0207 45.6476 50.8636 45.4905 50.8609 44.5687C50.8556 43.2074 50.8502 41.8461 50.8609 40.4848C50.8689 39.619 51.09 39.4006 51.9691 39.3926C53.2372 39.3792 54.5052 39.3926 55.7733 39.3872C56.3967 39.3819 56.45 39.3313 56.4553 38.7186C56.4633 37.4878 56.4553 36.257 56.4606 35.0263C56.4659 34.0672 56.6205 33.9074 57.5582 33.9021C58.9008 33.8967 60.2435 33.8994 61.5862 33.9021C61.8659 33.9021 62.1483 33.8914 62.3987 34.0566C62.6304 34.2697 62.6224 34.5521 62.6198 34.8345C62.6091 36.1212 62.6118 37.4052 62.6171 38.6919C62.6198 39.3393 62.6704 39.3899 63.3231 39.3926C66.416 39.3979 69.5089 39.3926 72.6018 39.3979C72.9454 39.3979 73.3211 39.3153 73.5955 39.6297C73.417 39.7762 73.2039 39.7229 73.0041 39.7229C71.5522 39.7256 70.0976 39.7442 68.6457 39.7149C68.1423 39.7043 67.9771 39.8374 67.9798 40.3649C68.0037 43.8841 67.9931 47.4059 67.9931 50.925C67.7533 51.1568 67.4496 51.1435 67.1512 51.1435C65.9018 51.1488 64.6524 51.1408 63.4003 51.1488C62.7743 51.1515 62.7317 51.1941 62.7263 51.8175C62.7184 53.1788 62.7263 54.5401 62.721 55.904C62.721 56.1997 62.7397 56.5088 62.5026 56.7459L62.5052 56.7405Z" fill="#6D84CD"/>
<path d="M73.5955 39.627C70.087 39.6243 66.5785 39.6056 63.07 39.6323C62.4999 39.6376 62.388 39.4325 62.3934 38.9343C62.412 37.3306 62.3987 35.7295 62.396 34.1258C62.2841 33.902 62.2815 33.6596 62.2815 33.4172C62.2815 31.928 62.2841 30.4415 62.2815 28.9523C62.2815 28.7499 62.1856 28.4861 62.5026 28.4035C62.7077 28.2943 62.9315 28.305 63.1526 28.305C64.7617 28.305 66.3707 28.305 67.9824 28.3076C67.9878 28.3449 67.9931 28.3796 67.9984 28.4169C68.0464 28.4701 68.0863 28.5287 68.1183 28.5927C68.2328 28.8591 68.2062 29.1415 68.2062 29.4212C68.2115 30.7079 68.2169 31.9973 68.2035 33.284C68.1982 33.7395 68.3607 33.9153 68.8216 33.91C70.1269 33.894 71.435 33.902 72.7403 33.91C73.036 33.91 73.3451 33.8887 73.5848 34.1205C73.8113 34.235 73.8059 34.4428 73.8059 34.6506C73.8006 36.3103 73.7953 37.97 73.7926 39.6296C73.726 39.6296 73.6594 39.6296 73.5901 39.6296L73.5955 39.627Z" fill="#88C6DD"/>
<path d="M79.3151 45.4052C77.4822 45.4158 75.6494 45.4238 73.8166 45.4345C73.8112 43.4977 73.8086 41.5637 73.8033 39.627C75.4629 39.6216 77.1199 39.619 78.7796 39.611C78.9901 39.611 79.1952 39.6056 79.3071 39.8347C79.3097 41.6916 79.3124 43.5484 79.3151 45.4052V45.4052Z" fill="#A7A2D2"/>
<path d="M73.6993 56.6259C73.5715 56.5114 73.5928 56.3569 73.5928 56.2077C73.5928 54.6226 73.5928 53.0402 73.5928 51.4551C73.5928 51.3086 73.5741 51.1541 73.6993 51.0369C73.6993 52.899 73.6993 54.7611 73.6993 56.6233V56.6259Z" fill="#8680C9"/>
<path d="M62.5079 28.4009C62.5079 29.7435 62.5185 31.0862 62.4946 32.4262C62.4839 32.9909 62.6224 33.569 62.4013 34.1231C60.7044 34.1231 59.0101 34.1471 57.3131 34.1125C56.775 34.1018 56.6577 34.2883 56.6684 34.7838C56.6977 36.217 56.6657 37.6529 56.687 39.0888C56.6924 39.5124 56.5485 39.6296 56.1383 39.6243C54.6651 39.603 53.1919 39.6323 51.7214 39.6056C51.2285 39.5976 51.074 39.7655 51.082 40.2503C51.106 41.7795 51.1113 43.3086 51.0793 44.8351C51.0687 45.3519 51.2552 45.4558 51.7267 45.4478C53.1626 45.4211 54.5958 45.4371 56.0317 45.4371C56.2555 45.4371 56.4819 45.4158 56.6817 45.5517C56.9108 45.7435 56.9055 46.0125 56.9055 46.271C56.9135 47.5763 56.9108 48.8817 56.9055 50.187C56.9055 50.4508 56.8948 50.7118 56.695 50.9196C56.8629 51.0955 57.0813 51.0235 57.2785 51.0235C58.7863 51.0289 60.2968 51.0422 61.8046 51.0182C62.2601 51.0102 62.42 51.1354 62.412 51.6096C62.388 53.3226 62.404 55.0355 62.4066 56.7485L62.4013 56.7511C62.1775 56.9616 61.8952 56.9669 61.6128 56.9669C58.3867 56.9696 55.1606 56.9669 51.9345 56.9696C51.6281 56.9696 51.3431 56.9163 51.082 56.7538C49.1799 56.7485 47.2778 56.7431 45.3757 56.7378C45.3757 55.0115 45.3571 53.2826 45.3784 51.5563C45.3837 51.0661 45.2185 50.9116 44.7337 50.917C43.082 50.9383 41.4277 50.9223 39.7733 50.9223C39.5389 50.6825 39.5549 50.3788 39.5549 50.0805C39.5495 48.8311 39.5575 47.579 39.5495 46.3296C39.5469 45.7062 39.5043 45.6636 38.8782 45.6582C37.5169 45.6502 36.153 45.6582 34.7916 45.6529C34.4933 45.6529 34.1896 45.6662 33.9445 45.4451C32.1197 45.4345 30.2948 45.4238 28.47 45.4131C28.4673 45.3812 28.462 45.3492 28.4593 45.3172C28.3421 44.0811 28.43 42.8424 28.414 41.6063C28.4087 41.1667 28.3448 40.7218 28.4593 40.2849C28.5632 39.7388 28.3315 39.587 27.7933 39.6003C26.3414 39.6349 24.8869 39.5817 23.435 39.6269C22.8409 39.6456 22.7184 39.4458 22.7317 38.897C22.769 37.5757 22.745 36.2517 22.7424 34.9303C22.7424 34.7305 22.793 34.5174 22.6491 34.3389C22.6491 34.2803 22.6491 34.219 22.6491 34.1604C22.6811 34.1418 22.7131 34.1258 22.745 34.1098C24.6498 34.1098 26.5519 34.1098 28.4567 34.1125C28.7337 33.8594 29.08 33.902 29.413 33.8993C32.3008 33.8967 35.1886 33.9047 38.0764 33.894C39.768 33.8887 39.5309 34.1045 39.5469 32.3969C39.5575 31.2966 39.5469 30.1991 39.5522 29.0988C39.5522 28.8218 39.5389 28.5341 39.76 28.3103C41.3824 28.3049 43.0048 28.3049 44.6298 28.2943C44.8456 28.2943 45.0827 28.3636 45.2692 28.1851C45.3011 28.1851 45.3331 28.1851 45.3651 28.1851C45.5009 28.1584 45.6315 28.0998 45.7726 28.0865C50.9142 28.0599 56.0583 28.0812 61.1999 28.0732C61.4769 28.0732 61.762 28.1238 62.0204 27.9826C62.2255 27.7801 62.2308 27.5244 62.2308 27.2607C62.2282 26.0219 62.2282 24.7831 62.2308 23.5417C62.2308 23.286 62.1909 23.0169 62.396 22.8065L62.3933 22.8118C62.436 22.8224 62.4786 22.8304 62.5212 22.8411C62.5185 24.6952 62.5159 26.5467 62.5105 28.4009H62.5079Z" fill="#A7A2D2"/>
<path d="M39.76 28.3156C39.7653 30.0872 39.76 31.8587 39.784 33.6303C39.7893 34.0379 39.6321 34.1311 39.2565 34.1311C35.6575 34.1178 32.0584 34.1178 28.4593 34.1151C28.4673 32.1837 28.478 30.255 28.486 28.3236C30.3081 28.3156 32.1303 28.3076 33.9525 28.2996C33.9898 28.2996 34.0271 28.2996 34.0617 28.2996C34.0964 28.2304 34.1337 28.2277 34.1709 28.297C36.0331 28.3023 37.8952 28.3103 39.7574 28.3156H39.76Z" fill="#827CC2"/>
<path d="M39.8852 22.8145C39.8852 21.1015 39.8985 19.3859 39.8772 17.6729C39.8719 17.244 39.9864 17.0842 40.442 17.0949C41.8512 17.1215 43.2632 17.1055 44.6751 17.2147C43.3591 17.2147 42.043 17.2147 40.7244 17.2147C40.2395 17.2147 39.9971 17.4589 39.9971 17.9473C39.9971 19.567 39.9971 21.1894 39.9971 22.8091C39.9598 22.8091 39.9225 22.8118 39.8852 22.8145V22.8145Z" fill="#ADA8D8"/>
<path d="M34.1736 28.297C34.1363 28.305 34.1017 28.305 34.0644 28.2996C34.0644 26.5094 34.0644 24.7192 34.0671 22.929C34.2322 23.0995 34.171 23.3153 34.171 23.5124C34.1763 25.1082 34.171 26.7012 34.171 28.297H34.1736Z" fill="#C6BDFB"/>
<path d="M17.14 11.5164C15.2779 11.5138 13.4157 11.5085 11.5509 11.5058C11.2872 11.3939 11.3405 11.1541 11.3218 10.9437C11.2046 9.91272 11.2872 8.87909 11.2765 7.84812C11.2712 7.31532 11.21 6.77986 11.3192 6.24972C11.3298 6.09788 11.4018 5.98333 11.5376 5.91406C12.2329 6.03394 12.9362 5.94603 13.6342 5.96201C14.7238 5.98865 15.816 5.93804 16.9056 5.98865C16.9748 5.98865 17.0441 5.99132 17.1134 5.99398C17.18 6.02861 17.2306 6.07923 17.2679 6.14317C17.3531 6.31366 17.3638 6.50014 17.3638 6.68662C17.3718 8.05858 17.3718 9.43054 17.3638 10.8052C17.3638 11.0449 17.3638 11.2927 17.1746 11.4818L17.1373 11.5218L17.14 11.5164Z" fill="#8A0975"/>
<path d="M17.1507 0.175842C17.3745 0.277074 17.6009 0.18117 17.8273 0.197154C18.7278 0.317034 19.6335 0.223794 20.534 0.24777C21.144 0.263754 21.7541 0.239778 22.3641 0.258426C22.6012 0.378305 22.6358 0.59409 22.6358 0.825857C22.6385 2.26175 22.6492 3.69498 22.6332 5.13088C22.6252 5.80487 22.5613 5.84749 21.8819 5.84749C20.6698 5.84749 19.4604 5.85016 18.5972 5.84749C19.6788 5.8395 21.1067 5.86881 22.5373 5.83417C22.6119 5.85282 22.6598 5.90077 22.6758 5.97803C22.6438 6.04729 22.5959 6.09791 22.532 6.13254C22.3082 6.24443 22.0631 6.23644 21.8233 6.23644C20.5446 6.2391 19.2686 6.24177 17.9898 6.23644C17.6941 6.23644 17.3904 6.25242 17.1533 6.02065L17.116 5.98869C17.1267 4.21979 17.14 2.45356 17.1453 0.684666C17.1453 0.522162 17.0841 0.359658 17.0494 0.197154C17.0841 0.19449 17.116 0.186498 17.1507 0.175842V0.175842Z" fill="#8A0975"/>
<path d="M11.4417 0.88446C11.6895 1.30804 11.9799 1.31603 12.2862 1.31603C13.517 1.3107 14.7451 1.32668 15.9732 1.30804C16.3621 1.30271 16.498 1.43058 16.4874 1.82219C16.4634 2.64004 16.482 3.46055 16.4794 4.28106C16.4794 4.59807 16.4367 4.92308 16.815 5.09091C16.8816 5.12022 16.9589 5.24276 16.9482 5.30936C16.9269 5.43457 16.7937 5.45588 16.6792 5.45588C15.0408 5.45588 13.3998 5.45588 11.7614 5.45588C11.4258 5.45588 11.4391 5.21879 11.4391 4.98968C11.4391 3.66834 11.4391 2.347 11.4391 0.88446H11.4417Z" fill="#380762"/>
<path d="M16.9855 0.697973L11.4763 0.697973C11.4763 0.663341 11.4763 0.631373 11.479 0.596741L16.9988 0.596741C16.9935 0.631373 16.9882 0.663341 16.9828 0.697973H16.9855Z" fill="#380762"/>
<path d="M11.3325 5.79421C11.3325 5.71962 11.3325 5.64503 11.3325 5.57043H16.9216C16.9216 5.64503 16.9216 5.71962 16.9216 5.79421H11.3325Z" fill="#380762"/>
<path d="M16.9082 5.98332C15.2219 5.99131 13.5356 5.9993 11.8493 6.00197C11.7454 6.00197 11.6415 5.9407 11.5403 5.90873C13.168 5.90873 14.7983 5.90606 16.4261 5.90606C16.5886 5.90606 16.7617 5.87143 16.9082 5.98332V5.98332Z" fill="#380762"/>
<path d="M11.3218 6.24707C11.3218 7.81084 11.3218 9.37727 11.3218 10.941C11.2313 10.8585 11.2153 10.7492 11.2153 10.6347C11.2153 9.27337 11.2153 7.91473 11.2153 6.55343C11.2153 6.43888 11.2313 6.32965 11.3192 6.24707H11.3218Z" fill="#30085C"/>
<path d="M5.69281 6.2817V11.0183C5.67683 11.0183 5.65818 11.0183 5.64219 11.0183V6.23907C5.65818 6.25239 5.67683 6.26571 5.69281 6.2817Z" fill="#370C44"/>
<path d="M11.3245 79.3711C9.78473 79.3711 8.24494 79.3658 6.70515 79.3711C6.48936 79.3711 6.25493 79.2992 6.06579 79.4777C5.78607 79.3365 5.84202 79.0754 5.84202 78.841C5.84202 77.1121 5.84202 75.3831 5.84202 73.6542C6.60925 73.4491 7.3898 73.561 8.16502 73.5503C9.21997 73.5343 10.2749 73.5024 11.3245 73.6489L11.3352 73.6595C11.479 73.8167 11.4897 73.9979 11.4231 74.1897C11.3805 75.7268 11.3059 77.2666 11.479 78.801C11.5083 79.0062 11.4897 79.2006 11.3378 79.3605L11.3272 79.3711H11.3245Z" fill="#380762"/>
<path d="M28.4567 6.01C28.462 7.83751 28.4647 9.66767 28.47 11.4952C26.5679 11.4952 24.6631 11.4952 22.761 11.4978C22.4627 11.3487 22.4307 11.0689 22.428 10.7866C22.4147 9.39861 22.4174 8.01067 22.428 6.62272C22.428 6.39628 22.476 6.1805 22.6385 6.00734V6.01C22.6625 5.97271 22.6891 5.95939 22.7184 5.97004C22.7477 5.9807 22.7637 5.99136 22.7637 6.00201L28.462 6.01H28.4567Z" fill="#FE7161"/>
<path d="M22.7557 6.00464C22.7131 6.00464 22.6705 6.00997 22.6305 6.01263C22.6252 5.978 22.6199 5.94071 22.6172 5.90607C22.5266 5.7116 22.5666 5.50914 22.5666 5.30667C22.5772 3.67098 22.6145 2.03262 22.5479 0.396925C22.5612 0.324997 22.5932 0.261062 22.6385 0.202454C22.6758 0.202454 22.7131 0.202454 22.7504 0.202454C22.7504 0.237086 22.7504 0.271717 22.7504 0.306349C22.7504 1.95536 22.7637 3.60172 22.7291 5.25073C22.7237 5.50647 22.9795 5.75423 22.753 6.00731L22.7557 6.00464Z" fill="#EE3A65"/>
<path d="M62.5052 56.7405C62.5052 54.9876 62.5186 53.2347 62.4946 51.4818C62.4893 51.0342 62.6331 50.9064 63.07 50.9143C64.711 50.9357 66.352 50.9223 67.9931 50.9223C67.9931 52.8591 67.9931 54.7958 67.9904 56.7352C66.1629 56.7352 64.3327 56.7405 62.5052 56.7405Z" fill="#5E75C2"/>
<path d="M11.3352 79.3578C11.3325 79.1714 11.3272 78.9849 11.3245 78.8011C11.2393 77.2719 11.2419 75.7428 11.3245 74.2137C11.3272 74.0272 11.3325 73.8434 11.3352 73.6569C13.2346 73.6542 15.134 73.6516 17.0335 73.6462C17.1081 73.6143 17.172 73.6303 17.2226 73.6942C17.3505 73.87 17.3638 74.0751 17.3665 74.2803C17.3771 75.7694 17.3771 77.2613 17.3665 78.7505C17.3665 78.9183 17.3505 79.0861 17.2759 79.2406C17.2413 79.3072 17.1906 79.3578 17.124 79.3925C15.1953 79.3792 13.2639 79.3685 11.3352 79.3552V79.3578Z" fill="#8A0975"/>
<path d="M17.1533 73.6542C17.1133 73.6542 17.0707 73.6515 17.0308 73.6488C17.0761 73.5742 17.1213 73.5023 17.1666 73.4277C18.765 73.4277 20.3608 73.4171 21.9592 73.4384C22.3881 73.4437 22.5479 73.3292 22.5372 72.8763C22.5106 71.539 22.5239 70.2016 22.5293 68.8643C22.5293 68.6672 22.4706 68.4514 22.6332 68.2809C22.8223 68.4301 22.7983 68.6432 22.801 68.8457C22.8063 70.2229 22.809 71.5976 22.801 72.9748C22.7957 73.5716 22.6678 73.7314 22.0977 73.7474C20.5925 73.7927 19.0847 73.7527 17.5795 73.774C17.4277 73.774 17.2865 73.7341 17.1533 73.6568V73.6542Z" fill="#830573"/>
<path d="M22.6411 84.2916C22.4706 84.1238 22.5319 83.908 22.5319 83.7082C22.5266 82.536 22.5133 81.3639 22.5372 80.1917C22.5452 79.7228 22.3694 79.5763 21.9139 79.5816C20.3315 79.6003 18.749 79.5896 17.1693 79.5896C17.156 79.5257 17.14 79.4591 17.1267 79.3952L17.1586 79.3579C17.3131 79.2007 17.5103 79.1527 17.7207 79.1527C19.1913 79.1368 20.6591 79.1368 22.1297 79.1527C22.2788 79.1527 22.4254 79.182 22.5612 79.254C22.6278 79.2913 22.6758 79.3445 22.7077 79.4138C22.6891 80.8577 22.7051 82.3016 22.6971 83.7455C22.6971 83.9266 22.745 84.1158 22.6438 84.2889L22.6411 84.2916Z" fill="#840474"/>
<path d="M73.5928 34.1152C71.8958 34.1178 70.1962 34.1125 68.4992 34.1312C68.1076 34.1365 67.9797 34.0086 67.9851 33.617C68.0037 31.92 67.9984 30.2204 68.001 28.5234C68.4752 28.4062 68.9574 28.4675 69.4343 28.4755C70.8569 28.4915 72.2794 28.4036 73.6993 28.5234C73.6993 28.5661 73.6993 28.6087 73.6993 28.6487C73.5875 29.922 73.686 31.1954 73.6487 32.4688C73.6327 32.983 73.7153 33.4998 73.5954 34.0113C73.5954 34.0459 73.5954 34.0806 73.5954 34.1152H73.5928Z" fill="#BEB9EF"/>
<path d="M73.6967 28.5234C71.7972 28.5234 69.8978 28.5234 68.001 28.5234V28.4675L68.0064 28.4142C69.7113 28.4142 71.4136 28.4142 73.1186 28.4142C73.3157 28.4142 73.5315 28.3502 73.6993 28.5181L73.6967 28.5234Z" fill="#C1BEF6"/>
<path d="M84.7656 39.7255C84.7656 41.5877 84.7709 43.4498 84.7736 45.3146C84.6244 45.1361 84.683 44.923 84.683 44.7259C84.6777 43.2979 84.6804 41.8674 84.683 40.4395C84.683 40.1997 84.7017 39.9546 84.5818 39.7309C84.6457 39.7309 84.707 39.7282 84.7709 39.7255H84.7656Z" fill="#CBC4FA"/>
<path d="M73.5928 34.0113C73.5928 32.4182 73.5928 30.8251 73.5928 29.2294C73.5928 29.0323 73.5288 28.8165 73.694 28.646C73.694 30.2577 73.6993 31.8721 73.6967 33.4838C73.6967 33.665 73.7446 33.8594 73.5901 34.0086L73.5928 34.0113Z" fill="#C3BFF7"/>
<path d="M62.2814 28.2997C56.719 28.2997 51.1566 28.2997 45.5941 28.2997C45.3464 28.1531 45.4316 27.9054 45.4316 27.6976C45.4263 26.291 45.4316 24.8844 45.4263 23.4778C45.4263 23.2967 45.4689 23.1075 45.3784 22.9317C45.3784 22.8918 45.3757 22.8518 45.373 22.8145C48.9215 22.8145 52.4699 22.8145 56.0184 22.8172C56.3434 22.8172 56.6364 22.8198 56.5698 22.3643C56.4526 21.629 56.5219 20.8884 56.5219 20.1532C56.5245 19.1755 56.4526 18.1951 56.5672 17.2174C56.5991 17.1775 56.6338 17.1402 56.6657 17.1002C56.6711 18.8292 56.687 20.5554 56.6711 22.2844C56.6657 22.7053 56.7989 22.8225 57.2092 22.8198C58.9008 22.8065 60.5898 22.8225 62.2814 22.8278C62.4013 23.8028 62.3267 24.7805 62.3294 25.7582C62.3294 26.6054 62.404 27.4552 62.2814 28.2997V28.2997Z" fill="#827CC2"/>
<path d="M45.3784 22.9317C45.5436 23.1022 45.4796 23.318 45.4823 23.5178C45.4876 24.8764 45.485 26.2351 45.4823 27.5937C45.4823 27.8361 45.461 28.0785 45.5942 28.2997C45.4983 28.2997 45.4184 28.2757 45.3624 28.1904C45.3677 26.4375 45.3731 24.6846 45.3784 22.9317V22.9317Z" fill="#7E77B9"/>
<path d="M22.761 34.0059C22.761 32.1438 22.7664 30.279 22.769 28.4169C22.8117 28.4462 22.8889 28.4781 22.8889 28.5074C22.8836 30.255 22.8756 32.0053 22.8569 33.7529C22.8569 33.8381 22.793 33.9207 22.761 34.0033V34.0059Z" fill="#785CC7"/>
<path d="M22.6332 6.00732C22.6359 7.60306 22.6385 9.20146 22.6439 10.7972C22.6439 11.037 22.6092 11.282 22.7557 11.5005C22.7184 11.5005 22.6838 11.5005 22.6465 11.5005C20.8243 11.4925 18.9995 11.4845 17.1773 11.4765C17.1693 9.657 17.1613 7.83749 17.1533 6.02065C18.9782 6.01798 20.8057 6.01265 22.6305 6.00999L22.6332 6.00732Z" fill="#EE3A65"/>
<path d="M28.4646 73.6596C28.4646 75.559 28.4647 77.4584 28.4673 79.3605L28.4487 79.3792C28.3261 79.4911 28.1743 79.4777 28.0251 79.4777C26.2908 79.4724 24.5592 79.4937 22.825 79.4671C22.7557 79.4458 22.6891 79.4138 22.6305 79.3712C22.452 79.1794 22.42 78.9423 22.42 78.6945C22.4147 77.2213 22.4067 75.7455 22.4254 74.2723C22.4307 73.9686 22.4147 73.6116 22.8543 73.5477C22.9582 73.6463 23.0887 73.6463 23.2219 73.6463C24.807 73.6463 26.3894 73.6489 27.9745 73.6409C28.137 73.6409 28.2995 73.577 28.462 73.5424C28.462 73.5797 28.462 73.6169 28.462 73.6542L28.4646 73.6596Z" fill="#FE7161"/>
<path d="M33.9552 68.1744C33.9525 68.209 33.9498 68.2436 33.9498 68.2783H28.7151C28.7151 68.2436 28.7151 68.209 28.7151 68.1744H33.9578H33.9552Z" fill="#FB776A"/>
<path d="M22.6332 79.3685C22.6758 79.3685 22.7158 79.3685 22.7584 79.3712C23.9572 79.4831 25.1586 79.3818 26.3574 79.4218C27.0554 79.4458 27.7587 79.3472 28.4567 79.4751C28.4567 79.5124 28.4593 79.5497 28.462 79.587C26.8823 79.587 25.3025 79.587 23.7228 79.587C23.2255 79.587 22.9768 79.8436 22.9768 80.3569C22.9768 81.5823 22.9768 82.8077 22.8676 84.0332V79.7228C22.8303 79.7228 22.7903 79.7228 22.7531 79.7228C22.7531 81.4305 22.7531 83.1407 22.7531 84.8484C22.5826 84.6885 22.6891 84.4727 22.6412 84.2889C22.6412 82.6479 22.6358 81.0069 22.6332 79.3658V79.3685Z" fill="#EE3A65"/>
<path d="M22.8569 73.5477C22.5772 73.6915 22.6465 73.9553 22.6465 74.1897C22.6412 75.916 22.6385 77.6449 22.6358 79.3712C20.811 79.3658 18.9835 79.3632 17.1586 79.3579C17.1586 77.4558 17.1587 75.5537 17.156 73.6516C17.5503 73.4891 17.9658 73.5743 18.3681 73.5663C19.6362 73.545 20.9042 73.5477 22.1723 73.5663C22.5319 73.5717 22.6651 73.4571 22.6598 73.0868C22.6412 71.4831 22.6438 69.8794 22.6358 68.2756C22.6705 68.2357 22.7051 68.193 22.7397 68.1531L22.761 68.1717C22.7957 68.233 22.8117 68.3023 22.809 68.3742C22.809 69.9726 22.809 71.571 22.8143 73.1667C22.809 71.5577 22.8037 69.9486 22.8196 68.3422C22.8489 68.2596 22.9022 68.2383 22.9795 68.2756C22.9795 69.8394 22.9795 71.4005 22.9795 72.9643C22.9795 73.1614 23.0381 73.3798 22.8623 73.545L22.8569 73.5477Z" fill="#EE3A65"/>
<path d="M22.753 68.2756C22.753 68.241 22.753 68.209 22.7584 68.1744C24.5006 68.1744 26.2429 68.1744 27.9851 68.1744C27.9851 68.209 27.9851 68.2436 27.9851 68.2783C26.3148 68.2783 24.6445 68.2783 22.9742 68.2783C22.9369 68.2783 22.8996 68.2783 22.8623 68.2783C22.825 68.3475 22.7877 68.3475 22.753 68.2783V68.2756Z" fill="#F83969"/>
<path d="M51.0793 56.7538C54.8516 56.7538 58.6264 56.7538 62.3987 56.7512C62.3987 58.3709 62.3987 59.9932 62.396 61.613C62.396 61.8181 62.396 62.0232 62.4839 62.215C58.6851 62.2177 54.8889 62.223 51.09 62.2257C51.0873 60.4008 51.0847 58.5787 51.082 56.7538H51.0793Z" fill="#827BC2"/>
<path d="M62.3773 22.6919C62.2761 22.588 62.2814 22.4575 62.2814 22.327C62.2814 20.7126 62.2814 19.0982 62.2814 17.4812C62.2814 17.3506 62.2735 17.2201 62.372 17.1135C62.372 18.973 62.3747 20.8325 62.3773 22.6893V22.6919Z" fill="#C9C4FA"/>
<path d="M22.6412 0.199808C22.6438 0.23444 22.6412 0.271735 22.6332 0.306367C22.5586 0.370303 22.4867 0.375631 22.4121 0.306367C21.0774 0.306367 19.7401 0.306368 18.4054 0.303704C18.2083 0.303704 17.9925 0.364975 17.822 0.197144C19.4284 0.197144 21.0321 0.199808 22.6385 0.202472L22.6412 0.199808Z" fill="#930878"/>
<path d="M28.4594 40.285C28.4594 41.9633 28.4594 43.6416 28.4594 45.3172C28.3501 45.2187 28.3501 45.0881 28.3501 44.9549C28.3501 43.519 28.3501 42.0832 28.3501 40.6446C28.3501 40.5141 28.3501 40.3809 28.4594 40.2823V40.285Z" fill="#807AB9"/>
<path d="M33.9419 45.4451C35.7054 45.4425 37.4717 45.4531 39.2352 45.4238C39.7094 45.4158 39.7867 45.6076 39.7813 46.0152C39.7627 47.6509 39.7733 49.284 39.7707 50.9197C37.8313 50.9197 35.8919 50.917 33.9525 50.9143C33.9498 49.0895 33.9445 47.2673 33.9392 45.4425L33.9419 45.4451Z" fill="#827CC2"/>
<path d="M28.454 79.4777C26.749 79.4777 25.0441 79.4777 23.3391 79.4777C23.142 79.4777 22.9262 79.5363 22.7557 79.3765C24.6525 79.3765 26.5519 79.3791 28.4487 79.3818C28.454 79.4138 28.4567 79.4484 28.454 79.4804V79.4777Z" fill="#EE3A65"/>
<path d="M56.5672 17.2174C56.5672 18.933 56.5672 20.6486 56.5672 22.3643C56.442 22.2497 56.4579 22.0979 56.4579 21.9513C56.4579 20.5101 56.4579 19.0715 56.4579 17.6303C56.4579 17.4838 56.442 17.332 56.5672 17.2174V17.2174Z" fill="#6F54C3"/>
<path d="M62.2814 28.2996C62.2814 26.4748 62.2814 24.6526 62.2814 22.8278C62.3187 22.8198 62.356 22.8144 62.3907 22.8065C62.3907 24.4448 62.3933 26.0805 62.3907 27.7189C62.3907 27.916 62.4599 28.1318 62.2814 28.2996Z" fill="#7F78BB"/>
<path d="M56.6924 50.9197C56.6871 49.1294 56.6817 47.3419 56.6764 45.5517C56.8363 45.3759 57.0494 45.4558 57.2439 45.4371C58.0963 45.5597 58.9515 45.4691 59.8066 45.4878C60.5525 45.5037 61.2985 45.4931 62.0444 45.4904C62.2548 45.4904 62.46 45.4718 62.452 45.7888C62.4147 47.4245 62.5186 49.0628 62.396 50.6985C62.3108 51.0236 62.0417 50.9143 61.8419 50.9143C60.1263 50.9223 58.4107 50.917 56.6951 50.917L56.6924 50.9197Z" fill="#5E75C2"/>
<path d="M62.3933 50.6986C62.3933 49.284 62.3933 47.8694 62.3933 46.4575C62.3907 45.4505 62.4972 45.5491 61.5115 45.5464C60.2834 45.5437 59.0553 45.5464 57.8272 45.5437C57.6301 45.5437 57.4143 45.605 57.2438 45.4345C58.8262 45.4345 60.406 45.4345 61.9884 45.4345C62.2601 45.4345 62.5105 45.4159 62.5079 45.8181C62.4972 47.3633 62.5052 48.9057 62.4972 50.4508C62.4972 50.5334 62.4306 50.616 62.396 50.6986H62.3933Z" fill="#5E75C2"/>
<path d="M73.6621 34.8824V39.246C73.6434 39.246 73.6248 39.246 73.6061 39.246V34.8824C73.6248 34.8824 73.6434 34.8824 73.6621 34.8824Z" fill="#7FC8DC"/>
<path d="M22.4147 0.306335C22.4893 0.306335 22.5612 0.306335 22.6358 0.306335C22.6305 2.17113 22.6252 4.0386 22.6199 5.9034C21.0401 5.9034 19.463 5.9034 17.8833 5.9034L17.8753 5.79151C18.0724 5.79151 18.2695 5.79151 18.464 5.79151C19.6175 5.79151 20.771 5.78352 21.9246 5.79684C22.2629 5.7995 22.4653 5.7702 22.4893 5.33596C22.5746 3.81216 22.5 2.28835 22.5266 0.764543C22.5293 0.599376 22.2948 0.495479 22.4174 0.306335H22.4147Z" fill="#820770"/>
<path d="M11.3218 74.2137C11.3218 75.7428 11.3218 77.2719 11.3218 78.8011C11.1567 78.6306 11.2179 78.4175 11.2179 78.2203C11.2126 77.1467 11.2179 76.0758 11.2126 75.0022C11.2126 74.7704 11.2286 74.5493 11.1114 74.3069C10.9888 74.0618 11.2579 74.2723 11.3218 74.211V74.2137Z" fill="#30085C"/>
<path d="M22.753 68.2756C22.7903 68.2756 22.825 68.2756 22.8623 68.2756V73.2893C22.825 73.2893 22.7903 73.2893 22.753 73.2893V68.2729V68.2756Z" fill="#EE3A65"/>
</svg>
