<svg width="75" height="85" viewBox="0 0 75 85" fill="none" xmlns="http://www.w3.org/2000/svg">
<path d="M28.7867 67.1567C28.7813 65.553 28.776 63.9493 28.7707 62.3455C28.5869 62.2257 28.3817 62.3082 28.1873 62.2843C24.9159 62.2843 21.6471 62.2843 18.3758 62.2789C18.104 62.2789 17.8137 62.3509 17.5766 62.1351C17.5446 61.9113 17.7124 61.9513 17.8296 61.9513C21.2262 61.9513 24.6202 61.9459 28.0168 61.9513C28.0834 61.9513 28.1153 61.9806 28.1233 62.0205C27.9821 61.8687 27.7823 61.9539 27.6118 61.9539C24.4417 61.9486 21.2689 61.9406 18.0987 61.9593C17.6352 61.9619 17.4993 61.8367 17.51 61.3705C17.5393 60.0092 17.5233 58.6479 17.5179 57.2866C17.5179 57.1055 17.5766 56.9137 17.454 56.7432C15.7011 56.7432 13.9482 56.7432 12.1953 56.7405C11.9901 56.7405 11.7264 56.8417 11.6412 56.5194C11.5186 56.0079 11.5879 55.4911 11.5906 54.9769C11.5985 53.6662 11.5346 52.3529 11.6252 51.0422C11.4574 50.8637 11.2389 50.9383 11.0444 50.9383C9.59256 50.933 8.14068 50.9223 6.6888 50.9436C6.27588 50.949 6.14001 50.8291 6.14534 50.4082C6.16399 48.7512 6.148 47.0968 6.14534 45.4398C6.28387 45.256 6.48899 45.2214 6.69146 45.2214C8.33781 45.2214 9.98416 45.1654 11.6305 45.2453C13.3808 45.1681 15.131 45.2214 16.8839 45.216C17.0917 45.216 17.2915 45.2613 17.4647 45.3865C17.7044 45.6449 17.6778 45.9726 17.6804 46.2843C17.6884 47.5337 17.6805 48.7831 17.6858 50.0299C17.6884 50.6453 17.7337 50.6906 18.3624 50.6932C19.5932 50.7012 20.824 50.6932 22.0521 50.6985C22.3664 50.6985 22.6914 50.6719 22.9632 50.8824C23.1923 51.1461 23.163 51.4738 23.1656 51.7855C23.1736 53.1281 23.1656 54.4681 23.171 55.8108C23.1736 56.4741 23.2109 56.5061 23.8609 56.5167C25.4993 56.5407 27.1403 56.4714 28.7787 56.554C30.4676 56.4768 32.1566 56.5247 33.8429 56.5274C34.0294 56.5274 34.2132 56.5673 34.3677 56.6872C34.6128 56.943 34.5835 57.2706 34.5862 57.585C34.5942 58.8344 34.5835 60.0865 34.5915 61.3359C34.5968 61.9593 34.6368 61.9992 35.2682 62.0019C36.5362 62.0099 37.807 62.0019 39.075 62.0046C39.3734 62.0046 39.6744 61.9886 39.9621 62.0925C40.0287 62.1138 40.0927 62.1458 40.1539 62.1804C40.3537 62.3162 40.5828 62.2843 40.804 62.2843C43.8622 62.2843 46.9178 62.2843 49.9761 62.2843C50.2185 62.2843 50.4609 62.2896 50.6954 62.2044C50.9458 62.183 51.2069 62.1191 51.404 62.3482C51.5186 62.5933 51.4813 62.857 51.4839 63.1128C51.4866 64.7591 51.4839 66.4055 51.4866 68.0518C51.3081 68.257 51.0603 68.2676 50.8179 68.2676C45.4526 68.2756 40.09 68.2729 34.7247 68.2676C34.6128 68.2676 34.5036 68.241 34.3917 68.233C32.7214 68.3049 31.0537 68.2623 29.3834 68.257C29.2715 68.257 29.1623 68.2277 29.0584 68.185C28.8373 68.1131 28.8266 67.9373 28.824 67.7455C28.8213 67.5457 28.8639 67.3432 28.784 67.1487L28.7867 67.1567Z" fill="#5E4194"/>
<path d="M56.9851 79.3605C56.9851 81.0015 56.9691 82.6426 57.0037 84.2809C57.0144 84.8137 56.8679 84.9736 56.3218 84.9709C49.0144 84.9523 41.7071 84.9602 34.4024 84.9576C32.5189 84.9576 30.6381 84.9469 28.7547 84.9416C28.7067 84.891 28.6668 84.8324 28.6348 84.7684C28.5069 84.4088 28.5602 84.0332 28.5549 83.6655C28.5389 82.3495 28.5709 81.0308 28.5363 79.7148C28.5096 79.6296 28.4856 79.5417 28.4084 79.4804C27.5266 79.3392 26.6421 79.4271 25.7577 79.4245C25.0411 79.4245 24.3191 79.3286 23.6079 79.5017C23.3548 79.5204 23.0937 79.563 22.8832 79.3605C22.7367 79.1501 22.7261 78.9076 22.7261 78.6652C22.7207 77.2187 22.7207 75.7694 22.7261 74.3229C22.7261 74.0805 22.7394 73.8381 22.8939 73.6329C23.1124 73.4385 23.3841 73.4891 23.6398 73.4891C25.3102 73.4784 26.9805 73.4971 28.6535 73.4784C28.8 73.4704 28.9332 73.4091 29.0744 73.3825C30.6728 73.2573 32.2712 73.3212 33.8722 73.3479C34.1413 73.3532 34.3811 73.4651 34.4956 73.7448C34.6262 74.0858 34.5889 74.4428 34.5915 74.7944C34.5942 75.9693 34.5915 77.1414 34.5915 78.3162C34.5915 79.1101 34.6208 79.1394 35.4014 79.1394C40.6548 79.1421 45.9109 79.1394 51.1643 79.1394C52.8026 79.1394 54.4436 79.1394 56.082 79.1394C56.3963 79.1394 56.724 79.1048 56.9771 79.3579L56.9851 79.3605Z" fill="#482A64"/>
<path d="M56.9797 11.4978C56.9824 13.1522 56.9744 14.8065 56.9984 16.4609C57.0037 16.8818 56.8625 17.0017 56.4523 16.9963C54.7979 16.9777 53.1436 16.991 51.4866 16.991C51.4333 17.0443 51.3747 17.0842 51.3081 17.1162C51.2015 17.1455 51.0976 17.1935 50.9857 17.1935C49.2115 17.1988 47.4373 17.2601 45.6631 17.1615C41.8642 17.2521 38.0654 17.2201 34.2665 17.1801C32.6894 17.1269 31.1123 17.1642 29.5352 17.1508C29.3514 17.1508 29.1596 17.1642 29.0024 17.0363C28.8692 16.7912 28.9385 16.5248 28.9385 16.2691C28.9332 14.8411 28.9278 13.4106 28.9385 11.9827C28.9278 13.629 28.9465 15.2754 28.9252 16.9191C28.8932 16.999 28.8399 17.0203 28.7627 16.9857V16.991C28.5202 16.7353 28.5496 16.4102 28.5469 16.0959C28.5416 14.8518 28.5522 13.6051 28.5416 12.361C28.5362 11.7749 28.4883 11.7269 27.8969 11.7216C26.5595 11.7109 25.2196 11.7216 23.8822 11.7163C23.5865 11.7163 23.2855 11.7403 23.0031 11.6071C22.9365 11.5698 22.8859 11.5191 22.8433 11.4579C22.7314 11.2554 22.7207 11.029 22.7207 10.8052C22.7154 9.44655 22.7154 8.08525 22.7207 6.72661C22.7207 6.46554 22.7207 6.2018 22.8992 5.98069C23.1257 5.79954 23.3974 5.85015 23.6531 5.84749C25.3314 5.8395 27.0124 5.85015 28.6907 5.8395C30.3584 5.55978 32.0367 5.70097 33.7124 5.73027C33.9362 5.73294 34.1573 5.79155 34.3491 5.92208C34.4077 5.96737 34.453 6.02331 34.4849 6.08991C34.6022 6.35631 34.5862 6.6387 34.5835 6.91575C34.5782 8.16517 34.6128 9.41725 34.5649 10.664C34.5489 11.0956 34.7087 11.2927 35.143 11.2741C35.3667 11.2634 35.5905 11.2741 35.8143 11.2741C42.5116 11.2741 49.2089 11.2741 55.9088 11.2767C56.2738 11.2767 56.6627 11.1968 56.9744 11.4898L56.9797 11.4978Z" fill="#482A64"/>
<path d="M34.3651 0.183831C41.747 0.181167 49.1263 0.181167 56.5082 0.167847C56.9238 0.167847 57.0011 0.335679 56.9984 0.700646C56.9824 2.43491 56.9878 4.16651 56.9851 5.90077C56.6761 6.24975 56.2525 6.23377 55.8449 6.23643C54.0574 6.24443 52.2671 6.2391 50.4796 6.2391C45.5059 6.2391 40.5322 6.2391 35.5586 6.2391C35.151 6.2391 34.7327 6.28172 34.3757 6.01532C34.1546 5.79954 34.152 5.51715 34.152 5.2401C34.1493 3.81486 34.1493 2.39228 34.152 0.967046C34.152 0.687326 34.16 0.407607 34.3677 0.186496L34.3651 0.183831Z" fill="#703A91"/>
<path d="M56.985 79.3605C49.6351 79.3605 42.2851 79.3605 34.9351 79.3738C34.4929 79.3738 34.357 79.2459 34.3624 78.801C34.3863 77.1227 34.373 75.4444 34.373 73.7634C34.4556 73.6355 34.5622 73.537 34.714 73.4943C35.0417 73.4011 35.38 73.4277 35.7157 73.4277C41.9654 73.4277 48.2178 73.4277 54.4676 73.4277C55.0457 73.4277 55.6237 73.4464 56.1992 73.3505C56.4762 73.3052 56.7613 73.3132 56.985 73.537C56.985 75.479 56.985 77.4184 56.985 79.3605V79.3605Z" fill="#543175"/>
<path d="M56.9851 73.537C49.5232 73.7928 42.0587 73.5797 34.5968 73.6516C34.2292 73.6036 34.1733 73.3133 34.1653 73.0362C34.136 71.547 34.1386 70.0552 34.1626 68.5634C34.1653 68.3715 34.2265 68.1957 34.3651 68.0572C40.074 68.0572 45.7803 68.0572 51.4893 68.0572C53.1249 68.0572 54.7606 68.0732 56.3937 68.0492C56.8386 68.0439 57.0117 68.1451 57.0011 68.63C56.9691 70.2657 56.9851 71.8987 56.9824 73.5344L56.9851 73.537Z" fill="#703A91"/>
<path d="M34.3731 6.01533C34.6688 6.01533 34.9618 6.01533 35.2575 6.01533C42.112 6.01533 48.9665 6.01267 55.8209 6.02332C56.2179 6.02332 56.5935 5.91943 56.9824 5.90344C56.9824 7.77091 56.9824 9.6357 56.9824 11.5032C49.6218 11.5032 42.2638 11.5032 34.9032 11.5192C34.4317 11.5192 34.2825 11.2954 34.3118 10.9304C34.445 9.29471 34.3278 7.65635 34.3731 6.01799V6.01533Z" fill="#543175"/>
<path d="M62.9338 50.9357C62.7393 51.1168 62.8112 51.3539 62.8086 51.567C62.8032 53.0908 62.8086 54.6146 62.8006 56.1411C62.8006 56.3329 62.8858 56.5514 62.7073 56.7192C62.6541 56.6713 62.6114 56.6153 62.5821 56.5514C62.4782 55.0542 62.5635 53.557 62.5368 52.0572C62.5315 51.7988 62.5715 51.5351 62.3956 51.3113C62.2092 51.1008 61.9561 51.1381 61.719 51.1381C60.419 51.1275 59.1216 51.1381 57.8216 51.1301C57.5099 51.1301 57.1822 51.1594 56.9318 50.9064C56.7613 50.6613 56.7719 50.3762 56.7693 50.0992C56.7666 46.9157 56.764 43.7322 56.7693 40.5487C56.7693 39.6669 56.8892 39.5604 57.7789 39.5577C59.0816 39.5551 60.3843 39.5577 61.6897 39.5577C61.9508 39.5577 62.2092 39.5497 62.4676 39.4965C62.5821 39.4885 62.6913 39.4991 62.7952 39.5524C62.8565 39.5977 62.9045 39.6536 62.9391 39.7202C62.9871 39.8215 63.0164 39.9307 63.0164 40.0426C63.0323 41.8381 63.0723 43.6363 62.9977 45.4318C63.0776 47.1022 63.019 48.7725 63.0297 50.4455C63.0297 50.616 62.9577 50.7705 62.9311 50.9357H62.9338Z" fill="#5E75C2"/>
<path d="M11.6465 45.4238C9.81366 45.4292 7.98083 45.4345 6.14534 45.4398C5.93488 45.2187 5.92956 44.939 5.92956 44.6593C5.92689 43.234 5.92689 41.8088 5.92956 40.3836C5.92956 40.1038 5.93755 39.8241 6.14267 39.6003C6.14534 37.9407 6.16132 36.2783 6.14267 34.6187C6.14001 34.2297 6.2519 34.1098 6.64617 34.1125C8.30584 34.1258 9.96817 34.1045 11.6278 34.0992C11.6545 34.1232 11.6838 34.1471 11.7104 34.1711C11.777 34.2643 11.7957 34.3709 11.7983 34.4828C11.7664 37.8128 11.8916 41.1428 11.857 44.4728C11.8543 44.8031 11.9076 45.1521 11.6412 45.4238H11.6465Z" fill="#755AC0"/>
<path d="M23.0644 22.8225C24.9611 22.8172 26.8579 22.8118 28.7547 22.8065C28.8133 22.7639 28.8745 22.7239 28.9385 22.6919C29.0077 22.668 29.0797 22.6493 29.1489 22.6307C30.6781 22.5534 32.2072 22.5934 33.7363 22.6094C34.1333 22.612 34.421 22.7719 34.421 23.2381C34.421 24.8231 34.437 26.4082 34.413 27.996C34.413 28.0706 34.389 28.1425 34.3624 28.2144C34.2239 28.4595 33.9841 28.5128 33.739 28.5128C32.0847 28.5208 30.433 28.5687 28.7786 28.4915C27.0843 28.5687 25.39 28.5181 23.6957 28.5181C23.5093 28.5181 23.3254 28.4808 23.1683 28.3636C22.9631 28.1531 23.0111 27.8814 23.0111 27.6283C23.0031 26.0939 23.0137 24.5594 23.0031 23.0249C23.0031 22.9504 23.0217 22.8838 23.0617 22.8225H23.0644Z" fill="#BEB9EF"/>
<path d="M6.14532 39.6003C6.14532 41.5477 6.14532 43.4951 6.14532 45.4398C4.39508 45.4398 2.64217 45.4238 0.89192 45.4451C0.444369 45.4505 0.321826 45.3093 0.327154 44.8724C0.35113 43.3086 0.348466 41.7422 0.327154 40.1784C0.321826 39.7468 0.436374 39.5977 0.889254 39.603C2.6395 39.6243 4.39241 39.603 6.14266 39.5977L6.14532 39.6003Z" fill="#5E4195"/>
<path d="M56.9931 50.9223C58.8312 50.933 60.6694 50.9463 62.5076 50.9623C62.5715 50.9623 62.6354 51.0129 62.6994 51.0395C62.5821 51.6629 62.6488 52.2916 62.6541 52.9176C62.6647 54.1537 62.5821 55.3925 62.6994 56.6259C62.702 56.6579 62.7047 56.6899 62.71 56.7192C60.8079 56.7325 58.9032 56.7458 57.0011 56.7591C56.9744 56.7351 56.9478 56.7112 56.9185 56.6872C56.7746 56.4741 56.7773 56.229 56.7773 55.9892C56.772 54.5587 56.772 53.1281 56.7773 51.6975C56.7773 51.4578 56.7746 51.2127 56.9132 50.9969C56.9398 50.9729 56.9664 50.9489 56.9957 50.9223H56.9931Z" fill="#827CC2"/>
<path d="M56.9957 28.297C58.7486 28.3023 60.5042 28.321 62.2571 28.297C62.702 28.2917 62.8192 28.4169 62.8112 28.8564C62.7846 30.4042 62.8192 31.9546 62.7899 33.5024C62.7819 33.974 62.8725 34.1445 63.392 34.1285C64.8652 34.0885 66.341 34.1285 67.8142 34.1045C68.2005 34.0992 68.323 34.1977 68.315 34.5973C68.2911 36.1078 68.3204 37.621 68.2964 39.1315C68.2911 39.5284 68.403 39.6296 68.7946 39.6243C70.4542 39.6056 72.1166 39.6216 73.7762 39.6243C73.8189 39.6909 73.8055 39.7468 73.7416 39.7948C73.6564 39.8561 73.5578 39.88 73.4592 39.904C72.1778 39.9653 70.8965 39.9333 69.6124 39.9227C69.1489 39.92 68.6933 40.0798 68.2298 39.96C67.9554 39.8268 67.6597 39.8241 67.3613 39.8241C66.1226 39.8241 64.8838 39.8241 63.6451 39.8241C63.3494 39.8241 63.0483 39.8348 62.8032 39.6216H62.7979C62.6247 39.4138 62.6514 39.1661 62.6514 38.9237C62.6487 37.7302 62.6461 36.5394 62.6514 35.3459C62.6541 34.9516 62.6221 34.5654 62.4915 34.1897C62.4756 34.1205 62.4702 34.0512 62.4729 33.9793C62.5768 32.2717 62.5688 30.564 62.4729 28.8591C62.4383 28.8085 62.4036 28.7578 62.3637 28.7126C62.1559 28.5394 61.9108 28.5714 61.671 28.5714C60.355 28.5714 59.0417 28.5714 57.7257 28.5714C57.5232 28.5714 57.3181 28.59 57.1183 28.5261C57.0543 28.4968 57.0037 28.4542 56.9664 28.3929C56.9744 28.3609 56.9851 28.3263 56.9931 28.2943L56.9957 28.297Z" fill="#BEB9EF"/>
<path d="M28.8852 22.8145C28.8426 22.8118 28.7973 22.8065 28.7547 22.8038C28.8213 20.8671 28.792 18.9277 28.7707 16.991C28.8106 16.9856 28.8479 16.9803 28.8879 16.9776C28.9145 16.943 28.9385 16.9297 28.9625 16.943C28.9865 16.9563 28.9971 16.9696 28.9971 16.9803C30.7527 16.991 32.5083 16.999 34.2638 17.0096C34.5276 17.1295 34.5782 17.3692 34.5809 17.617C34.5889 19.33 34.6395 21.0402 34.5569 22.7532C34.5516 22.8251 34.5462 22.897 34.5436 22.969C34.5382 24.4528 34.5436 25.9367 34.5382 27.4205C34.5382 27.6603 34.5755 27.9054 34.4557 28.1318C34.4104 28.2011 34.3491 28.2224 34.2718 28.1931C34.2718 26.5893 34.2532 24.983 34.2745 23.3792C34.2798 22.937 34.1466 22.8011 33.7017 22.8065C32.1353 22.8304 30.5662 22.8145 28.9998 22.8118C28.8772 22.4282 28.9518 22.0366 28.9465 21.6476C28.9358 20.3236 28.9598 18.9996 28.9332 17.6756C28.9225 17.244 29.0637 17.1428 29.4713 17.1508C30.6648 17.1774 31.8583 17.1615 33.0517 17.1561C33.2036 17.1561 33.3741 17.2121 33.5073 17.0922C33.3554 17.236 33.1609 17.1535 32.9878 17.1535C31.7943 17.1615 30.6009 17.1694 29.4074 17.1508C29.0424 17.1455 28.9279 17.2494 28.9332 17.6223C28.9518 19.1701 28.9438 20.7179 28.9385 22.2657C28.9385 22.4495 28.9865 22.6386 28.8852 22.8145Z" fill="#A7A2D2"/>
<path d="M17.2436 28.3369C17.3155 28.3263 17.3901 28.3156 17.462 28.3023C17.4886 28.3289 17.5153 28.3529 17.5419 28.3796C17.6511 28.5394 17.6751 28.7259 17.6751 28.9124C17.6858 30.4681 17.6884 32.0266 17.6751 33.5824C17.6751 33.7875 17.6432 33.9899 17.502 34.1578C17.3048 34.3256 17.0624 34.3443 16.82 34.3443C15.3548 34.3522 13.8896 34.3522 12.4244 34.3443C12.2193 34.3443 12.0168 34.3309 11.8303 34.227C11.769 34.1871 11.7291 34.1311 11.7104 34.0592C11.7024 32.2104 11.6518 30.3616 11.7397 28.5128C11.7184 28.4462 11.7264 28.3849 11.7637 28.3263C13.5459 28.329 15.3281 28.3343 17.1104 28.3369C17.1077 28.4701 17.0065 28.4675 16.9159 28.4675C15.472 28.4701 14.0281 28.4675 12.5869 28.4701C14.0041 28.4701 15.4214 28.4701 16.8386 28.4701C16.9905 28.4701 17.137 28.4675 17.2436 28.3369V28.3369Z" fill="#755AC0"/>
<path d="M28.7307 5.99666L28.736 5.95404C28.736 5.95404 28.736 5.91142 28.7334 5.91142C28.8346 4.04129 28.7813 2.17383 28.76 0.3037C28.7946 0.3037 28.8293 0.303699 28.8639 0.301035C28.9838 0.426243 28.9358 0.58342 28.9358 0.727276C28.9358 2.14452 28.9438 3.55911 28.9358 4.97635C28.9811 3.38062 28.8719 1.78488 28.9918 0.189148C30.782 0.189148 32.5722 0.189148 34.3651 0.189148C34.3677 2.1312 34.3704 4.07592 34.373 6.01798C32.4923 5.8315 30.6115 5.86879 28.7307 5.99933V5.99666Z" fill="#543175"/>
<path d="M68.3071 39.8348C70.06 39.603 71.8209 39.7682 73.5765 39.7309C73.8881 39.8987 73.8402 40.1971 73.8402 40.4715C73.8482 42.0566 73.8402 43.6443 73.8455 45.2294C73.8455 45.3013 73.8242 45.3679 73.7816 45.4265C71.9541 45.4398 70.1292 45.4505 68.3017 45.4638C68.2751 45.4372 68.2485 45.4132 68.2192 45.3865C68.0673 45.1548 68.0806 44.8884 68.0806 44.63C68.078 43.3086 68.0753 41.9873 68.0806 40.6659C68.0806 40.3729 68.046 40.0612 68.3044 39.8348H68.3071Z" fill="#BEB9EF"/>
<path d="M51.5079 22.7852C53.1676 22.7905 54.8246 22.8118 56.4842 22.7879C56.9158 22.7825 57.0064 22.9131 57.0011 23.3207C56.9798 24.9803 56.9957 26.6373 56.9957 28.297L56.9877 28.305C56.8172 28.4808 56.5961 28.5128 56.3724 28.5155C54.8672 28.5288 53.362 28.5181 51.8569 28.5208C51.7263 28.5208 51.5958 28.5048 51.4813 28.4355C51.3854 28.337 51.3481 28.2118 51.3481 28.0786C51.3481 26.3709 51.2921 24.6633 51.3774 22.9557C51.404 22.8864 51.4466 22.8278 51.5052 22.7825L51.5079 22.7852Z" fill="#BEB9EF"/>
<path d="M51.6144 62.2363C51.5851 62.2523 51.5558 62.2549 51.5239 62.247C51.4919 62.2336 51.4573 62.2203 51.4253 62.207C51.2415 62.0711 51.1989 61.866 51.1962 61.6609C51.1749 60.1344 51.1536 58.6053 51.2069 57.0788C51.2069 57.0042 51.2362 56.9323 51.2628 56.863C51.2921 56.7937 51.3347 56.7351 51.3907 56.6845C51.4519 56.6419 51.5185 56.6126 51.5905 56.594C52.2911 56.4528 52.9971 56.5433 53.7004 56.53C54.5369 56.514 55.3733 56.522 56.2072 56.53C56.4869 56.53 56.7693 56.5273 56.9931 56.7378L57.001 56.7644C57.001 58.4001 57.001 60.0358 56.9877 61.6715C56.9877 61.8633 57.081 62.0818 56.8865 62.2443C56.6228 62.1084 56.3377 62.1857 56.066 62.1857C54.7633 62.175 53.4606 62.1777 52.1579 62.1857C51.9767 62.1857 51.7849 62.1297 51.6144 62.2443V62.2363Z" fill="#755AC0"/>
<path d="M62.9338 50.9357C62.7633 50.7678 62.8166 50.552 62.8166 50.3522C62.8139 48.7112 62.8166 47.0729 62.8166 45.4318C63.0377 45.2107 63.3201 45.2107 63.5998 45.2107C64.9238 45.2081 66.2478 45.2107 67.5718 45.2107C67.8356 45.2107 68.0966 45.2294 68.3151 45.4025C68.3284 45.4265 68.3257 45.4452 68.3018 45.4611C68.3018 47.0942 68.3044 48.7245 68.2964 50.3576C68.2964 50.5467 68.3897 50.7678 68.1925 50.925C67.8515 50.7918 67.4972 50.8717 67.1483 50.8664C65.9228 50.8557 64.6947 50.8584 63.4693 50.8664C63.2881 50.8664 63.0963 50.8131 62.9258 50.925L62.9311 50.9357H62.9338Z" fill="#827BC2"/>
<path d="M17.4647 28.3023C17.4673 26.648 17.4833 24.9936 17.4647 23.342C17.4593 22.9397 17.5552 22.7878 17.9895 22.7958C19.6065 22.8251 21.2209 22.8171 22.8379 22.8225C23.0457 23.0542 22.9978 23.342 23.0031 23.6163C23.0271 25.0975 22.9578 26.5787 23.0404 28.0599C23.0457 28.1744 23.0218 28.281 22.9338 28.3609C22.742 28.4995 22.5183 28.5154 22.2945 28.5154C20.9172 28.5234 19.5426 28.5234 18.1653 28.5154C17.9229 28.5154 17.6778 28.5074 17.4886 28.321L17.4673 28.2997L17.4647 28.3023Z" fill="#755AC0"/>
<path d="M17.4513 56.7458C17.6405 56.9056 17.5712 57.1267 17.5712 57.3239C17.5766 58.6292 17.5952 59.9346 17.5632 61.24C17.5499 61.7434 17.6831 61.9113 18.2132 61.9086C21.3461 61.8846 24.4816 61.8953 27.6145 61.8953C27.7983 61.8953 27.9821 61.8953 28.1633 61.8953C28.1633 61.9326 28.1659 61.9699 28.1686 62.0072C27.9848 62.0072 27.801 62.0072 27.6172 62.0072C24.4843 62.0072 21.3488 62.0072 18.2159 62.0098C18.0001 62.0098 17.763 61.9353 17.5766 62.1217C17.6139 62.159 17.6192 62.2017 17.5899 62.2469C17.5419 62.2762 17.502 62.2629 17.4727 62.2176L17.4487 56.7458H17.4513Z" fill="#5D408A"/>
<path d="M28.7307 73.5503C28.8559 72.5566 28.768 71.5576 28.784 70.5586C28.7973 69.7248 28.7733 68.8936 28.768 68.0598C28.7733 67.7587 28.7813 67.4577 28.7867 67.1567C29.0131 67.4231 28.744 67.8014 28.9971 68.0598C29.2209 68.2782 29.2182 68.5633 29.2182 68.843C29.2236 70.1483 29.2209 71.451 29.2182 72.7564C29.2182 73.0361 29.2156 73.3212 28.9971 73.5396C28.9305 73.6329 28.8346 73.6435 28.7307 73.6302L28.7361 73.5876V73.5449L28.7307 73.5503Z" fill="#4F2978"/>
<path d="M51.4066 62.3535C51.1775 62.3482 50.9511 62.3455 50.722 62.3402C50.5861 62.4308 50.4343 62.3961 50.2877 62.3961C47.0323 62.3961 43.7743 62.3961 40.5189 62.3961C40.3723 62.3961 40.2205 62.4334 40.0846 62.3402C40.082 62.3056 40.0793 62.2736 40.074 62.239C40.098 62.2123 40.1246 62.183 40.1486 62.1537C40.399 61.9886 40.6814 62.0099 40.9611 62.0099C44.1659 62.0072 47.368 62.0099 50.5728 62.0072C50.8951 62.0072 51.2068 62.0232 51.4812 62.215L51.5212 62.247C51.4839 62.2816 51.4439 62.3189 51.4066 62.3535V62.3535Z" fill="#755AC0"/>
<path d="M17.4753 62.2176C17.5099 62.2176 17.5446 62.2176 17.5792 62.2176C17.6831 62.1643 17.7977 62.1777 17.9069 62.1777C21.2502 62.1777 24.5935 62.1777 27.9368 62.1777C28.0647 62.1777 28.1979 62.1537 28.3178 62.2256C28.4723 62.2523 28.6508 62.183 28.768 62.3482C28.6188 62.3482 28.4696 62.3482 28.3205 62.3482C28.2006 62.4201 28.0674 62.3961 27.9395 62.3961C24.6122 62.3961 21.2875 62.3961 17.9602 62.3961C17.8323 62.3961 17.6991 62.4201 17.5792 62.3482C17.5446 62.3055 17.5099 62.2602 17.4753 62.2176Z" fill="#452A62"/>
<path d="M17.5792 62.3482C21.1596 62.3482 24.7401 62.3482 28.3205 62.3482C28.1686 62.5027 27.9715 62.4521 27.7903 62.4521C24.5642 62.4521 21.3381 62.4521 18.1094 62.4521C17.9282 62.4521 17.7311 62.5027 17.5792 62.3482V62.3482Z" fill="#2A1031"/>
<path d="M68.4216 49.9926C68.4216 48.6073 68.4216 47.2247 68.4216 45.8394C68.4216 45.6236 68.5495 45.549 68.7466 45.549C70.3797 45.549 72.0127 45.549 73.6484 45.6582H71.2801C70.5928 45.6582 69.9001 45.6902 69.2155 45.6476C68.6907 45.6156 68.4935 45.7621 68.5175 46.3216C68.5601 47.3632 68.5308 48.4048 68.5308 49.4464C68.5308 49.6276 68.5308 49.8087 68.5308 49.9899C68.4962 49.9899 68.4589 49.9899 68.4243 49.9899L68.4216 49.9926Z" fill="#2D0F33"/>
<path d="M73.7816 45.4265C73.7789 45.3892 73.7762 45.3519 73.7709 45.3146C73.7016 43.4525 73.7176 41.5903 73.7629 39.7255C73.7709 39.6936 73.7709 39.6616 73.7709 39.6296C73.8082 39.6243 73.8455 39.619 73.8828 39.6136C73.9361 39.6696 73.9547 39.7389 73.9547 39.8161C73.9547 41.6196 73.9547 43.4232 73.9547 45.2267C73.9547 45.3039 73.9387 45.3732 73.8934 45.4371C73.8561 45.4371 73.8162 45.4318 73.7789 45.4292L73.7816 45.4265Z" fill="#6F5D89"/>
<path d="M11.761 34.0059C11.7557 34.0406 11.7531 34.0779 11.7477 34.1125C11.7291 34.1551 11.6971 34.1711 11.6518 34.1631C11.6438 34.1418 11.6358 34.1205 11.6305 34.0965C11.6278 34.0645 11.6225 34.0326 11.6172 34.0006C11.5666 32.2157 11.5506 30.4309 11.6252 28.646C11.6545 28.5314 11.6065 28.3822 11.7664 28.3263C11.7664 28.3583 11.7664 28.3876 11.7664 28.4195C11.8276 30.2817 11.841 32.1465 11.7584 34.0086L11.761 34.0059Z" fill="#5E4191"/>
<path d="M73.8961 45.4345C73.8908 43.4951 73.8881 41.553 73.8828 39.6136C74.0267 39.7149 74.0107 39.8694 74.0107 40.0159C74.0107 41.6862 74.0107 43.3539 74.0107 45.0242C74.0107 45.1707 74.0267 45.3253 73.8935 45.4345H73.8961Z" fill="#25082D"/>
<path d="M51.3774 17.0096C51.4147 17.0043 51.452 16.999 51.4893 16.9937C51.4999 17.0682 51.5079 17.1455 51.5186 17.2201C51.5958 19.0449 51.5718 20.8724 51.5319 22.6973C51.5266 22.7266 51.5186 22.7559 51.5079 22.7852C51.5319 22.8012 51.5346 22.8198 51.5186 22.8411C51.444 22.8465 51.3827 22.8198 51.3321 22.7665C51.2921 22.7079 51.2628 22.644 51.2495 22.5721C51.2282 20.7765 51.1962 18.9837 51.2655 17.1881C51.2921 17.1215 51.3294 17.0629 51.38 17.0096H51.3774Z" fill="#82719F"/>
<path d="M51.5319 22.6999C51.5265 20.8751 51.5239 19.0476 51.5186 17.2227C51.6731 17.3985 51.6118 17.6117 51.6145 17.8088C51.6198 19.4019 51.6171 20.9949 51.6198 22.5907C51.689 22.628 51.6864 22.6626 51.6145 22.6946C51.5878 22.6946 51.5612 22.6972 51.5319 22.6999Z" fill="#23082F"/>
<path d="M11.6252 51.0422C11.6305 52.8671 11.6358 54.6946 11.6412 56.5194C11.532 56.4208 11.5293 56.2903 11.5293 56.1598C11.5293 54.556 11.5293 52.955 11.5293 51.3512C11.5293 51.2367 11.5399 51.1275 11.6252 51.0396V51.0422Z" fill="#291031"/>
<path d="M28.2938 22.6706H23.0937C23.0937 22.6546 23.0937 22.636 23.0937 22.62H28.2938C28.2938 22.636 28.2938 22.6546 28.2938 22.6706Z" fill="#2B0D34"/>
<path d="M22.9525 28.2997C22.9498 28.2224 22.9445 28.1452 22.9418 28.0706C22.8699 26.3203 22.8513 24.5701 22.9525 22.8225C22.9898 22.8225 23.0271 22.8225 23.0644 22.8225C23.0644 22.8598 23.0644 22.8944 23.067 22.9317C23.1763 23.7443 23.1043 24.5621 23.115 25.3773C23.1256 26.3257 23.1283 27.2741 23.1123 28.2224C23.0884 28.3077 23.0377 28.3343 22.9552 28.3024L22.9525 28.2997Z" fill="#A096D9"/>
<path d="M51.6144 22.6946C51.6171 22.66 51.6197 22.6253 51.6197 22.5907C53.3647 22.5907 55.1096 22.5907 56.8545 22.5907C56.8545 22.6253 56.8545 22.66 56.8545 22.6946H51.6144Z" fill="#2B0D35"/>
<path d="M11.6252 28.646C11.6252 30.4309 11.6199 32.2158 11.6172 34.0006C11.5186 33.8941 11.5266 33.7635 11.5266 33.633C11.5266 32.0932 11.5266 30.5508 11.5266 29.011C11.5266 28.8804 11.5213 28.7499 11.6252 28.646V28.646Z" fill="#2A0F34"/>
<path d="M17.2435 28.337C17.2782 28.4435 17.2649 28.5235 17.1317 28.5235C15.496 28.5235 13.8603 28.5235 12.2246 28.4142C13.6365 28.4142 15.0457 28.4169 16.4577 28.4116C16.6761 28.4116 16.9079 28.4702 17.113 28.337C17.1556 28.337 17.2009 28.337 17.2435 28.337V28.337Z" fill="#785CC7"/>
<path d="M51.6145 62.2363C51.7263 62.1058 51.8782 62.1191 52.0247 62.1191C53.5086 62.1191 54.9897 62.1191 56.4736 62.1191C56.6228 62.1191 56.7746 62.1084 56.8839 62.239C55.1256 62.239 53.37 62.239 51.6118 62.239L51.6145 62.2363Z" fill="#7A5ECB"/>
<path d="M28.8106 0.327654C28.8053 0.282366 28.7973 0.237077 28.792 0.19179C28.8586 0.19179 28.9252 0.189126 28.9918 0.186462C28.9918 1.85945 28.9918 3.53244 28.9918 5.20277C28.9572 5.20277 28.9199 5.20277 28.8852 5.20277C28.8852 3.79618 28.8879 2.38959 28.8826 0.980334C28.8826 0.761886 28.9438 0.532781 28.8106 0.324989V0.327654Z" fill="#4F2979"/>
<path d="M62.9284 50.925C63.0403 50.7944 63.1922 50.8104 63.3387 50.8104C64.8199 50.8104 66.3011 50.8104 67.7822 50.8104C67.9288 50.8104 68.0806 50.7971 68.1925 50.9276C66.4369 50.9276 64.6814 50.9276 62.9258 50.9276L62.9284 50.925Z" fill="#8D7EC9"/>
<path d="M22.9525 22.8225C22.9498 24.5727 22.9445 26.323 22.9418 28.0706C22.7793 27.8974 22.8406 27.6843 22.8406 27.4871C22.8353 25.9314 22.8379 24.3783 22.8379 22.8225C22.8752 22.8225 22.9152 22.8225 22.9525 22.8198V22.8225Z" fill="#6E53B9"/>
<path d="M68.4962 34.9383V39.246C68.4802 39.246 68.4616 39.246 68.4456 39.246V34.9383C68.4616 34.9383 68.4802 34.9383 68.4962 34.9383V34.9383Z" fill="#2F0F31"/>
<path d="M11.6465 45.4238C11.6465 41.7289 11.6465 38.0366 11.6492 34.3416C12.0221 34.4775 11.9608 34.8105 11.9635 35.0902C11.9822 36.2783 11.9662 37.4691 11.9715 38.66C11.9742 39.3579 12.0035 39.3872 12.6881 39.3899C14.0627 39.3979 15.44 39.3739 16.8146 39.4005C17.4806 39.4139 17.6138 39.5737 17.6272 40.2424C17.4434 40.8578 17.5179 41.4918 17.5179 42.1178C17.5179 43.1355 17.486 44.1531 17.5393 45.1681C17.5472 45.2374 17.5393 45.3066 17.5179 45.3732C17.4966 45.3999 17.478 45.4292 17.4567 45.4558C15.5199 45.4452 13.5806 45.4345 11.6438 45.4265L11.6465 45.4238Z" fill="#827BC2"/>
<path d="M28.7787 56.7352C27.0071 56.7378 25.2356 56.7299 23.464 56.7538C23.0164 56.7592 22.9445 56.5753 22.9472 56.1864C22.9578 54.4335 22.9472 52.6806 22.9419 50.9277C22.9658 50.901 22.9898 50.8717 23.0138 50.8451C23.1896 50.7199 23.3947 50.7066 23.5999 50.7066C25.1237 50.6986 26.6448 50.6959 28.1686 50.7066C28.3551 50.7066 28.5389 50.7252 28.7121 50.8131C28.7787 50.8504 28.832 50.901 28.8719 50.965C28.9998 51.2047 28.9945 51.4658 28.9945 51.7242C28.9971 53.1148 28.9971 54.5054 28.9945 55.8987C28.9945 56.1944 29.0158 56.4981 28.7787 56.7352V56.7352Z" fill="#755AC0"/>
<path d="M28.7786 56.7352C28.7786 54.7984 28.776 52.859 28.7733 50.9223C28.9491 50.7119 29.1995 50.7065 29.4393 50.7039C30.8352 50.6932 32.2312 50.6852 33.6271 50.7039C34.3064 50.7145 34.5622 50.9223 34.5782 51.535C34.6155 53.1175 34.6048 54.6999 34.5835 56.2796C34.5835 56.3915 34.5542 56.5007 34.5089 56.6046C34.4743 56.6739 34.4263 56.7298 34.3624 56.7725C32.5029 56.7591 30.6408 56.7432 28.7813 56.7298L28.7786 56.7352Z" fill="#837CC2"/>
<path d="M40.0767 62.239C38.441 62.239 36.8026 62.239 35.1669 62.2363C34.6341 62.2363 34.3677 61.9788 34.3677 61.4638C34.3677 59.9027 34.3624 58.3389 34.3597 56.7778L34.373 56.7378C34.5755 56.538 34.8366 56.5247 35.0977 56.5221C36.5442 56.5167 37.9881 56.5167 39.4346 56.5221C39.6584 56.5221 39.8795 56.538 40.0793 56.6579C40.3058 56.8231 40.3031 57.0708 40.3031 57.3133C40.3031 58.7065 40.3058 60.0998 40.3004 61.4958C40.3004 61.7568 40.2924 62.0206 40.0873 62.223L40.074 62.2363L40.0767 62.239Z" fill="#755AC0"/>
<path d="M22.9418 50.9303C21.3035 50.9303 19.6678 50.9143 18.0294 50.9356C17.5925 50.941 17.4487 50.8158 17.454 50.3682C17.4753 48.7298 17.4593 47.0941 17.4567 45.4558L17.4673 45.4158C17.6591 45.232 17.9016 45.216 18.1466 45.216C19.5266 45.2107 20.9065 45.2107 22.2865 45.216C22.5289 45.216 22.774 45.232 22.9765 45.3945C23.1736 45.6263 23.1656 45.9087 23.1683 46.1857C23.1736 47.5017 23.1736 48.8204 23.1683 50.1364C23.1683 50.4162 23.1683 50.6985 22.9525 50.917L22.9392 50.9303H22.9418Z" fill="#755AC0"/>
<path d="M28.9971 73.5424C28.9971 71.7149 28.9971 69.8874 28.9971 68.0625C30.7873 68.0625 32.5775 68.0599 34.3677 68.0572C34.3677 69.7115 34.3677 71.3632 34.373 73.0176C34.373 73.252 34.3144 73.5157 34.5995 73.6516C34.5249 73.6889 34.4503 73.7262 34.3757 73.7661C34.2345 73.4891 33.9734 73.545 33.739 73.545C32.1593 73.545 30.5795 73.545 29.0024 73.545L28.9971 73.5424Z" fill="#543175"/>
<path d="M28.3205 62.2257C24.7401 62.2257 21.1596 62.2203 17.5792 62.2177V62.1697V62.1218C20.9652 62.1218 24.3511 62.1218 27.7344 62.1218C27.9315 62.1218 28.1473 62.0605 28.3205 62.2257Z" fill="#62439D"/>
<path d="M40.0846 62.3402C43.6304 62.3402 47.1762 62.3402 50.722 62.3402C50.5728 62.4974 50.3757 62.4521 50.1972 62.4521C46.9444 62.4521 43.6917 62.4548 40.4389 62.4494C40.3217 62.4494 40.1432 62.5613 40.0873 62.3402H40.0846Z" fill="#583D8E"/>
<path d="M28.6615 79.3659C26.9831 79.3659 25.3022 79.3659 23.6238 79.3659C23.7384 79.2407 23.8902 79.2566 24.0368 79.2566C25.4407 79.2566 26.8446 79.2566 28.2512 79.2566C28.3977 79.2566 28.5496 79.2407 28.6641 79.3685L28.6615 79.3659Z" fill="#3C2661"/>
<path d="M28.9172 84.2569V79.848C28.9332 79.848 28.9492 79.848 28.9651 79.848V84.2569C28.9492 84.2569 28.9332 84.2569 28.9172 84.2569Z" fill="#42256B"/>
<path d="M34.3731 22.8145C34.3677 21.1175 34.3651 19.4179 34.3597 17.7209C34.3597 17.4812 34.3997 17.2334 34.2638 17.0096C38.0734 17.0096 41.8829 17.0096 45.6951 17.0123C45.727 17.0656 45.7377 17.1242 45.727 17.1881C45.7057 17.2787 45.6657 17.3666 45.6471 17.4599C45.6018 18.9384 45.6391 20.4142 45.6285 21.8928C45.6285 22.0819 45.6871 22.2551 45.7137 22.4389C45.7297 22.8198 45.5006 22.969 45.1676 23.017C44.9838 23.0436 44.7946 23.0383 44.6081 23.0383C41.5152 23.0383 38.4223 23.0383 35.3268 23.0383C34.9938 23.0383 34.6475 23.0729 34.3731 22.8145V22.8145Z" fill="#755AC0"/>
<path d="M45.6657 17.1002C45.6791 17.0709 45.687 17.0416 45.6924 17.0123C47.5865 17.0123 49.4832 17.0123 51.3773 17.0123C51.3773 17.0469 51.3773 17.0815 51.372 17.1162C51.3161 18.9756 51.3054 20.8351 51.3773 22.6919C51.38 22.7319 51.3853 22.7718 51.388 22.8118C51.3614 22.8384 51.3374 22.8651 51.3107 22.8944C51.2468 22.9343 51.1802 22.9636 51.1083 22.9876C49.4699 23.0915 47.8316 23.0302 46.1932 23.0196C45.8416 23.0196 45.6311 22.8864 45.6098 22.4522C45.5245 20.7765 45.5911 19.1008 45.5778 17.4225C45.5778 17.308 45.6258 17.2041 45.6657 17.1002V17.1002Z" fill="#BEB9EF"/>
<path d="M28.9971 16.9803C28.9598 16.9936 28.9252 16.991 28.8879 16.9777C28.8879 15.2381 28.8879 13.4958 28.8879 11.7562H28.9971V16.983V16.9803Z" fill="#43256B"/>
<path d="M51.5052 56.7405C51.4706 56.7432 51.436 56.7458 51.4013 56.7485C51.1349 56.5247 51.1776 56.213 51.1749 55.9227C51.1642 54.6599 51.1749 53.3972 51.1696 52.1345C51.1696 51.5519 50.8854 51.2598 50.3171 51.258C49.0357 51.2553 47.7543 51.266 46.4729 51.25C46.1772 51.2474 45.8229 51.3193 45.6604 50.9383C45.8815 50.6693 46.1959 50.7119 46.4863 50.7092C47.8263 50.6986 49.1636 50.7092 50.5036 50.7012C50.738 50.7012 50.9964 50.7545 51.1722 50.5227C51.3001 50.3283 51.3427 50.1178 51.3401 49.8861C51.3374 48.6979 51.3427 47.5098 51.3347 46.3216C51.3321 45.7675 51.1882 45.605 50.6528 45.605C49.2035 45.605 47.757 45.5757 46.3078 45.621C46.0653 45.6663 45.8176 45.6503 45.5752 45.6743C44.0274 45.6316 42.4796 45.6716 40.9318 45.6556C40.0207 45.6476 39.8636 45.4905 39.8609 44.5687C39.8556 43.2074 39.8502 41.8461 39.8609 40.4848C39.8689 39.619 40.09 39.4006 40.9691 39.3926C42.2372 39.3792 43.5052 39.3926 44.7733 39.3872C45.3967 39.3819 45.45 39.3313 45.4553 38.7186C45.4633 37.4878 45.4553 36.257 45.4606 35.0263C45.4659 34.0672 45.6205 33.9074 46.5582 33.9021C47.9008 33.8967 49.2435 33.8994 50.5862 33.9021C50.8659 33.9021 51.1483 33.8914 51.3987 34.0566C51.6304 34.2697 51.6224 34.5521 51.6198 34.8345C51.6091 36.1212 51.6118 37.4052 51.6171 38.6919C51.6198 39.3393 51.6704 39.3899 52.3231 39.3926C55.416 39.3979 58.5089 39.3926 61.6018 39.3979C61.9454 39.3979 62.3211 39.3153 62.5955 39.6297C62.417 39.7762 62.2039 39.7229 62.0041 39.7229C60.5522 39.7256 59.0976 39.7442 57.6457 39.7149C57.1423 39.7043 56.9771 39.8374 56.9798 40.3649C57.0037 43.8841 56.9931 47.4059 56.9931 50.925C56.7533 51.1568 56.4496 51.1435 56.1512 51.1435C54.9018 51.1488 53.6524 51.1408 52.4003 51.1488C51.7743 51.1515 51.7317 51.1941 51.7263 51.8175C51.7184 53.1788 51.7263 54.5401 51.721 55.904C51.721 56.1997 51.7397 56.5088 51.5026 56.7459L51.5052 56.7405Z" fill="#6D84CD"/>
<path d="M62.5954 39.627C59.087 39.6243 55.5785 39.6056 52.07 39.6323C51.4999 39.6376 51.388 39.4325 51.3933 38.9343C51.412 37.3306 51.3987 35.7295 51.396 34.1258C51.2841 33.902 51.2814 33.6596 51.2814 33.4172C51.2814 31.928 51.2841 30.4415 51.2814 28.9523C51.2814 28.7499 51.1855 28.4861 51.5026 28.4035C51.7077 28.2943 51.9315 28.305 52.1526 28.305C53.7616 28.305 55.3707 28.305 56.9824 28.3076C56.9877 28.3449 56.9931 28.3796 56.9984 28.4169C57.0463 28.4701 57.0863 28.5287 57.1183 28.5927C57.2328 28.8591 57.2062 29.1415 57.2062 29.4212C57.2115 30.7079 57.2168 31.9973 57.2035 33.284C57.1982 33.7395 57.3607 33.9153 57.8216 33.91C59.1269 33.894 60.4349 33.902 61.7403 33.91C62.036 33.91 62.345 33.8887 62.5848 34.1205C62.8112 34.235 62.8059 34.4428 62.8059 34.6506C62.8006 36.3103 62.7952 37.97 62.7926 39.6296C62.726 39.6296 62.6594 39.6296 62.5901 39.6296L62.5954 39.627Z" fill="#88C6DD"/>
<path d="M68.3151 45.4052C66.4822 45.4158 64.6494 45.4238 62.8166 45.4345C62.8112 43.4977 62.8086 41.5637 62.8033 39.627C64.4629 39.6216 66.1199 39.619 67.7796 39.611C67.9901 39.611 68.1952 39.6056 68.3071 39.8347C68.3097 41.6916 68.3124 43.5484 68.3151 45.4052V45.4052Z" fill="#A7A2D2"/>
<path d="M62.6993 56.6259C62.5715 56.5114 62.5928 56.3569 62.5928 56.2077C62.5928 54.6226 62.5928 53.0402 62.5928 51.4551C62.5928 51.3086 62.5741 51.1541 62.6993 51.0369C62.6993 52.899 62.6993 54.7611 62.6993 56.6233V56.6259Z" fill="#8680C9"/>
<path d="M51.5079 28.4009C51.5079 29.7435 51.5185 31.0862 51.4946 32.4262C51.4839 32.9909 51.6224 33.569 51.4013 34.1231C49.7044 34.1231 48.0101 34.1471 46.3131 34.1125C45.775 34.1018 45.6577 34.2883 45.6684 34.7838C45.6977 36.217 45.6657 37.6529 45.687 39.0888C45.6924 39.5124 45.5485 39.6296 45.1383 39.6243C43.6651 39.603 42.1919 39.6323 40.7214 39.6056C40.2285 39.5976 40.074 39.7655 40.082 40.2503C40.106 41.7795 40.1113 43.3086 40.0793 44.8351C40.0687 45.3519 40.2552 45.4558 40.7267 45.4478C42.1626 45.4211 43.5958 45.4371 45.0317 45.4371C45.2555 45.4371 45.4819 45.4158 45.6817 45.5517C45.9108 45.7435 45.9055 46.0125 45.9055 46.271C45.9135 47.5763 45.9108 48.8817 45.9055 50.187C45.9055 50.4508 45.8948 50.7118 45.695 50.9196C45.8629 51.0955 46.0813 51.0235 46.2785 51.0235C47.7863 51.0289 49.2968 51.0422 50.8046 51.0182C51.2601 51.0102 51.42 51.1354 51.412 51.6096C51.388 53.3226 51.404 55.0355 51.4066 56.7485L51.4013 56.7511C51.1775 56.9616 50.8952 56.9669 50.6128 56.9669C47.3867 56.9696 44.1606 56.9669 40.9345 56.9696C40.6281 56.9696 40.3431 56.9163 40.082 56.7538C38.1799 56.7485 36.2778 56.7431 34.3757 56.7378C34.3757 55.0115 34.3571 53.2826 34.3784 51.5563C34.3837 51.0661 34.2185 50.9116 33.7337 50.917C32.082 50.9383 30.4277 50.9223 28.7733 50.9223C28.5389 50.6825 28.5549 50.3788 28.5549 50.0805C28.5495 48.8311 28.5575 47.579 28.5495 46.3296C28.5469 45.7062 28.5043 45.6636 27.8782 45.6582C26.5169 45.6502 25.153 45.6582 23.7916 45.6529C23.4933 45.6529 23.1896 45.6662 22.9445 45.4451C21.1197 45.4345 19.2948 45.4238 17.47 45.4131C17.4673 45.3812 17.462 45.3492 17.4593 45.3172C17.3421 44.0811 17.43 42.8424 17.414 41.6063C17.4087 41.1667 17.3448 40.7218 17.4593 40.2849C17.5632 39.7388 17.3315 39.587 16.7933 39.6003C15.3414 39.6349 13.8869 39.5817 12.435 39.6269C11.8409 39.6456 11.7184 39.4458 11.7317 38.897C11.769 37.5757 11.745 36.2517 11.7424 34.9303C11.7424 34.7305 11.793 34.5174 11.6491 34.3389C11.6491 34.2803 11.6491 34.219 11.6491 34.1604C11.6811 34.1418 11.7131 34.1258 11.745 34.1098C13.6498 34.1098 15.5519 34.1098 17.4567 34.1125C17.7337 33.8594 18.08 33.902 18.413 33.8993C21.3008 33.8967 24.1886 33.9047 27.0764 33.894C28.768 33.8887 28.5309 34.1045 28.5469 32.3969C28.5575 31.2966 28.5469 30.1991 28.5522 29.0988C28.5522 28.8218 28.5389 28.5341 28.76 28.3103C30.3824 28.3049 32.0048 28.3049 33.6298 28.2943C33.8456 28.2943 34.0827 28.3636 34.2692 28.1851C34.3011 28.1851 34.3331 28.1851 34.3651 28.1851C34.5009 28.1584 34.6315 28.0998 34.7726 28.0865C39.9142 28.0599 45.0583 28.0812 50.1999 28.0732C50.4769 28.0732 50.762 28.1238 51.0204 27.9826C51.2255 27.7801 51.2308 27.5244 51.2308 27.2607C51.2282 26.0219 51.2282 24.7831 51.2308 23.5417C51.2308 23.286 51.1909 23.0169 51.396 22.8065L51.3933 22.8118C51.436 22.8224 51.4786 22.8304 51.5212 22.8411C51.5185 24.6952 51.5159 26.5467 51.5105 28.4009H51.5079Z" fill="#A7A2D2"/>
<path d="M28.76 28.3156C28.7653 30.0872 28.76 31.8587 28.784 33.6303C28.7893 34.0379 28.6321 34.1311 28.2565 34.1311C24.6575 34.1178 21.0584 34.1178 17.4593 34.1151C17.4673 32.1837 17.478 30.255 17.486 28.3236C19.3081 28.3156 21.1303 28.3076 22.9525 28.2996C22.9898 28.2996 23.0271 28.2996 23.0617 28.2996C23.0964 28.2304 23.1337 28.2277 23.1709 28.297C25.0331 28.3023 26.8952 28.3103 28.7574 28.3156H28.76Z" fill="#827CC2"/>
<path d="M28.8852 22.8145C28.8852 21.1015 28.8985 19.3859 28.8772 17.6729C28.8719 17.244 28.9864 17.0842 29.442 17.0949C30.8512 17.1215 32.2631 17.1055 33.675 17.2147C32.359 17.2147 31.043 17.2147 29.7243 17.2147C29.2395 17.2147 28.9971 17.4589 28.9971 17.9473C28.9971 19.567 28.9971 21.1894 28.9971 22.8091C28.9598 22.8091 28.9225 22.8118 28.8852 22.8145V22.8145Z" fill="#ADA8D8"/>
<path d="M23.1736 28.297C23.1363 28.305 23.1017 28.305 23.0644 28.2996C23.0644 26.5094 23.0644 24.7192 23.0671 22.929C23.2322 23.0995 23.171 23.3153 23.171 23.5124C23.1763 25.1082 23.171 26.7012 23.171 28.297H23.1736Z" fill="#C6BDFB"/>
<path d="M51.5052 56.7405C51.5052 54.9876 51.5185 53.2347 51.4945 51.4818C51.4892 51.0342 51.6331 50.9064 52.07 50.9143C53.711 50.9357 55.352 50.9223 56.993 50.9223C56.993 52.8591 56.993 54.7958 56.9904 56.7352C55.1629 56.7352 53.3327 56.7405 51.5052 56.7405Z" fill="#5E75C2"/>
<path d="M62.5928 34.1152C60.8958 34.1178 59.1962 34.1125 57.4992 34.1312C57.1076 34.1365 56.9797 34.0086 56.9851 33.617C57.0037 31.92 56.9984 30.2204 57.001 28.5234C57.4752 28.4062 57.9574 28.4675 58.4343 28.4755C59.8569 28.4915 61.2794 28.4036 62.6993 28.5234C62.6993 28.5661 62.6993 28.6087 62.6993 28.6487C62.5875 29.922 62.686 31.1954 62.6487 32.4688C62.6327 32.983 62.7153 33.4998 62.5954 34.0113C62.5954 34.0459 62.5954 34.0806 62.5954 34.1152H62.5928Z" fill="#BEB9EF"/>
<path d="M62.6967 28.5234C60.7972 28.5234 58.8978 28.5234 57.001 28.5234V28.4675L57.0064 28.4142C58.7113 28.4142 60.4136 28.4142 62.1186 28.4142C62.3157 28.4142 62.5315 28.3502 62.6993 28.5181L62.6967 28.5234Z" fill="#C1BEF6"/>
<path d="M73.7656 39.7255C73.7656 41.5877 73.7709 43.4498 73.7736 45.3146C73.6244 45.1361 73.683 44.923 73.683 44.7259C73.6777 43.2979 73.6803 41.8674 73.683 40.4395C73.683 40.1997 73.7016 39.9546 73.5818 39.7309C73.6457 39.7309 73.707 39.7282 73.7709 39.7255H73.7656Z" fill="#CBC4FA"/>
<path d="M62.5927 34.0113C62.5927 32.4182 62.5927 30.8251 62.5927 29.2294C62.5927 29.0323 62.5288 28.8165 62.694 28.646C62.694 30.2577 62.6993 31.8721 62.6966 33.4838C62.6966 33.665 62.7446 33.8594 62.5901 34.0086L62.5927 34.0113Z" fill="#C3BFF7"/>
<path d="M51.2814 28.2997C45.719 28.2997 40.1566 28.2997 34.5941 28.2997C34.3464 28.1531 34.4316 27.9054 34.4316 27.6976C34.4263 26.291 34.4316 24.8844 34.4263 23.4778C34.4263 23.2967 34.4689 23.1075 34.3784 22.9317C34.3784 22.8918 34.3757 22.8518 34.373 22.8145C37.9215 22.8145 41.4699 22.8145 45.0184 22.8172C45.3434 22.8172 45.6364 22.8198 45.5698 22.3643C45.4526 21.629 45.5219 20.8884 45.5219 20.1532C45.5245 19.1755 45.4526 18.1951 45.5672 17.2174C45.5991 17.1775 45.6338 17.1402 45.6657 17.1002C45.6711 18.8292 45.687 20.5554 45.6711 22.2844C45.6657 22.7053 45.7989 22.8225 46.2092 22.8198C47.9008 22.8065 49.5898 22.8225 51.2814 22.8278C51.4013 23.8028 51.3267 24.7805 51.3294 25.7582C51.3294 26.6054 51.404 27.4552 51.2814 28.2997V28.2997Z" fill="#827CC2"/>
<path d="M34.3784 22.9317C34.5436 23.1022 34.4796 23.318 34.4823 23.5178C34.4876 24.8764 34.485 26.2351 34.4823 27.5937C34.4823 27.8361 34.461 28.0785 34.5942 28.2997C34.4983 28.2997 34.4184 28.2757 34.3624 28.1904C34.3677 26.4375 34.3731 24.6846 34.3784 22.9317V22.9317Z" fill="#7E77B9"/>
<path d="M11.761 34.0059C11.761 32.1438 11.7664 30.279 11.769 28.4169C11.8117 28.4462 11.8889 28.4781 11.8889 28.5074C11.8836 30.255 11.8756 32.0053 11.8569 33.7529C11.8569 33.8381 11.793 33.9207 11.761 34.0033V34.0059Z" fill="#785CC7"/>
<path d="M40.0793 56.7538C43.8515 56.7538 47.6264 56.7538 51.3986 56.7512C51.3986 58.3709 51.3986 59.9932 51.396 61.613C51.396 61.8181 51.396 62.0232 51.4839 62.215C47.685 62.2177 43.8888 62.223 40.09 62.2257C40.0873 60.4008 40.0846 58.5787 40.082 56.7538H40.0793Z" fill="#827BC2"/>
<path d="M51.3773 22.6919C51.2761 22.588 51.2814 22.4575 51.2814 22.327C51.2814 20.7126 51.2814 19.0982 51.2814 17.4812C51.2814 17.3506 51.2734 17.2201 51.372 17.1135C51.372 18.973 51.3747 20.8325 51.3773 22.6893V22.6919Z" fill="#C9C4FA"/>
<path d="M17.4594 40.285C17.4594 41.9633 17.4594 43.6416 17.4594 45.3172C17.3501 45.2187 17.3501 45.0881 17.3501 44.9549C17.3501 43.519 17.3501 42.0832 17.3501 40.6446C17.3501 40.5141 17.3501 40.3809 17.4594 40.2823V40.285Z" fill="#807AB9"/>
<path d="M22.9419 45.4451C24.7054 45.4425 26.4717 45.4531 28.2352 45.4238C28.7094 45.4158 28.7867 45.6076 28.7813 46.0152C28.7627 47.6509 28.7733 49.284 28.7707 50.9197C26.8313 50.9197 24.8919 50.917 22.9525 50.9143C22.9498 49.0895 22.9445 47.2673 22.9392 45.4425L22.9419 45.4451Z" fill="#827CC2"/>
<path d="M45.5671 17.2174C45.5671 18.933 45.5671 20.6486 45.5671 22.3643C45.4419 22.2497 45.4579 22.0979 45.4579 21.9513C45.4579 20.5101 45.4579 19.0715 45.4579 17.6303C45.4579 17.4838 45.4419 17.332 45.5671 17.2174V17.2174Z" fill="#6F54C3"/>
<path d="M51.2814 28.2996C51.2814 26.4748 51.2814 24.6526 51.2814 22.8278C51.3187 22.8198 51.356 22.8144 51.3906 22.8065C51.3906 24.4448 51.3933 26.0805 51.3906 27.7189C51.3906 27.916 51.4599 28.1318 51.2814 28.2996Z" fill="#7F78BB"/>
<path d="M45.6924 50.9197C45.687 49.1294 45.6817 47.3419 45.6764 45.5517C45.8362 45.3759 46.0494 45.4558 46.2438 45.4371C47.0963 45.5597 47.9514 45.4691 48.8066 45.4878C49.5525 45.5037 50.2984 45.4931 51.0443 45.4904C51.2548 45.4904 51.4599 45.4718 51.4519 45.7888C51.4146 47.4245 51.5185 49.0628 51.396 50.6985C51.3107 51.0236 51.0417 50.9143 50.8419 50.9143C49.1263 50.9223 47.4107 50.917 45.695 50.917L45.6924 50.9197Z" fill="#5E75C2"/>
<path d="M51.3933 50.6986C51.3933 49.284 51.3933 47.8694 51.3933 46.4575C51.3906 45.4505 51.4972 45.5491 50.5115 45.5464C49.2834 45.5437 48.0553 45.5464 46.8272 45.5437C46.6301 45.5437 46.4143 45.605 46.2438 45.4345C47.8262 45.4345 49.406 45.4345 50.9884 45.4345C51.2601 45.4345 51.5105 45.4159 51.5079 45.8181C51.4972 47.3633 51.5052 48.9057 51.4972 50.4508C51.4972 50.5334 51.4306 50.616 51.396 50.6986H51.3933Z" fill="#5E75C2"/>
<path d="M62.662 34.8824V39.246C62.6434 39.246 62.6248 39.246 62.6061 39.246V34.8824C62.6248 34.8824 62.6434 34.8824 62.662 34.8824Z" fill="#7FC8DC"/>
</svg>
