<svg width="2577" height="1429" viewBox="0 0 2577 1429" fill="none" xmlns="http://www.w3.org/2000/svg">
<rect width="1718" height="384" fill="#568EF9"/>
<path d="M480 715V331H476.537V347.485H470.074V331H459.634V341.802H442.731V358.287H427.817V331H415.885V346.919H399.48V331H388.046V345.781H374.127V331H357.722V337.822H334.854V331H320.934V350.899H307.511V331H297.07V341.802H277.684V354.876H259.289V336.686H246.861V346.349H235.923V334.981H220.512V348.624H197.644V331H179.251V339.527H163.84V331H149.921V338.961H129.04V353.169H115.617V331H103.687V342.94H86.7838V331H78.3333V338.392H52.4818V356.582H40.5499V331H22.6531V341.233H0V715H480Z" fill="#5D95FD"/>
<path d="M895.885 715V331H892.422V347.485H885.959V331H875.519V341.802H858.616V358.287H843.703V331H831.771V346.919H815.366V331H803.932V345.781H790.012V331H773.607V337.822H750.739V331H736.82V350.899H723.396V331H712.956V341.802H693.569V354.876H675.175V336.686H662.747V346.349H651.809V334.981H636.398V348.624H613.53V331H595.137V339.527H579.726V331H565.806V338.961H544.926V353.169H531.502V331H519.572V342.94H502.669V331H494.219V338.392H468.367V356.582H456.435V331H438.539V341.233H415.885V715H895.885Z" fill="#5D95FD"/>
<path d="M1293 715V331H1289.54V347.485H1283.07V331H1272.63V341.802H1255.73V358.287H1240.82V331H1228.89V346.919H1212.48V331H1201.05V345.781H1187.13V331H1170.72V337.822H1147.85V331H1133.93V350.899H1120.51V331H1110.07V341.802H1090.68V354.876H1072.29V336.686H1059.86V346.349H1048.92V334.981H1033.51V348.624H1010.64V331H992.251V339.527H976.84V331H962.921V338.961H942.04V353.169H928.617V331H916.687V342.94H899.784V331H891.333V338.392H865.482V356.582H853.55V331H835.653V341.233H813V715H1293Z" fill="#5D95FD"/>
<path d="M1717.68 715V331H1714.22V347.485H1707.76V331H1697.32V341.802H1680.41V358.287H1665.5V331H1653.57V346.919H1637.16V331H1625.73V345.781H1611.81V331H1595.41V337.822H1572.54V331H1558.62V350.899H1545.19V331H1534.75V341.802H1515.37V354.876H1496.97V336.686H1484.55V346.349H1473.61V334.981H1458.2V348.624H1435.33V331H1416.94V339.527H1401.52V331H1387.6V338.961H1366.72V353.169H1353.3V331H1341.37V342.94H1324.47V331H1316.02V338.392H1290.17V356.582H1278.23V331H1260.34V341.233H1237.68V715H1717.68Z" fill="#5D95FD"/>
<path d="M480 1072V688H476.537V704.485H470.074V688H459.634V698.802H442.731V715.287H427.817V688H415.885V703.919H399.48V688H388.046V702.781H374.127V688H357.722V694.822H334.854V688H320.934V707.899H307.511V688H297.07V698.802H277.684V711.876H259.289V693.686H246.861V703.349H235.923V691.981H220.512V705.624H197.644V688H179.251V696.527H163.84V688H149.921V695.961H129.04V710.169H115.617V688H103.687V699.94H86.7838V688H78.3333V695.392H52.4818V713.582H40.5499V688H22.6531V698.233H0V1072H480Z" fill="#70A2FF"/>
<path d="M896 1072V688H892.537V704.485H886.074V688H875.634V698.802H858.731V715.287H843.817V688H831.885V703.919H815.48V688H804.046V702.781H790.127V688H773.722V694.822H750.854V688H736.934V707.899H723.511V688H713.07V698.802H693.684V711.876H675.289V693.686H662.861V703.349H651.923V691.981H636.512V705.624H613.644V688H595.251V696.527H579.84V688H565.921V695.961H545.04V710.169H531.617V688H519.687V699.94H502.784V688H494.333V695.392H468.482V713.582H456.55V688H438.653V698.233H416V1072H896Z" fill="#70A2FF"/>
<path d="M1293 1072V688H1289.54V704.485H1283.07V688H1272.63V698.802H1255.73V715.287H1240.82V688H1228.89V703.919H1212.48V688H1201.05V702.781H1187.13V688H1170.72V694.822H1147.85V688H1133.93V707.899H1120.51V688H1110.07V698.802H1090.68V711.876H1072.29V693.686H1059.86V703.349H1048.92V691.981H1033.51V705.624H1010.64V688H992.251V696.527H976.84V688H962.921V695.961H942.04V710.169H928.617V688H916.687V699.94H899.784V688H891.333V695.392H865.482V713.582H853.55V688H835.653V698.233H813V1072H1293Z" fill="#70A2FF"/>
<path d="M1718 1072V688H1714.54V704.485H1708.07V688H1697.63V698.802H1680.73V715.287H1665.82V688H1653.89V703.919H1637.48V688H1626.05V702.781H1612.13V688H1595.72V694.822H1572.85V688H1558.93V707.899H1545.51V688H1535.07V698.802H1515.68V711.876H1497.29V693.686H1484.86V703.349H1473.92V691.981H1458.51V705.624H1435.64V688H1417.25V696.527H1401.84V688H1387.92V695.961H1367.04V710.169H1353.62V688H1341.69V699.94H1324.78V688H1316.33V695.392H1290.48V713.582H1278.55V688H1260.65V698.233H1238V1072H1718Z" fill="#70A2FF"/>
<path d="M480 1429V1045H476.537V1061.49H470.074V1045H459.634V1055.8H442.731V1072.29H427.817V1045H415.885V1060.92H399.48V1045H388.046V1059.78H374.127V1045H357.722V1051.82H334.854V1045H320.934V1064.9H307.511V1045H297.07V1055.8H277.684V1068.88H259.289V1050.69H246.861V1060.35H235.923V1048.98H220.512V1062.62H197.644V1045H179.251V1053.53H163.84V1045H149.921V1052.96H129.04V1067.17H115.617V1045H103.687V1056.94H86.7838V1045H78.3333V1052.39H52.4818V1070.58H40.5499V1045H22.6531V1055.23H0V1429H480Z" fill="#82AEFF"/>
<path d="M896 1429V1045H892.537V1061.49H886.074V1045H875.634V1055.8H858.731V1072.29H843.817V1045H831.885V1060.92H815.48V1045H804.046V1059.78H790.127V1045H773.722V1051.82H750.854V1045H736.934V1064.9H723.511V1045H713.07V1055.8H693.684V1068.88H675.289V1050.69H662.861V1060.35H651.923V1048.98H636.512V1062.62H613.644V1045H595.251V1053.53H579.84V1045H565.921V1052.96H545.04V1067.17H531.617V1045H519.687V1056.94H502.784V1045H494.333V1052.39H468.482V1070.58H456.55V1045H438.653V1055.23H416V1429H896Z" fill="#82AEFF"/>
<path d="M1293 1429V1045H1289.54V1061.49H1283.07V1045H1272.63V1055.8H1255.73V1072.29H1240.82V1045H1228.89V1060.92H1212.48V1045H1201.05V1059.78H1187.13V1045H1170.72V1051.82H1147.85V1045H1133.93V1064.9H1120.51V1045H1110.07V1055.8H1090.68V1068.88H1072.29V1050.69H1059.86V1060.35H1048.92V1048.98H1033.51V1062.62H1010.64V1045H992.251V1053.53H976.84V1045H962.921V1052.96H942.04V1067.17H928.617V1045H916.687V1056.94H899.784V1045H891.333V1052.39H865.482V1070.58H853.55V1045H835.653V1055.23H813V1429H1293Z" fill="#82AEFF"/>
<path d="M1718 1429V1045H1714.54V1061.49H1708.07V1045H1697.63V1055.8H1680.73V1072.29H1665.82V1045H1653.89V1060.92H1637.48V1045H1626.05V1059.78H1612.13V1045H1595.72V1051.82H1572.85V1045H1558.93V1064.9H1545.51V1045H1535.07V1055.8H1515.68V1068.88H1497.29V1050.69H1484.86V1060.35H1473.92V1048.98H1458.51V1062.62H1435.64V1045H1417.25V1053.53H1401.84V1045H1387.92V1052.96H1367.04V1067.17H1353.62V1045H1341.69V1056.94H1324.78V1045H1316.33V1052.39H1290.48V1070.58H1278.55V1045H1260.65V1055.23H1238V1429H1718Z" fill="#82AEFF"/>
<rect x="859" width="1718" height="384" fill="#568EF9"/>
<path d="M1339 715V331H1335.54V347.485H1329.07V331H1318.63V341.802H1301.73V358.287H1286.82V331H1274.89V346.919H1258.48V331H1247.05V345.781H1233.13V331H1216.72V337.822H1193.85V331H1179.93V350.899H1166.51V331H1156.07V341.802H1136.68V354.876H1118.29V336.686H1105.86V346.349H1094.92V334.981H1079.51V348.624H1056.64V331H1038.25V339.527H1022.84V331H1008.92V338.961H988.04V353.169H974.617V331H962.687V342.94H945.784V331H937.333V338.392H911.482V356.582H899.55V331H881.653V341.233H859V715H1339Z" fill="#5D95FD"/>
<path d="M1754.89 715V331H1751.42V347.485H1744.96V331H1734.52V341.802H1717.62V358.287H1702.7V331H1690.77V346.919H1674.37V331H1662.93V345.781H1649.01V331H1632.61V337.822H1609.74V331H1595.82V350.899H1582.4V331H1571.96V341.802H1552.57V354.876H1534.17V336.686H1521.75V346.349H1510.81V334.981H1495.4V348.624H1472.53V331H1454.14V339.527H1438.73V331H1424.81V338.961H1403.93V353.169H1390.5V331H1378.57V342.94H1361.67V331H1353.22V338.392H1327.37V356.582H1315.44V331H1297.54V341.233H1274.89V715H1754.89Z" fill="#5D95FD"/>
<path d="M2152 715V331H2148.54V347.485H2142.07V331H2131.63V341.802H2114.73V358.287H2099.82V331H2087.89V346.919H2071.48V331H2060.05V345.781H2046.13V331H2029.72V337.822H2006.85V331H1992.93V350.899H1979.51V331H1969.07V341.802H1949.68V354.876H1931.29V336.686H1918.86V346.349H1907.92V334.981H1892.51V348.624H1869.64V331H1851.25V339.527H1835.84V331H1821.92V338.961H1801.04V353.169H1787.62V331H1775.69V342.94H1758.78V331H1750.33V338.392H1724.48V356.582H1712.55V331H1694.65V341.233H1672V715H2152Z" fill="#5D95FD"/>
<path d="M2576.68 715V331H2573.22V347.485H2566.76V331H2556.32V341.802H2539.41V358.287H2524.5V331H2512.57V346.919H2496.16V331H2484.73V345.781H2470.81V331H2454.41V337.822H2431.54V331H2417.62V350.899H2404.19V331H2393.75V341.802H2374.37V354.876H2355.97V336.686H2343.55V346.349H2332.61V334.981H2317.2V348.624H2294.33V331H2275.94V339.527H2260.52V331H2246.6V338.961H2225.72V353.169H2212.3V331H2200.37V342.94H2183.47V331H2175.02V338.392H2149.17V356.582H2137.23V331H2119.34V341.233H2096.68V715H2576.68Z" fill="#5D95FD"/>
<path d="M1339 1072V688H1335.54V704.485H1329.07V688H1318.63V698.802H1301.73V715.287H1286.82V688H1274.89V703.919H1258.48V688H1247.05V702.781H1233.13V688H1216.72V694.822H1193.85V688H1179.93V707.899H1166.51V688H1156.07V698.802H1136.68V711.876H1118.29V693.686H1105.86V703.349H1094.92V691.981H1079.51V705.624H1056.64V688H1038.25V696.527H1022.84V688H1008.92V695.961H988.04V710.169H974.617V688H962.687V699.94H945.784V688H937.333V695.392H911.482V713.582H899.55V688H881.653V698.233H859V1072H1339Z" fill="#70A2FF"/>
<path d="M1755 1072V688H1751.54V704.485H1745.07V688H1734.63V698.802H1717.73V715.287H1702.82V688H1690.89V703.919H1674.48V688H1663.05V702.781H1649.13V688H1632.72V694.822H1609.85V688H1595.93V707.899H1582.51V688H1572.07V698.802H1552.68V711.876H1534.29V693.686H1521.86V703.349H1510.92V691.981H1495.51V705.624H1472.64V688H1454.25V696.527H1438.84V688H1424.92V695.961H1404.04V710.169H1390.62V688H1378.69V699.94H1361.78V688H1353.33V695.392H1327.48V713.582H1315.55V688H1297.65V698.233H1275V1072H1755Z" fill="#70A2FF"/>
<path d="M2152 1072V688H2148.54V704.485H2142.07V688H2131.63V698.802H2114.73V715.287H2099.82V688H2087.89V703.919H2071.48V688H2060.05V702.781H2046.13V688H2029.72V694.822H2006.85V688H1992.93V707.899H1979.51V688H1969.07V698.802H1949.68V711.876H1931.29V693.686H1918.86V703.349H1907.92V691.981H1892.51V705.624H1869.64V688H1851.25V696.527H1835.84V688H1821.92V695.961H1801.04V710.169H1787.62V688H1775.69V699.94H1758.78V688H1750.33V695.392H1724.48V713.582H1712.55V688H1694.65V698.233H1672V1072H2152Z" fill="#70A2FF"/>
<path d="M2577 1072V688H2573.54V704.485H2567.07V688H2556.63V698.802H2539.73V715.287H2524.82V688H2512.89V703.919H2496.48V688H2485.05V702.781H2471.13V688H2454.72V694.822H2431.85V688H2417.93V707.899H2404.51V688H2394.07V698.802H2374.68V711.876H2356.29V693.686H2343.86V703.349H2332.92V691.981H2317.51V705.624H2294.64V688H2276.25V696.527H2260.84V688H2246.92V695.961H2226.04V710.169H2212.62V688H2200.69V699.94H2183.78V688H2175.33V695.392H2149.48V713.582H2137.55V688H2119.65V698.233H2097V1072H2577Z" fill="#70A2FF"/>
<path d="M1339 1429V1045H1335.54V1061.49H1329.07V1045H1318.63V1055.8H1301.73V1072.29H1286.82V1045H1274.89V1060.92H1258.48V1045H1247.05V1059.78H1233.13V1045H1216.72V1051.82H1193.85V1045H1179.93V1064.9H1166.51V1045H1156.07V1055.8H1136.68V1068.88H1118.29V1050.69H1105.86V1060.35H1094.92V1048.98H1079.51V1062.62H1056.64V1045H1038.25V1053.53H1022.84V1045H1008.92V1052.96H988.04V1067.17H974.617V1045H962.687V1056.94H945.784V1045H937.333V1052.39H911.482V1070.58H899.55V1045H881.653V1055.23H859V1429H1339Z" fill="#82AEFF"/>
<path d="M1755 1429V1045H1751.54V1061.49H1745.07V1045H1734.63V1055.8H1717.73V1072.29H1702.82V1045H1690.89V1060.92H1674.48V1045H1663.05V1059.78H1649.13V1045H1632.72V1051.82H1609.85V1045H1595.93V1064.9H1582.51V1045H1572.07V1055.8H1552.68V1068.88H1534.29V1050.69H1521.86V1060.35H1510.92V1048.98H1495.51V1062.62H1472.64V1045H1454.25V1053.53H1438.84V1045H1424.92V1052.96H1404.04V1067.17H1390.62V1045H1378.69V1056.94H1361.78V1045H1353.33V1052.39H1327.48V1070.58H1315.55V1045H1297.65V1055.23H1275V1429H1755Z" fill="#82AEFF"/>
<path d="M2152 1429V1045H2148.54V1061.49H2142.07V1045H2131.63V1055.8H2114.73V1072.29H2099.82V1045H2087.89V1060.92H2071.48V1045H2060.05V1059.78H2046.13V1045H2029.72V1051.82H2006.85V1045H1992.93V1064.9H1979.51V1045H1969.07V1055.8H1949.68V1068.88H1931.29V1050.69H1918.86V1060.35H1907.92V1048.98H1892.51V1062.62H1869.64V1045H1851.25V1053.53H1835.84V1045H1821.92V1052.96H1801.04V1067.17H1787.62V1045H1775.69V1056.94H1758.78V1045H1750.33V1052.39H1724.48V1070.58H1712.55V1045H1694.65V1055.23H1672V1429H2152Z" fill="#82AEFF"/>
<path d="M2577 1429V1045H2573.54V1061.49H2567.07V1045H2556.63V1055.8H2539.73V1072.29H2524.82V1045H2512.89V1060.92H2496.48V1045H2485.05V1059.78H2471.13V1045H2454.72V1051.82H2431.85V1045H2417.93V1064.9H2404.51V1045H2394.07V1055.8H2374.68V1068.88H2356.29V1050.69H2343.86V1060.35H2332.92V1048.98H2317.51V1062.62H2294.64V1045H2276.25V1053.53H2260.84V1045H2246.92V1052.96H2226.04V1067.17H2212.62V1045H2200.69V1056.94H2183.78V1045H2175.33V1052.39H2149.48V1070.58H2137.55V1045H2119.65V1055.23H2097V1429H2577Z" fill="#82AEFF"/>
</svg>
