<svg width="86" height="86" viewBox="0 0 86 86" fill="none" xmlns="http://www.w3.org/2000/svg">
<path d="M40.7754 67.1567C40.77 65.553 40.7647 63.9493 40.7594 62.3455C40.5756 62.2257 40.3704 62.3083 40.176 62.2843C36.9046 62.2843 33.6359 62.2843 30.3645 62.2789C30.0927 62.2789 29.8024 62.3509 29.5653 62.1351C29.5333 61.9113 29.7011 61.9513 29.8183 61.9513C33.2149 61.9513 36.6089 61.9459 40.0055 61.9513C40.0721 61.9513 40.104 61.9806 40.112 62.0205C39.9708 61.8687 39.771 61.9539 39.6005 61.9539C36.4304 61.9486 33.2576 61.9406 30.0874 61.9593C29.6239 61.9619 29.488 61.8367 29.4987 61.3705C29.528 60.0092 29.512 58.6479 29.5067 57.2866C29.5067 57.1055 29.5653 56.9137 29.4427 56.7432C27.6898 56.7432 25.9369 56.7432 24.184 56.7405C23.9789 56.7405 23.7151 56.8417 23.6299 56.5194C23.5073 56.0079 23.5766 55.4911 23.5793 54.9769C23.5873 53.6662 23.5233 52.3529 23.6139 51.0422C23.4461 50.8637 23.2276 50.9383 23.0331 50.9383C21.5813 50.933 20.1294 50.9223 18.6775 50.9436C18.2646 50.949 18.1287 50.8291 18.134 50.4082C18.1527 48.7512 18.1367 47.0968 18.134 45.4398C18.2726 45.256 18.4777 45.2214 18.6802 45.2214C20.3265 45.2214 21.9729 45.1654 23.6192 45.2453C25.3695 45.1681 27.1197 45.2214 28.8726 45.216C29.0804 45.216 29.2802 45.2613 29.4534 45.3865C29.6931 45.6449 29.6665 45.9726 29.6692 46.2843C29.6772 47.5337 29.6692 48.7831 29.6745 50.0299C29.6772 50.6453 29.7224 50.6906 30.3511 50.6932C31.5819 50.7012 32.8127 50.6932 34.0408 50.6985C34.3551 50.6985 34.6801 50.6719 34.9519 50.8824C35.181 51.1461 35.1517 51.4738 35.1543 51.7855C35.1623 53.1281 35.1543 54.4681 35.1597 55.8108C35.1623 56.4741 35.1996 56.5061 35.8496 56.5167C37.488 56.5407 39.129 56.4714 40.7674 56.554C42.4564 56.4768 44.1453 56.5247 45.8316 56.5274C46.0181 56.5274 46.2019 56.5673 46.3564 56.6872C46.6015 56.943 46.5722 57.2706 46.5749 57.585C46.5829 58.8344 46.5722 60.0865 46.5802 61.3359C46.5855 61.9593 46.6255 61.9992 47.2569 62.0019C48.5249 62.0099 49.7957 62.0019 51.0637 62.0046C51.3621 62.0046 51.6631 61.9886 51.9508 62.0925C52.0174 62.1138 52.0814 62.1458 52.1426 62.1804C52.3424 62.3162 52.5716 62.2843 52.7927 62.2843C55.8509 62.2843 58.9065 62.2843 61.9648 62.2843C62.2072 62.2843 62.4497 62.2896 62.6841 62.2044C62.9345 62.183 63.1956 62.1191 63.3927 62.3482C63.5073 62.5933 63.47 62.857 63.4726 63.1128C63.4753 64.7591 63.4726 66.4055 63.4753 68.0518C63.2968 68.257 63.0491 68.2676 62.8066 68.2676C57.4413 68.2756 52.0787 68.2729 46.7134 68.2676C46.6015 68.2676 46.4923 68.241 46.3804 68.233C44.7101 68.3049 43.0424 68.2623 41.3721 68.257C41.2602 68.257 41.151 68.2277 41.0471 68.185C40.826 68.1131 40.8153 67.9373 40.8127 67.7455C40.81 67.5457 40.8526 67.3432 40.7727 67.1487L40.7754 67.1567Z" fill="#5E4194"/>
<path d="M68.9738 79.3605C68.9738 81.0015 68.9578 82.6426 68.9924 84.2809C69.0031 84.8137 68.8566 84.9736 68.3104 84.9709C61.0031 84.9523 53.6958 84.9602 46.3911 84.9576C44.5076 84.9576 42.6268 84.9469 40.7434 84.9416C40.6954 84.891 40.6555 84.8324 40.6235 84.7684C40.4956 84.4088 40.5489 84.0332 40.5436 83.6655C40.5276 82.3495 40.5596 81.0308 40.5249 79.7148C40.4983 79.6296 40.4743 79.5417 40.3971 79.4804C39.5153 79.3392 38.6308 79.4271 37.7464 79.4245C37.0298 79.4245 36.3078 79.3286 35.5965 79.5017C35.3435 79.5204 35.0824 79.563 34.8719 79.3605C34.7254 79.1501 34.7148 78.9076 34.7148 78.6652C34.7094 77.2187 34.7094 75.7694 34.7148 74.3229C34.7148 74.0805 34.7281 73.8381 34.8826 73.6329C35.101 73.4385 35.3728 73.4891 35.6285 73.4891C37.2988 73.4784 38.9692 73.4971 40.6422 73.4784C40.7887 73.4704 40.9219 73.4091 41.0631 73.3825C42.6615 73.2573 44.2599 73.3212 45.8609 73.3479C46.13 73.3532 46.3698 73.4651 46.4843 73.7448C46.6148 74.0858 46.5776 74.4428 46.5802 74.7944C46.5829 75.9693 46.5802 77.1414 46.5802 78.3162C46.5802 79.1101 46.6095 79.1394 47.3901 79.1394C52.6435 79.1421 57.8995 79.1394 63.1529 79.1394C64.7913 79.1394 66.4323 79.1394 68.0707 79.1394C68.385 79.1394 68.7127 79.1048 68.9658 79.3579L68.9738 79.3605Z" fill="#482A64"/>
<path d="M68.9685 11.4978C68.9711 13.1522 68.9631 14.8065 68.9871 16.4609C68.9924 16.8818 68.8512 17.0017 68.441 16.9963C66.7867 16.9777 65.1323 16.991 63.4753 16.991C63.422 17.0443 63.3634 17.0842 63.2968 17.1162C63.1903 17.1455 63.0864 17.1935 62.9745 17.1935C61.2002 17.1988 59.426 17.2601 57.6518 17.1615C53.8529 17.2521 50.0541 17.2201 46.2552 17.1801C44.6781 17.1269 43.101 17.1642 41.524 17.1508C41.3401 17.1508 41.1483 17.1642 40.9912 17.0363C40.858 16.7912 40.9272 16.5248 40.9272 16.2691C40.9219 14.8411 40.9166 13.4106 40.9272 11.9827C40.9166 13.629 40.9352 15.2754 40.9139 16.9191C40.8819 16.999 40.8287 17.0203 40.7514 16.9857V16.991C40.509 16.7353 40.5383 16.4102 40.5356 16.0959C40.5303 14.8518 40.5409 13.6051 40.5303 12.361C40.525 11.7749 40.477 11.7269 39.8856 11.7216C38.5483 11.7109 37.2083 11.7216 35.871 11.7163C35.5752 11.7163 35.2742 11.7403 34.9918 11.6071C34.9252 11.5698 34.8746 11.5191 34.832 11.4579C34.7201 11.2554 34.7094 11.029 34.7094 10.8052C34.7041 9.44655 34.7041 8.08525 34.7094 6.72661C34.7094 6.46554 34.7094 6.2018 34.8879 5.98069C35.1144 5.79954 35.3861 5.85015 35.6418 5.84749C37.3202 5.8395 39.0012 5.85015 40.6795 5.8395C42.3471 5.55978 44.0254 5.70097 45.7011 5.73027C45.9249 5.73294 46.146 5.79155 46.3378 5.92208C46.3964 5.96737 46.4417 6.02331 46.4737 6.08991C46.5909 6.35631 46.5749 6.6387 46.5722 6.91575C46.5669 8.16517 46.6015 9.41725 46.5536 10.664C46.5376 11.0956 46.6974 11.2927 47.1317 11.2741C47.3554 11.2634 47.5792 11.2741 47.803 11.2741C54.5003 11.2741 61.1976 11.2741 67.8975 11.2767C68.2625 11.2767 68.6515 11.1968 68.9631 11.4898L68.9685 11.4978Z" fill="#482A64"/>
<path d="M46.3538 0.183831C53.7357 0.181167 61.115 0.181167 68.4969 0.167847C68.9125 0.167847 68.9898 0.335679 68.9871 0.700646C68.9711 2.43491 68.9764 4.16651 68.9738 5.90077C68.6648 6.24975 68.2412 6.23377 67.8336 6.23643C66.046 6.24443 64.2558 6.2391 62.4683 6.2391C57.4946 6.2391 52.5209 6.2391 47.5472 6.2391C47.1397 6.2391 46.7214 6.28172 46.3644 6.01532C46.1433 5.79954 46.1407 5.51715 46.1407 5.2401C46.138 3.81486 46.138 2.39229 46.1407 0.967046C46.1407 0.687326 46.1486 0.407607 46.3564 0.186496L46.3538 0.183831Z" fill="#703A91"/>
<path d="M68.9738 79.3605C61.6238 79.3605 54.2738 79.3605 46.9239 79.3738C46.4817 79.3738 46.3458 79.2459 46.3511 78.801C46.3751 77.1227 46.3618 75.4444 46.3618 73.7634C46.4444 73.6355 46.5509 73.537 46.7028 73.4943C47.0304 73.4011 47.3688 73.4277 47.7044 73.4277C53.9542 73.4277 60.2066 73.4277 66.4563 73.4277C67.0344 73.4277 67.6125 73.4464 68.1879 73.3505C68.465 73.3052 68.75 73.3132 68.9738 73.537C68.9738 75.479 68.9738 77.4184 68.9738 79.3605Z" fill="#543175"/>
<path d="M68.9738 73.537C61.5119 73.7928 54.0474 73.5797 46.5855 73.6516C46.2179 73.6036 46.162 73.3133 46.154 73.0362C46.1247 71.547 46.1273 70.0552 46.1513 68.5634C46.154 68.3715 46.2153 68.1957 46.3538 68.0572C52.0627 68.0572 57.769 68.0572 63.478 68.0572C65.1137 68.0572 66.7494 68.0732 68.3824 68.0492C68.8273 68.0439 69.0004 68.1451 68.9898 68.63C68.9578 70.2657 68.9738 71.8987 68.9711 73.5344L68.9738 73.537Z" fill="#703A91"/>
<path d="M46.3618 6.01533C46.6575 6.01533 46.9505 6.01533 47.2462 6.01533C54.1007 6.01533 60.9552 6.01267 67.8096 6.02332C68.2066 6.02332 68.5822 5.91943 68.9711 5.90344C68.9711 7.77091 68.9711 9.6357 68.9711 11.5032C61.6105 11.5032 54.2525 11.5032 46.8919 11.5192C46.4204 11.5192 46.2712 11.2954 46.3005 10.9304C46.4337 9.29471 46.3165 7.65635 46.3618 6.01799V6.01533Z" fill="#543175"/>
<path d="M74.9225 50.9357C74.728 51.1168 74.7999 51.3539 74.7973 51.567C74.7919 53.0908 74.7973 54.6146 74.7893 56.1411C74.7893 56.3329 74.8745 56.5514 74.696 56.7192C74.6428 56.6713 74.6001 56.6153 74.5708 56.5514C74.4669 55.0542 74.5522 53.557 74.5255 52.0572C74.5202 51.7988 74.5602 51.5351 74.3844 51.3113C74.1979 51.1008 73.9448 51.1381 73.7077 51.1381C72.4077 51.1275 71.1103 51.1381 69.8103 51.1301C69.4986 51.1301 69.1709 51.1594 68.9205 50.9064C68.75 50.6613 68.7607 50.3762 68.758 50.0992C68.7553 46.9157 68.7527 43.7322 68.758 40.5487C68.758 39.6669 68.8779 39.5604 69.7676 39.5577C71.0703 39.5551 72.373 39.5577 73.6784 39.5577C73.9395 39.5577 74.1979 39.5497 74.4563 39.4965C74.5708 39.4885 74.6801 39.4991 74.784 39.5524C74.8452 39.5977 74.8932 39.6536 74.9278 39.7202C74.9758 39.8215 75.0051 39.9307 75.0051 40.0426C75.021 41.8381 75.061 43.6363 74.9864 45.4318C75.0663 47.1022 75.0077 48.7725 75.0184 50.4455C75.0184 50.616 74.9465 50.7705 74.9198 50.9357H74.9225Z" fill="#5E75C2"/>
<path d="M23.6352 45.4238C21.8024 45.4292 19.9695 45.4345 18.134 45.4398C17.9236 45.2187 17.9183 44.939 17.9183 44.6593C17.9156 43.234 17.9156 41.8088 17.9183 40.3836C17.9183 40.1038 17.9262 39.8241 18.1314 39.6003C18.134 37.9407 18.15 36.2783 18.1314 34.6187C18.1287 34.2297 18.2406 34.1098 18.6349 34.1125C20.2945 34.1258 21.9569 34.1045 23.6165 34.0992C23.6432 34.1232 23.6725 34.1471 23.6991 34.1711C23.7657 34.2643 23.7844 34.3709 23.787 34.4828C23.7551 37.8128 23.8803 41.1428 23.8456 44.4728C23.843 44.8031 23.8963 45.1521 23.6299 45.4238H23.6352Z" fill="#755AC0"/>
<path d="M35.0531 22.8225C36.9499 22.8172 38.8466 22.8118 40.7434 22.8065C40.802 22.7639 40.8633 22.7239 40.9272 22.6919C40.9965 22.668 41.0684 22.6493 41.1377 22.6307C42.6668 22.5534 44.1959 22.5934 45.7251 22.6094C46.122 22.612 46.4097 22.7719 46.4097 23.2381C46.4097 24.8231 46.4257 26.4082 46.4017 27.996C46.4017 28.0706 46.3778 28.1425 46.3511 28.2144C46.2126 28.4595 45.9728 28.5128 45.7277 28.5128C44.0734 28.5208 42.4217 28.5687 40.7674 28.4915C39.0731 28.5687 37.3788 28.5181 35.6845 28.5181C35.498 28.5181 35.3142 28.4808 35.157 28.3636C34.9519 28.1531 34.9998 27.8814 34.9998 27.6283C34.9918 26.0939 35.0025 24.5594 34.9918 23.0249C34.9918 22.9504 35.0105 22.8838 35.0504 22.8225H35.0531Z" fill="#BEB9EF"/>
<path d="M12.5423 16.9883C12.505 16.9883 12.4677 16.9883 12.4304 16.9883C12.2333 16.7965 12.2679 16.5461 12.2653 16.309C12.2626 15.0676 12.2626 13.8288 12.2653 12.5874C12.2653 12.3263 12.2653 12.0679 12.1054 11.8441C11.9456 11.607 11.7058 11.6949 11.4954 11.7003C10.2353 11.7322 8.97522 11.7189 7.71249 11.7083C7.3635 11.7056 6.9932 11.7136 6.77475 11.3486C6.68418 11.1595 6.66287 10.9597 6.66287 10.7519C6.66287 9.3586 6.65755 7.96533 6.66554 6.5694C6.67087 5.91672 6.80939 5.79151 7.46207 5.79684C8.66886 5.80749 9.87832 5.80483 11.0851 5.7995C11.4927 5.7995 11.9029 5.79151 12.3025 5.69294C13.9569 5.67163 15.6139 5.69294 16.9379 5.68495C15.7764 5.68495 14.2846 5.68495 12.7901 5.68495C12.6089 5.68495 12.4144 5.71958 12.2573 5.57839C12.1028 5.3706 12.0948 5.12551 12.0948 4.88309C12.0894 3.59637 12.0841 2.307 12.0948 1.02029C12.1027 0.26105 12.228 0.14117 12.9739 0.146498C14.6522 0.15449 16.3332 0.119858 18.0115 0.165146C18.2859 0.330314 18.3392 0.60737 18.3445 0.889754C18.3711 2.4109 18.3605 3.93204 18.3498 5.45318C18.3498 5.63966 18.3179 5.82348 18.2086 5.98332C18.1367 6.07389 18.0381 6.11652 17.9263 6.12984C16.2133 6.0366 14.5004 6.07123 12.7901 6.10852C12.6089 6.15381 12.4917 6.26304 12.4411 6.44419C12.2946 6.99297 12.3718 7.55241 12.3771 8.10386C12.3878 9.00962 12.2892 9.91804 12.4437 10.8185C12.4864 11.0609 12.5743 11.2847 12.7634 11.4552C13.147 11.7269 13.1897 12.1345 13.1977 12.5501C13.2163 13.3892 13.2163 14.2257 13.1977 15.0649C13.187 15.5471 13.4081 15.6696 13.8423 15.6643C14.8307 15.6536 15.8164 15.6536 16.8047 15.6643C17.1457 15.6696 17.4787 15.7069 17.7398 15.9627C17.889 16.1092 18.0301 16.2743 17.9502 16.5008C17.873 16.7166 17.6812 16.8045 17.4654 16.8178C17.0738 16.8418 16.6822 16.8258 16.2932 16.8258C15.2489 16.8258 14.2073 16.8258 13.163 16.8258C12.9419 16.8258 12.7101 16.7912 12.5423 16.991V16.9883Z" fill="#380762"/>
<path d="M18.0381 0.197121C16.3438 0.197121 14.6522 0.207778 12.9579 0.183802C12.4757 0.178474 12.2999 0.330322 12.3079 0.823162C12.3319 2.40558 12.3185 3.98533 12.3212 5.56774C12.3851 5.64233 12.3825 5.71693 12.3212 5.79152C12.2333 5.96201 12.0921 6.00997 11.9056 6.0073C10.3232 5.98333 8.74079 6.07923 7.15837 5.96201C6.75078 5.93271 6.83337 6.2444 6.83337 6.46551C6.82537 8.10653 6.83071 9.75022 6.83071 11.3912C6.88132 11.4285 6.87866 11.4685 6.83071 11.5058C6.74279 11.2207 6.49238 11.5937 6.38316 11.3939C6.18069 11.1914 6.1647 10.933 6.16204 10.6693C6.15671 9.42521 6.14606 8.18379 6.17003 6.9397C6.17536 6.65199 6.10344 6.2737 6.55632 6.20178C6.62025 6.24706 6.65488 6.311 6.65755 6.38825C6.6682 7.82415 6.65755 9.25738 6.66554 10.6933C6.66021 9.24406 6.67086 7.79484 6.66021 6.34563C6.535 6.1778 6.62558 6.04193 6.72148 5.90607C6.85468 5.68496 6.83337 5.44253 6.83337 5.20011C6.83869 3.6763 6.84935 2.1525 6.84402 0.62869C6.84402 0.34897 6.93993 0.205113 7.21965 0.197121C7.27559 0.197121 7.33154 0.194458 7.38748 0.194458C10.9759 0.22909 14.559 -0.00800605 18.1474 0.0852339C18.182 0.12253 18.19 0.16249 18.1607 0.205114C18.1181 0.231754 18.0781 0.231754 18.0381 0.194458V0.197121Z" fill="#370C44"/>
<path d="M18.134 39.6003C18.134 41.5477 18.134 43.4951 18.134 45.4398C16.3838 45.4398 14.6309 45.4238 12.8806 45.4451C12.4331 45.4505 12.3105 45.3093 12.3159 44.8724C12.3399 43.3086 12.3372 41.7422 12.3159 40.1784C12.3105 39.7468 12.4251 39.5977 12.878 39.603C14.6282 39.6243 16.3811 39.603 18.1314 39.5977L18.134 39.6003Z" fill="#5E4195"/>
<path d="M6.83068 79.7015C6.82003 79.4884 6.70281 79.4617 6.50301 79.4324C5.57327 79.2939 4.64354 79.3898 3.7138 79.3711C2.93592 79.3578 2.1527 79.3711 1.37481 79.4191C1.07112 79.4377 1.01517 79.3152 1.01784 79.0754C1.02317 77.3652 1.03382 75.6549 1.03382 73.9419C1.03382 73.6835 1.08178 73.5876 1.37748 73.6009C3.06912 73.6729 4.76075 73.7155 6.45239 73.5849C6.53764 73.5796 6.62822 73.6276 6.71879 73.6515C6.79072 73.6169 6.84933 73.6329 6.89994 73.6942C7.08376 73.9792 7.03847 74.3016 7.0438 74.6132C7.07044 76.1717 7.00118 77.7301 7.08643 79.2859C7.11307 79.3472 7.13172 79.4111 7.13971 79.4777C7.1184 79.6642 7.06511 79.8054 6.83334 79.6988L6.83068 79.7015Z" fill="#370C44"/>
<path d="M29.1177 0.18648L29.4534 0.18648C29.6159 0.362304 29.6665 0.578088 29.6665 0.807191C29.6771 2.35497 29.6771 3.90009 29.6665 5.44788C29.6665 5.61571 29.6452 5.78354 29.5653 5.93805C29.5306 6.00732 29.4827 6.0606 29.4214 6.10322C29.1843 6.23908 28.9206 6.23376 28.6622 6.23376C27.2875 6.23908 25.9129 6.23908 24.5383 6.23376C24.2799 6.23376 24.0162 6.24175 23.787 6.08191C23.5952 5.69296 23.5713 5.28004 23.5739 4.8538C23.5819 3.55644 23.5739 2.25907 23.5793 0.961704C23.5793 0.727272 23.5313 0.474191 23.7258 0.277055C25.3242 0.207791 26.9226 0.2664 28.521 0.242424C28.7208 0.23976 28.9312 0.303696 29.1204 0.181152L29.1177 0.18648Z" fill="#EE3A65"/>
<path d="M68.9818 50.9223C70.8199 50.933 72.6581 50.9463 74.4963 50.9623C74.5602 50.9623 74.6241 51.0129 74.6881 51.0395C74.5709 51.6629 74.6375 52.2916 74.6428 52.9176C74.6534 54.1537 74.5709 55.3925 74.6881 56.6259C74.6907 56.6579 74.6934 56.6899 74.6987 56.7192C72.7966 56.7325 70.8919 56.7458 68.9898 56.7591C68.9631 56.7351 68.9365 56.7112 68.9072 56.6872C68.7633 56.4741 68.766 56.229 68.766 55.9892C68.7607 54.5587 68.7607 53.1281 68.766 51.6975C68.766 51.4578 68.7633 51.2127 68.9019 50.9969C68.9285 50.9729 68.9551 50.9489 68.9845 50.9223H68.9818Z" fill="#827CC2"/>
<path d="M34.9385 0.186502C34.9758 0.186502 35.0105 0.186502 35.0478 0.186502C35.2156 0.306382 35.4101 0.247774 35.5912 0.247774C37.1177 0.253102 38.6468 0.247774 40.1733 0.253102C40.3758 0.253102 40.5835 0.202486 40.778 0.306382C40.9592 0.484869 40.9245 0.716637 40.9272 0.935085C40.9405 2.43492 40.9086 3.93475 40.9459 5.43458C40.9512 5.60774 40.9219 5.76491 40.802 5.89811C40.421 6.02599 40.0294 5.9514 39.6432 5.95406C38.2685 5.96472 36.8939 5.95939 35.5166 5.95939C34.8453 5.95939 34.7521 5.89012 34.7307 5.20281C34.6934 4.1452 34.7094 3.08493 34.7228 2.02466C34.7281 1.47055 34.6322 0.908445 34.8133 0.36499C34.8506 0.301054 34.8932 0.239782 34.9412 0.183838L34.9385 0.186502Z" fill="#FD9767"/>
<path d="M12.3212 68.0572C14.2659 68.0599 16.208 68.0625 18.1527 68.0652C18.3099 68.2197 18.3525 68.4195 18.3525 68.6246C18.3658 70.1058 18.3711 71.587 18.3498 73.0682C18.3498 73.1801 18.3125 73.2866 18.2859 73.3958C18.2433 73.5477 18.158 73.6649 18.0248 73.7475C17.8224 73.8567 17.5986 73.8674 17.3748 73.87C15.9096 73.8754 14.4444 73.878 12.9819 73.87C12.7767 73.87 12.5743 73.8594 12.3851 73.7635C12.3185 73.7262 12.2653 73.6782 12.2226 73.6143C12.0921 73.3745 12.0974 73.1135 12.0974 72.8524C12.0948 71.5337 12.0948 70.2124 12.0974 68.8937C12.0974 68.598 12.0841 68.2916 12.3212 68.0572Z" fill="#380762"/>
<path d="M18.1607 84.9416C16.2879 84.9469 14.4151 84.9549 12.5423 84.9602C12.3079 84.8857 12.1587 84.7391 12.1613 84.4807C12.1773 82.7971 12.0788 81.1134 12.212 79.4325C12.2466 79.3659 12.2945 79.3099 12.3585 79.27C12.5796 79.1474 12.8247 79.1447 13.0671 79.1447C14.503 79.1394 15.9416 79.1394 17.3775 79.1447C17.6385 79.1447 17.9023 79.1447 18.1314 79.3046C18.2193 79.3818 18.2672 79.4804 18.2912 79.5923C18.4351 80.3276 18.3445 81.0735 18.3578 81.8141C18.3738 82.5946 18.3658 83.3725 18.3578 84.1531C18.3578 84.4301 18.3765 84.7152 18.158 84.9389L18.1607 84.9416Z" fill="#380762"/>
<path d="M68.9845 28.297C70.7374 28.3023 72.4929 28.321 74.2459 28.297C74.6907 28.2917 74.808 28.4169 74.8 28.8564C74.7733 30.4042 74.808 31.9546 74.7787 33.5024C74.7707 33.974 74.8612 34.1445 75.3807 34.1285C76.8539 34.0885 78.3298 34.1285 79.803 34.1045C80.1892 34.0992 80.3118 34.1977 80.3038 34.5973C80.2798 36.1078 80.3091 37.621 80.2851 39.1315C80.2798 39.5284 80.3917 39.6296 80.7833 39.6243C82.443 39.6056 84.1053 39.6216 85.765 39.6243C85.8076 39.6909 85.7943 39.7468 85.7304 39.7948C85.6451 39.8561 85.5465 39.88 85.448 39.904C84.1666 39.9653 82.8852 39.9333 81.6012 39.9227C81.1376 39.92 80.6821 40.0798 80.2185 39.96C79.9441 39.8268 79.6484 39.8241 79.3501 39.8241C78.1113 39.8241 76.8726 39.8241 75.6338 39.8241C75.3381 39.8241 75.0371 39.8348 74.792 39.6216H74.7866C74.6135 39.4138 74.6401 39.1661 74.6401 38.9237C74.6375 37.7302 74.6348 36.5394 74.6401 35.3459C74.6428 34.9516 74.6108 34.5654 74.4803 34.1897C74.4643 34.1205 74.459 34.0512 74.4616 33.9793C74.5655 32.2717 74.5575 30.564 74.4616 28.8591C74.427 28.8085 74.3924 28.7578 74.3524 28.7126C74.1446 28.5394 73.8995 28.5714 73.6598 28.5714C72.3438 28.5714 71.0304 28.5714 69.7144 28.5714C69.5119 28.5714 69.3068 28.59 69.107 28.5261C69.0431 28.4968 68.9925 28.4542 68.9552 28.3929C68.9631 28.3609 68.9738 28.3263 68.9818 28.2943L68.9845 28.297Z" fill="#BEB9EF"/>
<path d="M34.9386 0.306386C34.9386 1.94208 34.9519 3.57511 34.9332 5.21081C34.9279 5.73828 35.0611 5.94074 35.6525 5.92476C37.3415 5.87681 39.0331 5.91144 40.7221 5.91144C40.7967 5.94341 40.7967 5.97271 40.7194 5.99935C38.7987 6.00734 36.8779 6.01267 34.9572 6.02066C34.7334 6.22579 34.4564 6.24177 34.174 6.24177C32.8553 6.24177 31.5366 6.2471 30.2153 6.24177C29.9409 6.24177 29.6505 6.26042 29.4427 6.01267C29.4427 4.07328 29.4481 2.13389 29.4507 0.191833C29.488 0.191833 29.5227 0.191833 29.5599 0.191833C29.8263 0.322369 30.1061 0.247778 30.3805 0.250442C31.7178 0.258434 33.0551 0.250442 34.3924 0.25577C34.5736 0.25577 34.7654 0.207818 34.9386 0.30905V0.306386Z" fill="#FE7161"/>
<path d="M40.8739 22.8145C40.8313 22.8118 40.786 22.8065 40.7434 22.8038C40.81 20.8671 40.7807 18.9277 40.7594 16.991C40.7993 16.9856 40.8366 16.9803 40.8766 16.9776C40.9032 16.943 40.9272 16.9297 40.9512 16.943C40.9752 16.9563 40.9858 16.9696 40.9858 16.9803C42.7414 16.991 44.497 16.999 46.2526 17.0096C46.5163 17.1295 46.5669 17.3692 46.5696 17.617C46.5776 19.33 46.6282 21.0402 46.5456 22.7532C46.5403 22.8251 46.5349 22.897 46.5323 22.969C46.5269 24.4528 46.5323 25.9367 46.5269 27.4205C46.5269 27.6603 46.5642 27.9054 46.4444 28.1318C46.3991 28.2011 46.3378 28.2224 46.2605 28.1931C46.2605 26.5893 46.2419 24.983 46.2632 23.3792C46.2685 22.937 46.1353 22.8011 45.6905 22.8065C44.124 22.8304 42.5549 22.8145 40.9885 22.8118C40.8659 22.4282 40.9405 22.0366 40.9352 21.6476C40.9246 20.3236 40.9485 18.9996 40.9219 17.6756C40.9112 17.244 41.0524 17.1428 41.46 17.1508C42.6535 17.1774 43.847 17.1615 45.0404 17.1561C45.1923 17.1561 45.3628 17.2121 45.496 17.0922C45.3441 17.236 45.1497 17.1535 44.9765 17.1535C43.783 17.1615 42.5896 17.1694 41.3961 17.1508C41.0311 17.1455 40.9166 17.2494 40.9219 17.6223C40.9405 19.1701 40.9325 20.7179 40.9272 22.2657C40.9272 22.4495 40.9752 22.6386 40.8739 22.8145Z" fill="#A7A2D2"/>
<path d="M29.2323 28.3369C29.3042 28.3263 29.3788 28.3156 29.4507 28.3023C29.4773 28.3289 29.504 28.3529 29.5306 28.3796C29.6398 28.5394 29.6638 28.7259 29.6638 28.9124C29.6745 30.4681 29.6771 32.0266 29.6638 33.5824C29.6638 33.7875 29.6319 33.9899 29.4907 34.1578C29.2935 34.3256 29.0511 34.3443 28.8087 34.3443C27.3435 34.3522 25.8783 34.3522 24.4131 34.3443C24.208 34.3443 24.0055 34.3309 23.819 34.227C23.7577 34.1871 23.7178 34.1311 23.6991 34.0592C23.6911 32.2104 23.6405 30.3616 23.7284 28.5128C23.7071 28.4462 23.7151 28.3849 23.7524 28.3263C25.5346 28.329 27.3168 28.3343 29.0991 28.3369C29.0964 28.4701 28.9952 28.4675 28.9046 28.4675C27.4607 28.4701 26.0168 28.4675 24.5756 28.4701C25.9928 28.4701 27.4101 28.4701 28.8273 28.4701C28.9792 28.4701 29.1257 28.4675 29.2323 28.3369Z" fill="#755AC0"/>
<path d="M34.9758 11.4792C36.7421 11.4792 38.5083 11.4952 40.2745 11.4792C40.6608 11.4765 40.786 11.5804 40.7807 11.9773C40.7567 13.6503 40.7647 15.3233 40.762 16.9963C38.8227 16.991 36.8806 16.983 34.9412 16.9777C34.7441 16.7965 34.7201 16.5541 34.7174 16.309C34.7094 14.9317 34.7094 13.5544 34.7174 12.1771C34.7174 11.9214 34.7121 11.647 34.9732 11.4792H34.9758Z" fill="#FD9767"/>
<path d="M29.4587 16.9804C27.522 16.9804 25.5852 16.9804 23.6485 16.9777C23.4434 16.8019 23.4141 16.5621 23.4114 16.317C23.4034 14.9184 23.4008 13.5198 23.4114 12.1212C23.4114 11.9161 23.4354 11.711 23.5473 11.5298C23.5926 11.4685 23.6512 11.4233 23.7178 11.3886C23.803 11.3487 23.8909 11.314 23.9842 11.3114C25.6758 11.2661 27.3675 11.2741 29.0591 11.306C29.171 11.306 29.2802 11.3433 29.3788 11.394C29.4454 11.4286 29.5013 11.4792 29.5439 11.5431C29.6665 11.7616 29.6692 12.0067 29.6718 12.2464C29.6771 13.5651 29.6771 14.8811 29.6718 16.1998C29.6718 16.4769 29.6825 16.7619 29.4587 16.9804Z" fill="#EE3A65"/>
<path d="M40.7194 5.99666L40.7248 5.95404C40.7248 5.95404 40.7248 5.91142 40.7221 5.91142C40.8233 4.04129 40.7701 2.17383 40.7487 0.3037C40.7834 0.3037 40.818 0.303699 40.8526 0.301035C40.9725 0.426243 40.9246 0.58342 40.9246 0.727276C40.9246 2.14452 40.9326 3.55911 40.9246 4.97635C40.9699 3.38062 40.8606 1.78488 40.9805 0.189148C42.7707 0.189148 44.5609 0.189148 46.3538 0.189148C46.3565 2.1312 46.3591 4.07592 46.3618 6.01798C44.481 5.8315 42.6002 5.86879 40.7194 5.99933V5.99666Z" fill="#543175"/>
<path d="M40.7194 73.6329C38.7987 73.6222 36.8806 73.5796 34.9599 73.6542C34.7521 73.8433 34.4963 73.87 34.2326 73.8726C32.8606 73.8753 31.4887 73.878 30.1141 73.8726C29.8903 73.8726 29.6692 73.8567 29.4694 73.7314C29.4081 73.6835 29.3628 73.6249 29.3282 73.5583C29.2296 73.3478 29.2296 73.1241 29.2296 72.9003C29.2269 71.5576 29.2243 70.2123 29.2296 68.8696C29.2296 68.5926 29.2056 68.3022 29.4534 68.0918C31.9682 68.0811 34.4857 68.0678 37.0005 68.0651C38.2126 68.0651 39.4221 68.0784 40.6342 68.0864C40.5569 68.3715 40.3065 68.3715 40.0961 68.3741C38.5376 68.4008 36.9792 68.3955 35.4207 68.3795C35.2502 68.3795 35.0931 68.3235 34.9465 68.2409C33.1803 68.201 31.4141 68.233 29.6479 68.2223C31.4114 68.2383 33.175 68.1903 34.9412 68.2516C35.1916 68.4834 35.1543 68.7951 35.157 69.0881C35.1677 70.2816 35.1543 71.475 35.165 72.6712C35.1703 73.2706 35.2129 73.3132 35.8017 73.3185C37.1443 73.3292 38.487 73.3185 39.8323 73.3239C40.128 73.3239 40.4317 73.2919 40.7034 73.4624C40.7754 73.513 40.7807 73.5716 40.7221 73.6355L40.7194 73.6329Z" fill="#FE7161"/>
<path d="M40.7194 73.5503C38.9905 73.5477 37.2642 73.529 35.5353 73.5503C35.0824 73.5556 34.9226 73.4331 34.9306 72.9589C34.9572 71.3978 34.9386 69.8367 34.9386 68.2783C34.8693 68.2383 34.8693 68.2037 34.9439 68.1744C36.6409 68.1717 38.3405 68.169 40.0375 68.161C40.2373 68.161 40.4504 68.217 40.6342 68.0838C40.6741 68.0758 40.7141 68.0678 40.7541 68.0598C40.9112 68.1957 40.9219 68.3822 40.9219 68.5686C40.9272 70.0498 40.9299 71.531 40.9219 73.0095C40.9219 73.2093 40.9379 73.4251 40.7194 73.5477V73.5503Z" fill="#FD9767"/>
<path d="M23.8537 84.9655C23.8164 84.9549 23.7817 84.9442 23.7444 84.9336C23.6885 84.8856 23.6459 84.827 23.6166 84.7604C23.4274 83.1673 23.5393 79.9412 23.7924 79.5949C23.9336 79.9519 23.9629 83.439 23.8217 83.8866C23.9735 83.7827 23.9043 83.6468 23.9069 83.5403C23.9123 82.3468 23.9203 81.156 23.9069 79.9625C23.9016 79.6162 24.0108 79.4297 24.3731 79.4297C25.9183 79.4217 27.466 79.4137 29.0112 79.4351C29.179 79.4351 29.3442 79.4724 29.488 79.5709C29.6931 79.824 29.6692 80.1304 29.6718 80.4261C29.6798 81.6195 29.6852 82.8157 29.6718 84.0091C29.6665 84.4647 29.829 84.6405 30.2899 84.6352C31.5206 84.6192 32.7541 84.6272 33.9848 84.6325C34.2646 84.6325 34.5469 84.6112 34.8133 84.7231C34.8799 84.7551 34.9306 84.8057 34.9705 84.867C34.9759 84.9522 34.9359 85.0002 34.8533 85.0108C33.1457 85.0215 31.4354 85.0108 29.7278 85.0161C29.5999 85.0161 29.4667 85.0401 29.3468 84.9655C29.3095 84.9655 29.2696 84.9655 29.2323 84.9655C28.1081 85.0827 26.9785 85.0028 25.8517 85.0108C25.1883 85.0161 24.5223 85.0801 23.8617 84.9655H23.8537Z" fill="#EE3A65"/>
<path d="M80.2958 39.8348C82.0487 39.603 83.8096 39.7682 85.5652 39.7309C85.8769 39.8987 85.8289 40.1971 85.8289 40.4715C85.8369 42.0566 85.8289 43.6443 85.8342 45.2294C85.8342 45.3013 85.8129 45.3679 85.7703 45.4265C83.9428 45.4398 82.118 45.4505 80.2904 45.4638C80.2638 45.4372 80.2372 45.4132 80.2079 45.3865C80.056 45.1548 80.0693 44.8884 80.0693 44.63C80.0667 43.3086 80.064 41.9873 80.0693 40.6659C80.0693 40.3729 80.0347 40.0612 80.2931 39.8348H80.2958Z" fill="#BEB9EF"/>
<path d="M12.3212 68.0571C12.3185 69.9193 12.3132 71.7841 12.3106 73.6462C12.1774 73.814 11.9909 73.8194 11.8044 73.806C10.3632 73.6995 8.91928 73.7714 7.47539 73.7634C7.25161 73.7634 7.03051 73.7821 6.83071 73.6542C6.79341 73.6542 6.75611 73.6542 6.71881 73.6542C6.85201 73.4331 6.83071 73.1907 6.83071 72.9482C6.83071 71.5177 6.84669 70.0844 6.82271 68.6539C6.81472 68.201 6.93993 68.0385 7.41412 68.0465C9.04982 68.0731 10.6882 68.0571 12.3239 68.0598L12.3212 68.0571Z" fill="#370C44"/>
<path d="M29.456 68.0918C29.456 69.9113 29.456 71.7281 29.4534 73.5477C29.2962 73.8434 29.0112 73.8673 28.7314 73.87C27.3195 73.8833 25.9076 73.8833 24.493 73.87C24.2373 73.87 23.9629 73.862 23.803 73.5956C23.7897 72.0239 23.7977 70.4494 23.8004 68.8777C23.8004 68.6779 23.7737 68.4674 23.9176 68.2942C24.2213 68.161 24.541 68.233 24.8527 68.2303C26.1527 68.2197 27.45 68.225 28.2119 68.225C27.141 68.2356 25.5346 68.2063 23.9256 68.2383C23.8536 68.241 23.7897 68.2223 23.7311 68.1797C23.7311 68.1451 23.7311 68.1104 23.7311 68.0758C25.6385 68.0811 27.5486 68.0865 29.456 68.0918Z" fill="#EE3A65"/>
<path d="M6.82805 11.5058C6.82805 11.4686 6.82805 11.4313 6.82805 11.3913C7.84037 11.6124 8.86334 11.4765 9.88099 11.4925C10.5283 11.5032 11.181 11.5804 11.823 11.4259C12.0255 11.378 12.1827 11.4686 12.3159 11.6151C12.4304 12.2757 12.3692 12.9417 12.3638 13.6051C12.3558 14.7319 12.4384 15.8615 12.3186 16.9857C10.6775 16.9857 9.0365 16.975 7.39281 16.9963C6.95325 17.0017 6.81206 16.8738 6.81739 16.4263C6.84136 14.7852 6.82538 13.1442 6.82538 11.5005L6.82805 11.5058Z" fill="#370C44"/>
<path d="M63.4966 22.7852C65.1563 22.7905 66.8133 22.8118 68.473 22.7879C68.9045 22.7825 68.9951 22.9131 68.9898 23.3207C68.9685 24.9803 68.9844 26.6373 68.9844 28.297L68.9765 28.305C68.806 28.4808 68.5848 28.5128 68.3611 28.5155C66.8559 28.5288 65.3508 28.5181 63.8456 28.5208C63.7151 28.5208 63.5845 28.5048 63.47 28.4355C63.3741 28.337 63.3368 28.2118 63.3368 28.0786C63.3368 26.3709 63.2808 24.6633 63.3661 22.9557C63.3927 22.8864 63.4353 22.8278 63.4939 22.7825L63.4966 22.7852Z" fill="#BEB9EF"/>
<path d="M63.6032 62.2363C63.5738 62.2523 63.5445 62.2549 63.5126 62.247C63.4806 62.2336 63.446 62.2203 63.414 62.207C63.2302 62.0711 63.1876 61.866 63.1849 61.6609C63.1636 60.1344 63.1423 58.6053 63.1956 57.0788C63.1956 57.0042 63.2249 56.9323 63.2515 56.863C63.2808 56.7937 63.3234 56.7351 63.3794 56.6845C63.4406 56.6419 63.5072 56.6126 63.5792 56.594C64.2798 56.4528 64.9858 56.5433 65.6891 56.53C66.5256 56.514 67.3621 56.522 68.1959 56.53C68.4756 56.53 68.758 56.5273 68.9818 56.7378L68.9898 56.7644C68.9898 58.4001 68.9898 60.0358 68.9764 61.6715C68.9764 61.8633 69.0697 62.0818 68.8752 62.2443C68.6115 62.1084 68.3264 62.1857 68.0547 62.1857C66.752 62.175 65.4493 62.1777 64.1466 62.1857C63.9655 62.1857 63.7736 62.1297 63.6032 62.2443V62.2363Z" fill="#755AC0"/>
<path d="M23.6379 11.5005C23.6405 13.3253 23.6459 15.1501 23.6485 16.975C21.8157 16.9776 19.9802 16.983 18.1474 16.9856C17.8836 16.6713 17.9582 16.2664 17.9449 15.92C17.8916 14.6173 17.9103 13.312 17.9316 12.0066C17.9316 11.8574 17.9609 11.7109 18.0301 11.5751C18.0674 11.5085 18.1154 11.4525 18.1793 11.4099C18.4005 11.2873 18.6429 11.2847 18.8853 11.282C20.2093 11.2767 21.5333 11.2767 22.8573 11.282C23.1344 11.282 23.4248 11.258 23.6379 11.4978V11.5005Z" fill="#8A0975"/>
<path d="M29.4587 16.9803C29.4587 15.1528 29.4587 13.3253 29.4587 11.5005C29.6532 11.282 29.9222 11.2873 30.178 11.2873C31.5286 11.2793 32.8819 11.282 34.2326 11.2873C34.4963 11.2873 34.7494 11.3193 34.9678 11.4898L34.9758 11.4845C34.9652 13.3173 34.9519 15.1501 34.9412 16.983C33.1137 16.983 31.2862 16.983 29.456 16.983L29.4587 16.9803Z" fill="#FE7161"/>
<path d="M6.60694 6.24173C6.2846 6.32165 6.38849 6.58805 6.38583 6.79051C6.37783 8.32498 6.3805 9.85944 6.3805 11.3939C4.79009 11.5804 3.19702 11.4765 1.60129 11.4578C0.890001 11.4498 0.991236 11.1488 0.996563 10.7039C1.01521 9.34529 0.999227 7.98665 1.00456 6.62801C1.00456 5.99664 1.10845 5.98332 1.71051 5.98865C3.37818 6.00197 5.0485 6.13517 6.7135 5.90607C6.67621 6.01795 6.63891 6.12984 6.60161 6.24173H6.60694Z" fill="#370C44"/>
<path d="M74.9225 50.9357C74.752 50.7678 74.8053 50.552 74.8053 50.3522C74.8026 48.7112 74.8053 47.0729 74.8053 45.4318C75.0264 45.2107 75.3088 45.2107 75.5885 45.2107C76.9125 45.2081 78.2365 45.2107 79.5605 45.2107C79.8243 45.2107 80.0853 45.2294 80.3038 45.4025C80.3171 45.4265 80.3144 45.4452 80.2905 45.4611C80.2905 47.0942 80.2931 48.7245 80.2851 50.3576C80.2851 50.5467 80.3784 50.7678 80.1812 50.925C79.8403 50.7918 79.4859 50.8717 79.137 50.8664C77.9115 50.8557 76.6834 50.8584 75.458 50.8664C75.2768 50.8664 75.085 50.8131 74.9145 50.925L74.9199 50.9357H74.9225Z" fill="#827BC2"/>
<path d="M29.4534 28.3023C29.456 26.648 29.472 24.9936 29.4534 23.342C29.448 22.9397 29.5439 22.7878 29.9782 22.7958C31.5952 22.8251 33.2096 22.8171 34.8267 22.8225C35.0344 23.0542 34.9865 23.342 34.9918 23.6163C35.0158 25.0975 34.9465 26.5787 35.0291 28.0599C35.0344 28.1744 35.0105 28.281 34.9226 28.3609C34.7307 28.4995 34.507 28.5154 34.2832 28.5154C32.9059 28.5234 31.5313 28.5234 30.154 28.5154C29.9116 28.5154 29.6665 28.5074 29.4773 28.321L29.456 28.2997L29.4534 28.3023Z" fill="#755AC0"/>
<path d="M23.7391 84.851C23.7418 84.8777 23.7444 84.9043 23.7444 84.9336C21.8823 84.9363 20.0202 84.9389 18.1607 84.9416C18.1607 83.1567 18.158 81.3718 18.1554 79.5896C18.3285 79.4031 18.5603 79.4244 18.7814 79.4244C20.1374 79.4218 21.496 79.4165 22.852 79.4244C23.5207 79.4298 23.6219 79.539 23.6272 80.2103C23.6379 81.529 23.6112 82.8503 23.6405 84.169C23.7338 84.3875 23.6192 84.6352 23.7391 84.851Z" fill="#8A0975"/>
<path d="M23.7311 68.0758C23.7311 68.1024 23.7311 68.1291 23.7284 68.1557C23.7498 68.2623 23.7364 68.3688 23.7098 68.4727C23.6485 69.89 23.6991 71.3099 23.6832 72.7271C23.6725 73.513 23.6006 73.5929 22.8147 73.5956C21.4907 73.6009 20.164 73.6009 18.84 73.5956C18.6029 73.5956 18.3472 73.6462 18.158 73.4304C18.158 71.6429 18.158 69.8554 18.158 68.0678C20.0175 68.0705 21.877 68.0731 23.7364 68.0758H23.7311Z" fill="#8A0975"/>
<path d="M18.1287 11.5165C18.1341 13.3387 18.1394 15.1635 18.1447 16.9857C16.2773 16.9857 14.4071 16.9857 12.5397 16.9857C12.5263 16.6021 12.8061 16.6527 13.0432 16.6527C14.4018 16.6527 15.7631 16.6527 17.1217 16.65C17.3881 16.65 17.8277 16.7219 17.825 16.4129C17.8197 16.0719 17.4601 15.8588 17.0471 15.8641C15.875 15.8775 14.7002 15.8535 13.528 15.8748C13.1177 15.8828 12.9712 15.7576 12.9819 15.3367C13.0059 14.351 12.9872 13.3626 12.9925 12.377C12.9925 12.004 12.91 11.6817 12.5423 11.5005C12.7341 11.2767 13.0032 11.2821 13.2589 11.2821C14.6469 11.2741 16.0322 11.2741 17.4201 11.2821C17.6759 11.2821 17.9449 11.2767 18.1314 11.5138L18.1287 11.5165Z" fill="#380762"/>
<path d="M6.8307 79.7015C6.96923 79.6908 7.04382 79.6163 7.05448 79.4777C7.20366 79.2886 7.41945 79.3152 7.62191 79.3152C8.83403 79.3099 10.0461 79.3099 11.2583 79.3152C11.2956 79.3152 11.3329 79.3152 11.3701 79.3179C11.9633 79.3552 12.2599 79.6642 12.2599 80.245C12.2599 81.4198 12.2653 82.5946 12.2546 83.7694C12.2546 83.9293 12.3638 84.2037 12.0708 84.201C11.847 84.1983 11.8177 83.9612 11.8177 83.7694C11.8124 82.6692 11.8177 81.569 11.815 80.4687C11.815 79.8294 11.7804 79.8054 11.1624 79.8054C10.1234 79.8054 9.08444 79.8054 8.04549 79.8107C9.08711 79.8187 10.1287 79.8347 11.1703 79.8081C11.6232 79.7974 11.823 79.9706 11.8204 80.4234C11.8124 81.4304 11.8257 82.4374 11.815 83.4444C11.8097 83.9612 11.6419 84.1211 11.1357 84.0891C10.3152 84.0385 9.4947 84.0731 8.67418 84.0598C8.24528 84.0545 7.81905 84.0465 7.41412 84.2383C7.22231 84.3289 7.01452 84.3289 6.83603 84.177C6.83603 82.6852 6.83603 81.1907 6.83603 79.6988L6.8307 79.7015Z" fill="#370C44"/>
<path d="M6.83071 84.1797C8.05615 83.6602 9.34819 83.9053 10.6136 83.8307C10.9439 83.8121 11.3275 84.1237 11.5646 83.8414C11.7857 83.5776 11.6366 83.1567 11.6419 82.8077C11.6552 81.9872 11.6419 81.1667 11.6499 80.3435C11.6525 80.0585 11.5886 79.9945 11.2663 80.0052C10.1101 80.0505 8.95392 80.0292 7.79508 80.0345C7.57397 80.0345 7.33421 80.0052 7.34486 79.7415C7.35552 79.5017 7.60594 79.5896 7.75512 79.5896C8.874 79.5816 9.99554 79.5763 11.1144 79.5896C11.9083 79.5976 11.9802 79.6829 11.9802 80.4421C11.9802 81.4864 11.9749 82.5333 11.9855 83.5776C11.9855 83.7481 11.9083 83.9453 12.0814 84.0918C12.2546 84.0172 12.2013 83.868 12.2013 83.7534C12.2067 82.4854 12.2013 81.2147 12.2067 79.9466C12.2067 79.6935 12.1853 79.5949 11.8577 79.5576C10.2566 79.3712 8.65289 79.5337 7.05449 79.4751C7.08113 79.19 7.32355 79.1767 7.51003 79.1714C8.97789 79.1394 10.4458 79.0968 11.9136 79.2007C12.0628 79.2113 12.2093 79.2433 12.3132 79.3685C12.3132 81.0175 12.3212 82.6665 12.3159 84.3155C12.3159 84.566 12.3239 84.7977 12.545 84.9602C12.4198 84.9602 12.2946 84.9682 12.2067 84.851C11.9829 84.6059 11.8071 84.9096 11.6019 84.9043C10.1234 84.8723 8.64489 84.9736 7.16904 84.851C6.64956 84.8324 6.71083 84.5207 6.83337 84.1797H6.83071Z" fill="#370C44"/>
<path d="M46.6148 0L68.8406 0C68.8406 0.015984 68.8406 0.0346316 68.8406 0.0506156L46.6148 0.0506156C46.6148 0.0346316 46.6148 0.015984 46.6148 0Z" fill="#2C1131"/>
<path d="M29.4401 56.7458C29.6292 56.9056 29.5599 57.1267 29.5599 57.3239C29.5653 58.6292 29.5839 59.9346 29.5519 61.24C29.5386 61.7434 29.6718 61.9113 30.202 61.9086C33.3348 61.8846 36.4703 61.8953 39.6032 61.8953C39.787 61.8953 39.9708 61.8953 40.152 61.8953C40.152 61.9326 40.1547 61.9699 40.1573 62.0072C39.9735 62.0072 39.7897 62.0072 39.6059 62.0072C36.473 62.0072 33.3375 62.0072 30.2046 62.0098C29.9888 62.0098 29.7517 61.9353 29.5653 62.1217C29.6026 62.159 29.6079 62.2017 29.5786 62.2469C29.5306 62.2762 29.4907 62.2629 29.4614 62.2176L29.4374 56.7458H29.4401Z" fill="#5D408A"/>
<path d="M40.7194 73.5503C40.8446 72.5566 40.7567 71.5576 40.7727 70.5586C40.786 69.7248 40.7621 68.8936 40.7567 68.0598C40.7621 67.7587 40.7701 67.4577 40.7754 67.1567C41.0018 67.4231 40.7328 67.8014 40.9858 68.0598C41.2096 68.2782 41.2069 68.5633 41.2069 68.843C41.2123 70.1483 41.2096 71.451 41.2069 72.7564C41.2069 73.0361 41.2043 73.3212 40.9858 73.5396C40.9192 73.6329 40.8233 73.6435 40.7194 73.6302L40.7248 73.5876V73.5449L40.7194 73.5503Z" fill="#4F2978"/>
<path d="M63.3954 62.3535C63.1663 62.3482 62.9398 62.3455 62.7107 62.3402C62.5749 62.4308 62.423 62.3961 62.2765 62.3961C59.0211 62.3961 55.763 62.3961 52.5076 62.3961C52.3611 62.3961 52.2093 62.4334 52.0734 62.3402C52.0707 62.3056 52.0681 62.2736 52.0627 62.239C52.0867 62.2123 52.1133 62.183 52.1373 62.1537C52.3877 61.9886 52.6701 62.0099 52.9498 62.0099C56.1546 62.0072 59.3568 62.0099 62.5616 62.0072C62.8839 62.0072 63.1956 62.0232 63.47 62.215L63.5099 62.247C63.4726 62.2816 63.4327 62.3189 63.3954 62.3535Z" fill="#755AC0"/>
<path d="M29.464 62.2176C29.4987 62.2176 29.5333 62.2176 29.5679 62.2176C29.6718 62.1643 29.7864 62.1777 29.8956 62.1777C33.2389 62.1777 36.5822 62.1777 39.9255 62.1777C40.0534 62.1777 40.1866 62.1537 40.3065 62.2256C40.461 62.2523 40.6395 62.183 40.7567 62.3482C40.6075 62.3482 40.4583 62.3482 40.3092 62.3482C40.1893 62.4201 40.0561 62.3961 39.9282 62.3961C36.6009 62.3961 33.2762 62.3961 29.9489 62.3961C29.821 62.3961 29.6878 62.4201 29.5679 62.3482C29.5333 62.3055 29.4987 62.2602 29.464 62.2176Z" fill="#452A62"/>
<path d="M29.3415 84.9682C31.2036 84.9548 33.0658 84.9389 34.9279 84.9255C35.1037 84.795 35.3115 84.8003 35.5166 84.8003C36.9472 84.8003 38.3751 84.795 39.8057 84.8003C40.0241 84.8003 40.2586 84.7657 40.4264 84.9682C40.2745 85.1227 40.0774 85.0721 39.8963 85.0721C36.5556 85.0721 33.215 85.0721 29.8743 85.0721C29.6931 85.0721 29.496 85.12 29.3442 84.9655L29.3415 84.9682Z" fill="#270F36"/>
<path d="M29.5679 62.3482C33.1483 62.3482 36.7287 62.3482 40.3092 62.3482C40.1573 62.5027 39.9602 62.4521 39.779 62.4521C36.5529 62.4521 33.3268 62.4521 30.0981 62.4521C29.9169 62.4521 29.7198 62.5027 29.5679 62.3482Z" fill="#2A1031"/>
<path d="M24.3278 17.1321H34.8C34.8 17.1508 34.8 17.1694 34.8 17.1854H24.3278C24.3278 17.1668 24.3278 17.1481 24.3278 17.1321Z" fill="#251234"/>
<path d="M80.4103 49.9926C80.4103 48.6073 80.4103 47.2247 80.4103 45.8394C80.4103 45.6236 80.5382 45.549 80.7353 45.549C82.3684 45.549 84.0014 45.549 85.6371 45.6582H83.2688C82.5815 45.6582 81.8889 45.6902 81.2042 45.6476C80.6794 45.6156 80.4823 45.7621 80.5062 46.3216C80.5489 47.3632 80.5196 48.4048 80.5196 49.4464C80.5196 49.6276 80.5196 49.8087 80.5196 49.9899C80.4849 49.9899 80.4476 49.9899 80.413 49.9899L80.4103 49.9926Z" fill="#2D0F33"/>
<path d="M7.16636 84.851C8.52233 84.851 9.87565 84.851 11.2316 84.851C11.4474 84.851 11.6898 84.9096 11.8337 84.6672C11.895 84.5606 11.9136 84.3795 12.0921 84.4567C12.2626 84.5313 12.188 84.7152 12.2066 84.8537C10.6136 85.0854 9.01251 84.915 7.41678 84.9576C7.33419 84.9576 7.25161 84.891 7.16903 84.8537L7.16636 84.851Z" fill="#370C44"/>
<path d="M85.7703 45.4265C85.7676 45.3892 85.765 45.3519 85.7596 45.3146C85.6904 43.4525 85.7064 41.5903 85.7516 39.7255C85.7596 39.6936 85.7596 39.6616 85.7596 39.6296C85.7969 39.6243 85.8342 39.619 85.8715 39.6136C85.9248 39.6696 85.9435 39.7389 85.9435 39.8161C85.9435 41.6196 85.9435 43.4232 85.9435 45.2267C85.9435 45.3039 85.9275 45.3732 85.8822 45.4371C85.8449 45.4371 85.8049 45.4318 85.7676 45.4292L85.7703 45.4265Z" fill="#6F5D89"/>
<path d="M40.4237 84.9683C38.5909 84.9549 36.7607 84.939 34.9279 84.9256C34.9359 84.9043 34.9412 84.883 34.9439 84.8617C35.133 84.6273 35.4021 84.6353 35.6605 84.6353C37.1124 84.6273 38.5643 84.6273 40.0161 84.6353C40.2772 84.6353 40.5436 84.6353 40.7354 84.859C40.7434 84.8884 40.7461 84.915 40.7434 84.9443C40.6369 84.9523 40.5303 84.9603 40.4237 84.9709V84.9683Z" fill="#FE7161"/>
<path d="M23.7498 34.0059C23.7444 34.0406 23.7418 34.0779 23.7364 34.1125C23.7178 34.1551 23.6858 34.1711 23.6405 34.1631C23.6325 34.1418 23.6245 34.1205 23.6192 34.0965C23.6166 34.0645 23.6112 34.0326 23.6059 34.0006C23.5553 32.2157 23.5393 30.4309 23.6139 28.646C23.6432 28.5314 23.5952 28.3822 23.7551 28.3263C23.7551 28.3583 23.7551 28.3876 23.7551 28.4195C23.8164 30.2817 23.8297 32.1465 23.7471 34.0086L23.7498 34.0059Z" fill="#5E4191"/>
<path d="M85.8848 45.4345C85.8795 43.4951 85.8769 41.553 85.8715 39.6136C86.0154 39.7149 85.9994 39.8694 85.9994 40.0159C85.9994 41.6862 85.9994 43.3539 85.9994 45.0242C85.9994 45.1707 86.0154 45.3253 85.8822 45.4345H85.8848Z" fill="#25082D"/>
<path d="M63.3661 17.0096C63.4034 17.0043 63.4407 16.999 63.478 16.9937C63.4886 17.0682 63.4966 17.1455 63.5073 17.2201C63.5845 19.0449 63.5605 20.8724 63.5206 22.6973C63.5153 22.7266 63.5073 22.7559 63.4966 22.7852C63.5206 22.8012 63.5232 22.8198 63.5073 22.8411C63.4327 22.8465 63.3714 22.8198 63.3208 22.7665C63.2808 22.7079 63.2515 22.644 63.2382 22.5721C63.2169 20.7765 63.1849 18.9837 63.2542 17.1881C63.2808 17.1215 63.3181 17.0629 63.3687 17.0096H63.3661Z" fill="#82719F"/>
<path d="M40.7514 0.301018C39.0251 0.301018 37.2988 0.306346 35.5699 0.303682C35.3888 0.303682 35.1943 0.351635 35.0478 0.186467C36.9579 0.143843 38.8706 0.13585 40.7807 0.191794C40.8207 0.231754 40.8233 0.279706 40.7993 0.327658C40.7834 0.317002 40.7674 0.30901 40.7487 0.301018H40.7514Z" fill="#FEA269"/>
<path d="M18.1394 0.175827C18.1394 0.146523 18.1421 0.117219 18.1474 0.087915C19.8257 0.087915 21.504 0.085251 23.185 0.087915C23.3688 0.087915 23.5526 0.122547 23.7365 0.141195C23.7205 0.173163 23.7045 0.202467 23.6885 0.234435C23.6352 0.282387 23.5766 0.314355 23.51 0.335667C21.9915 0.399603 20.4704 0.338331 18.9492 0.367635C18.6589 0.394275 18.3498 0.490179 18.1421 0.175827H18.1394Z" fill="#380762"/>
<path d="M63.5206 22.6999C63.5153 20.8751 63.5126 19.0476 63.5073 17.2227C63.6618 17.3985 63.6005 17.6117 63.6032 17.8088C63.6085 19.4019 63.6058 20.9949 63.6085 22.5907C63.6778 22.628 63.6751 22.6626 63.6032 22.6946C63.5765 22.6946 63.5499 22.6972 63.5206 22.6999Z" fill="#23082F"/>
<path d="M23.6139 51.0422C23.6192 52.8671 23.6246 54.6946 23.6299 56.5194C23.5207 56.4208 23.518 56.2903 23.518 56.1598C23.518 54.556 23.518 52.955 23.518 51.3512C23.518 51.2367 23.5287 51.1275 23.6139 51.0396V51.0422Z" fill="#291031"/>
<path d="M40.2825 22.6706H35.0824C35.0824 22.6546 35.0824 22.636 35.0824 22.62H40.2825C40.2825 22.636 40.2825 22.6546 40.2825 22.6706Z" fill="#2B0D34"/>
<path d="M34.9412 28.2997C34.9385 28.2224 34.9332 28.1452 34.9305 28.0706C34.8586 26.3203 34.84 24.5701 34.9412 22.8225C34.9785 22.8225 35.0158 22.8225 35.0531 22.8225C35.0531 22.8598 35.0531 22.8944 35.0558 22.9317C35.165 23.7443 35.093 24.5621 35.1037 25.3773C35.1144 26.3257 35.117 27.2741 35.101 28.2224C35.0771 28.3077 35.0264 28.3343 34.9439 28.3024L34.9412 28.2997Z" fill="#A096D9"/>
<path d="M12.3212 16.9883C12.3212 15.1981 12.3212 13.4079 12.3212 11.6177C12.489 11.7882 12.4278 12.0013 12.4278 12.1984C12.4331 13.7942 12.4278 15.3899 12.4278 16.9856C12.3905 16.9856 12.3558 16.9883 12.3185 16.9883H12.3212Z" fill="#380762"/>
<path d="M63.6031 22.6946C63.6058 22.66 63.6085 22.6253 63.6085 22.5907C65.3534 22.5907 67.0983 22.5907 68.8432 22.5907C68.8432 22.6253 68.8432 22.66 68.8432 22.6946H63.6031Z" fill="#2B0D35"/>
<path d="M23.6139 28.646C23.6139 30.4309 23.6086 32.2158 23.6059 34.0006C23.5073 33.8941 23.5153 33.7635 23.5153 33.633C23.5153 32.0932 23.5153 30.5508 23.5153 29.011C23.5153 28.8804 23.51 28.7499 23.6139 28.646Z" fill="#2A0F34"/>
<path d="M29.1177 0.186502C28.9526 0.362326 28.7368 0.301053 28.5396 0.301053C26.9412 0.303717 25.3428 0.301053 23.7444 0.301053C23.7045 0.266421 23.7018 0.231789 23.7444 0.197157C23.7391 0.178509 23.7364 0.157198 23.7364 0.13855C25.3295 0.146542 26.9199 0.154534 28.513 0.162526C28.7155 0.162526 28.9179 0.178509 29.123 0.183837L29.1177 0.186502Z" fill="#F93C69"/>
<path d="M23.8536 84.9656C25.6438 84.9656 27.4341 84.9656 29.2269 84.9656C29.1124 85.0908 28.9605 85.0721 28.814 85.0721C27.2982 85.0721 25.785 85.0721 24.2692 85.0721C24.1227 85.0721 23.9709 85.0881 23.8563 84.9629L23.8536 84.9656Z" fill="#271235"/>
<path d="M29.2323 28.337C29.2669 28.4435 29.2536 28.5235 29.1204 28.5235C27.4847 28.5235 25.849 28.5235 24.2133 28.4142C25.6252 28.4142 27.0345 28.4169 28.4464 28.4116C28.6648 28.4116 28.8966 28.4702 29.1017 28.337C29.1443 28.337 29.1896 28.337 29.2323 28.337Z" fill="#785CC7"/>
<path d="M34.9385 0.306344C33.3401 0.306344 31.7417 0.306345 30.1407 0.303681C29.9436 0.303681 29.7251 0.364953 29.5626 0.189129C31.3555 0.138513 33.1483 0.143841 34.9412 0.189129C34.9412 0.229089 34.9412 0.269049 34.9412 0.309009L34.9385 0.306344Z" fill="#F97A60"/>
<path d="M63.6032 62.2363C63.7151 62.1058 63.8669 62.1191 64.0134 62.1191C65.4973 62.1191 66.9785 62.1191 68.4623 62.1191C68.6115 62.1191 68.7633 62.1084 68.8726 62.239C67.1143 62.239 65.3588 62.239 63.6005 62.239L63.6032 62.2363Z" fill="#7A5ECB"/>
<path d="M40.7993 0.327654C40.794 0.282366 40.786 0.237077 40.7807 0.19179C40.8473 0.19179 40.9139 0.189126 40.9805 0.186462C40.9805 1.85945 40.9805 3.53244 40.9805 5.20277C40.9459 5.20277 40.9086 5.20277 40.8739 5.20277C40.8739 3.79618 40.8766 2.38959 40.8713 0.980334C40.8713 0.761886 40.9325 0.532781 40.7993 0.324989V0.327654Z" fill="#4F2979"/>
<path d="M74.9172 50.925C75.0291 50.7944 75.1809 50.8104 75.3274 50.8104C76.8086 50.8104 78.2898 50.8104 79.771 50.8104C79.9175 50.8104 80.0693 50.7971 80.1812 50.9276C78.4257 50.9276 76.6701 50.9276 74.9145 50.9276L74.9172 50.925Z" fill="#8D7EC9"/>
<path d="M34.9412 22.8225C34.9385 24.5727 34.9332 26.323 34.9306 28.0706C34.768 27.8974 34.8293 27.6843 34.8293 27.4871C34.824 25.9314 34.8267 24.3783 34.8267 22.8225C34.864 22.8225 34.9039 22.8225 34.9412 22.8198V22.8225Z" fill="#6E53B9"/>
<path d="M80.4849 34.9383V39.246C80.4689 39.246 80.4503 39.246 80.4343 39.246V34.9383C80.4503 34.9383 80.4689 34.9383 80.4849 34.9383Z" fill="#2F0F31"/>
<path d="M23.6352 45.4238C23.6352 41.7289 23.6352 38.0366 23.6379 34.3416C24.0108 34.4775 23.9495 34.8105 23.9522 35.0902C23.9709 36.2783 23.9549 37.4691 23.9602 38.66C23.9629 39.3579 23.9922 39.3872 24.6768 39.3899C26.0514 39.3979 27.4287 39.3739 28.8034 39.4005C29.4694 39.4139 29.6026 39.5737 29.6159 40.2424C29.4321 40.8578 29.5067 41.4918 29.5067 42.1178C29.5067 43.1355 29.4747 44.1531 29.528 45.1681C29.536 45.2374 29.528 45.3066 29.5067 45.3732C29.4853 45.3999 29.4667 45.4292 29.4454 45.4558C27.5086 45.4452 25.5693 45.4345 23.6325 45.4265L23.6352 45.4238Z" fill="#827BC2"/>
<path d="M40.7674 56.7352C38.9958 56.7378 37.2243 56.7299 35.4527 56.7538C35.0052 56.7592 34.9332 56.5753 34.9359 56.1864C34.9466 54.4335 34.9359 52.6806 34.9306 50.9277C34.9545 50.901 34.9785 50.8717 35.0025 50.8451C35.1783 50.7199 35.3834 50.7066 35.5886 50.7066C37.1124 50.6986 38.6335 50.6959 40.1573 50.7066C40.3438 50.7066 40.5276 50.7252 40.7008 50.8131C40.7674 50.8504 40.8207 50.901 40.8606 50.965C40.9885 51.2047 40.9832 51.4658 40.9832 51.7242C40.9858 53.1148 40.9858 54.5054 40.9832 55.8987C40.9832 56.1944 41.0045 56.4981 40.7674 56.7352Z" fill="#755AC0"/>
<path d="M40.7674 56.7352C40.7674 54.7984 40.7647 52.859 40.762 50.9223C40.9379 50.7119 41.1883 50.7065 41.428 50.7039C42.824 50.6932 44.2199 50.6852 45.6158 50.7039C46.2952 50.7145 46.5509 50.9223 46.5669 51.535C46.6042 53.1175 46.5935 54.6999 46.5722 56.2796C46.5722 56.3915 46.5429 56.5007 46.4976 56.6046C46.463 56.6739 46.415 56.7298 46.3511 56.7725C44.4916 56.7591 42.6295 56.7432 40.77 56.7298L40.7674 56.7352Z" fill="#837CC2"/>
<path d="M52.0654 62.239C50.4297 62.239 48.7914 62.239 47.1557 62.2363C46.6229 62.2363 46.3565 61.9788 46.3565 61.4638C46.3565 59.9027 46.3511 58.3389 46.3485 56.7778L46.3618 56.7378C46.5642 56.538 46.8253 56.5247 47.0864 56.5221C48.5329 56.5167 49.9768 56.5167 51.4234 56.5221C51.6472 56.5221 51.8683 56.538 52.0681 56.6579C52.2945 56.8231 52.2918 57.0708 52.2918 57.3133C52.2918 58.7065 52.2945 60.0998 52.2892 61.4957C52.2892 61.7568 52.2812 62.0206 52.0761 62.223L52.0627 62.2363L52.0654 62.239Z" fill="#755AC0"/>
<path d="M34.9305 50.9303C33.2922 50.9303 31.6565 50.9143 30.0181 50.9356C29.5812 50.941 29.4374 50.8158 29.4427 50.3682C29.464 48.7298 29.448 47.0941 29.4454 45.4558L29.456 45.4158C29.6478 45.232 29.8903 45.216 30.1353 45.216C31.5153 45.2107 32.8953 45.2107 34.2752 45.216C34.5176 45.216 34.7627 45.232 34.9652 45.3945C35.1623 45.6263 35.1543 45.9087 35.157 46.1857C35.1623 47.5017 35.1623 48.8204 35.157 50.1364C35.157 50.4162 35.157 50.6985 34.9412 50.917L34.9279 50.9303H34.9305Z" fill="#755AC0"/>
<path d="M40.9858 73.5424C40.9858 71.7149 40.9858 69.8874 40.9858 68.0625C42.776 68.0625 44.5662 68.0599 46.3564 68.0572C46.3564 69.7115 46.3564 71.3632 46.3618 73.0176C46.3618 73.252 46.3032 73.5157 46.5882 73.6516C46.5136 73.6889 46.439 73.7262 46.3644 73.7661C46.2232 73.4891 45.9622 73.545 45.7277 73.545C44.148 73.545 42.5682 73.545 40.9912 73.545L40.9858 73.5424Z" fill="#543175"/>
<path d="M40.3092 62.2257C36.7287 62.2257 33.1483 62.2203 29.5679 62.2177V62.1697V62.1218C32.9539 62.1218 36.3398 62.1218 39.7231 62.1218C39.9202 62.1218 40.136 62.0605 40.3092 62.2257Z" fill="#62439D"/>
<path d="M52.0734 62.3402C55.6192 62.3402 59.1649 62.3402 62.7107 62.3402C62.5615 62.4974 62.3644 62.4521 62.1859 62.4521C58.9332 62.4521 55.6804 62.4548 52.4277 62.4494C52.3105 62.4494 52.132 62.5613 52.076 62.3402H52.0734Z" fill="#583D8E"/>
<path d="M29.4534 73.6595C31.2889 73.6595 33.1244 73.6595 34.9599 73.6595C34.9599 75.5616 34.9599 77.4611 34.9625 79.3632C34.7894 79.579 34.5416 79.5843 34.3019 79.5869C32.9086 79.5976 31.5153 79.5949 30.122 79.5869C29.8796 79.5869 29.6372 79.5656 29.4374 79.4031C29.2323 79.1767 29.2323 78.8943 29.2323 78.6146C29.2269 77.2213 29.2269 75.8307 29.2323 74.4374C29.2323 74.1604 29.2243 73.8753 29.456 73.6622L29.4534 73.6595Z" fill="#FD9766"/>
<path d="M40.7354 84.8564C38.804 84.8564 36.8726 84.8564 34.9439 84.859L34.9306 84.8457C34.7281 84.6406 34.7201 84.3768 34.7201 84.1131C34.7148 82.8637 34.7068 81.6169 34.7201 80.3675C34.7307 79.5363 34.7787 79.4697 35.6099 79.4111C37.2083 79.2993 38.812 79.3818 40.4131 79.3685C40.5276 79.3685 40.6315 79.4165 40.7301 79.4644C40.8047 81.26 40.7967 83.0555 40.7354 84.8537V84.8564Z" fill="#FD9767"/>
<path d="M40.7327 79.4671C39.0411 79.4671 37.3495 79.4724 35.6605 79.4751C34.9492 79.4751 34.9465 79.4751 34.9439 80.221C34.9385 81.7635 34.9359 83.3059 34.9332 84.8484C33.2735 84.851 31.6139 84.8431 29.9569 84.8644C29.5573 84.8697 29.4454 84.7258 29.4507 84.3449C29.4667 82.7598 29.456 81.1747 29.4507 79.5923C29.4134 79.563 29.3948 79.523 29.3894 79.4751C29.3948 79.4538 29.4028 79.4298 29.4081 79.4085C29.4241 79.3925 29.4427 79.3765 29.4587 79.3605C31.2942 79.3605 33.1297 79.3605 34.9652 79.3605C35.181 79.3605 35.3968 79.3605 35.6125 79.3632C36.7394 79.2407 37.8663 79.3286 38.9932 79.3153C39.5446 79.3099 40.1014 79.246 40.6502 79.3632C40.6768 79.3978 40.7034 79.4325 40.7327 79.4671Z" fill="#FE7161"/>
<path d="M40.6502 79.3659C38.9719 79.3659 37.2909 79.3659 35.6125 79.3659C35.7271 79.2407 35.8789 79.2566 36.0255 79.2566C37.4294 79.2566 38.8333 79.2566 40.2399 79.2566C40.3864 79.2566 40.5383 79.2407 40.6528 79.3685L40.6502 79.3659Z" fill="#3C2661"/>
<path d="M40.9059 84.2569V79.848C40.9219 79.848 40.9379 79.848 40.9539 79.848V84.2569C40.9379 84.2569 40.9219 84.2569 40.9059 84.2569Z" fill="#42256B"/>
<path d="M46.3618 22.8145C46.3564 21.1175 46.3538 19.4179 46.3484 17.7209C46.3484 17.4812 46.3884 17.2334 46.2525 17.0096C50.062 17.0096 53.8716 17.0096 57.6837 17.0123C57.7157 17.0656 57.7264 17.1242 57.7157 17.1881C57.6944 17.2787 57.6544 17.3666 57.6358 17.4599C57.5905 18.9384 57.6278 20.4142 57.6171 21.8928C57.6171 22.0819 57.6758 22.2551 57.7024 22.4389C57.7184 22.8198 57.4893 22.969 57.1563 23.017C56.9725 23.0436 56.7833 23.0383 56.5968 23.0383C53.5039 23.0383 50.411 23.0383 47.3155 23.0383C46.9825 23.0383 46.6361 23.0729 46.3618 22.8145Z" fill="#755AC0"/>
<path d="M57.6545 17.1002C57.6678 17.0709 57.6758 17.0416 57.6811 17.0123C59.5752 17.0123 61.472 17.0123 63.3661 17.0123C63.3661 17.0469 63.3661 17.0815 63.3607 17.1162C63.3048 18.9756 63.2941 20.8351 63.3661 22.6919C63.3687 22.7319 63.3741 22.7718 63.3767 22.8118C63.3501 22.8384 63.3261 22.8651 63.2995 22.8944C63.2355 22.9343 63.1689 22.9636 63.097 22.9876C61.4586 23.0915 59.8203 23.0302 58.1819 23.0196C57.8303 23.0196 57.6198 22.8864 57.5985 22.4522C57.5133 20.7765 57.5799 19.1008 57.5665 17.4225C57.5665 17.308 57.6145 17.2041 57.6545 17.1002Z" fill="#BEB9EF"/>
<path d="M34.9678 11.4845C33.1324 11.4898 31.2942 11.4952 29.4587 11.5005C29.2323 11.2847 29.2323 10.9997 29.2323 10.7199C29.2269 9.41458 29.2296 8.10922 29.2323 6.80386C29.2323 6.52148 29.2376 6.2391 29.448 6.01532C31.2862 6.01798 33.1244 6.02065 34.9625 6.02598C34.9652 7.84815 34.9705 9.66766 34.9732 11.4898L34.9678 11.4845Z" fill="#FD9767"/>
<path d="M40.9858 16.9803C40.9485 16.9936 40.9139 16.991 40.8766 16.9777C40.8766 15.2381 40.8766 13.4958 40.8766 11.7562H40.9858V16.983V16.9803Z" fill="#43256B"/>
<path d="M63.4939 56.7405C63.4593 56.7432 63.4247 56.7458 63.39 56.7485C63.1236 56.5247 63.1663 56.213 63.1636 55.9227C63.1529 54.6599 63.1636 53.3972 63.1583 52.1345C63.1583 51.5519 62.8741 51.2598 62.3058 51.258C61.0244 51.2553 59.743 51.266 58.4616 51.25C58.1659 51.2474 57.8116 51.3193 57.6491 50.9383C57.8702 50.6693 58.1846 50.7119 58.475 50.7092C59.8149 50.6986 61.1523 50.7092 62.4923 50.7012C62.7267 50.7012 62.9851 50.7545 63.1609 50.5227C63.2888 50.3283 63.3314 50.1178 63.3288 49.8861C63.3261 48.6979 63.3314 47.5098 63.3234 46.3216C63.3208 45.7675 63.1769 45.605 62.6414 45.605C61.1922 45.605 59.7457 45.5757 58.2965 45.621C58.054 45.6663 57.8063 45.6503 57.5639 45.6743C56.0161 45.6316 54.4683 45.6716 52.9205 45.6556C52.0094 45.6476 51.8523 45.4905 51.8496 44.5687C51.8443 43.2074 51.8389 41.8461 51.8496 40.4848C51.8576 39.619 52.0787 39.4006 52.9578 39.3926C54.2259 39.3792 55.4939 39.3926 56.762 39.3872C57.3854 39.3819 57.4387 39.3313 57.444 38.7186C57.452 37.4878 57.444 36.257 57.4493 35.0263C57.4546 34.0672 57.6092 33.9074 58.5469 33.9021C59.8895 33.8967 61.2322 33.8994 62.5748 33.9021C62.8546 33.9021 63.1369 33.8914 63.3874 34.0566C63.6191 34.2697 63.6111 34.5521 63.6085 34.8345C63.5978 36.1212 63.6005 37.4052 63.6058 38.6919C63.6085 39.3393 63.6591 39.3899 64.3118 39.3926C67.4047 39.3979 70.4976 39.3926 73.5905 39.3979C73.9341 39.3979 74.3098 39.3153 74.5842 39.6297C74.4057 39.7762 74.1925 39.7229 73.9927 39.7229C72.5409 39.7256 71.0863 39.7442 69.6344 39.7149C69.1309 39.7043 68.9658 39.8374 68.9684 40.3649C68.9924 43.8841 68.9818 47.4059 68.9818 50.925C68.742 51.1568 68.4383 51.1435 68.1399 51.1435C66.8905 51.1488 65.6411 51.1408 64.389 51.1488C63.763 51.1515 63.7204 51.1941 63.715 51.8175C63.707 53.1788 63.715 54.5401 63.7097 55.904C63.7097 56.1997 63.7284 56.5088 63.4913 56.7459L63.4939 56.7405Z" fill="#6D84CD"/>
<path d="M74.5842 39.627C71.0757 39.6243 67.5672 39.6056 64.0587 39.6323C63.4886 39.6376 63.3767 39.4325 63.3821 38.9343C63.4007 37.3306 63.3874 35.7295 63.3847 34.1258C63.2728 33.902 63.2702 33.6596 63.2702 33.4172C63.2702 31.928 63.2728 30.4415 63.2702 28.9523C63.2702 28.7499 63.1743 28.4861 63.4913 28.4035C63.6964 28.2943 63.9202 28.305 64.1413 28.305C65.7504 28.305 67.3594 28.305 68.9711 28.3076C68.9765 28.3449 68.9818 28.3796 68.9871 28.4169C69.0351 28.4701 69.075 28.5287 69.107 28.5927C69.2216 28.8591 69.1949 29.1415 69.1949 29.4212C69.2002 30.7079 69.2056 31.9973 69.1922 33.284C69.1869 33.7395 69.3494 33.9153 69.8103 33.91C71.1157 33.894 72.4237 33.902 73.729 33.91C74.0247 33.91 74.3338 33.8887 74.5735 34.1205C74.8 34.235 74.7946 34.4428 74.7946 34.6506C74.7893 36.3103 74.784 37.97 74.7813 39.6296C74.7147 39.6296 74.6481 39.6296 74.5789 39.6296L74.5842 39.627Z" fill="#88C6DD"/>
<path d="M80.3038 45.4052C78.4709 45.4158 76.6381 45.4238 74.8053 45.4345C74.8 43.4977 74.7973 41.5637 74.792 39.627C76.4516 39.6216 78.1086 39.619 79.7683 39.611C79.9788 39.611 80.1839 39.6056 80.2958 39.8347C80.2984 41.6916 80.3011 43.5484 80.3038 45.4052Z" fill="#A7A2D2"/>
<path d="M74.6881 56.6259C74.5602 56.5114 74.5815 56.3569 74.5815 56.2077C74.5815 54.6226 74.5815 53.0402 74.5815 51.4551C74.5815 51.3086 74.5629 51.1541 74.6881 51.0369C74.6881 52.899 74.6881 54.7611 74.6881 56.6233V56.6259Z" fill="#8680C9"/>
<path d="M63.4966 28.4009C63.4966 29.7435 63.5073 31.0862 63.4833 32.4262C63.4726 32.9909 63.6112 33.569 63.39 34.1231C61.6931 34.1231 59.9988 34.1471 58.3018 34.1125C57.7637 34.1018 57.6465 34.2883 57.6571 34.7838C57.6864 36.217 57.6545 37.6529 57.6758 39.0888C57.6811 39.5124 57.5372 39.6296 57.127 39.6243C55.6538 39.603 54.1806 39.6323 52.7101 39.6056C52.2172 39.5976 52.0627 39.7655 52.0707 40.2503C52.0947 41.7794 52.1 43.3086 52.0681 44.8351C52.0574 45.3519 52.2439 45.4558 52.7154 45.4478C54.1513 45.4211 55.5845 45.4371 57.0204 45.4371C57.2442 45.4371 57.4706 45.4158 57.6704 45.5517C57.8995 45.7435 57.8942 46.0125 57.8942 46.271C57.9022 47.5763 57.8995 48.8817 57.8942 50.187C57.8942 50.4508 57.8836 50.7118 57.6838 50.9196C57.8516 51.0955 58.07 51.0235 58.2672 51.0235C59.775 51.0289 61.2855 51.0422 62.7933 51.0182C63.2489 51.0102 63.4087 51.1354 63.4007 51.6096C63.3767 53.3226 63.3927 55.0355 63.3954 56.7485L63.39 56.7511C63.1663 56.9616 62.8839 56.9669 62.6015 56.9669C59.3754 56.9696 56.1493 56.9669 52.9232 56.9696C52.6168 56.9696 52.3318 56.9163 52.0707 56.7538C50.1686 56.7485 48.2665 56.7431 46.3644 56.7378C46.3644 55.0115 46.3458 53.2826 46.3671 51.5563C46.3724 51.0661 46.2073 50.9116 45.7224 50.917C44.0707 50.9383 42.4164 50.9223 40.762 50.9223C40.5276 50.6825 40.5436 50.3788 40.5436 50.0805C40.5383 48.8311 40.5463 47.579 40.5383 46.3296C40.5356 45.7062 40.493 45.6636 39.8669 45.6582C38.5056 45.6502 37.1417 45.6582 35.7804 45.6529C35.482 45.6529 35.1783 45.6662 34.9332 45.4451C33.1084 45.4345 31.2835 45.4238 29.4587 45.4131C29.456 45.3812 29.4507 45.3492 29.448 45.3172C29.3308 44.0811 29.4187 42.8424 29.4028 41.6063C29.3974 41.1667 29.3335 40.7218 29.448 40.2849C29.5519 39.7388 29.3202 39.587 28.782 39.6003C27.3302 39.6349 25.8756 39.5817 24.4237 39.6269C23.8297 39.6456 23.7071 39.4458 23.7205 38.897C23.7577 37.5757 23.7338 36.2517 23.7311 34.9303C23.7311 34.7305 23.7817 34.5174 23.6379 34.3389C23.6379 34.2803 23.6379 34.219 23.6379 34.1604C23.6698 34.1418 23.7018 34.1258 23.7338 34.1098C25.6385 34.1098 27.5406 34.1098 29.4454 34.1125C29.7224 33.8594 30.0688 33.902 30.4018 33.8993C33.2895 33.8967 36.1773 33.9047 39.0651 33.894C40.7567 33.8887 40.5196 34.1045 40.5356 32.3969C40.5463 31.2966 40.5356 30.1991 40.5409 29.0988C40.5409 28.8218 40.5276 28.534 40.7487 28.3103C42.3711 28.3049 43.9935 28.3049 45.6185 28.2943C45.8343 28.2943 46.0714 28.3636 46.2579 28.1851C46.2898 28.1851 46.3218 28.1851 46.3538 28.1851C46.4896 28.1584 46.6202 28.0998 46.7614 28.0865C51.9029 28.0599 57.0471 28.0812 62.1886 28.0732C62.4656 28.0732 62.7507 28.1238 63.0091 27.9826C63.2142 27.7801 63.2196 27.5244 63.2196 27.2607C63.2169 26.0219 63.2169 24.7831 63.2196 23.5417C63.2196 23.286 63.1796 23.0169 63.3847 22.8065L63.3821 22.8118C63.4247 22.8224 63.4673 22.8304 63.5099 22.8411C63.5073 24.6952 63.5046 26.5467 63.4993 28.4009H63.4966Z" fill="#A7A2D2"/>
<path d="M40.7487 28.3156C40.754 30.0872 40.7487 31.8587 40.7727 33.6303C40.778 34.0379 40.6208 34.1311 40.2452 34.1311C36.6462 34.1178 33.0471 34.1178 29.448 34.1151C29.456 32.1837 29.4667 30.255 29.4747 28.3236C31.2969 28.3156 33.119 28.3076 34.9412 28.2996C34.9785 28.2996 35.0158 28.2996 35.0504 28.2996C35.0851 28.2304 35.1224 28.2277 35.1597 28.297C37.0218 28.3023 38.8839 28.3103 40.7461 28.3156H40.7487Z" fill="#827CC2"/>
<path d="M40.8739 22.8145C40.8739 21.1015 40.8872 19.3859 40.8659 17.6729C40.8606 17.244 40.9752 17.0842 41.4307 17.0949C42.84 17.1215 44.2519 17.1055 45.6638 17.2147C44.3478 17.2147 43.0318 17.2147 41.7131 17.2147C41.2282 17.2147 40.9858 17.4589 40.9858 17.9473C40.9858 19.567 40.9858 21.1894 40.9858 22.8091C40.9485 22.8091 40.9112 22.8118 40.8739 22.8145Z" fill="#ADA8D8"/>
<path d="M35.1623 28.297C35.125 28.305 35.0904 28.305 35.0531 28.2996C35.0531 26.5094 35.0531 24.7192 35.0558 22.929C35.2209 23.0995 35.1597 23.3153 35.1597 23.5124C35.165 25.1082 35.1597 26.7012 35.1597 28.297H35.1623Z" fill="#C6BDFB"/>
<path d="M18.1287 11.5164C16.2666 11.5138 14.4044 11.5085 12.5396 11.5058C12.2759 11.3939 12.3292 11.1541 12.3106 10.9437C12.1933 9.91272 12.2759 8.87909 12.2653 7.84812C12.2599 7.31532 12.1987 6.77986 12.3079 6.24972C12.3185 6.09788 12.3905 5.98333 12.5263 5.91406C13.2216 6.03394 13.9249 5.94603 14.6229 5.96201C15.7125 5.98865 16.8047 5.93804 17.8943 5.98865C17.9636 5.98865 18.0328 5.99132 18.1021 5.99398C18.1687 6.02861 18.2193 6.07923 18.2566 6.14317C18.3418 6.31366 18.3525 6.50014 18.3525 6.68662C18.3605 8.05858 18.3605 9.43054 18.3525 10.8052C18.3525 11.0449 18.3525 11.2927 18.1633 11.4818L18.1261 11.5218L18.1287 11.5164Z" fill="#8A0975"/>
<path d="M18.1394 0.175842C18.3631 0.277074 18.5896 0.18117 18.816 0.197154C19.7165 0.317034 20.6222 0.223794 21.5226 0.24777C22.1327 0.263754 22.7428 0.239778 23.3528 0.258426C23.5899 0.378305 23.6245 0.59409 23.6245 0.825857C23.6272 2.26175 23.6379 3.69498 23.6219 5.13088C23.6139 5.80487 23.55 5.84749 22.8706 5.84749C21.6585 5.84749 20.4491 5.85016 19.5859 5.84749C20.6675 5.8395 22.0954 5.86881 23.526 5.83417C23.6006 5.85282 23.6485 5.90077 23.6645 5.97803C23.6325 6.04729 23.5846 6.09791 23.5206 6.13254C23.2969 6.24443 23.0518 6.23644 22.812 6.23644C21.5333 6.2391 20.2573 6.24177 18.9785 6.23644C18.6828 6.23644 18.3791 6.25242 18.142 6.02065L18.1047 5.98869C18.1154 4.21979 18.1287 2.45356 18.134 0.684666C18.134 0.522162 18.0728 0.359658 18.0381 0.197154C18.0728 0.19449 18.1047 0.186498 18.1394 0.175842Z" fill="#8A0975"/>
<path d="M12.4304 0.88446C12.6782 1.30804 12.9686 1.31603 13.2749 1.31603C14.5057 1.3107 15.7338 1.32668 16.9619 1.30804C17.3508 1.30271 17.4867 1.43058 17.476 1.82219C17.4521 2.64004 17.4707 3.46055 17.4681 4.28106C17.4681 4.59807 17.4254 4.92308 17.8037 5.09091C17.8703 5.12022 17.9476 5.24276 17.9369 5.30936C17.9156 5.43457 17.7824 5.45588 17.6679 5.45588C16.0295 5.45588 14.3885 5.45588 12.7501 5.45588C12.4145 5.45588 12.4278 5.21879 12.4278 4.98968C12.4278 3.66834 12.4278 2.347 12.4278 0.88446H12.4304Z" fill="#380762"/>
<path d="M17.9742 0.697973L12.465 0.697973C12.465 0.663341 12.4651 0.631373 12.4677 0.596741L17.9875 0.596741C17.9822 0.631373 17.9769 0.663341 17.9715 0.697973H17.9742Z" fill="#380762"/>
<path d="M12.3212 5.79421C12.3212 5.71962 12.3212 5.64503 12.3212 5.57043H17.9103C17.9103 5.64503 17.9103 5.71962 17.9103 5.79421H12.3212Z" fill="#380762"/>
<path d="M17.8969 5.98332C16.2106 5.99131 14.5243 5.9993 12.838 6.00197C12.7341 6.00197 12.6302 5.9407 12.529 5.90873C14.1567 5.90873 15.7871 5.90606 17.4148 5.90606C17.5773 5.90606 17.7504 5.87143 17.8969 5.98332Z" fill="#380762"/>
<path d="M12.3105 6.24707C12.3105 7.81084 12.3105 9.37727 12.3105 10.941C12.22 10.8584 12.204 10.7492 12.204 10.6347C12.204 9.27337 12.204 7.91473 12.204 6.55343C12.204 6.43888 12.22 6.32965 12.3079 6.24707H12.3105Z" fill="#30085C"/>
<path d="M6.68152 6.2817V11.0183C6.66553 11.0183 6.64689 11.0183 6.6309 11.0183V6.23907C6.64689 6.25239 6.66553 6.26571 6.68152 6.2817Z" fill="#370C44"/>
<path d="M12.3132 79.3711C10.7734 79.3711 9.23365 79.3658 7.69386 79.3711C7.47807 79.3711 7.24364 79.2992 7.0545 79.4777C6.77478 79.3365 6.83072 79.0754 6.83072 78.841C6.83072 77.1121 6.83072 75.3831 6.83072 73.6542C7.59796 73.4491 8.37851 73.561 9.15373 73.5503C10.2087 73.5343 11.2636 73.5024 12.3132 73.6489L12.3239 73.6595C12.4677 73.8167 12.4784 73.9979 12.4118 74.1897C12.3692 75.7268 12.2946 77.2666 12.4677 78.801C12.497 79.0062 12.4784 79.2006 12.3266 79.3605L12.3159 79.3711H12.3132Z" fill="#380762"/>
<path d="M29.4454 6.01C29.4507 7.83751 29.4534 9.66767 29.4587 11.4952C27.5566 11.4952 25.6518 11.4952 23.7498 11.4978C23.4514 11.3487 23.4194 11.0689 23.4168 10.7866C23.4034 9.39861 23.4061 8.01067 23.4168 6.62272C23.4168 6.39628 23.4647 6.1805 23.6272 6.00734V6.01C23.6512 5.97271 23.6778 5.95939 23.7071 5.97004C23.7364 5.9807 23.7524 5.99136 23.7524 6.00201L29.4507 6.01H29.4454Z" fill="#FE7161"/>
<path d="M23.7444 6.00464C23.7018 6.00464 23.6592 6.00997 23.6192 6.01263C23.6139 5.978 23.6086 5.94071 23.6059 5.90607C23.5153 5.7116 23.5553 5.50914 23.5553 5.30667C23.5659 3.67098 23.6032 2.03262 23.5366 0.396925C23.55 0.324997 23.5819 0.261062 23.6272 0.202454C23.6645 0.202454 23.7018 0.202454 23.7391 0.202454C23.7391 0.237086 23.7391 0.271717 23.7391 0.306349C23.7391 1.95536 23.7524 3.60172 23.7178 5.25073C23.7125 5.50647 23.9682 5.75423 23.7418 6.00731L23.7444 6.00464Z" fill="#EE3A65"/>
<path d="M63.4939 56.7405C63.4939 54.9876 63.5073 53.2347 63.4833 51.4818C63.478 51.0342 63.6218 50.9064 64.0587 50.9143C65.6997 50.9357 67.3408 50.9223 68.9818 50.9223C68.9818 52.8591 68.9818 54.7958 68.9791 56.7352C67.1516 56.7352 65.3214 56.7405 63.4939 56.7405Z" fill="#5E75C2"/>
<path d="M12.3239 79.3578C12.3212 79.1714 12.3159 78.9849 12.3132 78.8011C12.228 77.2719 12.2306 75.7428 12.3132 74.2137C12.3159 74.0272 12.3212 73.8434 12.3239 73.6569C14.2233 73.6542 16.1227 73.6516 18.0222 73.6462C18.0967 73.6143 18.1607 73.6303 18.2113 73.6942C18.3392 73.87 18.3525 74.0751 18.3552 74.2803C18.3658 75.7694 18.3658 77.2613 18.3552 78.7505C18.3552 78.9183 18.3392 79.0861 18.2646 79.2406C18.2299 79.3072 18.1793 79.3578 18.1127 79.3925C16.184 79.3792 14.2526 79.3685 12.3239 79.3552V79.3578Z" fill="#8A0975"/>
<path d="M18.142 73.6542C18.1021 73.6542 18.0594 73.6515 18.0195 73.6488C18.0648 73.5742 18.1101 73.5023 18.1553 73.4277C19.7537 73.4277 21.3495 73.4171 22.9479 73.4384C23.3768 73.4437 23.5366 73.3292 23.526 72.8763C23.4993 71.539 23.5126 70.2016 23.518 68.8643C23.518 68.6672 23.4594 68.4514 23.6219 68.2809C23.811 68.4301 23.787 68.6432 23.7897 68.8457C23.795 70.2229 23.7977 71.5976 23.7897 72.9748C23.7844 73.5716 23.6565 73.7314 23.0864 73.7474C21.5813 73.7927 20.0734 73.7527 18.5683 73.774C18.4164 73.774 18.2752 73.7341 18.142 73.6568V73.6542Z" fill="#830573"/>
<path d="M23.6299 84.2916C23.4594 84.1238 23.5206 83.908 23.5206 83.7082C23.5153 82.536 23.502 81.3639 23.526 80.1917C23.534 79.7228 23.3581 79.5763 22.9026 79.5816C21.3202 79.6003 19.7378 79.5896 18.158 79.5896C18.1447 79.5257 18.1287 79.4591 18.1154 79.3952L18.1474 79.3579C18.3019 79.2007 18.499 79.1527 18.7095 79.1527C20.18 79.1368 21.6478 79.1368 23.1184 79.1527C23.2676 79.1527 23.4141 79.182 23.5499 79.254C23.6165 79.2913 23.6645 79.3445 23.6965 79.4138C23.6778 80.8577 23.6938 82.3016 23.6858 83.7455C23.6858 83.9266 23.7338 84.1158 23.6325 84.2889L23.6299 84.2916Z" fill="#840474"/>
<path d="M74.5815 34.1152C72.8845 34.1178 71.1849 34.1125 69.4879 34.1312C69.0963 34.1365 68.9685 34.0086 68.9738 33.617C68.9924 31.92 68.9871 30.2204 68.9898 28.5234C69.464 28.4062 69.9461 28.4675 70.423 28.4755C71.8456 28.4915 73.2682 28.4036 74.6881 28.5234C74.6881 28.5661 74.6881 28.6087 74.6881 28.6487C74.5762 29.922 74.6747 31.1954 74.6374 32.4688C74.6215 32.983 74.704 33.4998 74.5842 34.0113C74.5842 34.0459 74.5842 34.0806 74.5842 34.1152H74.5815Z" fill="#BEB9EF"/>
<path d="M74.6854 28.5234C72.786 28.5234 70.8865 28.5234 68.9898 28.5234V28.4675L68.9951 28.4142C70.7001 28.4142 72.4024 28.4142 74.1073 28.4142C74.3044 28.4142 74.5202 28.3502 74.6881 28.5181L74.6854 28.5234Z" fill="#C1BEF6"/>
<path d="M85.7543 39.7255C85.7543 41.5877 85.7596 43.4498 85.7623 45.3146C85.6131 45.1361 85.6717 44.923 85.6717 44.7259C85.6664 43.2979 85.6691 41.8674 85.6717 40.4395C85.6717 40.1997 85.6904 39.9546 85.5705 39.7309C85.6344 39.7309 85.6957 39.7282 85.7596 39.7255H85.7543Z" fill="#CBC4FA"/>
<path d="M74.5815 34.0113C74.5815 32.4182 74.5815 30.8251 74.5815 29.2294C74.5815 29.0323 74.5176 28.8165 74.6827 28.646C74.6827 30.2577 74.6881 31.8721 74.6854 33.4838C74.6854 33.665 74.7333 33.8594 74.5788 34.0086L74.5815 34.0113Z" fill="#C3BFF7"/>
<path d="M63.2702 28.2997C57.7077 28.2997 52.1453 28.2997 46.5829 28.2997C46.3351 28.1531 46.4204 27.9054 46.4204 27.6976C46.415 26.291 46.4204 24.8844 46.415 23.4778C46.415 23.2967 46.4577 23.1075 46.3671 22.9317C46.3671 22.8918 46.3644 22.8518 46.3618 22.8145C49.9102 22.8145 53.4587 22.8145 57.0071 22.8172C57.3321 22.8172 57.6251 22.8198 57.5585 22.3643C57.4413 21.629 57.5106 20.8884 57.5106 20.1532C57.5133 19.1755 57.4413 18.1951 57.5559 17.2174C57.5878 17.1775 57.6225 17.1402 57.6545 17.1002C57.6598 18.8292 57.6758 20.5554 57.6598 22.2844C57.6544 22.7053 57.7876 22.8225 58.1979 22.8198C59.8895 22.8065 61.5785 22.8225 63.2702 22.8278C63.39 23.8028 63.3154 24.7805 63.3181 25.7582C63.3181 26.6054 63.3927 27.4552 63.2702 28.2997Z" fill="#827CC2"/>
<path d="M46.3671 22.9317C46.5323 23.1022 46.4683 23.318 46.471 23.5178C46.4763 24.8764 46.4737 26.2351 46.471 27.5937C46.471 27.8361 46.4497 28.0785 46.5829 28.2997C46.487 28.2997 46.4071 28.2757 46.3511 28.1904C46.3564 26.4375 46.3618 24.6846 46.3671 22.9317Z" fill="#7E77B9"/>
<path d="M23.7497 34.0059C23.7497 32.1438 23.7551 30.279 23.7577 28.4169C23.8004 28.4462 23.8776 28.4781 23.8776 28.5074C23.8723 30.255 23.8643 32.0053 23.8457 33.7529C23.8457 33.8381 23.7817 33.9207 23.7497 34.0033V34.0059Z" fill="#785CC7"/>
<path d="M23.6219 6.00732C23.6246 7.60306 23.6272 9.20146 23.6325 10.7972C23.6325 11.037 23.5979 11.282 23.7444 11.5005C23.7071 11.5005 23.6725 11.5005 23.6352 11.5005C21.813 11.4925 19.9882 11.4845 18.166 11.4765C18.158 9.657 18.15 7.83749 18.142 6.02065C19.9669 6.01798 21.7944 6.01265 23.6192 6.00999L23.6219 6.00732Z" fill="#EE3A65"/>
<path d="M29.4534 73.6596C29.4534 75.559 29.4534 77.4584 29.456 79.3605L29.4374 79.3792C29.3148 79.4911 29.163 79.4777 29.0138 79.4777C27.2796 79.4724 25.548 79.4937 23.8137 79.4671C23.7444 79.4458 23.6778 79.4138 23.6192 79.3712C23.4407 79.1794 23.4088 78.9423 23.4088 78.6945C23.4034 77.2213 23.3954 75.7455 23.4141 74.2723C23.4194 73.9686 23.4034 73.6116 23.843 73.5477C23.9469 73.6463 24.0774 73.6463 24.2106 73.6463C25.7957 73.6463 27.3781 73.6489 28.9632 73.6409C29.1257 73.6409 29.2882 73.577 29.4507 73.5424C29.4507 73.5797 29.4507 73.6169 29.4507 73.6542L29.4534 73.6596Z" fill="#FE7161"/>
<path d="M34.9439 68.1744C34.9412 68.209 34.9385 68.2436 34.9385 68.2783H29.7038C29.7038 68.2436 29.7038 68.209 29.7038 68.1744H34.9465H34.9439Z" fill="#FB776A"/>
<path d="M23.6219 79.3685C23.6645 79.3685 23.7045 79.3685 23.7471 79.3712C24.9459 79.4831 26.1473 79.3818 27.3461 79.4218C28.0441 79.4458 28.7474 79.3472 29.4454 79.4751C29.4454 79.5124 29.448 79.5497 29.4507 79.587C27.8709 79.587 26.2912 79.587 24.7114 79.587C24.2142 79.587 23.9655 79.8436 23.9655 80.3569C23.9655 81.5823 23.9655 82.8077 23.8563 84.0332V79.7228C23.819 79.7228 23.779 79.7228 23.7417 79.7228C23.7417 81.4304 23.7417 83.1407 23.7417 84.8484C23.5712 84.6885 23.6778 84.4727 23.6299 84.2889C23.6299 82.6479 23.6245 81.0069 23.6219 79.3658V79.3685Z" fill="#EE3A65"/>
<path d="M23.8457 73.5477C23.5659 73.6915 23.6352 73.9553 23.6352 74.1897C23.6299 75.916 23.6272 77.6449 23.6245 79.3712C21.7997 79.3658 19.9722 79.3632 18.1474 79.3579C18.1474 77.4558 18.1474 75.5537 18.1447 73.6516C18.539 73.4891 18.9545 73.5743 19.3568 73.5663C20.6249 73.545 21.8929 73.5477 23.161 73.5663C23.5206 73.5717 23.6538 73.4571 23.6485 73.0868C23.6299 71.4831 23.6325 69.8794 23.6245 68.2756C23.6592 68.2357 23.6938 68.193 23.7284 68.1531L23.7497 68.1717C23.7844 68.233 23.8004 68.3023 23.7977 68.3742C23.7977 69.9726 23.7977 71.571 23.803 73.1667C23.7977 71.5577 23.7924 69.9486 23.8084 68.3422C23.8377 68.2596 23.8909 68.2383 23.9682 68.2756C23.9682 69.8394 23.9682 71.4005 23.9682 72.9643C23.9682 73.1614 24.0268 73.3798 23.851 73.545L23.8457 73.5477Z" fill="#EE3A65"/>
<path d="M23.7418 68.2756C23.7418 68.241 23.7418 68.209 23.7471 68.1744C25.4894 68.1744 27.2316 68.1744 28.9739 68.1744C28.9739 68.209 28.9739 68.2436 28.9739 68.2783C27.3035 68.2783 25.6332 68.2783 23.9629 68.2783C23.9256 68.2783 23.8883 68.2783 23.851 68.2783C23.8137 68.3475 23.7764 68.3475 23.7418 68.2783V68.2756Z" fill="#F83969"/>
<path d="M52.0681 56.7538C55.8403 56.7538 59.6152 56.7538 63.3874 56.7512C63.3874 58.3709 63.3874 59.9932 63.3847 61.613C63.3847 61.8181 63.3847 62.0232 63.4726 62.215C59.6738 62.2177 55.8776 62.223 52.0787 62.2257C52.0761 60.4008 52.0734 58.5787 52.0707 56.7538H52.0681Z" fill="#827BC2"/>
<path d="M63.3661 22.6919C63.2648 22.588 63.2702 22.4575 63.2702 22.327C63.2702 20.7126 63.2702 19.0982 63.2702 17.4812C63.2702 17.3506 63.2622 17.2201 63.3607 17.1135C63.3607 18.973 63.3634 20.8325 63.3661 22.6893V22.6919Z" fill="#C9C4FA"/>
<path d="M23.6299 0.199808C23.6326 0.23444 23.6299 0.271735 23.6219 0.306367C23.5473 0.370303 23.4754 0.375631 23.4008 0.306367C22.0661 0.306367 20.7288 0.306368 19.3941 0.303704C19.197 0.303704 18.9812 0.364975 18.8107 0.197144C20.4171 0.197144 22.0208 0.199808 23.6272 0.202472L23.6299 0.199808Z" fill="#930878"/>
<path d="M29.448 40.285C29.448 41.9633 29.448 43.6416 29.448 45.3172C29.3388 45.2187 29.3388 45.0881 29.3388 44.9549C29.3388 43.519 29.3388 42.0832 29.3388 40.6446C29.3388 40.5141 29.3388 40.3809 29.448 40.2823V40.285Z" fill="#807AB9"/>
<path d="M34.9306 45.4451C36.6941 45.4425 38.4604 45.4531 40.2239 45.4238C40.6981 45.4158 40.7754 45.6076 40.77 46.0152C40.7514 47.6509 40.7621 49.284 40.7594 50.9197C38.82 50.9197 36.8806 50.917 34.9412 50.9143C34.9386 49.0895 34.9332 47.2673 34.9279 45.4425L34.9306 45.4451Z" fill="#827CC2"/>
<path d="M29.4427 79.4777C27.7378 79.4777 26.0328 79.4777 24.3278 79.4777C24.1307 79.4777 23.9149 79.5363 23.7444 79.3765C25.6412 79.3765 27.5406 79.3791 29.4374 79.3818C29.4427 79.4138 29.4454 79.4484 29.4427 79.4804V79.4777Z" fill="#EE3A65"/>
<path d="M57.5559 17.2174C57.5559 18.933 57.5559 20.6486 57.5559 22.3643C57.4307 22.2497 57.4467 22.0979 57.4467 21.9513C57.4467 20.5101 57.4467 19.0715 57.4467 17.6303C57.4467 17.4838 57.4307 17.332 57.5559 17.2174Z" fill="#6F54C3"/>
<path d="M63.2702 28.2996C63.2702 26.4748 63.2702 24.6526 63.2702 22.8278C63.3075 22.8198 63.3448 22.8144 63.3794 22.8065C63.3794 24.4448 63.382 26.0805 63.3794 27.7189C63.3794 27.916 63.4486 28.1318 63.2702 28.2996Z" fill="#7F78BB"/>
<path d="M57.6811 50.9197C57.6758 49.1294 57.6704 47.3419 57.6651 45.5517C57.825 45.3759 58.0381 45.4558 58.2325 45.4371C59.085 45.5597 59.9402 45.4691 60.7953 45.4878C61.5412 45.5037 62.2871 45.4931 63.0331 45.4904C63.2435 45.4904 63.4487 45.4718 63.4407 45.7888C63.4034 47.4245 63.5073 49.0628 63.3847 50.6985C63.2995 51.0236 63.0304 50.9143 62.8306 50.9143C61.115 50.9223 59.3994 50.917 57.6838 50.917L57.6811 50.9197Z" fill="#5E75C2"/>
<path d="M63.3821 50.6986C63.3821 49.284 63.3821 47.8694 63.3821 46.4575C63.3794 45.4505 63.4859 45.5491 62.5003 45.5464C61.2722 45.5437 60.0441 45.5464 58.816 45.5437C58.6188 45.5437 58.403 45.605 58.2325 45.4345C59.815 45.4345 61.3947 45.4345 62.9771 45.4345C63.2489 45.4345 63.4993 45.4159 63.4966 45.8181C63.486 47.3633 63.4939 48.9057 63.486 50.4508C63.486 50.5334 63.4194 50.616 63.3847 50.6986H63.3821Z" fill="#5E75C2"/>
<path d="M74.6508 34.8824V39.246C74.6321 39.246 74.6135 39.246 74.5948 39.246V34.8824C74.6135 34.8824 74.6321 34.8824 74.6508 34.8824Z" fill="#7FC8DC"/>
<path d="M23.4034 0.306335C23.478 0.306335 23.55 0.306335 23.6245 0.306335C23.6192 2.17113 23.6139 4.0386 23.6086 5.9034C22.0288 5.9034 20.4517 5.9034 18.872 5.9034L18.864 5.79151C19.0611 5.79151 19.2583 5.79151 19.4527 5.79151C20.6062 5.79151 21.7597 5.78352 22.9133 5.79684C23.2516 5.7995 23.454 5.7702 23.478 5.33596C23.5633 3.81216 23.4887 2.28835 23.5153 0.764543C23.518 0.599376 23.2836 0.495479 23.4061 0.306335H23.4034Z" fill="#820770"/>
<path d="M12.3105 74.2137C12.3105 75.7428 12.3105 77.2719 12.3105 78.8011C12.1454 78.6306 12.2066 78.4175 12.2066 78.2203C12.2013 77.1467 12.2066 76.0758 12.2013 75.0022C12.2013 74.7704 12.2173 74.5493 12.1001 74.3069C11.9775 74.0618 12.2466 74.2723 12.3105 74.211V74.2137Z" fill="#30085C"/>
<path d="M23.7418 68.2756C23.7791 68.2756 23.8137 68.2756 23.851 68.2756V73.2893C23.8137 73.2893 23.7791 73.2893 23.7418 73.2893V68.2729V68.2756Z" fill="#EE3A65"/>
</svg>
