<svg width="126" height="432" viewBox="0 0 126 432" fill="none" xmlns="http://www.w3.org/2000/svg">
<rect x="9.75" y="41.25" width="107.25" height="389.25" fill="#3AB549" stroke="black" stroke-width="3"/>
<rect x="1.5" y="1.5" width="123" height="42.75" fill="#39B447" stroke="black" stroke-width="3"/>
<rect x="3" y="11.25" width="13.5" height="31.5" fill="#A6CE38"/>
<rect x="11.25" y="45" width="13.5" height="384" fill="#A6CE38"/>
<rect x="24" y="6.75" width="17.25" height="36" fill="#A6CE38"/>
<rect x="32.25" y="45" width="17.25" height="384" fill="#A6CE38"/>
<rect x="45.75" y="11.25" width="6" height="31.5" fill="#A6CE38"/>
<rect x="117" y="11.25" width="6" height="31.5" fill="#A6CE38"/>
<rect x="54" y="45" width="6" height="384" fill="#A6CE38"/>
<rect x="109.5" y="45" width="6" height="384" fill="#A6CE38"/>
<rect x="3" y="3" width="120" height="3.75" fill="#A6CE38"/>
<rect x="11.25" y="45" width="104.25" height="4.2515" fill="black"/>
<rect x="105.75" y="48.75" width="3.75" height="3.75" fill="#A6CE38"/>
<rect x="105.75" y="56.25" width="3.75" height="3.75" fill="#A6CE38"/>
<rect x="105.75" y="63.75" width="3.75" height="3.75" fill="#A6CE38"/>
<rect x="105.75" y="71.25" width="3.75" height="3.75" fill="#A6CE38"/>
<rect x="105.75" y="78.75" width="3.75" height="3.75" fill="#A6CE38"/>
<rect x="105.75" y="86.25" width="3.75" height="3.75" fill="#A6CE38"/>
<rect x="105.75" y="93.75" width="3.75" height="3.75" fill="#A6CE38"/>
<rect x="105.75" y="101.25" width="3.75" height="3.75" fill="#A6CE38"/>
<rect x="105.75" y="108.75" width="3.75" height="3.75" fill="#A6CE38"/>
<rect x="105.75" y="116.25" width="3.75" height="3.75" fill="#A6CE38"/>
<rect x="105.75" y="123.75" width="3.75" height="3.75" fill="#A6CE38"/>
<rect x="105.75" y="131.25" width="3.75" height="3.75" fill="#A6CE38"/>
<rect x="105.75" y="138.75" width="3.75" height="3.75" fill="#A6CE38"/>
<rect x="105.75" y="146.25" width="3.75" height="3.75" fill="#A6CE38"/>
<rect x="105.75" y="153.75" width="3.75" height="3.75" fill="#A6CE38"/>
<rect x="105.75" y="161.25" width="3.75" height="3.75" fill="#A6CE38"/>
<rect x="105.75" y="168.75" width="3.75" height="3.75" fill="#A6CE38"/>
<rect x="105.75" y="176.25" width="3.75" height="3.75" fill="#A6CE38"/>
<rect x="105.75" y="183.75" width="3.75" height="3.75" fill="#A6CE38"/>
<rect x="105.75" y="191.25" width="3.75" height="3.75" fill="#A6CE38"/>
<rect x="105.75" y="198.75" width="3.75" height="3.75" fill="#A6CE38"/>
<rect x="105.75" y="206.25" width="3.75" height="3.75" fill="#A6CE38"/>
<rect x="105.75" y="213.75" width="3.75" height="3.75" fill="#A6CE38"/>
<rect x="105.75" y="221.25" width="3.75" height="3.75" fill="#A6CE38"/>
<rect x="105.75" y="228.75" width="3.75" height="3.75" fill="#A6CE38"/>
<rect x="105.75" y="236.25" width="3.75" height="3.75" fill="#A6CE38"/>
<rect x="105.75" y="243.75" width="3.75" height="3.75" fill="#A6CE38"/>
<rect x="105.75" y="251.25" width="3.75" height="3.75" fill="#A6CE38"/>
<rect x="105.75" y="258.75" width="3.75" height="3.75" fill="#A6CE38"/>
<rect x="105.75" y="266.25" width="3.75" height="3.75" fill="#A6CE38"/>
<rect x="105.75" y="273.75" width="3.75" height="3.75" fill="#A6CE38"/>
<rect x="105.75" y="281.25" width="3.75" height="3.75" fill="#A6CE38"/>
<rect x="105.75" y="288.75" width="3.75" height="3.75" fill="#A6CE38"/>
<rect x="105.75" y="296.25" width="3.75" height="3.75" fill="#A6CE38"/>
<rect x="105.75" y="303.75" width="3.75" height="3.75" fill="#A6CE38"/>
<rect x="105.75" y="311.25" width="3.75" height="3.75" fill="#A6CE38"/>
<rect x="105.75" y="318.75" width="3.75" height="3.75" fill="#A6CE38"/>
<rect x="105.75" y="326.25" width="3.75" height="3.75" fill="#A6CE38"/>
<rect x="105.75" y="333.75" width="3.75" height="3.75" fill="#A6CE38"/>
<rect x="105.75" y="341.25" width="3.75" height="3.75" fill="#A6CE38"/>
<rect x="105.75" y="348.75" width="3.75" height="3.75" fill="#A6CE38"/>
<rect x="105.75" y="356.25" width="3.75" height="3.75" fill="#A6CE38"/>
<rect x="105.75" y="363.75" width="3.75" height="3.75" fill="#A6CE38"/>
<rect x="105.75" y="371.25" width="3.75" height="3.75" fill="#A6CE38"/>
<rect x="105.75" y="378.75" width="3.75" height="3.75" fill="#A6CE38"/>
<rect x="105.75" y="386.25" width="3.75" height="3.75" fill="#A6CE38"/>
<rect x="105.75" y="393.75" width="3.75" height="3.75" fill="#A6CE38"/>
<rect x="105.75" y="401.25" width="3.75" height="3.75" fill="#A6CE38"/>
<rect x="105.75" y="408.75" width="3.75" height="3.75" fill="#A6CE38"/>
<rect x="105.75" y="416.25" width="3.75" height="3.75" fill="#A6CE38"/>
<rect x="105.75" y="423.75" width="3.75" height="3.75" fill="#A6CE38"/>
<rect x="98.25" y="48.75" width="3.75" height="3.75" fill="#A6CE38"/>
<rect x="98.25" y="56.25" width="3.75" height="3.75" fill="#A6CE38"/>
<rect x="98.25" y="63.75" width="3.75" height="3.75" fill="#A6CE38"/>
<rect x="98.25" y="71.25" width="3.75" height="3.75" fill="#A6CE38"/>
<rect x="98.25" y="78.75" width="3.75" height="3.75" fill="#A6CE38"/>
<rect x="98.25" y="86.25" width="3.75" height="3.75" fill="#A6CE38"/>
<rect x="98.25" y="93.75" width="3.75" height="3.75" fill="#A6CE38"/>
<rect x="98.25" y="101.25" width="3.75" height="3.75" fill="#A6CE38"/>
<rect x="98.25" y="108.75" width="3.75" height="3.75" fill="#A6CE38"/>
<rect x="98.25" y="116.25" width="3.75" height="3.75" fill="#A6CE38"/>
<rect x="98.25" y="123.75" width="3.75" height="3.75" fill="#A6CE38"/>
<rect x="98.25" y="131.25" width="3.75" height="3.75" fill="#A6CE38"/>
<rect x="98.25" y="138.75" width="3.75" height="3.75" fill="#A6CE38"/>
<rect x="98.25" y="146.25" width="3.75" height="3.75" fill="#A6CE38"/>
<rect x="98.25" y="153.75" width="3.75" height="3.75" fill="#A6CE38"/>
<rect x="98.25" y="161.25" width="3.75" height="3.75" fill="#A6CE38"/>
<rect x="98.25" y="168.75" width="3.75" height="3.75" fill="#A6CE38"/>
<rect x="98.25" y="176.25" width="3.75" height="3.75" fill="#A6CE38"/>
<rect x="98.25" y="183.75" width="3.75" height="3.75" fill="#A6CE38"/>
<rect x="98.25" y="191.25" width="3.75" height="3.75" fill="#A6CE38"/>
<rect x="98.25" y="198.75" width="3.75" height="3.75" fill="#A6CE38"/>
<rect x="98.25" y="206.25" width="3.75" height="3.75" fill="#A6CE38"/>
<rect x="98.25" y="213.75" width="3.75" height="3.75" fill="#A6CE38"/>
<rect x="98.25" y="221.25" width="3.75" height="3.75" fill="#A6CE38"/>
<rect x="98.25" y="228.75" width="3.75" height="3.75" fill="#A6CE38"/>
<rect x="98.25" y="236.25" width="3.75" height="3.75" fill="#A6CE38"/>
<rect x="98.25" y="243.75" width="3.75" height="3.75" fill="#A6CE38"/>
<rect x="98.25" y="251.25" width="3.75" height="3.75" fill="#A6CE38"/>
<rect x="98.25" y="258.75" width="3.75" height="3.75" fill="#A6CE38"/>
<rect x="98.25" y="266.25" width="3.75" height="3.75" fill="#A6CE38"/>
<rect x="98.25" y="273.75" width="3.75" height="3.75" fill="#A6CE38"/>
<rect x="98.25" y="281.25" width="3.75" height="3.75" fill="#A6CE38"/>
<rect x="98.25" y="288.75" width="3.75" height="3.75" fill="#A6CE38"/>
<rect x="98.25" y="296.25" width="3.75" height="3.75" fill="#A6CE38"/>
<rect x="98.25" y="303.75" width="3.75" height="3.75" fill="#A6CE38"/>
<rect x="98.25" y="311.25" width="3.75" height="3.75" fill="#A6CE38"/>
<rect x="98.25" y="318.75" width="3.75" height="3.75" fill="#A6CE38"/>
<rect x="98.25" y="326.25" width="3.75" height="3.75" fill="#A6CE38"/>
<rect x="98.25" y="333.75" width="3.75" height="3.75" fill="#A6CE38"/>
<rect x="98.25" y="341.25" width="3.75" height="3.75" fill="#A6CE38"/>
<rect x="98.25" y="348.75" width="3.75" height="3.75" fill="#A6CE38"/>
<rect x="98.25" y="356.25" width="3.75" height="3.75" fill="#A6CE38"/>
<rect x="98.25" y="363.75" width="3.75" height="3.75" fill="#A6CE38"/>
<rect x="98.25" y="371.25" width="3.75" height="3.75" fill="#A6CE38"/>
<rect x="98.25" y="378.75" width="3.75" height="3.75" fill="#A6CE38"/>
<rect x="98.25" y="386.25" width="3.75" height="3.75" fill="#A6CE38"/>
<rect x="98.25" y="393.75" width="3.75" height="3.75" fill="#A6CE38"/>
<rect x="98.25" y="401.25" width="3.75" height="3.75" fill="#A6CE38"/>
<rect x="98.25" y="408.75" width="3.75" height="3.75" fill="#A6CE38"/>
<rect x="98.25" y="416.25" width="3.75" height="3.75" fill="#A6CE38"/>
<rect x="98.25" y="423.75" width="3.75" height="3.75" fill="#A6CE38"/>
<rect x="113.25" y="11.25" width="3.75" height="3.75" fill="#A6CE38"/>
<rect x="113.25" y="18.75" width="3.75" height="3.75" fill="#A6CE38"/>
<rect x="113.25" y="26.25" width="3.75" height="3.75" fill="#A6CE38"/>
<rect x="113.25" y="33.75" width="3.75" height="3.75" fill="#A6CE38"/>
<rect x="109.5" y="15" width="3.75" height="3.75" fill="#A6CE38"/>
<rect x="109.5" y="22.5" width="3.75" height="3.75" fill="#A6CE38"/>
<rect x="109.5" y="30" width="3.75" height="3.75" fill="#A6CE38"/>
<rect x="109.5" y="37.5" width="3.75" height="3.75" fill="#A6CE38"/>
<rect x="105.75" y="11.25" width="3.75" height="3.75" fill="#A6CE38"/>
<rect x="105.75" y="18.75" width="3.75" height="3.75" fill="#A6CE38"/>
<rect x="105.75" y="26.25" width="3.75" height="3.75" fill="#A6CE38"/>
<rect x="105.75" y="33.75" width="3.75" height="3.75" fill="#A6CE38"/>
<rect x="102" y="52.5" width="3.75" height="3.75" fill="#A6CE38"/>
<rect x="102" y="60" width="3.75" height="3.75" fill="#A6CE38"/>
<rect x="102" y="67.5" width="3.75" height="3.75" fill="#A6CE38"/>
<rect x="102" y="75" width="3.75" height="3.75" fill="#A6CE38"/>
<rect x="102" y="82.5" width="3.75" height="3.75" fill="#A6CE38"/>
<rect x="102" y="90" width="3.75" height="3.75" fill="#A6CE38"/>
<rect x="102" y="97.5" width="3.75" height="3.75" fill="#A6CE38"/>
<rect x="102" y="105" width="3.75" height="3.75" fill="#A6CE38"/>
<rect x="102" y="112.5" width="3.75" height="3.75" fill="#A6CE38"/>
<rect x="102" y="120" width="3.75" height="3.75" fill="#A6CE38"/>
<rect x="102" y="127.5" width="3.75" height="3.75" fill="#A6CE38"/>
<rect x="102" y="135" width="3.75" height="3.75" fill="#A6CE38"/>
<rect x="102" y="142.5" width="3.75" height="3.75" fill="#A6CE38"/>
<rect x="102" y="150" width="3.75" height="3.75" fill="#A6CE38"/>
<rect x="102" y="157.5" width="3.75" height="3.75" fill="#A6CE38"/>
<rect x="102" y="165" width="3.75" height="3.75" fill="#A6CE38"/>
<rect x="102" y="172.5" width="3.75" height="3.75" fill="#A6CE38"/>
<rect x="102" y="180" width="3.75" height="3.75" fill="#A6CE38"/>
<rect x="102" y="187.5" width="3.75" height="3.75" fill="#A6CE38"/>
<rect x="102" y="195" width="3.75" height="3.75" fill="#A6CE38"/>
<rect x="102" y="202.5" width="3.75" height="3.75" fill="#A6CE38"/>
<rect x="102" y="210" width="3.75" height="3.75" fill="#A6CE38"/>
<rect x="102" y="217.5" width="3.75" height="3.75" fill="#A6CE38"/>
<rect x="102" y="225" width="3.75" height="3.75" fill="#A6CE38"/>
<rect x="102" y="232.5" width="3.75" height="3.75" fill="#A6CE38"/>
<rect x="102" y="240" width="3.75" height="3.75" fill="#A6CE38"/>
<rect x="102" y="247.5" width="3.75" height="3.75" fill="#A6CE38"/>
<rect x="102" y="255" width="3.75" height="3.75" fill="#A6CE38"/>
<rect x="102" y="262.5" width="3.75" height="3.75" fill="#A6CE38"/>
<rect x="102" y="270" width="3.75" height="3.75" fill="#A6CE38"/>
<rect x="102" y="277.5" width="3.75" height="3.75" fill="#A6CE38"/>
<rect x="102" y="285" width="3.75" height="3.75" fill="#A6CE38"/>
<rect x="102" y="292.5" width="3.75" height="3.75" fill="#A6CE38"/>
<rect x="102" y="300" width="3.75" height="3.75" fill="#A6CE38"/>
<rect x="102" y="307.5" width="3.75" height="3.75" fill="#A6CE38"/>
<rect x="102" y="315" width="3.75" height="3.75" fill="#A6CE38"/>
<rect x="102" y="322.5" width="3.75" height="3.75" fill="#A6CE38"/>
<rect x="102" y="330" width="3.75" height="3.75" fill="#A6CE38"/>
<rect x="102" y="337.5" width="3.75" height="3.75" fill="#A6CE38"/>
<rect x="102" y="345" width="3.75" height="3.75" fill="#A6CE38"/>
<rect x="102" y="352.5" width="3.75" height="3.75" fill="#A6CE38"/>
<rect x="102" y="360" width="3.75" height="3.75" fill="#A6CE38"/>
<rect x="102" y="367.5" width="3.75" height="3.75" fill="#A6CE38"/>
<rect x="102" y="375" width="3.75" height="3.75" fill="#A6CE38"/>
<rect x="102" y="382.5" width="3.75" height="3.75" fill="#A6CE38"/>
<rect x="102" y="390" width="3.75" height="3.75" fill="#A6CE38"/>
<rect x="102" y="397.5" width="3.75" height="3.75" fill="#A6CE38"/>
<rect x="102" y="405" width="3.75" height="3.75" fill="#A6CE38"/>
<rect x="102" y="412.5" width="3.75" height="3.75" fill="#A6CE38"/>
<rect x="102" y="420" width="3.75" height="3.75" fill="#A6CE38"/>
</svg>
