<svg width="1920" height="496" viewBox="0 0 1920 496" fill="none" xmlns="http://www.w3.org/2000/svg">
<path d="M840.703 158.039H844.727V162.062V166.047V170.031H840.703V166.047H836.719H832.734V170.031V174.055V178.039V182.023V186.047V190.031V194.016V198.039H828.711H824.727V194.016V190.031V186.047V182.023V178.039V174.055V170.031V166.047H820.703H816.719V170.031H812.734V166.047V162.062V158.039H816.719H820.703H824.727H828.711H832.734H836.719H840.703ZM878.242 158V162.727V166.008H874.219H870.234V170.031V174.016V178V182.023V186.008V189.992H874.219H878.242V198H874.219H870.234H866.25H862.227H858.242H854.219V189.992H858.242H862.227V186.008V182.023V178V174.016V170.031V166.008H858.242H854.219V158H858.242H862.227H866.25H870.234H874.219H878.242ZM878.242 158H882.227V162.023V166.008H878.242H874.219H870.234H866.25H862.227H858.242H854.258H850.234V162.023V158H854.258H858.242H862.227H866.25H870.234H874.219H878.242ZM878.242 190.031H882.227V194.016V198H878.242H874.219H870.234H866.25H862.227H858.242H854.258H850.234V194.016V190.031H854.258H858.242H862.227H866.25H870.234H874.219H878.242ZM915.703 158.039H919.688V162.062V166.047V170.031V174.055V178.039V182.023V186.047V190.031V194.055V198.039H915.703H911.719V194.055V190.031V186.047V182.023V178.039V174.055V170.031H907.695V174.055V178.039V182.023V186.047V190.031V194.055H903.711H899.727V190.031V186.047V182.023V178.039V174.055V170.031H895.703V174.055V178.039V182.023V186.047V190.031V194.055V198.039H891.719H887.734V194.055V190.031V186.047V182.023V178.039V174.055V170.031V166.047V162.062V158.039H891.719H895.703V162.062H899.727V166.047H903.711H907.695V162.062H911.719V158.039H915.703ZM953.164 158H957.148V162.023V166.008H953.164H949.141H945.156H941.133H937.148H933.164V170.031V174.016H937.148H941.133H945.156H949.141H953.164V178H949.141V182.023H945.156H941.133H937.148H933.164V186.008V189.992H937.148H941.133H945.156H949.141H953.164H957.148V194.016V198H953.164H949.141H945.156H941.133H937.148H933.164H929.141H925.156V194.016V189.992V186.008V182.023V178V174.016V170.031V166.008V162.023V158H929.141H933.164H937.148H941.133H945.156H949.141H953.164ZM990.625 186.047H994.648V190.031V194.055V198.039H990.625H986.641H982.617H978.633H974.648H970.625H966.641H962.656V194.055V190.031V186.047V182.023V178.039V174.055V170.031V166.047V162.062V158.039H966.641H970.625V162.062V166.047V170.031V174.055V178.039V182.023V186.047V190.031H974.648H978.633H982.617H986.641V186.047H990.625ZM1028.16 158V162.727V166.008H1024.14H1020.16V170.031V174.016V178V182.023V186.008V189.992H1024.14H1028.16V198H1024.14H1020.16H1016.17H1012.15H1008.16H1004.14V189.992H1008.16H1012.15V186.008V182.023V178V174.016V170.031V166.008H1008.16H1004.14V158H1008.16H1012.15H1016.17H1020.16H1024.14H1028.16ZM1028.16 158H1032.15V162.023V166.008H1028.16H1024.14H1020.16H1016.17H1012.15H1008.16H1004.18H1000.16V162.023V158H1004.18H1008.16H1012.15H1016.17H1020.16H1024.14H1028.16ZM1028.16 190.031H1032.15V194.016V198H1028.16H1024.14H1020.16H1016.17H1012.15H1008.16H1004.18H1000.16V194.016V190.031H1004.18H1008.16H1012.15H1016.17H1020.16H1024.14H1028.16ZM1065.62 158H1069.61V162.023V166.008V170.031V174.016V178V182.023V186.008V189.992V194.016V198H1065.62H1061.64H1057.62H1053.63V194.016H1049.65V189.992V186.008V182.023V178V174.016V170.031V166.008V162.023H1045.62V166.008V170.031V174.016V178V182.023V186.008V189.992V194.016V198H1041.64H1037.66V194.016V189.992V186.008V182.023V178V174.016V170.031V166.008V162.023V158H1041.64H1045.62H1049.65H1053.63V162.023H1057.62V166.008V170.031V174.016V178V182.023V186.008V189.992V194.016H1061.64V189.992V186.008V182.023V178V174.016V170.031V166.008V162.023V158H1065.62ZM1103.09 158H1107.07V162.023V166.008H1103.09H1099.06H1095.08H1091.05H1087.07H1083.09V170.031V174.016H1087.07H1091.05H1095.08H1099.06H1103.09V178H1099.06V182.023H1095.08H1091.05H1087.07H1083.09V186.008V189.992H1087.07H1091.05H1095.08H1099.06H1103.09H1107.07V194.016V198H1103.09H1099.06H1095.08H1091.05H1087.07H1083.09H1079.06H1075.08V194.016V189.992V186.008V182.023V178V174.016V170.031V166.008V162.023V158H1079.06H1083.09H1087.07H1091.05H1095.08H1099.06H1103.09Z" fill="#9991FF"/>
<rect width="839" height="4" fill="#6053FD"/>
<rect y="45" width="839" height="4" fill="#6053FD"/>
<rect x="839" y="4" width="4" height="4" fill="#6053FD"/>
<rect width="4" height="4" transform="matrix(-1 0 0 1 847 37)" fill="#6053FD"/>
<rect x="843" y="8" width="4" height="4" fill="#6053FD"/>
<rect width="4" height="4" transform="matrix(-1 0 0 1 843 41)" fill="#6053FD"/>
<rect x="847" y="12" width="4" height="25" fill="#6053FD"/>
<rect x="214" y="298" width="289" height="4" fill="#6053FD"/>
<rect x="214" y="343" width="289" height="4" fill="#6053FD"/>
<rect x="503" y="302" width="4" height="4" fill="#6053FD"/>
<rect width="4" height="4" transform="matrix(-1 0 0 1 214 302)" fill="#6053FD"/>
<rect width="4" height="4" transform="matrix(-1 0 0 1 511 335)" fill="#6053FD"/>
<rect x="206" y="335" width="4" height="4" fill="#6053FD"/>
<rect x="507" y="306" width="4" height="4" fill="#6053FD"/>
<rect width="4" height="4" transform="matrix(-1 0 0 1 210 306)" fill="#6053FD"/>
<rect width="4" height="4" transform="matrix(-1 0 0 1 507 339)" fill="#6053FD"/>
<rect x="210" y="339" width="4" height="4" fill="#6053FD"/>
<rect x="511" y="310" width="4" height="25" fill="#6053FD"/>
<rect width="4" height="25" transform="matrix(-1 0 0 1 206 310)" fill="#6053FD"/>
<rect x="1182" y="298" width="289" height="4" fill="#6053FD"/>
<rect x="1182" y="343" width="289" height="4" fill="#6053FD"/>
<rect x="1471" y="302" width="4" height="4" fill="#6053FD"/>
<rect width="4" height="4" transform="matrix(-1 0 0 1 1182 302)" fill="#6053FD"/>
<rect width="4" height="4" transform="matrix(-1 0 0 1 1479 335)" fill="#6053FD"/>
<rect x="1174" y="335" width="4" height="4" fill="#6053FD"/>
<rect x="1475" y="306" width="4" height="4" fill="#6053FD"/>
<rect width="4" height="4" transform="matrix(-1 0 0 1 1178 306)" fill="#6053FD"/>
<rect width="4" height="4" transform="matrix(-1 0 0 1 1475 339)" fill="#6053FD"/>
<rect x="1178" y="339" width="4" height="4" fill="#6053FD"/>
<rect x="1479" y="310" width="4" height="25" fill="#6053FD"/>
<rect width="4" height="25" transform="matrix(-1 0 0 1 1174 310)" fill="#6053FD"/>
<rect x="1386" y="149" width="289" height="4" fill="#6053FD"/>
<rect x="1386" y="194" width="289" height="4" fill="#6053FD"/>
<rect x="1675" y="153" width="4" height="4" fill="#6053FD"/>
<rect width="4" height="4" transform="matrix(-1 0 0 1 1386 153)" fill="#6053FD"/>
<rect width="4" height="4" transform="matrix(-1 0 0 1 1683 186)" fill="#6053FD"/>
<rect x="1378" y="186" width="4" height="4" fill="#6053FD"/>
<rect x="1679" y="157" width="4" height="4" fill="#6053FD"/>
<rect width="4" height="4" transform="matrix(-1 0 0 1 1382 157)" fill="#6053FD"/>
<rect width="4" height="4" transform="matrix(-1 0 0 1 1679 190)" fill="#6053FD"/>
<rect x="1382" y="190" width="4" height="4" fill="#6053FD"/>
<rect x="1683" y="161" width="4" height="25" fill="#6053FD"/>
<rect width="4" height="25" transform="matrix(-1 0 0 1 1378 161)" fill="#6053FD"/>
<rect width="839" height="4" transform="matrix(-1 0 0 1 1920 0)" fill="#6053FD"/>
<rect width="839" height="4" transform="matrix(-1 0 0 1 1920 45)" fill="#6053FD"/>
<rect width="4" height="4" transform="matrix(-1 0 0 1 1081 4)" fill="#6053FD"/>
<rect x="1073" y="37" width="4" height="4" fill="#6053FD"/>
<rect width="4" height="4" transform="matrix(-1 0 0 1 1077 8)" fill="#6053FD"/>
<rect x="1077" y="41" width="4" height="4" fill="#6053FD"/>
<rect width="4" height="25" transform="matrix(-1 0 0 1 1073 12)" fill="#6053FD"/>
<rect y="149" width="555" height="4" fill="#6053FD"/>
<rect x="98" y="194" width="457" height="4" fill="#6053FD"/>
<rect y="194" width="57" height="4" fill="#6053FD"/>
<rect x="555" y="153" width="4" height="4" fill="#6053FD"/>
<rect width="4" height="4" transform="matrix(-1 0 0 1 563 186)" fill="#6053FD"/>
<rect x="559" y="157" width="4" height="4" fill="#6053FD"/>
<rect width="4" height="4" transform="matrix(-1 0 0 1 559 190)" fill="#6053FD"/>
<rect x="563" y="161" width="4" height="25" fill="#6053FD"/>
<rect x="53" y="194" width="4" height="141" fill="#6053FD"/>
<rect x="98" y="194" width="4" height="141" fill="#6053FD"/>
<rect x="57" y="335" width="4" height="4" fill="#6053FD"/>
<rect width="4" height="4" transform="matrix(-1 0 0 1 98 335)" fill="#6053FD"/>
<rect x="61" y="339" width="4" height="4" fill="#6053FD"/>
<rect width="4" height="4" transform="matrix(-1 0 0 1 94 339)" fill="#6053FD"/>
<rect x="65" y="343" width="25" height="4" fill="#6053FD"/>
<rect x="1595" y="298" width="289" height="4" fill="#6053FD"/>
<rect x="1595" y="343" width="94" height="4" fill="#6053FD"/>
<rect x="1730" y="343" width="154" height="4" fill="#6053FD"/>
<rect x="1884" y="302" width="4" height="4" fill="#6053FD"/>
<rect width="4" height="4" transform="matrix(-1 0 0 1 1595 302)" fill="#6053FD"/>
<rect width="4" height="4" transform="matrix(-1 0 0 1 1892 335)" fill="#6053FD"/>
<rect x="1587" y="335" width="4" height="4" fill="#6053FD"/>
<rect x="1888" y="306" width="4" height="4" fill="#6053FD"/>
<rect width="4" height="4" transform="matrix(-1 0 0 1 1591 306)" fill="#6053FD"/>
<rect width="4" height="4" transform="matrix(-1 0 0 1 1888 339)" fill="#6053FD"/>
<rect x="1591" y="339" width="4" height="4" fill="#6053FD"/>
<rect x="1892" y="310" width="4" height="25" fill="#6053FD"/>
<rect width="4" height="25" transform="matrix(-1 0 0 1 1587 310)" fill="#6053FD"/>
<rect width="324" height="4" transform="matrix(-1 0 0 1 1689 447)" fill="#6053FD"/>
<rect width="555" height="4" transform="matrix(-1 0 0 1 1920 492)" fill="#6053FD"/>
<rect width="4" height="4" transform="matrix(-1 0 0 1 1365 451)" fill="#6053FD"/>
<rect x="1357" y="484" width="4" height="4" fill="#6053FD"/>
<rect width="4" height="4" transform="matrix(-1 0 0 1 1361 455)" fill="#6053FD"/>
<rect x="1361" y="488" width="4" height="4" fill="#6053FD"/>
<rect width="4" height="25" transform="matrix(-1 0 0 1 1357 459)" fill="#6053FD"/>
<rect x="1685" y="343" width="4" height="108" fill="#6053FD"/>
<rect x="1730" y="343" width="4" height="108" fill="#6053FD"/>
<rect width="190" height="4" transform="matrix(-1 0 0 1 1920 447)" fill="#6053FD"/>
</svg>
