<svg width="1920" height="549" viewBox="0 0 1920 549" fill="none" xmlns="http://www.w3.org/2000/svg">
<path d="M1919.91 147.179C1919.91 279.449 1919.91 411.718 1920 543.988C1920 547.434 1919.45 548.49 1915.68 548.49C1278.55 548.398 641.409 548.398 4.31863 548.49C0.551315 548.49 0 547.479 0 543.988C0.0918858 413.648 0.0918858 283.308 0.0918858 152.922C2.02149 151.406 4.36458 150.579 5.51315 147.822C6.79955 144.698 11.3938 144.376 12.864 147.455C14.8396 151.589 20.1689 152.141 21.5932 156.597C21.8688 157.47 23.2931 157.332 24.2119 157.286C28.8521 157.057 33.4924 157.194 38.1326 157.103C40.1541 157.103 41.3027 156.092 42.8188 154.622C46.1726 151.406 49.113 147.822 52.8343 144.928C55.9585 142.493 58.8988 139.506 61.0122 136.199C62.8499 133.35 64.9633 132.293 68.0414 132.247C74.1059 132.156 80.2163 132.247 86.2808 132.247C89.2211 132.247 91.6102 132.018 93.4938 128.894C95.791 124.989 104.888 125.907 107.874 129.399C110.906 132.891 114.536 135.831 117.614 139.323C118.027 139.782 118.946 139.874 119.13 140.425C120.83 145.111 124.827 144.56 128.64 145.02C132.729 145.525 135.118 144.882 138.196 141.16C140.815 137.944 144.766 134.728 147.523 131.558C155.333 122.508 164.705 127.975 173.297 126.826C174.721 126.642 176.145 127.607 176.696 129.123C177.753 131.926 179.958 132.293 182.485 132.247C188.733 132.247 194.982 132.247 201.184 132.247C204.584 132.247 207.57 132.845 208.902 136.566C209.821 139.139 212.072 138.909 214.14 138.909C220.204 139.001 226.315 138.909 232.379 138.909C235.549 138.909 238.306 139.369 240.006 142.677C241.2 145.066 242.808 144.652 243.451 142.125C244.141 139.369 245.978 138.771 248.505 138.863C251.537 138.955 254.57 138.909 257.602 138.909C261.231 138.909 263.62 139.782 266.147 143.32C268.261 146.306 270.696 150.073 274.555 151.819C275.612 152.279 276.668 152.876 277.128 153.887C278.506 156.919 281.125 157.24 283.927 157.286C286.868 157.378 289.257 158.113 290.129 161.421C290.681 163.581 292.518 163.764 294.356 163.764C311.493 163.856 328.584 163.81 345.72 163.764C347.788 163.764 349.442 163.121 350.223 160.962C350.82 159.4 352.06 158.481 353.531 157.654C357.666 155.403 357.666 150.625 353.898 147.776C350.039 144.882 346.685 141.436 343.469 137.853C343.056 137.393 342.872 136.566 342.275 136.382C336.256 134.545 337.497 129.675 337.588 125.31C337.588 123.105 338.553 121.267 340.529 120.164C340.942 119.935 341.54 119.797 341.723 119.429C345.95 111.941 353.209 114.146 359.641 113.778C361.846 113.641 363.96 114.192 364.833 116.443C365.935 119.246 368.049 119.659 370.575 119.659C373.286 119.659 375.997 119.567 378.707 119.751C380.913 119.935 382.934 120.578 383.715 122.783C384.864 126.091 387.345 126.367 390.239 126.321C396.487 126.321 402.736 126.321 408.938 126.321C412.108 126.321 415.048 126.597 416.427 130.18C417.116 132.018 418.907 131.972 420.515 132.018C423.869 132.156 427.223 132.064 430.577 132.018C433.885 132.018 436.09 131.145 438.939 128.434C442.109 125.448 445.738 122.094 448.081 118.878C453.548 111.343 460.669 114.651 467.193 113.778C468.112 113.641 469.536 113.687 469.858 114.468C471.512 118.74 476.428 119.751 478.587 123.564C482.309 130.226 489.935 133.35 497.424 131.834C498.756 131.558 499.905 131.191 500.502 129.858C501.926 126.642 504.683 126.275 507.715 126.275C512.172 126.275 516.674 126.275 521.13 126.275C523.106 126.275 524.99 125.999 525.771 123.748C526.873 120.486 529.538 119.613 532.616 119.659C535.327 119.659 537.21 119.016 538.91 116.397C540.748 113.595 544.056 111.895 545.756 108.725C546.445 107.484 548.237 107.346 549.661 107.255C553.336 107.025 557.012 107.071 560.687 107.255C563.076 107.346 565.144 108.082 565.833 110.7C566.476 113.227 568.222 113.824 570.519 113.824C573.873 113.824 577.227 113.778 580.581 113.824C584.21 113.916 587.518 113.962 589.126 109.598C589.999 107.255 592.709 107.209 595.007 107.163C601.255 107.025 607.503 107.117 613.705 107.163C616.508 107.163 618.989 107.071 620.413 103.855C621.654 101.052 624.686 101.42 627.213 101.42C640.031 101.328 652.803 101.42 665.621 101.42C674.58 101.42 683.539 101.695 692.497 101.236C695.162 101.098 697.23 101.649 698.332 104.36C698.7 105.233 698.975 106.29 699.894 106.703C705.545 108.954 704.259 113.778 704.167 118.189C704.121 119.843 703.386 121.129 701.916 122.186C697.367 125.402 697.276 129.813 701.594 133.12C702.1 133.488 702.835 133.81 703.018 134.361C704.534 138.725 707.934 139.231 711.885 138.955C713.861 138.817 715.882 138.955 716.388 141.482C716.847 143.917 717.077 146.444 714.412 147.776C711.334 149.338 711.242 150.579 714.412 152.049C714.964 152.325 714.55 151.773 714.78 152.325C717.49 158.848 723.187 157.103 728.195 157.194C730.263 157.194 732.376 157.194 734.443 157.286C736.511 157.378 738.257 157.057 739.038 154.76C739.911 152.233 742.024 151.544 744.367 151.544C756.358 151.406 768.349 151.406 780.34 151.544C782.959 151.544 785.072 152.462 785.899 155.219C786.589 157.562 788.242 157.93 790.402 157.654C794.858 157.057 799.361 157.194 803.817 157.378C805.93 157.47 807.63 157.194 808.228 154.76C808.365 154.162 808.641 153.289 809.147 153.106C814.384 151.498 814.797 147.638 814.292 142.998C814.016 140.471 815.946 139.185 818.289 139.185C822.746 139.185 826.421 138.863 828.764 133.81C829.775 131.65 833.221 130.594 832.899 127.056C832.715 124.989 832.531 123.289 830.05 122.829C827.57 122.37 826.697 120.486 826.835 118.189C827.064 114.376 826.972 110.516 827.202 106.703C827.294 105.095 827.478 103.166 829.086 102.522C832.899 100.96 832.853 97.7903 832.899 94.5284C832.945 90.5773 834.875 88.6017 838.918 88.9693C842.179 89.2449 845.028 88.6477 846.13 85.0182C846.222 84.7425 846.498 84.4669 846.682 84.2371C849.668 81.159 863.956 81.2968 866.437 84.8344C868.183 87.2694 870.159 88.0045 872.823 88.1882C875.856 88.372 878.842 89.0611 881.874 88.9693C883.804 88.9233 885.504 89.6125 886.101 91.4961C887.112 94.7121 889.638 94.6203 892.257 94.804C898.138 95.1256 904.065 93.8392 909.853 95.6769C912.105 97.8362 910.405 100.685 911.094 102.66C911.645 100.685 909.899 97.8362 912.38 95.6769C913.805 95.1716 915.137 95.2634 916.285 96.3201C918.766 103.395 917.02 110.562 916.791 117.73C916.239 119.108 915.183 120.394 913.804 120.624C909.348 121.221 909.486 124.299 909.44 127.653C909.394 132.064 910.083 136.52 908.935 140.931C906.27 143.963 903.513 142.493 900.527 140.977C900.757 143.687 901.676 146.72 898.276 147.96C895.106 149.109 893.773 146.811 892.992 144.009C892.073 145.112 892.303 145.938 892.165 146.719C891.89 148.787 893.222 149.798 894.784 150.671C895.106 150.992 895.381 151.406 895.565 151.819C896.53 158.619 896.438 158.711 887.984 160.502C885.136 161.329 886.285 164.637 884.493 166.107C882.425 167.164 880.174 166.888 878.015 166.842C874.339 166.751 872.731 168.221 873.558 171.942C873.558 172.631 873.421 173.275 873.053 173.872C871.445 175.158 869.883 173.275 868.275 173.872C866.483 174.928 867.356 177.547 865.518 178.604C863.497 179.707 861.246 179.477 859.086 179.477C856.468 179.431 854.952 180.533 854.4 183.06C853.573 185.128 851.69 185.771 849.806 186.46C847.784 190.687 842.133 191.973 841.352 197.165C841.031 197.532 840.709 197.808 840.296 198.038C839.101 198.589 837.677 198.589 836.528 199.37C834.553 203.827 829.407 205.664 827.707 210.305C825.594 211.177 823.159 211.545 822.608 214.439C822.194 216.645 819.622 216.461 818.335 217.747C817.095 219.126 817.37 221.193 815.992 222.525C813.511 223.72 810.433 223.995 809.698 227.579C809.376 229.049 807.447 229.141 806.206 229.784C805.655 230.106 805.104 230.473 804.644 230.979C804.047 231.76 803.725 232.679 803.909 233.643C804.598 238.054 803.036 241.224 798.809 242.97C797.936 244.348 798.028 246.186 796.834 247.426C794.261 248.529 792.194 249.907 792.01 253.123C791.964 254.088 791.458 255.374 789.85 254.823C789.345 253.307 789.759 251.745 789.621 250.55C788.518 253.399 791.688 256.753 789.345 259.969C785.991 261.485 785.762 264.425 785.808 267.549C785.853 270.995 784.613 273.798 780.708 273.43C776.022 273.017 773.219 274.762 771.795 279.127C769.682 280.597 767.247 280.367 764.858 280.367C757.047 280.413 749.283 280.367 741.473 280.367C739.038 280.367 736.649 280.551 735.316 283.032C734.995 283.446 734.581 283.721 734.076 283.905C730.079 282.527 725.99 283.032 721.901 282.986C714.78 282.986 707.659 283.492 700.629 281.378C701.732 282.389 703.202 282.205 704.351 282.986C704.764 283.308 705.04 283.675 705.086 284.227C704.58 286.662 704.213 289.142 703.432 291.532C703.018 292.221 702.375 292.68 701.594 292.818C695.851 292.818 690.108 292.726 684.32 292.772C681.977 292.772 679.771 292.956 678.944 295.712C678.485 296.677 677.842 297.458 676.739 297.734C676.234 297.826 675.728 297.826 675.223 297.734C670.721 297.32 666.218 296.953 661.762 297.964C659.694 299.066 659.97 301.18 659.648 303.063C659.556 303.523 659.373 303.982 659.143 304.396C658.867 304.809 658.454 305.085 657.948 305.177C654.503 305.406 651.011 305.268 647.565 305.085C644.12 304.901 641.731 305.912 640.858 309.449C639.342 311.103 637.228 311.838 635.253 311.379C631.072 310.46 629.004 312.16 628.269 316.065C627.948 316.433 627.58 316.754 627.167 316.938C622.526 316.662 622.71 321.578 620.183 323.508C616.83 324.197 615.543 326.264 615.865 329.572C616.003 331.134 616.003 332.742 615.865 334.258C615.543 337.566 616.784 339.68 620.183 340.369C622.71 342.574 622.802 347.077 627.121 347.49C629.05 351.028 631.899 352.682 636.034 352.222C637.779 352.038 639.525 352.59 640.72 354.06C641.179 354.657 641.455 355.346 641.593 356.081C641.685 358.333 643.063 358.884 645.084 358.93C647.565 358.93 650.138 358.516 652.527 359.573C652.987 359.849 653.308 360.17 653.584 360.63C654.365 363.524 656.203 364.673 659.189 364.581C663.002 364.489 666.815 364.397 670.675 364.627C671.18 364.627 671.731 364.719 672.237 364.81C673.018 365.04 673.661 365.362 674.166 366.051C672.926 371.013 673.064 371.059 678.393 371.242C684.044 371.472 689.741 370.553 695.346 371.886C697.965 373.815 698.378 376.802 698.975 379.696C697.689 381.35 695.805 381.717 694.519 381.809C702.054 382.866 710.277 381.763 718.455 382.82C713.034 382.085 707.567 382.361 702.145 382.269C700.905 382.269 699.113 382.498 699.021 380.89C698.93 379.374 700.721 379.283 701.962 379.145C705.729 378.685 709.588 379.558 713.356 378.547C716.663 378.088 719.834 377.445 721.074 373.677C721.166 373.356 721.947 373.494 722.314 373.815C723.141 374.642 723.233 376.021 724.336 376.664C731.549 377.674 738.808 376.802 746.067 377.123C748.226 377.215 750.523 376.71 752.499 378.134C752.912 378.593 752.958 379.099 752.683 379.65C750.799 381.212 748.502 380.982 746.297 381.028C740.737 381.12 735.178 381.028 729.619 381.028C727.919 381.028 726.174 380.89 724.382 382.131C726.311 384.015 728.425 383.417 730.354 383.555C737.613 384.015 744.964 382.59 752.177 384.474C754.428 385.898 753.693 388.839 755.21 390.63C757.553 392.238 760.171 391.365 762.652 391.411C768.211 391.549 773.771 391.32 779.284 391.549C781.305 391.641 784.108 391.182 783.694 394.811C781.765 396.695 779.238 396.281 776.94 396.327C770.279 396.465 763.617 396.19 757.001 396.603C765.639 397.752 774.46 395.914 783.097 397.797C784.062 398.303 784.705 399.13 785.118 400.095C785.945 402.024 785.716 404.092 785.991 406.067C786.083 406.802 786.221 407.813 787.14 407.905C788.38 408.043 788.426 406.894 788.702 406.021C789.299 404.046 788.013 401.105 791.367 400.462C792.102 401.243 792.377 402.208 792.469 403.265C792.561 405.332 792.561 407.446 792.469 409.513C792.469 410.018 792.377 410.478 792.24 410.983C791.413 413.051 791.78 415.256 791.55 417.415C791.275 420.264 792.607 421.366 795.18 421.596C795.639 421.78 796.053 422.009 796.466 422.285C797.523 426.742 802.209 428.074 804.552 431.474C805.471 434.322 804.828 437.308 805.379 440.157C808.136 445.44 812.776 448.978 817.095 452.837C817.6 453.251 818.105 453.71 818.427 454.307C818.703 454.95 818.703 455.594 818.519 456.237C818.335 456.788 817.738 457.431 818.105 457.845C818.703 458.672 819.392 457.707 820.081 457.615C820.77 457.477 821.367 457.523 822.01 457.845C822.883 458.534 823.343 459.591 824.124 460.372C826.513 461.612 826.513 463.634 826.008 465.747C826.88 465.196 825.64 463.68 827.248 462.853C828.718 466.023 832.348 466.436 834.875 468.458C835.701 471.857 839.009 471.995 841.307 473.42C842.134 476.406 844.247 478.152 847.049 479.162C847.601 483.481 851.736 484.4 854.354 486.743C855.043 489.454 856.835 490.418 859.5 490.327C861.338 490.281 863.221 490.235 864.967 491.062C866.805 495.61 871.905 497.448 873.834 501.904C874.064 502.455 874.937 502.455 875.58 502.547C878.428 502.915 881.369 502.226 884.079 503.604C885.963 509.439 890.42 509.99 895.657 509.531C898.276 509.301 901.078 509.025 903.467 510.679C904.8 514.768 907.786 515.687 911.691 515.273C914.08 515.044 916.515 514.952 918.858 515.273C923.177 515.917 926.577 514.952 928.736 510.863C931.447 512.195 930.39 514.676 930.574 516.744C929.793 520.143 930.941 521.797 934.663 521.797C951.524 521.797 968.431 521.797 985.292 521.797C988.829 521.797 990.345 520.419 989.518 516.882C989.61 514.722 988.783 512.333 991.172 510.817C993.469 515.457 997.512 515.687 1001.97 515.228C1004.17 514.998 1006.47 514.998 1008.68 515.228C1012.49 515.641 1015.2 514.492 1016.49 510.725C1019.01 508.841 1022 509.301 1024.76 509.485C1029.76 509.806 1034.17 509.393 1035.87 503.604C1038.59 502.134 1041.62 502.823 1044.47 502.501C1047.36 499.791 1050.53 497.31 1052.87 494.094C1053.56 493.129 1053.84 491.797 1054.99 491.108C1056.87 490.143 1058.89 490.235 1060.91 490.281C1063.44 490.327 1065 489.27 1065.69 486.835C1068.08 484.308 1072.54 483.757 1072.95 479.3C1074.97 477.83 1078 477.417 1078.33 474.109C1080.99 471.903 1084.99 471.076 1085.49 466.758C1087.65 465.379 1090.23 464.598 1091.28 461.75C1092.02 459.82 1094.41 459.958 1096.06 459.131C1096.8 458.672 1097.48 458.121 1098.27 457.661C1098.91 457.431 1099.55 457.385 1100.19 457.569C1100.84 457.615 1101.48 458.626 1102.08 457.753C1102.4 457.294 1101.8 456.696 1101.62 456.145C1101.44 455.502 1101.48 454.859 1101.76 454.215C1102.12 453.664 1102.58 453.205 1103.09 452.745C1105.02 450.724 1107.41 449.254 1109.43 447.508C1111.63 445.67 1113.7 442.913 1114.85 439.927C1115.4 436.757 1114.48 433.449 1115.77 430.371C1119.08 428.212 1122.29 425.96 1123.86 422.055C1126.7 421.136 1127.71 419.207 1127.62 416.267C1127.53 413.923 1127.53 411.443 1129.37 409.513C1133.27 408.686 1134.56 406.205 1134.24 402.346C1134.05 399.773 1133.69 397.016 1135.43 394.627C1135.94 394.306 1136.4 394.398 1136.77 394.811C1138.14 396.741 1140.3 396.833 1142.37 396.879C1149.22 396.971 1156.11 397.016 1162.95 396.557C1156.38 396.098 1149.81 396.235 1143.24 396.144C1140.9 396.144 1138.37 396.419 1136.49 394.444C1136.17 390.768 1139.06 391.457 1140.99 391.366C1147.52 391.182 1153.99 391.365 1160.52 391.274C1162.08 391.274 1163.69 391.779 1165.07 390.63C1166.26 388.701 1165.57 385.944 1167.68 384.382C1174.53 382.361 1181.56 383.831 1188.5 383.371C1190.79 383.234 1193.18 383.831 1195.66 382.223C1194.1 380.569 1192.26 380.845 1190.66 380.845C1184.96 380.753 1179.22 380.845 1173.52 380.799C1171.45 380.799 1169.34 380.936 1167.55 379.604C1167.13 379.145 1167.04 378.639 1167.27 378.088C1168.83 376.618 1170.81 376.939 1172.69 376.893C1178.9 376.848 1185.05 376.893 1191.25 376.893C1193.14 376.893 1195.11 377.215 1196.45 375.377C1196.77 374.642 1197.13 373.999 1197.73 373.448C1199.94 373.08 1199.8 375.01 1200.49 376.158C1201.59 378.869 1204.26 377.583 1206.14 378.364C1210.6 379.145 1215.01 379.007 1219.42 378.456C1219.78 378.226 1220.15 377.996 1220.52 377.766C1222.63 377.215 1221.76 375.056 1222.59 373.815C1223.23 373.126 1223.87 372.483 1224.61 371.886C1229.89 370.094 1235.31 371.38 1240.64 371.013C1242.62 370.875 1244.73 371.38 1246.52 369.818C1245.24 367.705 1243.31 368.348 1241.74 368.302C1238.44 368.164 1235.08 368.44 1231.78 368.21C1228.24 367.935 1225.62 369.037 1224.06 372.299C1223.64 372.805 1223.14 372.851 1222.63 372.483C1221.21 370.278 1221.3 368.072 1222.59 365.867C1223.18 365.178 1223.92 364.81 1224.79 364.627C1230.49 364.213 1236.19 364.443 1241.88 364.489C1244.13 364.489 1245.88 363.938 1247.21 362.146C1247.63 361.824 1248.08 361.64 1248.59 361.686C1253.09 366.143 1258.65 364.259 1263.89 364.029C1265.59 363.938 1265.54 361.916 1266.23 360.722C1266.46 360.262 1266.78 359.895 1267.2 359.573C1267.84 359.159 1268.58 358.93 1269.36 358.838C1271.24 358.7 1273.17 358.792 1275.05 358.746C1276.57 358.746 1277.95 358.424 1278.22 356.633C1278.96 352.544 1281.94 352.038 1285.34 351.992C1287.27 351.992 1289.62 352.819 1290.77 350.293C1291.27 349.19 1291.91 348.133 1292.88 347.306C1297.2 346.939 1297.2 342.344 1299.72 340.277C1303.12 339.588 1304.32 337.474 1304 334.167C1303.86 332.604 1303.81 330.996 1304 329.434C1304.36 326.035 1302.89 324.059 1299.63 323.37C1297.43 320.567 1296.1 316.754 1291.82 316.157C1290.67 312.298 1288.7 309.955 1284.15 311.425C1282.86 311.838 1281.35 311.425 1280.11 310.644C1278.13 305.131 1273.81 304.487 1268.76 304.947C1266.42 305.177 1264.03 305.268 1261.78 304.166C1259.34 302.788 1260.72 299.388 1258.51 297.918C1253.37 296.356 1248.13 297.412 1242.94 297.228C1242.43 297.228 1241.97 296.999 1241.61 296.585C1241.29 296.172 1241.06 295.712 1240.87 295.253C1240.46 292.267 1238.02 292.68 1236.05 292.542C1230.31 292.267 1224.56 292.818 1218.82 292.221C1218.31 292.129 1217.9 291.945 1217.44 291.715C1215.33 290.061 1216.2 286.799 1214 285.145C1213.49 284.64 1213.03 284.135 1212.57 283.629C1212.11 283.078 1211.7 282.481 1211.01 282.159C1202.14 281.562 1193.23 281.47 1184.41 280.23C1174.76 280.23 1165.11 280.23 1155.46 280.23C1153.12 280.23 1150.69 280.413 1148.48 279.219C1146.92 273.889 1143.24 272.236 1138.01 273.108C1137.09 273.246 1136.17 272.787 1135.39 272.19C1133.37 269.387 1134.33 266.079 1133.96 263.047C1133.78 262.312 1133.83 261.347 1132.91 261.071C1131.9 260.796 1131.57 261.623 1131.3 262.404C1130.7 263.782 1131.21 265.849 1128.96 266.125C1128.54 265.849 1128.22 265.482 1127.99 265.023C1127.39 263.277 1127.48 261.531 1127.76 259.739C1127.94 259.004 1128.22 258.361 1128.54 257.718C1130.29 255.007 1128.73 251.745 1130.06 248.988C1130.33 248.437 1130.06 249.172 1130.15 248.529C1129.74 248.529 1130.01 249.08 1129.64 249.126C1127.39 248.897 1125.23 248.299 1123.17 247.334C1121.6 244.624 1120.87 240.719 1116.18 242.694C1114.57 242.465 1112.83 242.602 1111.59 241.178C1111.45 240.857 1111.5 240.581 1111.59 240.305C1112.23 238.697 1115.26 239.754 1115.08 237.824C1114.85 235.114 1115.82 232.035 1113.38 229.784C1111.68 228.728 1109.75 227.993 1109.2 225.695C1108.51 222.709 1104.84 223.536 1103.41 221.423C1102.63 218.482 1100.88 216.415 1097.94 215.496C1096.75 213.015 1095.69 210.35 1092.29 210.167C1091.65 209.845 1091.19 209.386 1090.78 208.788C1090.09 207.64 1090.09 206.262 1089.49 205.113C1088.57 203.505 1086.41 204.148 1085.31 202.862C1084.07 201.713 1084.71 199.554 1082.92 198.727C1081.5 198.13 1079.8 198.221 1078.6 197.119C1077.54 194.179 1076.35 191.33 1072.86 190.457C1072.17 186.368 1067.99 185.955 1065.65 183.612C1064.96 180.396 1063.03 178.925 1059.63 179.247C1057.79 179.385 1055.86 179.385 1054.16 178.42C1052.23 176.95 1052.6 173.688 1049.8 172.907C1046.86 172.08 1047.59 168.313 1045.11 167.072C1040.93 165.924 1037.53 167.072 1034.77 170.38C1033.26 169.507 1033.3 167.945 1032.93 166.521C1032.89 166.016 1032.89 165.556 1032.93 165.051C1033.53 162.018 1031.92 161.054 1029.26 161.008C1024.8 160.962 1020.35 161.008 1015.89 161.008C1015.34 161.008 1014.83 161.008 1014.28 161.008C1009.41 161.008 1004.5 161.008 999.626 161.008C997.788 161.008 995.813 161.283 994.25 159.813C994.572 156.735 997.145 157.24 998.983 157.194C1004.22 156.919 1009.5 157.011 1014.74 157.194C1015.66 157.332 1016.58 157.424 1017.5 157.378C1018.51 157.332 1019.79 157.7 1020.39 156.505C1021.13 154.989 1019.79 154.3 1018.88 153.519C1017.04 152.233 1016.67 149.66 1014.51 148.649C1008.68 147.041 1008.26 146.536 1008.17 140.563C1008.08 135.372 1008.17 130.18 1008.08 124.989C1008.03 124.207 1007.76 123.564 1007.16 123.105C1003.62 122.278 1002.38 120.027 1002.43 116.489C1002.57 108.863 1002.11 101.236 1002.24 93.6095C1001.51 91.1745 998.753 92.2312 997.421 90.8529C996.777 90.3016 996.318 89.6125 996.042 88.7855C995.445 77.1619 995.629 65.5843 995.904 53.9608C996.042 53.3635 996.272 52.8581 996.64 52.3987C997.099 51.9852 997.604 51.8934 998.156 52.1231C999.672 53.823 999.488 55.9823 999.534 58.0497C999.58 64.1142 999.534 70.1786 999.58 76.289C999.58 77.9889 999.212 79.8266 1000.96 81.6644C1002.15 76.1053 1006.38 76.6565 1010.33 76.6106C1013.87 76.6106 1017.36 76.6106 1020.9 76.6106C1024.89 76.6106 1027.93 77.1619 1031.19 80.8374C1033.81 83.7318 1036.24 87.591 1040.24 89.4287C1042.63 90.5313 1042.58 93.0123 1042.72 95.2635C1043.13 101.42 1043.27 101.558 1049.57 101.558C1055.63 101.558 1061.74 101.787 1067.76 101.282C1070.75 101.006 1073.18 101.649 1074.28 104.82C1074.97 106.841 1076.58 107.255 1078.46 107.3C1081.04 107.392 1083.56 107.3 1086.14 107.346C1089.26 107.346 1091.88 107.99 1092.71 111.573C1092.89 112.354 1093.26 113.089 1093.99 113.503C1099 116.443 1103.23 120.119 1106.26 125.218C1107.27 126.918 1109.43 126.459 1111.13 126.505C1114.16 126.596 1116.87 127.102 1118.39 130.134C1119.58 132.431 1121.79 132.247 1123.86 132.247C1130.24 132.339 1136.63 132.247 1143.01 132.293C1146.09 132.293 1148.76 132.891 1149.63 136.474C1150.27 139.277 1152.71 138.863 1154.73 138.909C1157.95 139.001 1159.97 140.333 1162.36 142.722C1165.43 145.755 1167.87 149.568 1171.68 151.911C1172.65 152.508 1173.61 153.151 1173.98 154.254C1174.9 156.919 1176.97 157.194 1179.35 157.24C1185.92 157.24 1192.45 157.149 1199.02 157.286C1200.67 157.286 1202.33 157.194 1202.92 155.265C1203.93 152.049 1206.46 151.452 1209.36 151.452C1211.28 151.452 1213.21 151.406 1215.1 151.452C1218.22 151.543 1220.24 150.441 1222.72 148.006C1225.99 144.79 1228.56 140.885 1232.74 138.22C1235.59 136.428 1238.16 132.845 1240.41 129.721C1241.88 127.653 1243.54 126.688 1245.93 126.551C1247.99 126.459 1250.06 126.413 1252.17 126.505C1255.67 126.642 1258.01 125.953 1260.26 122.37C1262.14 119.429 1265.13 115.754 1268.67 114.651C1273.68 113.135 1279.1 113.778 1284.33 114.468C1284.98 114.559 1285.8 114.789 1285.99 115.34C1287.32 119.797 1293.11 120.073 1294.4 124.667C1295.04 126.964 1297.57 126.413 1299.4 126.459C1302.53 126.551 1305.47 126.734 1306.89 130.318C1307.76 132.569 1310.06 132.202 1311.9 132.247C1315.16 132.339 1317.96 133.029 1319.11 136.566C1319.71 138.404 1321.18 138.909 1322.88 138.909C1333.77 139.047 1344.61 139.001 1355.5 138.909C1358.07 138.909 1359.36 137.715 1359.31 135.142C1359.22 130.961 1359.5 127.102 1364.64 125.815C1365.93 125.494 1366.02 123.748 1366.57 122.645C1367.63 120.578 1369.01 120.302 1370.8 121.727C1371.81 122.232 1371.58 124.116 1373.51 123.794C1390.55 120.946 1407.69 122.783 1424.83 122.783C1426.89 122.783 1428.96 123.151 1430.62 124.621C1431.54 126.137 1429.97 127.975 1431.26 129.445C1432.13 132.202 1434.38 132.293 1436.73 132.293C1440.22 132.293 1443.48 132.615 1444.49 136.934C1444.95 138.863 1446.83 138.863 1448.44 138.909C1452.9 139.047 1457.35 139.001 1461.86 138.909C1463.97 138.909 1465.49 138.128 1466.27 136.015C1467.14 133.672 1469.02 132.569 1471.41 132.385C1475.41 132.11 1479.41 132.11 1483.36 132.385C1485.61 132.523 1487.45 133.35 1487.77 135.923C1488.09 138.312 1487.68 140.333 1485.24 141.574C1484.19 142.079 1482.39 142.263 1482.95 144.055C1483.5 145.801 1485.29 145.617 1486.62 145.479C1500.95 143.963 1515.33 145.066 1529.67 144.744C1532.15 144.698 1534.45 144.606 1535.5 141.712C1536.28 139.598 1538.26 139.231 1540.24 139.093C1542.76 138.909 1545.38 138.771 1547.91 139.047C1551.95 139.461 1554.34 138.082 1554.57 133.81C1556.45 132.845 1558.66 132.431 1558.98 135.096C1559.39 138.22 1561.32 138.082 1563.35 138.036C1577.31 137.944 1591.28 138.358 1605.25 137.623C1607.91 137.485 1609.84 135.509 1612.41 135.555C1616.64 140.609 1620.59 140.471 1623.85 135.096C1626.06 131.466 1641.63 130.777 1643.61 134.453C1646.27 139.415 1651.74 141.528 1654.68 145.984C1657.21 149.844 1661.98 151.406 1663.87 155.724C1664.83 157.976 1666.67 157.424 1668.37 157.378C1675.08 157.24 1681.79 157.011 1688.49 157.516C1694.14 157.93 1695.16 158.894 1695.34 164.499C1695.48 167.532 1697.04 169.323 1698.78 171.712C1701.54 175.434 1706.64 176.72 1708.16 181.452C1708.52 182.693 1709.72 183.014 1710.87 183.06C1713.9 183.29 1716.93 183.244 1719.96 183.06C1720.61 183.06 1721.57 183.014 1721.76 182.601C1723.46 179.063 1726.99 177.317 1729.38 174.561C1730.9 172.815 1731.63 170.656 1734.11 169.645C1735.86 168.956 1735.49 166.934 1735.63 165.372C1736.18 158.481 1737.01 157.838 1743.76 157.838C1747.48 157.838 1750.56 158.021 1752.4 162.156C1753.64 164.913 1758.79 164.729 1760.44 161.973C1762.6 158.297 1767.56 157.332 1768.8 152.784C1769.12 151.635 1771.33 151.635 1772.75 151.589C1776.29 151.452 1779.78 151.498 1783.32 151.589C1785.89 151.681 1787.91 152.554 1789.2 154.989C1790.85 158.159 1795.4 158.711 1796.37 162.845C1796.64 164.04 1798.44 163.351 1798.89 162.156C1800.55 157.838 1804.32 157.562 1807.99 157.378C1813.6 157.149 1819.2 157.194 1824.76 157.378C1827.15 157.47 1829.17 157.24 1830.32 154.714C1831.47 152.187 1833.81 151.635 1836.34 151.589C1841.12 151.498 1845.94 151.543 1850.72 151.589C1853.02 151.589 1854.62 150.946 1855.68 148.695C1857.33 145.249 1861.01 143.504 1863.26 140.379C1865.51 137.209 1874.61 139.139 1876.68 142.585C1877.18 143.412 1877.41 144.376 1878.38 144.836C1883.29 147.041 1885.82 151.773 1889.4 155.357C1890.69 156.643 1891.88 157.24 1893.49 157.286C1896.06 157.424 1898.59 157.24 1901.16 157.424C1903.51 157.608 1904.84 156.873 1906.03 154.622C1907.69 151.452 1911.22 149.844 1913.43 146.903C1914.67 145.203 1917.57 145.617 1919.54 147.317L1919.91 147.179Z" fill="#0E1024"/>
<path d="M1042.61 79.8916C1042.55 75.3891 1044.77 73.1379 1049.27 73.1379C1052.94 73.1379 1056.62 73.1379 1060.3 73.1379C1063.65 73.1379 1067.19 72.4028 1066.77 77.8701C1066.59 80.4889 1069.21 79.7998 1070.82 79.7998C1080.88 79.8457 1090.99 79.7998 1101.05 79.7998C1103.21 79.7998 1105.23 79.4782 1104.54 83.0618C1103.99 86.0022 1106.75 85.5428 1108.58 85.5428C1119.79 85.5428 1130.96 85.5887 1142.17 85.5428C1145.34 85.5428 1148.51 85.2671 1148.28 89.9534C1148.28 90.0912 1148.28 90.3669 1148.37 90.4128C1152.09 91.883 1154.16 95.0072 1156.82 97.672C1158.25 99.0962 1160.55 99.6016 1161.01 102.312C1161.37 104.426 1163.07 104.839 1165.05 104.793C1170.47 104.701 1175.94 104.747 1181.36 104.793C1183.7 104.793 1185.59 104.38 1185.59 101.531C1185.59 98.3611 1187.65 98.0395 1190.13 98.0855C1197.67 98.0855 1205.16 98.1774 1212.69 98.0855C1215.49 98.0855 1217.42 98.7287 1217.29 102.037C1217.15 104.931 1219.17 104.839 1221.19 104.839C1228.86 104.839 1236.54 104.839 1244.21 104.839C1246.09 104.839 1248.57 104.564 1248.71 107.182C1248.9 110.812 1251.1 110.674 1253.58 110.628C1256.48 110.582 1259.33 110.582 1262.22 110.628C1264.88 110.674 1267.37 110.904 1267.32 106.907C1267.27 104.242 1269.71 104.885 1271.32 104.839C1278.99 104.793 1286.66 104.747 1294.33 104.839C1297 104.839 1299.07 104.747 1298.93 101.164C1298.79 98.2233 1301.13 98.1314 1303.29 98.1314C1311.15 98.1314 1318.96 98.0395 1326.82 98.2693C1329.11 98.3612 1330.63 98.4071 1330.49 95.6045C1330.4 93.4911 1331.09 92.2965 1333.48 92.3884C1335.59 92.4344 1336.37 93.4451 1336.24 95.3748C1335.91 100.337 1342.9 96.3396 1342.71 100.475C1342.53 105.253 1345.38 105.023 1348.59 104.931C1351.49 104.839 1354.34 104.931 1357.23 104.931C1359.76 104.931 1362.38 105.161 1361.28 101.21C1361.14 100.796 1361.41 99.8773 1361.5 99.8773C1366.56 99.6476 1367.2 93.583 1371.43 92.4803C1372.94 92.0668 1373.63 91.4695 1373.68 89.9534C1373.77 86.3238 1375.98 85.6347 1379.15 85.6806C1388.57 85.8184 1398.03 85.7725 1407.45 85.6806C1410.25 85.6806 1412.18 86.2779 1412.04 89.5858C1412 90.9642 1412.27 92.3425 1413.97 92.2965C1416.87 92.1587 1418.02 93.3992 1417.92 96.2477C1417.88 97.9476 1419.3 98.1314 1420.68 98.1774C1427.39 98.4071 1434.1 97.7179 1440.8 98.5449C1442.09 98.6827 1443.33 97.7639 1443.1 96.6612C1442.41 93.2614 1444.02 92.3884 1446.96 92.2965C1448.98 92.2046 1449.49 90.6426 1449.53 88.8967C1449.53 86.7373 1450.73 85.7265 1452.84 85.7265C1455.18 85.7265 1455.32 87.2886 1455.28 88.9886C1455.28 91.7911 1456.98 92.4803 1459.37 92.4344C1462.58 92.3884 1465.75 92.2965 1468.97 92.4344C1472.37 92.6181 1475.12 92.4803 1474.57 87.84C1474.34 85.8184 1476.09 85.7265 1477.61 85.7265C1479.35 85.7265 1481.14 86.186 1481.05 88.2075C1480.78 92.6641 1483.53 92.4803 1486.56 92.4344C1493.78 92.3425 1500.94 92.4344 1508.16 92.4344C1509.95 92.4344 1511.97 92.2506 1511.88 94.8694C1511.74 98.7287 1514.41 98.1774 1516.8 98.1774C1536.46 98.1774 1556.12 98.1774 1575.83 98.1774C1578.5 98.1774 1581.16 97.9936 1581.07 101.899C1581.07 103.828 1580.43 104.931 1578.31 104.885C1576.38 104.885 1574.46 104.931 1572.57 104.885C1570.23 104.793 1568.48 105.115 1568.53 108.101C1568.53 111.455 1565.82 110.628 1563.93 110.628C1550.66 110.674 1537.38 110.628 1524.1 110.628C1519.18 110.628 1514.22 110.628 1509.31 110.628C1507.33 110.628 1505.36 110.582 1505.59 113.615C1505.86 116.877 1503.79 117.474 1500.99 117.382C1495.25 117.244 1489.46 117.336 1483.72 117.382C1482.34 117.382 1480.68 116.968 1481.01 119.403C1481.56 123.676 1479.17 124.549 1475.58 124.136C1474.48 123.998 1473.33 124.09 1472.23 124.044C1470.81 124.044 1468.51 122.068 1468.55 125.468C1468.55 127.903 1468.74 130.062 1472.46 129.971C1483.35 129.741 1494.19 129.879 1505.08 129.879C1512.43 129.879 1519.78 129.879 1527.13 129.879C1529.34 129.879 1531.64 129.879 1531.08 133.003C1530.44 136.587 1532.88 136.541 1535.13 136.541C1542.66 136.587 1550.15 136.541 1557.69 136.587C1559.94 136.587 1562.74 135.76 1562.19 139.986C1561.91 142.008 1563.98 142.33 1565.68 142.33C1568.71 142.33 1571.74 142.33 1574.78 142.33C1578.13 142.284 1581.62 141.64 1581.44 146.97C1581.35 148.945 1583.55 149.037 1585.16 149.037C1589.02 149.037 1592.83 149.037 1596.69 149.037C1598.07 149.037 1600.18 148.762 1600.14 150.645C1599.95 155.653 1603.35 154.734 1606.29 154.78C1609.74 154.78 1613.83 153.861 1612.96 159.742C1612.82 160.799 1613.83 161.442 1614.89 161.396C1617.46 161.258 1618.65 162.223 1618.75 164.934C1618.84 166.955 1620.63 167.231 1622.33 167.231C1625.87 167.231 1629.36 167.139 1632.9 167.231C1635.65 167.323 1638.09 167.369 1637.9 163.464C1637.81 161.442 1639.6 161.488 1641.03 161.488C1649.53 161.488 1657.98 161.488 1666.48 161.488C1666.94 161.488 1667.86 161.488 1667.86 161.58C1668 166.496 1674.38 166.45 1675.16 170.631C1675.67 173.296 1676.63 173.847 1679.35 173.571C1682.93 173.204 1686.65 173.801 1690.28 173.939C1692.67 174.031 1694.51 173.342 1694.37 170.539C1694.23 167.599 1695.89 167.093 1698.27 167.185C1700.98 167.277 1703.7 167.277 1706.45 167.185C1709.9 167.093 1713.21 166.542 1712.88 172.009C1712.7 174.812 1715.78 173.847 1717.48 173.847C1742.93 173.893 1768.34 173.847 1793.79 173.847C1799.21 173.847 1804.68 173.847 1810.1 173.847C1811.8 173.847 1813.46 173.801 1813.41 171.458C1813.36 169.437 1812.95 167.507 1810.47 167.231C1808.72 167.047 1806.93 167.093 1805.19 167.185C1802.66 167.323 1800.82 167.001 1800.87 163.739C1800.87 160.707 1798.34 161.442 1796.59 161.442C1783.18 161.396 1769.72 161.35 1756.3 161.442C1753.13 161.442 1750.56 161.442 1750.97 157.032C1751.25 154.367 1748.9 154.688 1747.2 154.688C1741.28 154.688 1735.35 154.643 1729.47 154.688C1726.99 154.688 1724.97 154.551 1725.15 151.243C1725.24 149.313 1723.96 148.854 1722.3 148.9C1720.56 148.9 1718.77 148.808 1717.02 148.9C1713.99 149.083 1712.61 147.797 1712.7 144.673C1712.84 140.859 1712.75 137 1712.7 133.141C1712.7 131.211 1712.93 129.649 1715.46 129.649C1717.8 129.649 1719.64 129.787 1719.45 132.865C1719.32 135.622 1721.02 136.403 1723.45 136.357C1726.81 136.311 1730.16 136.357 1733.51 136.357C1736.13 136.357 1738.52 136.035 1737.79 132.36C1737.79 132.222 1737.74 131.9 1737.79 131.9C1742.06 130.476 1743.76 125.973 1747.2 123.722C1749 122.574 1751.62 122.803 1750.83 119.403C1750.33 117.244 1752.17 117.198 1753.59 117.198C1756.81 117.152 1759.98 117.198 1763.19 117.198C1766.32 117.198 1769.99 116.233 1769.49 121.609C1769.35 123.263 1770.87 123.171 1772.29 123.125C1776.7 122.987 1781.16 123.125 1785.57 123.125C1787.68 123.125 1788.55 124.274 1788.42 126.111C1788.19 129.327 1789.98 129.741 1792.6 129.695C1800.59 129.603 1808.59 129.695 1816.58 129.695C1818.37 129.695 1820.12 130.017 1819.61 126.984C1819.29 125.009 1820.81 123.86 1822.97 123.906C1826 123.952 1829.03 123.906 1832.06 123.906C1835.1 123.906 1838.91 122.849 1838.54 128.133C1838.54 128.5 1839 129.236 1839.28 129.236C1843.59 129.19 1845.39 131.027 1845.2 135.53C1845.16 136.954 1862.66 136.587 1863.4 134.979C1863.67 134.335 1863.4 133.462 1863.4 132.681C1863.26 130.752 1863.9 129.557 1866.06 129.695C1868.91 129.879 1870.2 128.592 1870.15 125.744C1870.15 124.595 1870.7 123.125 1871.99 123.401C1876.81 124.32 1875.8 120.874 1875.85 118.393C1875.94 113.431 1875.85 108.469 1875.85 103.507C1875.85 102.404 1875.66 100.429 1876.03 100.291C1880.26 98.8206 1882.05 94.5018 1885.59 92.3884C1886.6 91.7911 1888.25 92.0209 1888.25 90.3209C1888.25 85.2212 1891.7 85.5887 1895.19 85.5428C1897.95 85.4968 1902.22 87.1508 1901.12 81.224C1900.84 79.57 1902.95 79.8457 1904.15 79.8457C1909.43 79.8457 1914.72 79.8457 1920 79.8457V287.191C1916.92 287.375 1912.79 285.767 1913.11 291.464C1913.11 291.739 1912.83 292.245 1912.69 292.245C1908.61 292.337 1907.09 294.726 1906.86 298.493C1906.81 299.228 1905.67 299.458 1904.84 299.228C1901.21 298.218 1897.53 298.861 1893.86 298.769C1891.01 298.723 1888.21 298.907 1888.25 294.818C1888.25 293.991 1887.75 293.072 1886.87 293.164C1883.15 293.439 1883.57 289.856 1882.1 288.569C1879.29 286.042 1875.99 284.434 1873.78 280.851C1872.95 279.518 1868.08 280.621 1865.05 280.667C1864.91 280.667 1864.59 280.759 1864.59 280.759C1865.37 286.594 1856.05 285.169 1857.06 291.326C1857.47 293.761 1855.13 292.934 1853.98 292.98C1848.05 293.072 1842.12 293.072 1836.24 292.98C1833.76 292.98 1831.79 293.302 1831.7 296.472C1831.6 299.228 1829.44 299.09 1827.51 299.045C1821.45 298.953 1815.39 298.631 1809.32 298.861C1805.69 298.999 1801.05 297.896 1800.68 304.144C1800.55 306.166 1798.06 305.293 1796.59 305.431C1795.26 305.523 1794.76 304.925 1794.66 303.409C1794.53 301.25 1794.89 298.309 1790.9 299.228C1790.02 299.412 1788.6 298.493 1788.65 297.161C1788.74 292.842 1785.89 292.888 1782.81 292.934C1779.27 293.026 1775.78 292.934 1772.24 292.934C1770.96 292.934 1768.89 292.934 1769.12 294.312C1769.85 298.493 1768.2 299.917 1764.3 299.78C1763.42 299.78 1762.92 300.469 1762.73 301.342C1762.37 302.766 1763.24 305.017 1760.99 305.247C1758.14 305.523 1755.24 305.339 1752.4 305.201C1751.52 305.201 1751.16 304.19 1751.2 303.363C1751.34 299.136 1749.09 299.136 1745.6 299.504C1738.15 300.377 1738.11 300.101 1737.69 308.095C1737.69 308.555 1737.79 309.428 1737.65 309.474C1733.19 310.714 1732.64 316.182 1728.92 317.744C1726.71 318.663 1725.11 319.076 1725.24 321.695C1725.34 324.038 1724.09 324.727 1721.98 324.635C1718.77 324.543 1715.59 324.543 1712.38 324.635C1709.3 324.727 1706.36 324.865 1706.91 320.408C1706.91 320.133 1706.82 319.581 1706.68 319.536C1702.55 318.617 1700.98 314.298 1698.04 312.552C1695.2 310.898 1694.6 309.566 1694.55 306.901C1694.32 297.482 1696.07 299.596 1686.65 298.907C1679.85 298.401 1672.91 297.988 1666.11 299.412C1664.09 299.826 1663.13 298.723 1662.94 296.839C1662.85 295.874 1662.71 294.955 1662.58 293.991C1656.6 294.818 1657.02 287.788 1652.65 285.905C1649.71 284.618 1648.42 279.932 1644.01 279.105C1642.77 278.875 1645.12 274.143 1641.58 273.959C1636.66 273.683 1631.7 273.959 1626.74 274.097C1625.87 274.097 1625.59 275.108 1625.54 275.935C1625.41 277.635 1625.73 279.886 1623.52 280.299C1620.4 280.851 1617.09 281.126 1614.06 280.116C1612.31 279.518 1613.23 277.267 1613 275.751C1612.36 275.383 1611.62 275.383 1610.93 275.291C1607.26 274.786 1603.49 275.889 1599.91 274.419C1599.45 274.143 1599.17 273.729 1599.08 273.224C1599.17 269.962 1597.15 269.411 1594.44 269.411C1588.47 269.411 1582.45 269.686 1576.48 269.227C1574.09 268.721 1573.9 266.792 1573.63 264.908C1573.49 264.495 1573.35 264.081 1573.17 263.668C1572.85 263.346 1572.48 263.07 1572.07 262.887C1567.93 262.473 1563.8 262.519 1559.71 262.749C1554.56 263.07 1550.1 262.427 1547.26 257.557C1545.19 257.052 1543.12 257.235 1541.05 257.052C1538.66 256.868 1536.55 256.225 1535.91 253.606C1535.17 250.803 1533.11 250.482 1530.76 250.436C1528.19 250.436 1525.66 250.528 1523.09 250.344C1521.16 250.206 1519 250.022 1518.17 248.001C1516.84 244.785 1514.27 244.693 1511.47 244.693C1493.41 244.693 1475.35 244.693 1457.3 244.693C1454.68 244.693 1452.24 244.785 1450.91 247.725C1449.85 250.114 1447.42 250.252 1445.12 250.344C1440.34 250.528 1435.52 250.344 1430.74 250.436C1428.58 250.482 1426.56 250.803 1425.69 253.238C1424.59 256.317 1422.06 257.006 1419.16 257.098C1417.23 257.144 1415.31 257.281 1413.42 257.098C1410.07 256.868 1407.45 257.787 1406.25 261.233C1402.99 263.438 1399.04 261.324 1395.64 262.841C1394.54 262.933 1393.57 262.749 1392.79 261.922C1391.55 260.543 1392.65 258.108 1390.63 257.098C1385.95 257.098 1381.31 256.454 1376.71 257.557C1374.64 258.66 1375.24 262.519 1371.89 262.289C1371.66 262.289 1371.43 262.243 1371.2 262.197C1369.18 261.095 1368.26 261.692 1368.3 264.035C1368.35 265.689 1368.17 267.803 1366.19 267.711C1361.18 267.481 1361.55 270.605 1361.6 273.913C1361.69 280.437 1361.6 280.437 1355.16 280.437C1344.28 280.437 1333.39 280.391 1322.54 280.437C1319.97 280.437 1318.32 280.07 1318.32 276.9C1318.32 272.856 1315.01 273.867 1312.62 273.729C1309.54 273.546 1305.54 275.016 1305.64 269.411C1305.64 267.757 1303.8 268.032 1302.56 267.986C1299.99 267.894 1296.17 268.905 1295.16 267.665C1292.68 264.587 1288.73 261.922 1287.49 259.349C1285.61 255.536 1283.81 255.49 1280.87 255.49C1278.3 255.49 1275.77 255.49 1273.2 255.49C1270.4 255.49 1267.37 254.754 1267.41 259.441C1267.46 263.07 1260.7 259.027 1261.21 264.632C1261.71 270.375 1256.8 267.343 1254.27 267.894C1252.11 268.354 1249.81 268.032 1247.56 267.986C1244.94 267.94 1243.57 268.216 1242.14 271.478C1240.86 274.419 1235.94 275.751 1235.62 280.207C1231.85 279.886 1229.78 281.31 1229.6 285.399C1229.6 286.502 1227.62 286.042 1226.66 286.594C1225.42 287.237 1223.44 287.558 1223.81 289.304C1224.68 293.485 1221.84 292.842 1219.54 292.934C1216.64 293.026 1213.79 292.98 1210.9 292.934C1207.78 292.888 1204.56 292.383 1205.02 297.299C1205.16 298.723 1204.01 299.412 1202.4 299.228C1194.13 298.126 1185.81 298.999 1177.5 298.723C1175.39 298.677 1173 298.999 1173.92 295.553C1174.01 295.139 1173.73 294.266 1173.55 294.266C1169.18 293.715 1168.54 289.213 1165.92 287.283C1163.62 285.583 1161.46 284.802 1160.64 281.586C1160.09 279.472 1157.24 280.713 1155.45 280.529C1152.18 280.207 1147.86 281.815 1148.78 275.521C1149.11 273.316 1146.53 273.821 1145.06 273.821C1137.39 273.775 1129.72 273.775 1122.04 273.821C1119.89 273.821 1117.82 273.959 1117.82 270.789C1117.82 268.492 1116.07 268.032 1114.1 268.032C1112.49 268.032 1110.88 268.032 1109.32 268.032C1108.35 268.032 1106.61 268.032 1106.56 267.849C1106.06 262.887 1100.54 261.968 1098.84 258.2C1098.06 256.454 1097.6 255.398 1095.67 255.536C1093.1 255.765 1091.68 254.846 1091.95 252.044C1092.23 249.471 1090.85 248.736 1088.46 248.782C1084.78 248.874 1081.11 248.782 1077.43 248.782C1075.32 248.782 1073.53 248.598 1073.71 245.795C1073.9 242.625 1072.29 242.487 1069.48 242.625C1062 243.039 1054.51 242.763 1046.97 243.039C1043.2 243.177 1041.64 241.706 1042.01 237.985C1042.15 236.561 1042.01 235.09 1042.01 233.666C1042.01 233.023 1042.01 231.828 1041.92 231.828C1036.73 231.461 1037.05 224.661 1032.36 223.788C1031.03 223.559 1029.51 223.559 1029.65 221.813C1029.93 217.448 1026.99 217.953 1024.28 217.953C1018.53 217.953 1012.74 217.953 1007 217.953C1005.48 217.953 1003.46 217.586 1004.29 220.388C1004.93 222.594 1004.15 223.696 1001.72 223.742C999.328 223.742 998.777 222.502 998.777 220.434C998.823 211.016 998.777 201.551 998.777 192.133C992.207 192.271 991.564 191.811 991.656 185.012C991.747 177.293 991.012 169.528 992.115 161.856C993.401 159.926 994.826 158.732 996.985 160.799C994.918 164.383 996.158 168.288 995.928 172.009C995.745 174.95 995.836 177.936 995.928 179.774C996.526 174.444 994.918 167.92 996.755 161.488C997.031 161.258 997.536 161.121 997.582 161.258C999.374 166.358 1003.6 165.715 1007.69 165.623C1012.28 165.531 1017.15 164.934 1019.22 170.861C1019.73 172.331 1021.61 172.193 1023.04 172.285C1025.75 172.423 1028.46 172.285 1031.17 172.423C1032.96 172.515 1035.12 172.561 1035.85 174.261C1037.65 178.487 1041.14 178.212 1044.67 178.12C1048.4 178.028 1052.49 178.947 1054.23 174.031C1054.64 172.836 1056.34 172.699 1057.45 172.101C1060.16 170.677 1059.74 168.196 1059.56 165.807C1059.38 163.51 1057.63 163.05 1055.79 162.958C1051.61 162.775 1047.34 163.188 1046.19 157.399C1045.87 155.699 1043.43 156.205 1041.92 156.159C1038.61 156.067 1035.53 155.883 1034.11 152.024C1033.33 149.956 1031.17 150.37 1029.51 150.37C1026.11 150.37 1023.17 149.91 1022.02 145.913C1021.43 143.846 1019.5 143.662 1017.71 143.662C1011.18 143.57 1004.61 143.662 998.088 143.616C995.423 143.616 993.355 144.121 992.896 147.246C992.758 148.21 992.023 148.9 991.058 149.359C990.185 149.543 989.404 149.359 988.761 148.716C986.877 142.146 988.302 135.392 987.888 128.73C987.704 125.882 988.256 122.941 986.831 120.276C986.648 118.852 987.107 117.795 988.623 117.474C991.012 116.968 991.885 118.806 992.942 120.322C994.596 122.068 996.755 121.701 998.823 121.609C1004.57 121.425 1010.31 121.287 1016.01 122.114C1019.82 122.666 1023.68 122.62 1025.75 126.846C1026.44 128.271 1028.23 128.133 1029.65 128.179C1037.78 128.271 1045.92 128.271 1054.05 128.179C1055.98 128.179 1057.91 128.041 1058.83 125.79C1060.16 122.482 1062.96 121.655 1066.18 121.517C1068.43 121.425 1070.63 121.471 1072.88 121.471C1075.23 121.471 1077.34 121.149 1078.35 118.576C1079 116.968 1080.56 116.371 1081.94 115.59C1084.88 113.982 1084.74 111.134 1084.28 108.469C1083.82 105.85 1081.38 106.447 1079.59 106.309C1076.88 106.172 1074.17 106.309 1071.46 106.218C1068.75 106.126 1066.36 105.528 1065.53 102.45C1064.84 99.7854 1062.68 99.9692 1060.57 99.6935C1055.38 99.0503 1050 100.475 1044.95 98.499C1043.07 96.6612 1044.17 94.364 1043.94 92.2506C1043.53 88.1156 1044.95 83.7969 1043.02 79.7538L1042.61 79.8916Z" fill="#131327"/>
<path d="M0.091888 73.1838C7.12132 73.1838 14.1508 73.2297 21.2261 73.1838C23.6612 73.1838 25.3611 73.6432 25.0854 76.5377C25.0854 76.6755 25.0854 76.8593 25.0854 76.9971C24.8098 81.4537 34.458 78.0998 31.3338 84.8995C31.1041 85.4049 41.2118 86.094 42.7739 85.4968C43.6468 85.1752 44.1981 84.5779 44.1522 83.7509C43.8306 79.4781 46.6791 79.8457 49.4817 79.8457C57.0165 79.8457 64.5054 79.8457 72.0402 79.8457C74.1996 79.8457 76.3589 79.57 75.486 83.1077C74.9347 85.3589 76.9562 85.5887 78.6102 85.5887C82.4695 85.6346 86.2828 85.5887 90.1421 85.5887C92.2555 85.5887 94.1392 85.9562 94.1392 88.575C94.1392 91.9749 96.2527 92.2965 98.9174 92.3424C102.317 92.4343 106.82 90.5506 107.141 96.9828C107.233 98.8205 110.174 97.9935 111.828 98.0395C115.411 98.1773 119.592 97.0287 119.317 103.093C119.225 105.069 121.338 104.747 122.716 104.747C128.643 104.747 134.57 104.793 140.497 104.747C142.978 104.747 145.045 105.069 145.091 108.193C145.091 110.49 146.791 110.536 148.491 110.536C158.736 110.536 168.982 110.536 179.228 110.536C180.606 110.536 182.719 110.766 182.26 108.653C181.203 104.104 184.327 104.839 186.762 104.839C196.181 104.793 205.645 104.747 215.064 104.839C218.004 104.839 220.21 104.426 220.026 100.75C219.888 98.5908 221.22 97.9935 223.104 98.0854C228.525 98.3152 233.947 97.7179 239.368 98.4989C241.895 98.8665 245.433 99.5097 245.065 94.6856C244.881 92.3884 246.673 92.2965 248.373 92.2965C253.795 92.2965 259.262 92.2046 264.683 92.2965C267.716 92.3424 270.151 92.0668 270.105 88.1156C270.105 86.4616 271.207 85.7265 272.999 85.7265C283.015 85.7265 293.077 85.7265 303.093 85.4968C305.941 85.4508 307.825 85.9562 307.457 89.3561C307.182 91.7911 308.744 92.2505 310.765 92.2505C314.946 92.2046 319.081 92.2505 323.262 92.2505C325.329 92.2505 326.616 92.71 326.616 95.145C326.616 97.58 325.329 98.1314 323.262 98.0395C321.332 97.9935 319.403 98.0395 317.519 98.0395C315.681 98.0395 314.211 98.7287 314.211 100.704C314.211 104.793 311.638 104.747 308.698 104.747C295.42 104.701 282.142 104.747 268.864 104.747C266.337 104.747 263.948 104.518 264.132 108.239C264.224 110.582 262.386 110.49 260.732 110.536C256.873 110.536 253.06 110.536 249.2 110.536C246.857 110.536 245.157 111.042 244.973 113.89C244.836 116.371 245.846 117.428 248.327 117.29C249.522 117.244 250.67 117.658 250.67 119.082C250.67 123.171 253.381 123.217 256.276 123.033C259.997 122.803 263.397 122.803 264.086 127.719C264.454 130.2 266.567 129.741 268.267 129.741C275.94 129.741 283.612 129.741 291.285 129.741C293.123 129.741 295.236 129.741 294.777 132.314C294.088 136.311 296.477 136.449 299.233 136.449C311.225 136.449 323.216 136.449 335.207 136.449C351.839 136.357 368.471 136.219 385.057 136.081C387.4 136.081 389.238 136.219 388.916 139.297C388.686 141.64 390.019 142.329 392.178 142.284C396.037 142.192 399.851 142.375 403.71 142.238C406.788 142.1 408.902 142.651 407.891 146.464C407.431 148.164 408.258 148.854 409.866 148.854C416.39 148.899 422.869 148.854 429.393 149.037C432.011 149.083 433.344 148.256 433.068 145.5C433.068 145.178 433.068 144.856 433.068 144.535C432.93 140.124 439.638 144.719 439.271 139.619C438.903 134.243 442.9 136.357 445.657 136.357C457.418 136.357 469.226 136.265 480.988 136.127C482.366 136.127 482.917 134.978 482.871 133.784C482.779 130.108 484.985 129.603 487.879 129.787C489.166 129.879 490.452 129.787 491.739 129.787C501.341 129.787 501.708 129.787 501.984 120.506C502.122 115.912 506.487 118.485 507.589 116.187C508.554 114.166 506.762 110.996 511.724 110.95C517.421 110.904 523.21 110.858 528.907 110.628C529.872 110.628 531.618 110.536 531.664 110.812C532.675 115.36 537.729 116.647 539.428 120.322C540.347 122.298 540.945 123.079 542.966 123.125C551.558 123.401 560.195 122.436 568.833 123.63C570.808 123.906 571.314 122.344 571.222 120.828C570.992 117.566 572.876 117.244 575.449 117.29C581.192 117.382 586.98 117.29 592.723 117.29C594.653 117.29 596.537 117.106 596.169 114.579C595.618 110.996 597.869 110.766 600.35 110.674C602.096 110.582 603.888 110.536 605.634 110.582C607.517 110.582 608.712 110.077 608.712 107.917C608.712 106.034 608.253 104.747 606.093 104.839C603.291 104.977 601.866 103.737 602.004 100.888C602.096 98.8205 600.993 98.0395 599.018 98.1314C596.95 98.2233 594.883 98.1773 592.769 98.2233C591.988 98.2233 590.518 98.2692 590.518 98.2692C590.334 93.9505 587.256 92.4343 583.994 90.6884C583.397 90.3668 582.202 86.2319 586.291 86.14C587.394 86.14 589.278 85.8643 589.324 84.3022C589.507 78.4214 593.78 79.8916 597.088 79.8916C599.799 79.8916 602.418 80.0754 601.958 76.0783C601.683 73.6892 603.107 73.1378 605.22 73.1378C621.852 73.1378 638.484 73.1378 655.115 73.1378C657.137 73.1378 658.653 73.5054 658.515 75.9404C658.331 79.7078 660.766 79.8916 663.569 79.8457C667.061 79.8457 671.15 78.6511 671.839 84.2103C671.977 85.4508 673.447 85.5887 674.596 85.6346C676.204 85.6805 677.582 86.3697 677.582 88.1156C677.536 92.0208 679.833 92.3884 682.912 92.3424C692.192 92.2505 701.473 92.2505 710.754 92.3424C713.556 92.3424 715.486 92.0208 715.21 88.5291C715.072 86.921 715.945 85.7724 717.783 85.7724C723.802 85.7265 729.866 85.6806 735.885 85.5887C737.952 85.5887 740.02 85.7724 740.02 88.3913C740.02 92.1127 742.363 92.2505 745.166 92.3424C748.428 92.4343 752.976 90.5506 752.93 96.8449C752.93 98.3611 754.952 98.0395 756.146 98.0395C759.822 98.0854 763.497 97.9935 767.173 98.0854C769.792 98.1773 770.619 97.1206 772.135 94.6856C774.064 91.6073 777.786 89.6317 779.716 85.9103C780.221 84.8995 784.264 85.3589 786.607 85.7265C789.41 86.14 791.018 85.6346 790.926 82.5104C790.834 79.9375 792.534 79.7997 794.464 79.7997C799.747 79.7997 805.031 79.8916 810.314 79.7997C813.117 79.7538 815.644 79.6159 815.782 83.4752C815.782 84.3941 816.333 85.5427 817.481 85.4508C820.835 85.2671 822.122 86.7832 821.708 89.9993C821.708 90.3209 821.8 90.9182 821.846 90.9182C826.808 90.9182 827.451 96.6152 831.173 97.9476C832.873 98.5449 834.021 98.7286 834.159 100.796C834.619 107.504 839.81 104.15 842.98 104.655C846.38 105.207 846.518 102.496 846.656 99.9232C846.794 97.4882 845.278 94.1802 848.08 92.8938C851.25 91.4236 854.972 92.2965 858.464 92.4803C859.382 92.5262 859.934 93.3073 859.888 94.1343C859.52 98.3611 862.369 98.1773 865.171 98.0854C865.631 98.0854 866.136 98.0854 866.596 98.0854C873.303 98.0854 876.872 101.409 877.301 108.055C877.392 109.296 877.117 111.409 878.587 111.179C883.549 110.49 883.779 114.304 885.019 117.198C888.419 116.141 889.384 113.063 890.624 110.261C894.346 109.617 896 106.631 897.975 103.966C904.132 103.185 910.334 101.531 916.215 105.161C917.18 106.723 916.996 108.515 917.18 110.261C917.731 115.59 917.685 115.59 923.245 115.682C925.312 115.682 927.38 115.682 929.447 115.728C931.193 115.82 932.939 115.912 934.363 117.198C935.787 125.606 936.201 133.968 934.133 142.329C933.444 142.927 932.617 143.248 931.744 143.34C930.917 143.386 930.136 143.294 929.355 142.973C926.415 141.181 927.104 138.195 926.828 135.438C926.644 133.83 927.931 131.441 924.807 131.119C924.072 131.119 923.336 131.119 922.601 131.119C914.423 131.349 906.291 131.165 898.113 131.211C895.311 131.211 893.197 131.625 891.405 134.565C888.603 139.113 879.138 138.057 876.382 133.6C874.452 130.476 871.42 127.627 868.617 125.836C865.861 124.09 861.22 125.055 857.361 125.33C856.166 125.422 855.247 126.065 854.742 127.168C853.18 130.706 850.148 131.211 846.794 131.211C840.729 131.211 834.619 131.303 828.554 131.211C824.787 131.119 822.811 132.36 823.087 136.403C823.316 139.803 822.673 142.835 818.768 143.938C817.987 144.167 817.527 144.81 817.114 145.546C814.495 150.14 809.763 151.748 804.801 149.956C803.698 149.543 802.458 148.991 802.32 147.935C801.677 143.34 798.277 143.754 795.061 143.754C792.029 143.754 788.996 143.754 785.964 143.754C782.702 143.754 779.486 143.616 778.383 147.797C777.924 149.543 776.086 149.864 774.478 150.14C772.089 150.508 769.7 150.508 767.311 150.416C764.141 150.324 762.027 151.472 759.454 153.724C754.906 157.767 751.322 162.683 746.912 166.772C743.604 169.804 735.609 169.253 733.174 165.623C731.015 162.361 726.65 161.258 725.226 157.078C724.767 155.699 722.01 156.205 720.264 156.159C717.415 156.067 714.843 155.653 713.602 152.575C712.5 149.91 709.881 150.508 707.767 150.278C704.781 150.002 701.932 149.726 701.059 146.143C700.508 143.938 698.716 143.754 696.878 143.708C690.171 143.616 683.463 143.708 676.709 143.708C673.631 143.708 672.344 145.132 672.436 148.118C672.574 151.794 672.161 155.194 668.026 156.756C667.291 157.032 667.061 157.996 666.647 158.64C662.788 164.75 654.748 164.658 651.026 158.318C650.153 156.848 649.051 156.342 647.581 156.251C644.548 156.113 641.516 156.113 638.484 156.251C636.968 156.342 635.589 156.756 635.038 158.364C633.706 162.315 630.535 163.004 626.952 162.821C624.471 162.683 622.633 163.096 621.944 165.945C621.255 168.701 618.82 168.793 616.477 168.655C613.306 168.472 611.469 169.804 608.988 172.147C604.945 175.915 603.658 179.82 602.51 184.874C601.223 190.663 591.851 194.752 585.878 193.281C584.591 192.96 583.581 192.363 582.754 191.306C578.894 186.344 568.924 186.206 565.341 191.122C564.054 192.914 562.354 193.373 560.379 193.511C557.806 193.695 555.279 193.649 552.706 193.603C549.904 193.557 547.744 194.154 546.642 197.141C545.677 199.851 543.196 200.173 540.669 200.265C536.212 200.403 531.71 200.265 527.253 200.357C525.691 200.357 523.532 199.989 522.843 201.505C520.821 205.778 517.1 206.054 513.194 206.375C512 206.467 510.254 206.605 510.438 208.305C510.576 209.637 512.138 209.637 513.194 209.637C517.559 209.637 521.464 210.051 523.118 215.197C523.624 216.851 525.875 216.437 527.437 216.483C532.077 216.575 536.718 216.437 541.358 216.575C543.839 216.667 545.861 217.126 547.193 219.791C548.939 223.283 554.82 223.237 557.163 220.067C560.93 214.921 568.787 215.151 572.83 220.296C574.897 222.961 577.975 224.661 579.675 227.969C580.824 230.22 586.521 229.118 587.853 226.499C589.461 223.237 591.942 222.272 595.25 222.318C597.318 222.318 599.431 222.042 601.499 222.318C610.412 223.65 615.236 218.597 620.703 212.44C623.965 208.719 627.641 202.7 634.854 203.986C637.657 204.492 639.54 205.824 641.792 207.386C645.789 210.143 646.937 215.886 652.405 216.851C652.726 216.897 653.048 217.172 653.14 217.448C654.932 223.834 660.123 222.134 664.534 222.226C671.426 222.364 678.271 222.226 685.163 222.272C688.241 222.272 690.906 222.915 691.917 226.361C692.514 228.475 694.214 228.796 696.052 228.888C698.624 229.026 701.151 228.934 703.724 228.98C706.894 228.98 708.778 230.174 711.121 232.839C713.878 235.963 716.175 240.144 720.448 241.798C722.607 242.625 722.929 245.014 725.226 246.668C726.972 240.925 731.566 241.293 736.069 241.523C738.458 241.615 740.479 242.258 741.49 244.693C741.904 245.749 742.639 246.485 743.695 247.036C750.311 250.665 750.449 259.303 743.971 263.116C743.282 263.53 742.455 263.759 742.501 264.77C742.593 266.057 743.695 266.103 744.614 266.286C745.258 266.424 745.901 266.424 746.544 266.424C756.927 266.424 767.357 266.424 777.74 266.424C780.359 266.424 782.38 265.919 783.391 263.116C784.218 260.865 786.24 260.36 788.445 260.222C791.661 260.038 794.923 259.854 796.255 255.995C796.485 255.26 797.266 254.709 798.047 254.525C801.677 253.652 802.09 250.987 802.044 247.909C802.044 245.244 802.55 242.809 805.352 241.523C808.155 240.236 807.65 237.571 807.787 235.274C807.925 232.196 808.477 229.531 812.06 228.658C814.311 228.107 814.219 226.085 814.311 224.385C814.541 220.94 816.333 218.734 818.354 215.932C821.708 211.337 825.062 209.27 830.392 209.592C831.403 209.637 832.23 208.948 832.551 207.938C833.838 203.986 836.916 203.986 840.27 204.032C851.158 204.17 862.001 204.17 872.89 204.032C875.968 204.032 878.679 204.17 879.919 207.616C880.746 209.913 882.86 209.821 884.744 209.867C889.384 209.959 894.024 209.867 898.665 209.959C901.375 210.005 903.856 210.51 904.729 213.543C905.464 216.024 907.348 216.529 909.553 216.575C912.586 216.667 915.618 216.621 918.65 216.575C921.407 216.529 922.785 217.815 922.877 220.572C923.153 229.072 922.877 230.266 918.145 231.415C917.823 231.737 917.548 232.104 917.318 232.518C916.95 233.85 917.042 235.412 915.756 236.377C914.469 236.377 913.229 236.377 911.942 236.377C911.299 236.928 910.702 236.928 910.059 236.377C903.029 236.377 896 236.285 888.97 236.377C886.535 236.377 884.881 236.009 885.065 233.023C885.203 230.726 884.146 230.312 881.803 230.358C877.392 230.496 872.936 229.853 868.479 229.623C867.009 229.531 865.952 229.118 865.952 227.464C865.952 224.018 863.609 223.788 861.036 223.88C858.142 223.926 855.293 223.972 852.399 223.88C849.321 223.788 846.84 223.88 846.518 228.107C846.288 231.599 842.935 230.496 840.729 230.542C834.297 230.634 834.297 230.542 834.251 237.066C834.251 239.915 834.848 243.085 830.346 243.177C828.324 243.223 828.554 245.014 828.462 246.439C828.232 250.574 828.922 254.709 827.957 258.843C827.543 260.635 828.37 261.784 830.713 261.416C833.975 260.911 834.894 262.657 834.343 265.689C834.067 267.067 834.343 268.584 834.251 270.008C834.251 270.973 833.929 272.719 833.883 272.719C828.095 272.075 829.565 279.289 825.66 280.345C823.73 280.897 821.479 280.713 819.457 280.437C815.46 279.932 814.909 281.999 815.46 285.169C815.598 285.95 815.828 286.731 815.919 287.513C816.011 288.156 815.873 288.799 815.919 289.442C816.792 295.139 810.452 291.326 809.533 294.266C808.706 296.839 810.222 300.331 804.663 299.09C799.839 298.034 794.51 298.172 789.456 299.412C786.607 300.101 784.172 299.78 784.264 296.012C784.356 293.21 782.656 292.98 780.543 293.026C768.23 293.026 755.917 293.072 743.604 293.026C741.26 293.026 739.974 293.669 740.066 296.242C740.158 299.09 738.779 299.274 736.069 299.09C730.372 298.631 724.537 298.723 718.84 299.136C716.267 299.32 715.164 298.907 715.164 296.426C715.164 294.404 714.751 292.934 712.27 293.072C710.294 293.164 709.375 292.337 709.329 290.269C709.283 288.248 710.202 287.053 711.994 287.007C715.67 286.915 715.256 284.526 715.118 282.137C714.889 278.783 712.499 280.805 711.167 280.667C707.308 280.299 702.346 282.183 702.254 275.429C702.254 275.016 701.473 274.464 700.922 274.189C699.635 273.592 697.338 275.246 697.062 272.719C696.695 269.411 696.695 266.057 696.695 262.703C696.695 261.876 697.705 261.462 698.532 261.508C701.565 261.738 703.403 260.543 702.576 257.419C701.794 254.387 705.7 249.057 698.67 248.828C697.797 248.828 696.97 248.184 697.062 247.357C697.66 241.155 693.387 243.131 690.217 243.131C669.404 243.131 648.637 243.131 627.825 243.131C626.4 243.131 624.93 243.131 623.506 243.131C622.266 243.131 621.071 243.59 621.163 244.968C621.438 249.241 618.636 248.92 615.833 248.874C608.482 248.828 601.131 248.874 593.78 248.874C591.207 248.874 589.232 249.425 589.415 252.503C589.553 255.214 588.037 255.627 585.786 255.627C579.859 255.581 573.932 255.581 568.052 255.627C565.8 255.627 564.192 255.168 564.468 252.503C564.79 249.333 563.044 248.782 560.379 248.874C557.484 249.011 554.636 248.966 551.741 248.874C548.204 248.782 544.712 248.552 545.125 253.744C545.217 254.846 544.299 255.536 543.242 255.49C540.301 255.306 539.337 256.684 539.337 259.441C539.337 261.462 537.545 261.324 536.075 261.324C534.007 261.324 531.894 261.324 529.826 261.37C528.632 261.37 527.253 262.014 527.299 263.116C527.575 269.594 522.935 267.894 519.443 267.986C515.767 268.078 512.092 267.986 508.416 267.986C505.384 267.986 502.076 266.976 501.525 272.075C501.249 274.556 484.158 274.74 483.377 272.213C482.55 269.503 481.952 267.527 478.599 267.803C477.45 267.894 477.036 266.746 477.128 265.735C477.358 262.381 475.75 261.095 472.534 261.233C470.512 261.324 470.329 259.762 470.375 258.246C470.466 255.673 469.364 255.122 466.837 255.398C463.529 255.811 460.129 255.627 456.775 255.49C453.927 255.352 451.446 255.352 451.308 259.165C451.308 260.084 450.757 261.233 449.608 261.141C446.208 260.911 445.381 262.519 445.289 265.689C445.197 269.87 440.695 266.608 439.362 268.63C438.306 270.284 440.511 273.775 436.33 273.775C430.082 273.729 423.833 273.729 417.631 273.775C415.655 273.775 414.599 272.994 414.69 270.973C414.828 268.17 413.082 267.986 410.923 267.986C403.067 267.986 395.256 267.894 387.4 268.032C384.597 268.078 382.668 267.573 382.668 264.357C382.668 261.738 381.197 261.233 378.946 261.279C375.133 261.37 371.273 261.279 367.414 261.279C365.163 261.324 363.647 260.911 363.739 258.2C363.83 255.673 362.452 255.03 360.017 255.26C357.031 255.581 353.953 255.536 350.92 255.49C347.842 255.444 344.672 255.03 344.534 259.579C344.534 260.406 343.937 261.049 343.018 261.187C341.272 261.416 339.113 261.187 338.975 263.576C338.745 266.884 338.883 270.284 339.067 273.592C339.113 274.602 340.307 274.235 341.088 274.235C343.753 274.097 345.912 274.373 344.672 278.002C344.58 278.232 344.764 278.875 344.902 278.875C349.772 279.243 350.553 285.078 354.32 286.272C360.109 288.11 357.352 292.429 357.95 295.737C358.593 299.182 356.066 299.182 353.815 299.182C351.518 299.182 351.15 300.561 351.242 302.307C351.426 304.971 349.955 305.477 347.658 305.477C329.097 305.477 310.535 305.431 292.02 305.477C289.493 305.477 287.839 304.879 288.39 301.985C288.896 299.09 287.563 298.769 285.128 298.999C283.245 299.182 281.315 298.815 279.431 298.723C279.294 298.723 279.11 298.723 278.972 298.723C274.929 298.953 277.502 294.174 274.837 293.301C272.724 292.612 269.094 293.899 269.691 289.58C270.38 284.756 263.673 288.477 263.994 284.756C264.362 280.116 261.559 280.437 258.573 280.529C255.678 280.575 252.784 280.713 249.935 280.529C246.765 280.299 243.825 279.886 244.606 284.71C244.836 286.226 243.641 287.099 242.079 286.456C240.792 285.95 238.357 287.329 238.449 284.618C238.587 280.575 236.198 280.437 233.166 280.483C225.953 280.575 218.785 280.483 211.572 280.529C209.137 280.529 207.07 280.529 207.253 277.129C207.391 273.913 205.002 273.775 202.613 273.821C194.94 273.821 187.268 273.821 179.595 273.821C177.252 273.821 175.414 273.592 175.598 270.559C175.736 268.354 174.22 268.032 172.428 268.032C166.179 268.032 159.931 268.032 153.729 268.032C153.591 268.032 153.315 267.986 153.269 268.032C151.11 271.892 146.791 273.546 144.034 276.808C143.805 277.083 143.943 277.726 143.943 278.232C143.851 282.045 137.694 279.013 137.786 284.434C137.832 288.431 133.1 287.145 129.976 286.594C128.092 286.272 126.162 286.272 124.233 286.272C121.43 286.272 120.189 285.675 118.444 282.642C116.836 279.84 113.757 276.808 111.139 274.373C109.393 272.764 106.59 272.948 105.993 269.227C105.579 266.792 102.088 268.17 100.02 268.078C97.1256 267.894 93.7717 267.113 93.8176 272.121C93.8176 274.281 91.4286 273.775 89.9583 273.775C82.4235 273.821 74.9347 273.821 67.3998 273.775C64.5513 273.775 62.0703 274.005 62.3919 277.726C62.7595 282.183 57.5678 279.059 56.7408 281.999C56.1895 283.929 58.1192 287.88 53.2031 286.502C52.514 286.318 50.7222 287.375 50.7681 287.558C52.2383 293.393 44.1062 291.602 44.1062 296.012C44.1062 298.631 42.682 298.723 40.7523 298.815C34.5499 299.09 28.3015 298.08 22.145 299.504C20.6748 299.871 19.71 298.999 19.3424 297.528C19.2505 297.069 19.4343 296.38 19.1586 296.15C16.0804 292.98 12.4508 290.407 9.60229 286.961C8.68341 285.859 6.20244 286.594 6.34027 288.799C6.66188 294.083 2.98636 292.98 0 293.026V255.581C2.57286 254.111 5.19167 252.871 6.20244 249.517C6.8916 247.266 9.60229 247.449 11.6698 247.403C14.2886 247.357 15.9426 246.301 18.056 244.417C21.5018 241.431 23.799 237.388 27.6123 234.861C28.0258 234.585 28.5312 234.447 28.8069 234.08C30.0474 232.15 30.4609 229.439 33.5391 229.301C38.5011 229.118 43.463 228.704 48.379 229.623C49.3438 229.807 50.3087 230.358 50.6303 231.277C51.9627 234.999 54.995 234.953 58.1192 234.861C61.0136 234.815 63.8622 234.815 66.7566 234.861C69.8808 234.953 72.7753 234.861 74.5212 231.461C75.3941 229.807 77.2778 229.347 79.0696 229.21C83.0667 228.934 87.0639 229.072 91.061 229.072C92.8069 229.072 94.369 229.669 94.9203 231.369C95.9311 234.447 98.1364 234.999 100.939 234.861C104.385 234.723 107.004 235.504 108.428 239.317C109.622 242.533 115.549 242.35 117.571 239.363C123.497 230.45 131.124 227.234 141.37 229.256C142.656 229.531 144.172 229.761 144.632 231.001C146.102 234.907 149.318 234.815 152.58 234.907C153.683 234.907 155.337 234.907 155.75 235.688C157.772 239.593 162.182 241.063 164.434 244.509C165.812 246.622 167.328 247.266 169.487 247.266C173.163 247.266 176.838 247.266 180.514 247.266C183.5 247.266 185.843 246.99 187.635 243.774C189.749 240.006 199.305 240.282 201.556 244.095C203.21 246.852 205.278 247.22 207.897 247.22C211.113 247.22 214.283 247.174 217.499 247.22C220.623 247.266 223.15 247.036 225.126 243.682C227.285 240.006 236.887 240.466 239.093 244.187C240.609 246.76 242.492 247.174 245.019 247.174C249.66 247.174 254.3 247.082 258.94 247.22C261.467 247.312 263.856 247.771 264.775 250.528C265.74 253.33 267.808 253.927 270.426 253.882C273.918 253.836 276.123 254.984 278.604 258.154C282.05 262.611 285.818 268.354 293.49 266.424C296.063 265.781 298.912 266.424 301.622 266.286C302.863 266.24 304.195 266.286 305.114 265.046C307.136 262.335 304.884 252.182 302.909 249.609C300.06 245.979 295.42 244.279 293.352 240.006C292.388 238.031 290.78 237.847 288.988 237.755C286.277 237.663 283.566 237.755 280.81 237.617C278.88 237.48 276.675 237.388 275.848 235.32C274.423 231.828 271.621 231.92 268.68 231.92C262.754 231.92 256.827 231.92 250.946 231.92C247.73 231.92 245.019 231.139 243.457 227.877C242.125 225.075 240.609 225.58 239.69 228.199C238.633 231.185 236.382 231.828 233.671 231.92C229.352 232.012 225.034 231.92 220.715 231.92C216.902 231.92 213.272 231.507 211.802 227.096C211.25 225.396 209.642 225.396 208.218 225.304C205.507 225.167 202.797 225.258 200.04 225.212C197.146 225.167 194.619 224.615 193.47 221.491C193.103 220.572 192.413 219.975 191.541 219.469C185.062 215.61 185.384 208.443 190.759 203.435C194.757 199.714 198.111 196.36 203.899 196.865C204.68 196.957 205.416 196.268 205.691 195.487C207.207 191.49 210.607 191.444 214.053 191.444C217.729 191.444 221.404 191.306 225.08 191.444C228.709 191.627 230.869 190.249 231.604 186.711C231.879 186.206 232.247 185.838 232.706 185.563C238.541 184.139 244.468 185.011 250.349 184.966C253.703 184.966 256 184.139 256.459 180.463C258.205 177.569 261.146 178.074 263.764 178.028C277.686 177.936 291.607 178.028 305.528 178.028C308.744 178.028 311.822 178.304 313.476 174.352C314.533 171.826 317.611 172.331 319.954 172.193C323.17 172.009 324.916 170.861 324.962 167.277C324.962 163.418 322.848 162.775 319.77 162.821C316.738 162.821 314.119 162.131 312.649 159.007C311.317 156.159 310.168 156.159 308.606 159.099C304.976 166.037 298.59 169.391 291.652 168.472C289.861 168.242 288.115 167.92 287.334 165.945C285.864 162.131 281.407 160.983 279.661 157.078C278.696 154.872 272.678 155.929 271.483 158.502C269.829 161.994 267.118 162.912 263.673 162.821C261.284 162.775 259.675 163.51 258.251 165.807C255.54 170.263 245.708 169.85 243.411 165.21C241.895 162.223 239.46 163.096 237.209 162.821C235.831 162.729 234.452 163.188 234.039 164.475C232.752 168.472 229.582 168.288 226.32 168.472C220.807 168.793 215.248 167.369 209.826 169.345C208.907 170.172 208.724 171.366 208.402 172.469C205.737 175.317 197.559 176.236 194.803 174.031C193.195 172.744 193.286 170.953 193.378 169.207C193.516 165.991 192.735 163.785 189.611 161.764C186.487 159.742 184.419 156.113 181.479 153.54C180.009 152.299 179.228 150.324 176.976 149.772C175.598 149.451 174.863 148.348 174.541 147.016C174.082 144.902 172.933 143.662 170.774 143.202C169.625 142.927 168.936 142.192 168.385 141.089C165.352 135.208 155.98 135.438 151.615 140.492C148.675 143.892 145.734 147.659 141.691 150.048C141.002 150.462 140.083 150.691 139.899 151.518C138.889 156.296 135.213 156.021 131.63 156.067C127.632 156.067 123.635 156.067 119.638 156.067C116.055 156.067 112.471 156.251 111.001 151.84C110.495 150.37 108.979 150.416 107.739 150.37C105.166 150.278 102.639 150.14 100.066 150.048C96.4364 149.91 94.4149 148.67 91.7961 145.5C88.7638 141.824 85.7315 135.668 78.7939 136.724C77.7372 136.908 76.1751 136.587 75.7157 135.668C73.5104 131.027 69.3295 131.119 65.1945 130.752C63.8622 130.66 62.5298 129.925 62.2082 128.638C61.4271 125.284 58.9921 125.376 56.3273 125.146C53.2491 124.871 51.5951 125.882 50.6303 128.776C49.9871 130.706 47.9655 130.981 46.2197 131.027C38.3632 131.211 30.5528 131.211 22.6963 131.027C20.4451 130.981 18.5154 130.2 17.9641 127.765C17.3209 125.009 15.3912 124.365 12.9562 124.411C9.46446 124.503 6.29433 124.182 4.73223 120.184C3.99713 118.301 1.28643 118.668 0 117.152V73L0.091888 73.1838Z" fill="#131327"/>
<path d="M236.832 70.4598C236.801 75.0209 234.567 77.3014 230.131 77.3014C225.867 77.3014 221.649 77.3014 217.385 77.3014C214.386 77.3014 210.965 76.4579 211.153 81.5657C211.199 83.487 209.044 83.159 207.638 83.2058C205.201 83.2995 201.406 82.3623 200.562 83.5338C198.172 86.9078 195.408 89.3914 192.221 91.9687C190.675 93.1871 191.424 97.9199 192.034 100.919C192.69 104.106 197.844 100.732 198.407 104.199C198.875 107.198 199.391 109.026 202.999 108.745C206.56 108.464 210.169 108.745 213.777 108.651C216.214 108.651 217.994 109.026 217.573 112.165C217.198 115.071 219.494 115.352 221.368 115.399C227.554 115.539 233.786 115.399 239.972 115.493C242.127 115.493 242.783 114.321 242.736 112.4C242.69 110.057 243.627 108.651 246.157 108.651C248.36 108.651 249.531 109.682 249.578 111.884C249.578 115.071 251.593 115.493 254.17 115.493C261.996 115.446 269.822 115.493 277.647 115.493C279.522 115.493 281.959 115.024 281.865 118.07C281.771 121.163 283.599 121.444 285.989 121.35C288.753 121.256 291.518 121.35 294.33 121.35C297.516 121.35 301.359 120.46 300.703 125.849C300.703 125.989 300.703 126.317 300.796 126.317C305.529 127.114 306.701 132.597 310.778 134.002C312.465 134.565 313.261 135.174 313.261 136.908C313.261 141.453 313.214 146.046 313.261 150.591C313.261 152.981 312.043 153.637 309.887 153.637C303.702 153.59 297.469 153.637 291.284 153.637C290.956 153.637 290.628 153.637 290.3 153.637C286.035 153.449 288.941 149.138 286.879 147.639C285.286 146.514 281.349 149.279 281.912 144.64C282.287 141.453 280.553 140.703 277.788 140.891C276.148 141.031 274.508 140.75 272.915 140.938C270.197 141.266 268.557 139.86 268.697 137.517C268.885 133.862 266.776 134.049 264.339 134.049C258.482 134.049 252.577 134.049 246.72 134.049C245.173 134.049 242.971 134.518 242.924 132.175C242.736 125.708 237.91 128.801 235.005 128.285C232.24 127.77 229.803 128.098 229.897 132.081C229.944 134.471 227.788 134.096 226.195 134.096C221.134 134.096 216.073 134.143 211.012 134.096C207.966 134.096 204.077 135.268 204.358 129.832C204.405 128.707 203.28 128.332 202.202 128.285C199.766 128.145 197.329 127.864 194.892 127.957C193.486 127.957 191.706 128.379 191.846 130.394C192.127 134.002 190.019 134.237 187.254 134.19C181.724 134.096 176.148 134.19 170.618 134.19C169.962 134.19 168.791 134.33 168.744 134.143C167.291 129.41 161.153 129.082 159.747 124.912C158.903 122.381 158.294 121.491 155.717 121.444C151.827 121.35 146.813 123.271 146.251 116.43C146.157 115.399 144.283 115.633 143.158 115.633C140.066 115.633 136.973 115.633 133.88 115.633C130.693 115.586 129.194 116.195 127.226 119.71C125.726 122.334 121.977 125.193 119.26 128.004C117.854 129.457 113.636 128.332 110.731 128.285C109.325 128.285 108.529 127.395 108.716 126.083C109.372 121.163 106.186 121.491 102.905 121.491C99.5782 121.491 95.267 122.896 95.6888 116.805C95.7825 115.493 94.4704 115.352 93.1115 115.399C89.3626 115.633 85.6138 115.633 81.865 115.586C78.8659 115.586 76.1949 115.586 76.1949 119.663C76.1949 121.444 74.6016 121.491 73.2896 121.491C66.9165 121.491 60.5435 121.491 54.2174 121.491C52.3898 121.491 50.8435 121.21 50.9372 118.913C51.0778 115.867 49.3439 115.493 46.9072 115.539C43.2989 115.633 39.7376 115.539 36.1293 115.539C33.7863 115.539 32.4273 115.211 31.6307 118.96C30.9747 122.053 24.7423 123.225 24.2736 128.145C20.6654 127.911 18.3692 128.801 19.0722 133.206C19.2127 134.143 17.5726 134.143 16.5886 134.143C14.2924 134.143 12.0431 134.143 9.74695 134.143C8.34114 134.143 6.79475 134.377 6.98219 136.111C7.63823 142.203 3.4208 140.938 0 140.985V0.0287268C3.09278 0.169308 6.79475 -1.04905 7.02905 4.24616C7.12277 6.54232 9.51265 5.79255 11.0122 5.88627C14.9016 6.16743 20.0094 4.24615 19.8688 11.3689C19.8688 13.009 21.8369 12.7279 23.0553 12.7279C31.0215 12.7279 39.0347 12.7279 47.0009 12.7747C49.5314 12.7747 51.0309 12.2593 50.9372 9.30709C50.8435 6.54233 52.2961 5.55826 55.1077 6.4486C56.3261 6.82349 57.7319 7.0578 58.9503 6.8235C62.418 6.07373 64.9016 5.65199 64.3392 10.8535C64.0112 13.6651 67.1977 12.5404 68.9315 12.7747C72.3055 13.1496 76.7572 11.1346 77.0852 17.3671C77.179 19.1946 79.8031 18.5386 81.3495 18.6792C85.0046 19.0072 89.5032 17.9294 89.7844 23.8338C89.7844 24.3024 90.6279 25.1927 91.0027 25.1927C95.0796 25.0053 96.298 27.114 96.0637 30.816C95.9699 31.9875 97.1415 32.0812 98.2192 32.0812C102.905 32.0812 107.544 32.2686 112.23 32.3155C114.386 32.3155 115.745 32.6904 114.995 35.4083C114.386 37.7513 116.167 38.173 117.901 38.173C124.602 38.2199 131.256 38.173 137.957 38.173C138.285 38.173 138.613 38.1731 138.941 38.1262C142.596 37.3764 139.503 33.2059 141.659 32.2687C143.58 31.472 146.767 33.3933 146.954 29.3164C146.954 28.3792 147.188 26.6454 147.563 26.5985C153.889 25.3802 156.045 15.2584 164.527 18.5386C165.651 18.9603 167.151 18.7729 168.416 18.5386C171.462 18.07 172.446 19.8975 173.008 22.3343C173.008 22.4748 173.102 22.6623 173.102 22.8028C172.352 28.0043 178.491 23.412 178.96 26.8797C179.288 29.457 178.444 32.8778 183.036 32.2687C183.505 32.2218 184.021 32.2687 184.489 32.4092C187.722 33.1121 183.739 37.7044 187.348 37.9856C189.972 38.2199 192.315 38.2199 191.94 41.875C191.799 43.2808 192.549 44.7803 194.002 44.7335C200.047 44.3586 198.032 48.9041 198.735 51.95C199.156 53.8244 196.767 57.1046 199.812 57.3389C203.608 57.6201 208.06 59.7757 211.434 55.7925C215.089 53.0746 219.306 54.3399 223.243 54.293C235.426 54.1524 235.426 54.2461 237.02 66.1955C237.207 67.6951 237.207 69.1009 236.832 70.5067V70.4598Z" fill="#0D0D1A"/>
<path d="M1401.97 141.922C1407.73 139.813 1413.73 141.453 1419.59 140.938C1419.21 143 1419.73 144.921 1420.57 146.795C1420.99 147.545 1421.74 147.732 1422.54 147.779C1426.05 146.467 1429.8 148.154 1433.32 146.795C1432.52 142.109 1434.44 140.235 1439.17 140.844C1441.56 141.172 1444.05 140.844 1446.48 140.938C1449.86 141.078 1452.67 141.078 1452.34 136.252C1452.15 133.721 1454.73 134.096 1456.47 134.096C1462.51 134.096 1468.56 134.096 1474.55 134.096C1476.38 134.096 1478.4 134.19 1478.3 131.519C1478.16 128.473 1479.94 128.192 1482.38 128.192C1503.23 128.192 1524.13 128.192 1544.98 128.192C1547.14 128.192 1548.97 128.332 1548.83 131.191C1548.69 133.674 1550.23 134.143 1552.29 134.096C1555.25 134.049 1558.15 134.143 1561.1 134.096C1564.67 133.956 1568.23 133.534 1567.57 139.017C1567.38 140.75 1568.98 140.938 1570.38 140.938C1573.33 140.938 1576.24 140.938 1579.19 140.938C1580.74 141.734 1580.74 143.187 1580.65 144.593C1580.55 146.186 1580.93 147.405 1582.61 147.873C1583.08 148.061 1583.6 148.201 1584.11 148.248C1589.45 148.435 1594.8 148.248 1600.14 148.342C1602.06 148.342 1604.08 148.201 1605.62 149.748C1607.45 150.685 1604.73 152.747 1606.61 153.684C1613.07 154.808 1619.54 154.012 1626.01 154.152C1631.77 154.293 1631.77 154.152 1631.07 159.541C1635.24 160.947 1639.64 159.12 1643.81 160.525C1644.14 160.853 1644.42 161.181 1644.75 161.509C1643.16 164.696 1640.06 165.118 1637.06 165.165C1621.88 165.352 1606.75 165.352 1591.56 165.399C1588.75 165.399 1586.83 164.93 1588.94 161.509C1589.55 160.525 1589.27 160.385 1586.03 159.541C1585.47 160.338 1584.63 160.666 1583.74 160.807C1580.55 160.807 1577.27 161.603 1574.23 159.963C1572.82 156.308 1570.24 154.855 1566.31 155.136C1563.59 155.324 1561.06 154.621 1560.12 151.528C1559.37 149.091 1557.5 148.435 1555.2 148.389C1552.44 148.389 1549.67 148.389 1546.91 148.295C1544.19 148.201 1541.61 147.92 1540.86 144.593C1540.39 142.484 1538.66 142.484 1537.02 142.484C1519.59 142.484 1502.15 142.437 1484.72 142.531C1483.13 142.531 1481.11 142.344 1480.41 144.124C1478.86 147.826 1475.77 148.482 1472.44 148.529C1469.12 148.529 1466.96 149.982 1465.65 152.981C1463.73 154.106 1461.85 154.152 1460.21 152.465C1460.07 152.184 1459.98 151.95 1459.89 151.669C1458.71 150.404 1456.98 149.841 1455.48 149.888C1444.98 150.263 1434.49 148.763 1423.99 149.419C1418.51 149.794 1413.03 149.748 1407.54 149.701C1404.12 149.701 1400.61 149.138 1399.76 154.106C1399.25 151.997 1398.73 149.888 1398.22 147.779C1402.48 147.779 1401.26 144.124 1402.15 141.922H1401.97Z" fill="#0D0D1A"/>
<path d="M1811.24 109.588C1808.2 108.276 1804.22 109.12 1803.42 103.59C1803.14 101.622 1797.19 102.887 1793.81 102.84C1791.38 102.84 1791.75 104.855 1791.56 106.449C1791.47 107.526 1791 108.557 1789.92 108.51C1785.28 108.182 1785.71 111.228 1785.71 114.274C1785.71 121.35 1785.71 121.397 1778.68 121.397C1775.72 121.397 1772.59 120.741 1772.87 125.521C1773.01 127.817 1770.99 128.239 1769.02 128.239C1752.2 128.239 1735.42 128.239 1718.6 128.239C1716.45 128.239 1714.99 127.676 1715.27 125.24C1715.65 121.678 1713.63 121.303 1710.78 121.35C1700.65 121.444 1690.53 121.35 1680.41 121.397C1677.88 121.397 1675.77 121.256 1676.01 117.882C1676.1 116.617 1675.49 115.586 1674.08 115.539C1671.79 115.446 1669.54 115.539 1667.24 115.446C1663.78 115.399 1664.06 117.882 1663.92 120.179C1663.87 121.163 1662.89 121.444 1662.04 121.303C1657.12 120.554 1657.31 123.74 1657.45 127.067C1657.5 128.379 1657.4 129.691 1657.45 131.003C1657.54 133.346 1656.42 134.143 1654.17 134.143C1645.5 134.096 1636.88 134.143 1628.21 134.143C1626.62 134.143 1625.07 133.909 1625.16 131.894C1625.4 128.145 1623.01 128.192 1620.38 128.285C1617.62 128.379 1614.85 128.285 1612.04 128.285C1608.67 128.285 1605.29 128.473 1605.39 123.459C1605.39 121.397 1603.61 121.584 1602.15 121.397C1598.55 120.882 1593.2 123.693 1593.02 116.336C1593.02 114.837 1590.16 115.586 1588.61 115.539C1578.91 115.305 1580.79 116.664 1580.08 107.198C1579.94 105.23 1580.04 103.262 1580.08 101.341C1580.08 98.5292 1580.6 95.5301 1576.15 95.8581C1574.74 95.9518 1574.27 94.8272 1574.23 93.5619C1574.13 92.1561 1574.37 90.2817 1572.3 90.2349C1568.93 90.0943 1565.56 90.1411 1562.23 90.3754C1561.95 90.3754 1561.53 92.1093 1561.53 92.9996C1561.57 95.4364 1560.35 96.0924 1558.15 96.0455C1556.14 96.0455 1554.5 95.7644 1554.64 93.1871C1554.73 91.2658 1554.03 90.188 1551.87 90.0474C1549.39 89.9068 1547.98 88.7822 1548.59 85.8769C1549.06 83.5807 1547.42 83.2058 1545.55 83.2527C1541.28 83.2527 1537.07 83.2058 1532.8 83.2527C1530.5 83.2527 1528.91 82.8309 1529.1 80.0662C1529.29 77.3951 1528.02 76.786 1525.44 77.2077C1523.57 77.5357 1521.55 77.114 1519.63 77.0203C1518.98 77.0203 1517.76 76.8328 1517.81 76.786C1518.18 70.8816 1510.4 71.2564 1509.7 66.3361C1509.14 62.3998 1506.04 63.7119 1503.93 63.8056C1501.73 63.8994 1498.26 62.0718 1497.7 66.3361C1497.19 70.1786 1494.8 70.741 1491.47 70.6004C1486.08 70.3661 1480.69 70.5535 1475.3 70.5535C1473.38 70.5535 1471.18 70.9284 1471.51 73.2246C1472.02 76.5985 1469.96 76.3642 1467.95 76.6922C1461.81 77.7232 1455.62 77.2546 1449.48 77.3483C1447.42 77.3483 1445.87 76.5516 1445.92 74.3023C1445.97 71.6782 1445.17 70.3192 1442.31 70.4598C1440.2 70.5535 1439.22 69.7569 1439.5 67.1327C1439.78 64.696 1440.67 61.1815 1438.89 59.7757C1435.89 57.3858 1433.46 54.9959 1431.3 51.6688C1430.27 50.0756 1426.19 50.3099 1426.47 46.2799C1426.57 45.1084 1424.41 45.1084 1423.1 45.1084C1419.49 45.1084 1415.93 45.1084 1412.32 45.1084C1410.12 45.1084 1407.92 45.1553 1407.68 42.1093C1407.5 39.3914 1408.76 38.2199 1411.43 38.2199C1412.84 38.2199 1414.48 37.6576 1414.06 36.0643C1412.84 31.8001 1415.65 32.3624 1418.09 32.3624C1419.87 32.3624 1421.69 32.3624 1423.48 32.3624C1425.68 32.3155 1427.51 31.8938 1426.57 28.9416C1425.72 26.1768 1427.22 25.3802 1429.61 25.5676C1432.1 25.7551 1433.22 24.771 1433.13 22.1937C1433.08 20.2256 1433.55 18.4449 1436.27 19.2883C1439.31 20.2255 1439.74 18.3043 1439.41 16.1018C1438.94 13.1028 1440.67 12.8216 1442.83 12.7748C1446.44 12.7748 1450.05 13.0091 1453.61 12.681C1457.03 12.3999 1458.01 13.8057 1459.28 16.8516C1460.68 20.1787 1466.02 20.6942 1467.01 25.3802C1467.15 25.9425 1472.21 25.5208 1474.98 25.4739C1476.85 25.4739 1478.26 25.9425 1478.11 28.1449C1477.93 31.8469 1480.13 32.3624 1483.13 32.3155C1490.95 32.2218 1498.78 32.3155 1506.61 32.3155C1508.43 32.3155 1510.5 32.1749 1510.35 34.846C1510.21 38.3605 1512.46 38.2199 1514.9 38.2199C1526.47 38.2199 1538.05 38.2199 1549.67 38.2199C1552.58 38.2199 1554.97 38.2668 1554.59 42.203C1554.54 42.9059 1555.39 44.3118 1555.48 44.2649C1561.57 42.4842 1560.17 52.4186 1566.07 51.0128C1567.76 50.5911 1569.63 50.9659 1571.46 50.9191C1572.68 50.9191 1573.99 50.591 1573.9 49.1384C1573.57 44.4055 1576.8 45.0615 1579.75 45.0615C1585.28 45.0615 1590.86 45.2021 1596.39 44.8741C1598.59 44.7335 1599.62 45.2958 1599.48 47.3108C1599.25 50.591 1601.03 50.9659 1603.7 51.0128C1607.64 51.0128 1612.7 49.3258 1612.56 56.4486C1612.56 58.0887 1614.53 57.7607 1615.79 57.8075C1620.05 57.8075 1624.27 57.8075 1628.54 57.8075C1630.04 57.8075 1631.82 57.8075 1631.72 59.8694C1631.54 63.8994 1634.07 63.7119 1636.83 63.7119C1645.69 63.7119 1644.56 62.7747 1644.56 71.5845C1644.56 74.4898 1644.61 76.8797 1648.59 76.458C1650.51 76.2705 1651.26 77.5826 1650.94 79.2696C1650.33 82.4561 1651.87 83.2995 1654.73 83.2527C1660.59 83.159 1666.49 83.2527 1672.35 83.2527C1673.99 83.2527 1675.96 83.4401 1675.91 81.0502C1675.82 76.3642 1679 76.3642 1682.24 76.458C1685.42 76.5517 1689.78 74.8178 1689.03 81.1908C1688.8 83.3933 1691.52 83.2527 1693.3 83.2527C1699.34 83.2527 1705.39 83.2527 1711.39 83.2527C1712.98 83.2527 1715.09 82.9715 1714.99 85.4083C1714.85 89.0165 1716.96 89.0634 1719.68 89.2039C1723.33 89.3914 1727.93 88.3605 1728.07 94.4992C1728.11 96.1861 1729.94 95.9518 1731.25 95.9518C1733.88 95.9518 1738.52 96.5141 1738.75 95.7175C1740.06 91.4532 1744.14 89.7194 1746.11 86.5798C1747.51 84.3305 1748.17 83.1121 1750.75 83.2058C1753.7 83.2995 1756.61 83.2058 1759.56 83.2058C1762.88 83.2527 1766.31 83.7213 1766.26 78.6135C1766.26 76.5517 1768.27 76.3642 1770.01 76.3642C1782.43 76.3642 1794.8 76.3642 1807.21 76.3642C1809.18 76.3642 1811.1 76.8797 1810.96 79.1758C1810.73 83.0184 1812.89 83.4401 1815.88 83.2058C1817.66 83.0652 1819.49 83.1121 1821.27 83.2058C1824.32 83.3933 1824.37 84.9865 1822.87 87.0952C1818.46 88.0793 1818.37 88.1262 1818.65 92.2967C1818.79 94.2649 1818.46 96.1861 1818.32 98.1074C1817.81 104.574 1817.24 104.949 1810.96 103.356C1813.31 105.324 1812.42 107.433 1811.06 109.588H1811.24Z" fill="#0D0D1A"/>
<path d="M1385.19 102.747C1377.04 102.747 1368.88 102.747 1360.73 102.747C1358.9 102.747 1356.84 102.934 1356.89 100.263C1357.03 95.4832 1353.84 95.8113 1350.61 95.8581C1347.52 95.905 1343.72 96.9828 1343.95 91.5938C1344 90.188 1342.5 90.0943 1341.33 90.0474C1336.78 89.86 1332.29 89.3914 1327.79 89.5788C1325.54 89.6726 1324.6 88.876 1324.69 87.0015C1324.93 83.3933 1322.91 83.159 1320.1 83.159C1310.31 83.2527 1300.52 83.2527 1290.72 83.159C1288.14 83.159 1286.18 83.3464 1286.36 86.7204C1286.5 89.6257 1284.44 90.0474 1282.05 90.0474C1276.34 90.0474 1270.62 90.0474 1264.9 90.0474C1263.35 90.0474 1261.06 89.5788 1261.11 91.9219C1261.2 96.2799 1258.48 95.9518 1255.62 95.905C1252.01 95.8581 1248.45 95.9987 1244.84 95.905C1242.41 95.8112 1241.05 96.6547 1241.38 99.232C1241.71 101.903 1240.39 102.512 1238 102.512C1231.96 102.512 1225.96 102.7 1219.92 102.747C1217.53 102.747 1215.65 102.981 1215.84 106.074C1215.98 108.323 1214.43 108.651 1212.6 108.651C1193.2 108.651 1173.76 108.651 1154.36 108.651C1153.05 108.651 1151.36 108.604 1151.45 106.87C1151.69 102.137 1148.5 102.793 1145.59 102.793C1140.39 102.793 1135.14 102.793 1129.94 102.793C1127.6 102.793 1125.73 102.606 1126.48 99.1852C1127.18 95.9987 1124.6 95.9518 1122.4 95.9518C1116.35 95.9518 1110.31 95.9518 1104.31 95.9518C1102.2 95.9518 1100.37 95.9519 1100.37 92.9997C1100.37 90.3286 1101.45 89.0634 1104.17 89.1102C1109.89 89.1102 1115.6 89.1102 1121.32 89.1102C1123.66 89.1102 1125.96 89.3914 1126.01 85.8769C1126.01 83.5338 1127.98 83.2058 1129.94 83.2527C1133.69 83.2527 1137.44 83.2527 1141.19 83.2527C1142.31 83.2527 1143.44 83.0184 1144.52 82.8778C1143.35 77.114 1152.06 77.8637 1151.5 72.3342C1151.31 70.6004 1153.09 70.5536 1154.4 70.5536C1165.32 70.5536 1176.29 70.5536 1187.21 70.5536C1188.71 70.5536 1190.49 70.5535 1190.35 72.6623C1190.11 76.7391 1192.74 76.5048 1195.45 76.458C1199.25 76.458 1203.75 75.2864 1203.42 81.7532C1203.33 83.3933 1205.29 83.2527 1206.56 83.2527C1214.71 83.2527 1222.87 83.2527 1231.02 83.2527C1231.49 83.2527 1232.33 83.3933 1232.43 83.2058C1234.3 79.0353 1239.03 77.2546 1241.05 73.5995C1242.31 71.3033 1243.16 70.413 1245.45 70.5067C1246.91 70.5535 1248.41 70.413 1249.86 70.5067C1252.53 70.6941 1254.45 70.1787 1254.08 66.8985C1253.8 64.1806 1255.34 63.6182 1257.68 63.6651C1261.9 63.7588 1266.17 63.6651 1270.43 63.6651C1272.16 63.6651 1273.95 63.6651 1273.29 61.0877C1272.49 57.995 1274.55 57.8075 1276.62 57.8075C1289.36 57.8075 1302.06 57.8075 1314.81 57.8075C1316.92 57.8075 1318.88 58.0887 1318.09 61.1346C1317.43 63.7588 1319.31 63.6651 1320.99 63.7119C1325.26 63.7119 1329.47 63.7119 1333.74 63.7119C1335.71 63.7119 1337.53 63.8994 1337.25 66.4767C1336.83 70.3192 1339.03 70.7878 1342.03 70.5536C1343.81 70.413 1345.64 70.5536 1347.42 70.5536C1348.64 70.5536 1349.95 70.8816 1349.91 72.3342C1349.58 77.0671 1352.81 76.5048 1355.76 76.458C1358.2 76.458 1360.68 76.5517 1363.12 76.458C1366.59 76.2705 1369.68 76.2705 1369.68 81.0503C1369.68 83.815 1371.98 83.2058 1373.71 83.2996C1377.65 83.487 1382.61 81.7063 1382.85 88.5948C1382.85 89.86 1384.39 89.6726 1385.66 89.6257C1391.33 89.3445 1397.05 89.2977 1402.76 89.2039C1405.62 89.2039 1408.06 89.7663 1407.92 93.4683C1407.83 95.3427 1408.95 96.233 1410.68 95.9987C1414.2 95.5301 1414.2 97.92 1414.29 100.216C1414.43 103.309 1412.04 102.84 1410.22 102.84C1401.87 102.84 1393.58 102.84 1385.24 102.84L1385.19 102.747Z" fill="#0D0D1A"/>
<path d="M1718.13 153.637C1715.84 153.637 1713.54 153.637 1711.29 153.637C1710.31 153.637 1708.9 153.637 1708.86 152.559C1708.67 148.717 1707.4 146.28 1702.95 147.311C1702.44 143.89 1701.26 140.516 1701.83 137.048C1702.2 134.705 1703.84 133.956 1706.14 134.096C1708.25 134.237 1710.4 134.143 1712.51 134.096C1714.29 134.096 1715.46 134.799 1715.28 136.673C1714.81 140.797 1717.2 140.985 1720.34 140.985C1742.69 140.891 1765.04 140.985 1787.39 140.985C1804.22 140.985 1820.99 140.985 1837.82 140.985C1840.49 140.985 1843.58 141.781 1842.78 136.955C1842.36 134.33 1844.89 134.19 1846.91 134.143C1850.7 134.049 1855.2 135.596 1856.33 129.551C1856.65 127.864 1858.76 128.239 1860.17 128.239C1878.44 128.239 1896.72 128.285 1914.99 128.192C1918.51 128.192 1920.29 129.27 1919.96 132.972C1919.87 134.284 1919.96 135.596 1919.96 136.908C1919.96 146.092 1919.96 146.139 1911.01 146.889C1909.28 147.03 1907.4 147.264 1907.4 149.326C1907.4 154.106 1904.26 153.824 1901.03 153.778C1897.7 153.731 1893.91 152.793 1894.24 158.464C1894.33 160.104 1892.69 160.479 1890.96 160.338C1886.83 160.057 1882.71 159.541 1878.49 160.057C1875.87 160.385 1874.83 160.853 1874.98 163.243C1875.12 166.383 1873.24 166.523 1870.85 166.523C1864.99 166.477 1859.09 166.523 1853.23 166.523C1851.4 166.523 1849.39 166.43 1849.53 169.101C1849.67 172.194 1847.84 172.428 1845.45 172.428C1826.85 172.428 1808.25 172.428 1789.64 172.428C1787.82 172.428 1785.75 172.522 1785.89 169.851C1786.03 166.336 1783.74 166.523 1781.35 166.523C1773.52 166.523 1765.7 166.523 1757.87 166.523C1755.29 166.523 1753.37 166.336 1753.47 162.962C1753.56 159.682 1751.12 159.073 1748.73 159.869C1742.36 161.931 1736.13 158.792 1729.85 159.541C1728.87 159.682 1727.55 159.166 1727.74 158.042C1728.63 152.325 1724.55 153.871 1721.65 153.731C1720.52 153.684 1719.35 153.731 1718.23 153.731L1718.13 153.637Z" fill="#0D0D1A"/>
<path d="M940.909 114.321C940.487 114.696 940.065 115.118 939.643 115.493C937.816 116.102 935.988 116.242 934.114 115.68C934.489 114.837 935.192 114.415 936.035 114.509C939.643 114.93 939.878 112.822 939.878 110.01C939.878 102.747 939.971 102.747 932.614 102.747C930.505 102.747 928.35 102.653 926.241 102.747C923.289 102.887 920.993 102.372 921.18 98.6229C921.321 95.9987 919.54 95.8581 917.572 95.8581C911.715 95.8581 905.81 95.8113 899.953 95.8581C897.328 95.905 895.454 95.5301 895.688 92.2499C895.829 90.2349 894.845 89.7194 892.642 89.7663C879.756 89.9537 866.869 89.9537 853.983 89.7663C851.968 89.7663 850.609 89.8132 850.749 92.0156C851.03 95.6238 848.922 95.9987 846.157 95.8113C844.517 95.7176 842.877 95.7644 841.284 95.8113C840.487 95.8113 838.987 96.0924 838.987 96.1862C839.503 102.465 829.428 103.262 831.63 110.525C832.661 113.899 831.537 115.961 827.413 115.118C825.538 114.743 825.304 116.242 825.257 117.601C825.163 119.897 825.257 122.147 825.257 124.443C825.257 126.224 824.742 127.957 822.727 127.957C818.837 127.957 819.447 130.628 819.4 133.065C819.353 136.814 820.571 141.453 814.104 141.031C813.683 141.031 812.792 141.828 812.792 142.203C812.933 149.185 806.982 146.795 803.936 147.17C801.077 147.545 799.672 147.686 799.812 150.685C799.906 153.215 798.359 153.59 796.344 153.543C783.598 153.543 770.899 153.543 758.153 153.543C755.998 153.543 754.732 152.981 754.779 150.544C754.826 148.295 755.482 146.374 758.06 146.842C761.246 147.451 761.715 145.905 761.621 143.375C761.574 141.406 761.527 139.438 761.621 137.517C761.762 135.127 760.965 133.768 758.341 133.956C756.935 134.049 754.873 134.237 754.967 132.175C755.107 128.426 753.092 127.583 750.093 128.145C747.047 128.754 741.94 125.521 741.893 132.315C741.893 134.049 740.159 133.956 738.847 133.956C737.347 133.956 736.176 133.487 736.27 131.8C736.41 129.129 735.332 127.817 732.568 128.098C732.427 128.098 732.146 128.098 732.099 128.098C730.224 123.459 724.133 122.287 723.055 117.226C722.633 115.165 721.508 115.446 720.337 115.446C716.26 115.399 712.183 115.399 708.106 115.446C705.67 115.446 703.795 114.79 703.936 111.978C704.076 108.979 702.39 108.557 699.953 108.604C690.487 108.698 681.021 108.604 671.555 108.604C670.431 108.604 669.259 108.604 668.135 108.604C663.87 108.323 667.244 103.543 664.948 102.747C662.792 101.95 659.278 103.918 658.997 99.7475C658.809 97.2171 658.341 95.6238 655.389 95.8581C654.358 95.9519 653.374 95.577 653.139 94.4054C652.811 92.7185 653.092 90.4223 650.703 90.188C647.797 89.9069 643.299 88.9697 642.221 90.3755C639.831 93.5151 636.035 95.0615 634.114 97.4983C632.286 99.8413 629.147 101.856 628.491 103.449C624.789 112.259 617.666 107.292 612.23 108.51C610.496 108.885 608.669 108.651 606.841 108.51C603.702 108.37 601.452 108.557 600.796 112.822C600.093 117.273 595.735 114.883 592.971 115.305C590.815 115.633 588.425 115.352 588.425 112.353C588.425 109.776 587.675 108.276 584.817 108.51C583.786 108.604 582.943 108.182 582.615 107.011C582.193 105.558 583.177 103.168 580.927 102.934C577.694 102.559 574.414 102.793 571.181 102.934C570.759 102.934 570.15 103.684 569.962 104.199C569.353 105.699 570.478 108.229 567.76 108.417C564.339 108.651 560.918 108.51 557.497 108.417C556.513 108.417 556.373 107.479 556.56 106.542C557.45 102.465 554.826 102.559 552.015 102.653C546.485 102.747 540.909 102.7 535.379 102.653C532.896 102.653 530.131 102.981 531.256 98.8103C531.818 96.7485 530.178 95.905 528.303 95.8581C525.867 95.8113 523.43 95.8581 520.946 95.8113C518.697 95.7644 517.807 94.4523 517.807 92.2968C517.807 90.2349 518.603 89.4383 520.806 89.5788C522.727 89.7194 524.648 89.0165 526.57 89.0165C529.1 89.0165 531.068 88.8759 530.927 85.4083C530.834 82.7841 533.224 83.159 534.958 83.1121C540.487 83.0653 546.063 83.0653 551.593 83.1121C554.405 83.1121 556.935 83.1121 556.513 79.0821C556.232 76.458 558.528 76.458 560.168 76.3642C563.261 76.1768 566.354 76.3643 569.447 76.2705C572.399 76.2705 575.96 77.2077 575.726 72.1C575.632 70.413 577.413 70.413 578.725 70.413C583.13 70.413 587.535 70.413 591.94 70.413C593.486 70.413 595.032 70.5535 595.032 72.6154C595.032 78.5198 599.531 75.8488 602.202 76.1768C604.733 76.5048 608.153 77.3014 607.919 72.6154C607.872 71.5376 608.388 70.4598 609.512 70.5536C615.042 70.8816 613.636 66.8516 613.73 63.8525C613.823 60.6192 612.933 56.9172 618.322 57.4795C619.353 57.5732 620.384 56.6361 620.337 55.6988C619.962 49.3727 624.508 50.6379 627.928 50.9191C631.537 51.2471 634.067 51.0597 633.364 46.4205C633.13 44.8741 634.067 44.6398 635.52 44.7804C637.628 45.0147 639.737 44.8741 641.893 44.921C644.33 45.0147 646.204 44.2649 646.016 41.4064C645.876 38.3605 647.61 37.9388 650.046 38.0325C652.999 38.1262 655.904 38.0325 658.856 38.0325C662.277 38.0325 666.588 36.861 665.792 42.9997C665.651 44.0775 666.588 44.7804 667.666 44.7804C670.431 44.7804 673.195 44.8741 675.96 44.6866C677.46 44.5929 678.256 43.4683 678.303 42.0156C678.303 39.4851 679.287 37.9856 682.005 37.9388C684.395 37.9388 684.255 36.0644 684.255 34.4243C684.255 32.7841 684.395 31.144 684.255 29.5508C683.973 26.458 685.051 25.1928 688.378 25.2396C696.532 25.4271 704.686 25.2865 712.839 25.2865C714.667 25.2865 716.869 25.1928 716.494 27.8638C715.932 31.8001 718.556 31.8469 721.134 32.0344C722.914 32.1749 724.742 32.0812 726.523 32.1281C727.694 32.1281 729.194 32.2687 729.147 33.7213C728.959 39.6257 733.27 37.7982 736.316 37.9856C739.456 38.1731 743.392 37.0953 742.314 42.7185C742.221 43.234 743.205 44.4524 743.673 44.4524C747.282 44.4992 748.359 46.2799 749.625 49.6539C750.656 52.3249 755.248 50.4036 758.247 50.6848C760.121 50.8722 761.387 49.935 761.574 47.92C761.574 47.7794 761.621 47.592 761.574 47.4514C761.34 43.0934 767.104 46.5142 767.291 43.0934C767.478 40.0943 767.432 37.4702 771.649 37.8919C772.867 38.0325 774.086 37.1422 774.086 35.9238C773.992 31.5189 777.038 32.0812 779.756 32.1281C782.521 32.1281 785.285 32.1749 788.097 32.1281C790.721 32.0344 793.392 32.1281 793.064 28.145C792.877 26.13 794.423 25.3802 796.298 25.3333C802.999 25.3333 809.7 25.3333 816.354 25.3333C818.791 25.3333 819.728 26.5517 819.212 28.6604C818.416 31.9406 820.243 32.2218 822.68 32.1749C824.648 32.1281 826.616 32.1749 828.537 32.1749C830.506 32.1281 832.239 31.6595 831.443 28.9884C830.787 26.6923 831.865 25.3333 834.067 25.427C837.628 25.6145 837.956 23.6932 837.956 20.8816C837.956 12.6342 838.05 12.6342 846.297 12.6342C852.811 12.6342 859.372 12.6342 865.885 12.6342C867.525 12.6342 869.962 12.681 869.868 10.7598C869.587 4.48049 874.414 6.30806 877.225 6.30806C880.459 6.30806 883.598 6.96409 886.832 6.07374C888.706 5.55828 889.456 6.68294 889.034 8.65107C888.472 11.3221 889.784 12.7279 892.502 12.6342C895.173 12.4936 895.969 13.8057 895.641 16.2424C895.548 16.9922 895.173 17.6951 896.016 18.4449C898.5 20.6473 907.825 18.3043 908.387 15.1178C908.903 12.0719 911.012 12.7279 912.839 12.7279C922.446 12.7279 932.099 12.7279 941.705 12.7279C943.626 14.7429 942.97 17.3202 943.111 19.6632C943.298 23.6932 942.736 27.7701 944.189 31.6595C944.845 33.159 945.032 34.6586 944.517 36.2518C943.017 37.7045 941.096 38.876 941.143 41.3596C941.143 50.6848 941.002 59.9631 941.237 69.2883C941.237 69.9444 941.049 69.2415 941.377 69.7101C941.846 70.3661 942.033 69.7101 942.174 69.2415C942.314 61.5564 942.174 53.9181 942.267 46.2799C942.267 44.3586 942.033 42.3436 942.97 40.5161C943.345 39.9538 943.814 39.6726 944.47 39.5789C945.126 39.5789 945.688 39.8132 946.11 40.3286C947.328 42.2499 947 44.4055 947 46.4674C947 54.7148 947.094 62.9622 947 71.2096C947 74.5835 945.923 77.0203 941.799 76.1299C941.705 76.1299 941.611 76.1299 941.518 76.1768C941.518 76.3174 941.611 76.5048 941.658 76.6923C941.799 77.2546 941.799 77.8169 941.658 78.3792C940.955 87.7044 940.908 97.0296 941.471 106.355C941.658 109.166 941.096 111.697 940.815 114.368L940.909 114.321Z" fill="#0D0D1A"/>
<path d="M477.413 121.35C473.149 121.35 468.932 121.35 464.667 121.35C462.746 121.35 460.965 121.444 461.059 124.068C461.2 127.255 459.794 127.817 456.561 127.957C440.113 128.567 423.618 127.957 407.17 128.239C404.639 128.239 403.093 127.77 403.233 124.818C403.374 121.959 401.453 121.35 399.016 121.397C395.923 121.444 392.83 121.397 389.738 121.397C386.739 121.397 383.318 122.287 383.505 117.18C383.599 115.211 381.397 115.539 379.991 115.539C374.461 115.539 368.885 115.446 363.355 115.539C360.403 115.586 358.154 115.211 358.154 111.463C358.154 109.12 356.326 108.651 354.358 108.651C350.422 108.651 346.486 108.417 342.643 108.792C340.113 109.026 338.801 108.37 338.754 105.933C338.754 103.215 337.301 102.653 335.005 102.747C332.24 102.84 329.475 102.747 326.711 102.747C323.149 102.84 319.635 103.168 319.916 97.7794C320.01 95.7175 318.041 95.8113 316.589 95.905C313.543 96.1393 313.168 94.4055 313.168 91.9219C313.168 88.9697 314.949 88.6885 317.057 89.2039C319.447 89.7194 320.103 88.5479 319.963 86.6267C319.728 83.2058 321.837 83.0652 324.368 83.159C327.976 83.2527 331.537 83.2058 335.145 83.159C337.488 83.159 339.972 83.2996 338.941 79.457C338.332 77.0672 340.113 76.4111 342.174 76.3174C343.627 76.2705 345.502 76.4579 345.361 74.3024C345.22 71.725 345.361 69.382 348.688 70.5067C351.921 71.5845 356.233 67.4608 358.763 73.9275C359.935 76.9266 364.714 79.457 367.245 82.9715C367.854 83.815 370.666 83.159 372.446 83.1121C375.211 83.0653 377.788 83.0653 377.882 86.9078C377.929 89.3445 379.991 88.9697 381.537 88.9697C387.067 88.9697 392.643 89.0634 398.173 88.9697C401.125 88.9228 403.468 89.2977 403.28 93.0465C403.14 95.2021 404.405 95.8581 406.373 95.8113C408.341 95.7644 410.309 95.8581 412.231 95.8113C414.433 95.7176 416.214 96.0456 415.979 98.904C415.792 101.481 417.01 101.763 419.494 102.044C422.727 102.419 425.961 102.606 429.194 102.653C432.287 102.7 435.942 101.622 435.895 107.011C435.895 109.12 438.472 108.51 439.972 108.51C451.734 108.557 463.449 108.51 475.211 108.51C477.788 108.51 480.74 107.854 479.803 112.353C479.428 114.274 480.928 115.305 482.849 115.305C485.145 115.305 487.441 115.399 489.691 115.118C492.737 114.696 492.456 116.477 492.83 118.585C493.252 121.256 491.94 121.256 490.159 121.256C485.942 121.256 481.678 121.256 477.413 121.256V121.35Z" fill="#0D0D1A"/>
<path d="M236.832 70.4598C234.349 67.6482 234.676 64.1805 234.958 60.9003C235.286 56.8703 233.88 55.5114 229.803 55.6988C223.664 56.0269 217.526 55.7925 211.387 55.7925C211.387 54.4805 211.387 53.1684 211.387 51.8563C218.603 50.7785 225.867 51.5751 233.13 51.4345C235.52 51.3877 237.816 51.622 237.347 48.0606C236.879 44.4055 240.347 46.1862 241.705 45.0147C243.346 45.0147 244.986 45.0147 246.579 45.0147C248.266 45.0147 249.672 45.4833 249.437 47.4045C248.969 50.9659 250.703 51.3877 253.655 50.9191C255.576 50.6379 257.544 50.9191 259.512 50.8254C260.496 50.8254 261.902 50.7316 261.902 49.6539C261.855 42.906 266.823 45.2021 270.243 45.0147C273.008 44.8741 275.07 44.4992 275.07 41.0784C275.07 39.1103 276.288 38.1731 278.21 38.1262C280.506 38.1262 282.755 38.1262 285.051 38.1262C286.504 38.1262 287.769 38.5948 287.675 40.2818C287.488 43.562 288.847 45.1552 292.174 45.0615C293.439 45.0615 294.611 46.0456 294.33 47.2171C293.627 50.0756 294.611 51.4345 297.376 50.7316C300.703 49.8881 305.623 53.5901 307.216 47.6389C307.638 45.9987 308.013 44.7804 309.887 44.921C312.98 45.1553 313.355 43.2808 313.214 40.891C313.121 39.1571 313.777 38.0793 315.698 38.0793C317.526 38.0793 319.775 38.0793 319.822 40.3755C319.869 45.0615 322.821 44.8741 326.101 44.9678C328.21 45.0147 331.302 43.6557 332.333 46.1393C333.505 49.0915 333.317 52.6529 332.427 55.7457C331.584 58.651 328.491 57.1515 326.429 57.4795C323.43 57.995 319.775 56.4954 319.728 61.9312C319.728 64.3211 316.869 63.4308 315.229 63.4776C299.25 63.5245 283.317 63.4776 267.338 63.5245C265.604 63.5245 263.73 62.9153 262.23 64.4617C262.324 69.0072 260.215 70.2255 255.717 69.9912C249.437 69.6632 243.064 69.2415 236.785 70.3661L236.832 70.4598Z" fill="#0D0D1A"/>
</svg>
