<svg width="1280" height="107" viewBox="0 0 1280 107" fill="none" xmlns="http://www.w3.org/2000/svg">
<g filter="url(#filter0_d_171_370)">
<path d="M109.567 1.1579L79.7604 101H60.113L63.3635 90.4986H53.5069L56.81 80.0235H37.4127L33.978 90.4986H24.1215L20.621 101H1L35.4256 1.1579H53.9149L31.0434 69.7854H40.7816L60.1394 10.6723H78.7471L60.0736 69.7854H69.8117L91.0776 1.1579H109.567Z" fill="#B540B4" stroke="#E792E8"/>
<path d="M184.893 10.6591H194.196L184.695 49.559H175.168L172.667 59.5603H162.982L160.363 69.7722H170.101L167.535 80.0104H177.234L172.115 100.987H152.375L155.086 90.3802H145.322L148.033 80.0104H138.229L140.966 69.7722H121.674L112.962 100.987H93.2227L122.266 1.1579H187.275L184.893 10.6591ZM165.548 49.559L173.062 20.1867H135.544L127.346 49.559H165.548Z" fill="#B540B4" stroke="#E792E8"/>
<path d="M283.577 1.05264L279.958 20.0946H223.621L219.239 39.5972H266.785L264.851 49.4669H255.231L253.191 59.5603H214.752L210.172 79.9183H268.588L264.6 100.895H185.722L209.317 1.05264H283.577Z" fill="#B540B4" stroke="#E792E8"/>
<path d="M360.047 10.5539H369.351L366.732 29.8196H347.809L349.243 20.0815H311.712L301.526 79.9183H340.439L341.953 69.6801H361.337L358.534 90.3933H348.77L347.283 100.895H288.13L289.985 90.3933H280.129L294.657 10.5671H304.053L305.711 1.05264H361.39L360.047 10.5539Z" fill="#B540B4" stroke="#E792E8"/>
<path d="M416.476 39.6761L414.396 59.5472H424.082L423.069 69.7722H432.715L431.767 80.0236H441.479L440.571 90.4986H450.441L449.585 101H420.002L421.042 90.4986H411.186L412.278 80.0236H402.566L403.698 69.7722H394.052L390.433 100.987H370.68L383.406 1.13159H402L398.671 29.8196H408.093L409.159 20.1736H418.515L419.516 10.646H428.912L429.846 1.13159H457.692L456.915 10.646H447.519L446.69 20.1736H437.334L436.439 29.8196H427.017L426.043 39.6761H416.476Z" fill="#B540B4" stroke="#E792E8"/>
<path d="M543.743 39.5709L543.203 59.5472H466.206L467.667 39.5709H543.743Z" fill="#B540B4" stroke="#E792E8"/>
<path d="M622.608 1.02631L623.016 20.0683H604.198L604.803 79.9183H624.319L624.779 100.895H575.431H565.508L565.785 79.9183H585.301L585.393 20.0683H576.023H566.574L566.824 1.02631H576.168H622.621H622.608ZM622.608 1.02631H631.859L632.386 20.0683H623.016H604.198H585.38H576.01H557.192L557.547 1.02631H576.141H622.595H622.608ZM634.031 80.0104L634.61 100.882H624.779H575.431H555.678L556.073 80.0104H634.031Z" fill="#B540B4" stroke="#E792E8"/>
<path d="M718.963 1.10529L721.305 29.7933H711.791L711.054 20.1473H692.328L697.539 100.987H677.773L673.509 20.1473H654.691L655.086 29.7933H645.664L644.65 1.10529H718.963Z" fill="#B540B4" stroke="#E792E8"/>
<path d="M811.317 39.5577L814.041 59.534H737.005L735.215 39.5577H811.317Z" fill="#B540B4" stroke="#E792E8"/>
<path d="M885.709 10.6197H895.026L902.448 49.5459H892.907L894.749 59.5472H885.064L886.893 69.7722H896.644L898.539 80.0236H908.251L912.252 101.013H892.486L890.591 90.4065H880.813L879.01 80.0367H869.206L867.496 69.7854H848.191L853.06 101.013H833.294L818.884 1.10529H883.958L885.722 10.6197H885.709ZM883.274 49.5459L878.01 20.1604H840.453L845.032 49.5459H883.274Z" fill="#B540B4" stroke="#E792E8"/>
<path d="M980.326 1L984.998 20.042H928.609L932.715 39.5577H980.3L982.669 49.4406H973.036L975.391 59.5472H936.913L941.19 79.9183H999.671L1004.82 100.895H925.845L905.988 1H980.326Z" fill="#B540B4" stroke="#E792E8"/>
<path d="M1067.5 1.07895L1076.09 29.7801H1066.57L1063.75 20.1341H1045.01L1067.8 100.987H1048.03L1026.17 20.1341H1007.34L1009.84 29.7801H1000.42L993.157 1.09211H1067.51L1067.5 1.07895Z" fill="#B540B4" stroke="#E792E8"/>
<path d="M1148.72 10.5934H1158.03L1171.8 49.5195H1162.26L1165.75 59.5209H1156.05L1159.55 69.7459H1169.3L1172.86 79.9972H1182.58L1190 100.987H1170.22L1166.59 90.3802H1156.81L1153.32 79.9972H1143.51L1140.12 69.7459H1120.81L1130.77 100.987H1110.99L1080.3 1.07895H1145.4L1148.72 10.5934ZM1152.63 49.5195L1142.57 20.1209H1105L1114.37 49.5195H1152.63Z" fill="#B540B4" stroke="#E792E8"/>
<path d="M1236.4 10.5934H1245.72L1278.33 90.4855H1268.55L1272.77 101H1213.54L1209.67 90.4855H1199.8L1170.9 10.5934H1180.31L1176.81 1.07895H1232.57L1236.4 10.5934ZM1230.86 20.1341H1193.18L1215.54 80.0104H1254.61L1230.86 20.1341Z" fill="#B540B4" stroke="#E792E8"/>
</g>
<defs>
<filter id="filter0_d_171_370" x="0.298706" y="0.5" width="1278.77" height="106.013" filterUnits="userSpaceOnUse" color-interpolation-filters="sRGB">
<feFlood flood-opacity="0" result="BackgroundImageFix"/>
<feColorMatrix in="SourceAlpha" type="matrix" values="0 0 0 0 0 0 0 0 0 0 0 0 0 0 0 0 0 0 127 0" result="hardAlpha"/>
<feOffset dy="5"/>
<feComposite in2="hardAlpha" operator="out"/>
<feColorMatrix type="matrix" values="0 0 0 0 0.904788 0 0 0 0 0.571493 0 0 0 0 0.908333 0 0 0 1 0"/>
<feBlend mode="normal" in2="BackgroundImageFix" result="effect1_dropShadow_171_370"/>
<feBlend mode="normal" in="SourceGraphic" in2="effect1_dropShadow_171_370" result="shape"/>
</filter>
</defs>
</svg>
